<?xml version="1.0" encoding="utf-8" standalone="no"?>
<!DOCTYPE svg PUBLIC "-//W3C//DTD SVG 1.1//EN"
  "http://www.w3.org/Graphics/SVG/1.1/DTD/svg11.dtd">
<!-- Created with matplotlib (http://matplotlib.org/) -->
<svg height="880pt" version="1.1" viewBox="0 0 1731 880" width="1731pt" xmlns="http://www.w3.org/2000/svg" xmlns:xlink="http://www.w3.org/1999/xlink">
 <defs>
  <style type="text/css">
*{stroke-linecap:butt;stroke-linejoin:round;}
  </style>
 </defs>
 <g id="figure_1">
  <g id="patch_1">
   <path d="
M0 880.2
L1731.6 880.2
L1731.6 0
L0 0
z
" style="fill:#ffffff;"/>
  </g>
  <g id="axes_1">
   <g id="patch_2">
    <path d="
M167.727 753.719
L1670.12 753.719
L1670.12 83.6826
L167.727 83.6826
z
" style="fill:#ffffff;"/>
   </g>
   <g id="line2d_1">
    <path clip-path="url(#p72cdcb1821)" d="
M167.727 485.705
L169.213 485.584
L170.699 485.054
L172.185 483.806
L173.671 481.636
L175.157 478.482
L176.643 474.406
L178.129 469.553
L179.615 464.092
L182.587 451.85
L185.559 437.997
L187.045 430.317
L190.017 413.138
L192.989 393.699
L197.448 362.163
L203.392 318.445
L213.794 239.668
L216.766 219.225
L219.738 200.012
L222.71 182.025
L225.683 165.723
L227.169 158.419
L228.655 151.768
L230.141 145.795
L231.627 140.49
L233.113 135.822
L234.599 131.755
L236.085 128.269
L237.571 125.373
L239.057 123.102
L240.543 121.512
L242.029 120.658
L243.515 120.582
L245.001 121.297
L246.487 122.783
L247.973 124.994
L249.459 127.873
L250.945 131.37
L252.431 135.452
L253.917 140.116
L255.404 145.376
L256.89 151.259
L258.376 157.781
L259.862 164.94
L262.834 181.014
L265.806 198.98
L268.778 218.316
L271.75 238.799
L276.208 271.566
L286.611 350.561
L291.069 382.39
L294.041 402.413
L297.013 420.895
L299.985 437.358
L302.957 451.628
L304.443 457.948
L305.929 463.725
L307.415 468.94
L308.901 473.557
L310.387 477.529
L311.873 480.806
L313.36 483.353
L314.846 485.15
L316.332 486.203
L317.818 486.534
L319.304 486.174
L320.79 485.152
L322.276 483.481
L323.762 481.163
L325.248 478.182
L326.734 474.519
L328.22 470.162
L329.706 465.111
L331.192 459.391
L332.678 453.041
L335.65 438.674
L338.622 422.404
L341.594 404.439
L344.567 384.873
L347.539 363.946
L360.913 266.639
L363.885 247.008
L366.857 229.419
L368.343 221.635
L369.829 214.628
L371.315 208.454
L372.802 203.153
L374.288 198.758
L375.774 195.299
L377.26 192.812
L378.746 191.332
L380.232 190.894
L381.718 191.518
L383.204 193.208
L384.69 195.939
L386.176 199.664
L387.662 204.312
L389.148 209.804
L390.634 216.064
L392.12 223.024
L393.606 230.638
L396.578 247.723
L399.55 267.208
L402.523 288.98
L405.495 312.825
L408.467 338.495
L411.439 365.763
L415.897 408.903
L421.841 467.035
L426.299 508.057
L429.271 533.674
L432.244 557.842
L435.216 580.29
L438.188 600.523
L439.674 609.64
L441.16 618.015
L442.646 625.604
L444.132 632.374
L445.618 638.3
L447.104 643.359
L448.59 647.536
L450.076 650.819
L451.562 653.206
L453.048 654.704
L454.534 655.326
L456.02 655.096
L457.506 654.033
L458.992 652.153
L460.479 649.458
L461.965 645.937
L463.451 641.571
L464.937 636.335
L466.423 630.215
L467.909 623.211
L469.395 615.35
L470.881 606.683
L473.853 587.233
L476.825 565.494
L479.797 541.918
L482.769 516.664
L485.741 489.804
L490.2 447.229
L497.63 375.46
L502.088 334.626
L505.06 308.942
L508.032 284.903
L511.004 262.939
L513.976 243.471
L515.462 234.792
L516.948 226.872
L518.435 219.742
L519.921 213.43
L521.407 207.95
L522.893 203.31
L524.379 199.509
L525.865 196.543
L527.351 194.412
L528.837 193.119
L530.323 192.679
L531.809 193.111
L533.295 194.439
L534.781 196.683
L536.267 199.852
L537.753 203.934
L539.239 208.899
L540.725 214.698
L542.211 221.273
L543.697 228.563
L545.183 236.514
L548.156 254.266
L551.128 274.384
L554.1 296.751
L557.072 320.996
L563.016 372.36
L570.446 436.411
L574.904 472.879
L577.877 495.319
L580.849 515.658
L583.821 533.693
L586.793 549.435
L588.279 556.443
L589.765 562.852
L591.251 568.629
L592.737 573.734
L594.223 578.129
L595.709 581.779
L597.195 584.665
L598.681 586.776
L600.167 588.114
L601.653 588.685
L603.139 588.494
L604.625 587.543
L606.112 585.83
L607.598 583.347
L609.084 580.083
L610.57 576.033
L612.056 571.196
L613.542 565.583
L615.028 559.216
L616.514 552.129
L618 544.363
L620.972 526.994
L623.944 507.52
L626.916 486.321
L629.888 463.704
L634.346 427.665
L640.291 377.2
L646.235 326.988
L650.693 291.441
L653.665 269.409
L656.637 249.193
L659.609 231.217
L661.095 223.164
L662.581 215.759
L664.067 209.003
L665.554 202.895
L667.04 197.433
L668.526 192.626
L670.012 188.496
L671.498 185.076
L672.984 182.412
L674.47 180.547
L675.956 179.516
L677.442 179.339
L678.928 180.016
L680.414 181.526
L681.9 183.838
L683.386 186.913
L684.872 190.715
L686.358 195.219
L687.844 200.412
L689.33 206.289
L690.816 212.849
L692.302 220.085
L693.789 227.98
L696.761 245.61
L699.733 265.362
L702.705 286.848
L705.677 309.809
L710.135 346.551
L722.023 447.031
L726.482 482.002
L729.454 503.812
L732.426 523.8
L735.398 541.462
L736.884 549.335
L738.37 556.558
L739.856 563.135
L741.342 569.068
L742.828 574.351
L744.314 578.968
L745.8 582.893
L747.286 586.093
L748.772 588.539
L750.258 590.209
L751.744 591.096
L753.231 591.204
L754.717 590.546
L756.203 589.144
L757.689 587.016
L759.175 584.177
L760.661 580.637
L762.147 576.402
L763.633 571.48
L765.119 565.884
L766.605 559.637
L768.091 552.77
L771.063 537.337
L774.035 519.909
L777.007 500.724
L779.979 479.933
L782.952 457.737
L787.41 422.648
L797.812 339.905
L802.27 306.475
L805.242 285.831
L808.214 267.059
L811.187 250.472
L812.673 243.049
L814.159 236.221
L815.645 230
L817.131 224.403
L818.617 219.448
L820.103 215.162
L821.589 211.569
L823.075 208.695
L824.561 206.559
L826.047 205.172
L827.533 204.54
L829.019 204.658
L830.505 205.518
L831.991 207.109
L833.477 209.42
L834.963 212.437
L836.449 216.153
L837.935 220.556
L839.421 225.64
L840.908 231.393
L842.394 237.802
L843.88 244.847
L846.852 260.74
L849.824 278.806
L852.796 298.709
L855.768 320.09
L860.226 354.171
L867.656 413.582
L873.601 460.437
L876.573 482.641
L879.545 503.516
L882.517 522.71
L885.489 539.938
L888.461 554.973
L889.947 561.604
L891.433 567.608
L892.919 572.958
L894.405 577.627
L895.891 581.59
L897.377 584.828
L898.863 587.33
L900.35 589.093
L901.836 590.12
L903.322 590.418
L904.808 589.995
L906.294 588.855
L907.78 586.999
L909.266 584.422
L910.752 581.118
L912.238 577.082
L913.724 572.317
L915.21 566.836
L916.696 560.666
L918.182 553.845
L921.154 538.44
L924.126 520.991
L927.098 501.763
L930.071 480.911
L933.043 458.62
L937.501 423.286
L947.903 339.606
L952.361 305.807
L955.333 284.892
L958.306 265.727
L961.278 248.547
L964.25 233.499
L965.736 226.832
L967.222 220.781
L968.708 215.383
L970.194 210.679
L971.68 206.7
L973.166 203.469
L974.652 200.998
L976.138 199.287
L977.624 198.328
L979.11 198.112
L980.596 198.63
L982.082 199.878
L983.568 201.854
L985.054 204.562
L986.54 208.001
L988.027 212.168
L989.513 217.051
L990.999 222.631
L992.485 228.883
L993.971 235.775
L995.457 243.275
L998.429 259.974
L1001.4 278.728
L1004.37 299.255
L1007.35 321.205
L1011.8 355.967
L1026.66 474.388
L1029.64 495.665
L1032.61 515.383
L1035.58 533.317
L1038.55 549.156
L1040.04 556.176
L1041.52 562.541
L1043.01 568.222
L1044.5 573.202
L1045.98 577.474
L1047.47 581.036
L1048.95 583.888
L1050.44 586.026
L1051.93 587.44
L1053.41 588.116
L1054.9 588.038
L1056.38 587.192
L1057.87 585.576
L1059.36 583.195
L1060.84 580.069
L1062.33 576.226
L1063.82 571.696
L1065.3 566.506
L1066.79 560.678
L1068.27 554.226
L1069.76 547.156
L1071.25 539.477
L1074.22 522.35
L1077.19 503.096
L1080.16 482.143
L1084.62 448.499
L1089.08 413.039
L1099.48 329.215
L1102.45 306.986
L1105.42 286.065
L1108.4 266.665
L1111.37 249.123
L1112.85 241.177
L1114.34 233.844
L1115.83 227.157
L1117.31 221.14
L1118.8 215.807
L1120.29 211.162
L1121.77 207.212
L1123.26 203.962
L1124.74 201.426
L1126.23 199.617
L1127.72 198.553
L1129.2 198.248
L1130.69 198.709
L1132.17 199.936
L1133.66 201.921
L1135.15 204.65
L1136.63 208.103
L1138.12 212.265
L1139.6 217.119
L1141.09 222.652
L1142.58 228.851
L1144.06 235.7
L1145.55 243.178
L1148.52 259.904
L1151.49 278.724
L1154.46 299.287
L1157.44 321.275
L1161.89 356.302
L1175.27 464.485
L1178.24 486.727
L1181.21 507.574
L1184.19 526.66
L1187.16 543.66
L1188.64 551.298
L1190.13 558.329
L1191.62 564.731
L1193.1 570.485
L1194.59 575.569
L1196.07 579.961
L1197.56 583.642
L1199.05 586.594
L1200.53 588.804
L1202.02 590.261
L1203.5 590.962
L1204.99 590.905
L1206.48 590.091
L1207.96 588.524
L1209.45 586.208
L1210.93 583.148
L1212.42 579.354
L1213.91 574.84
L1215.39 569.626
L1216.88 563.735
L1218.36 557.196
L1219.85 550.04
L1222.82 533.996
L1225.79 515.823
L1228.77 495.735
L1231.74 474.007
L1236.2 439.193
L1252.54 308.344
L1255.52 287.128
L1258.49 267.626
L1261.46 250.059
L1264.43 234.641
L1265.92 227.824
L1267.4 221.651
L1268.89 216.158
L1270.38 211.374
L1271.86 207.318
L1273.35 204.002
L1274.83 201.428
L1276.32 199.592
L1277.81 198.494
L1279.29 198.132
L1280.78 198.511
L1282.26 199.635
L1283.75 201.513
L1285.24 204.149
L1286.72 207.538
L1288.21 211.669
L1289.69 216.521
L1291.18 222.065
L1292.67 228.27
L1294.15 235.1
L1295.64 242.527
L1298.61 259.063
L1301.58 277.683
L1304.56 298.158
L1307.53 320.167
L1311.99 355.195
L1326.85 474.54
L1329.82 496.096
L1332.79 516.098
L1335.76 534.268
L1338.73 550.296
L1340.22 557.408
L1341.71 563.875
L1343.19 569.67
L1344.68 574.775
L1346.16 579.179
L1347.65 582.874
L1349.14 585.851
L1350.62 588.104
L1352.11 589.622
L1353.6 590.393
L1355.08 590.403
L1356.57 589.646
L1358.05 588.117
L1359.54 585.821
L1361.03 582.772
L1362.51 578.99
L1364 574.498
L1365.48 569.324
L1366.97 563.49
L1368.46 557.019
L1369.94 549.931
L1372.91 533.976
L1375.89 515.813
L1378.86 495.72
L1381.83 474.063
L1386.29 439.464
L1392.23 391.119
L1398.18 342.856
L1402.63 308.635
L1405.61 287.402
L1408.58 267.776
L1411.55 250.064
L1414.52 234.587
L1416.01 227.776
L1417.5 221.62
L1418.98 216.139
L1420.47 211.349
L1421.95 207.261
L1423.44 203.884
L1424.93 201.229
L1426.41 199.306
L1427.9 198.127
L1429.38 197.703
L1430.87 198.041
L1432.36 199.145
L1433.84 201.014
L1435.33 203.639
L1436.81 207.006
L1438.3 211.096
L1439.79 215.889
L1441.27 221.361
L1442.76 227.489
L1444.24 234.251
L1445.73 241.624
L1448.7 258.108
L1451.67 276.718
L1454.65 297.167
L1457.62 319.113
L1462.08 354.045
L1476.94 473.489
L1479.91 495.133
L1482.88 515.201
L1485.85 533.408
L1488.83 549.487
L1490.31 556.649
L1491.8 563.187
L1493.28 569.072
L1494.77 574.28
L1496.26 578.788
L1497.74 582.579
L1499.23 585.638
L1500.71 587.954
L1502.2 589.52
L1503.69 590.332
L1505.17 590.388
L1506.66 589.689
L1508.14 588.238
L1509.63 586.041
L1511.12 583.105
L1512.6 579.441
L1514.09 575.061
L1515.57 569.981
L1517.06 564.219
L1518.55 557.799
L1520.03 550.746
L1523 534.851
L1525.98 516.789
L1528.95 496.845
L1531.92 475.325
L1536.38 440.813
L1543.81 380.298
L1549.75 332.564
L1552.73 309.951
L1555.7 288.644
L1558.67 268.967
L1561.64 251.221
L1564.61 235.677
L1566.1 228.807
L1567.59 222.575
L1569.07 217.004
L1570.56 212.118
L1572.04 207.936
L1573.53 204.473
L1575.02 201.743
L1576.5 199.757
L1577.99 198.523
L1579.47 198.046
L1580.96 198.326
L1582.45 199.363
L1583.93 201.152
L1585.42 203.687
L1586.9 206.957
L1588.39 210.949
L1589.88 215.649
L1591.36 221.038
L1592.85 227.096
L1594.34 233.799
L1595.82 241.123
L1598.79 257.514
L1601.77 276.014
L1604.74 296.337
L1607.71 318.172
L1612.17 353.022
L1627.03 472.4
L1630 494.116
L1632.97 514.295
L1635.94 532.609
L1638.92 548.772
L1640.4 555.971
L1641.89 562.549
L1643.37 568.483
L1644.86 573.75
L1646.35 578.33
L1647.83 582.203
L1649.32 585.35
L1650.81 587.755
L1652.29 589.405
L1653.78 590.293
L1655.26 590.416
L1656.75 589.777
L1658.24 588.384
L1659.72 586.246
L1661.21 583.376
L1662.69 579.786
L1664.18 575.488
L1665.67 570.495
L1667.15 564.821
L1668.64 558.482
L1670.12 551.498
L1670.12 551.498" style="fill:none;stroke:#0000ff;stroke-linecap:square;"/>
   </g>
   <g id="line2d_2">
    <path clip-path="url(#p72cdcb1821)" d="
M167.727 485.705
L185.559 485.647
L188.531 485.456
L190.017 485.231
L191.503 484.85
L192.989 484.239
L194.475 483.305
L195.962 481.939
L197.448 480.028
L198.934 477.46
L200.42 474.139
L201.906 470
L203.392 465.015
L204.878 459.201
L206.364 452.618
L207.85 445.358
L210.822 429.251
L213.794 411.665
L216.766 392.942
L219.738 372.961
L222.71 351.556
L227.169 317.457
L233.113 272.051
L237.571 239.686
L242.029 208.892
L245.001 189.92
L247.973 172.946
L249.459 165.328
L250.945 158.296
L252.431 151.83
L253.917 145.908
L255.404 140.519
L256.89 135.678
L258.376 131.42
L259.862 127.802
L261.348 124.884
L262.834 122.715
L264.32 121.323
L265.806 120.706
L267.292 120.835
L268.778 121.67
L270.264 123.164
L271.75 125.286
L273.236 128.026
L274.722 131.391
L276.208 135.408
L277.694 140.1
L279.18 145.481
L280.666 151.544
L282.152 158.252
L285.125 173.368
L288.097 190.327
L291.069 208.809
L294.041 228.746
L297.013 250.05
L302.957 295.052
L310.387 350.991
L314.846 383.081
L317.818 403.066
L320.79 421.344
L323.762 437.692
L326.734 452.102
L328.22 458.568
L329.706 464.507
L331.192 469.88
L332.678 474.645
L334.164 478.77
L335.65 482.239
L337.136 485.059
L338.622 487.259
L340.108 488.877
L341.594 489.958
L343.081 490.535
L344.567 490.63
L346.053 490.249
L347.539 489.39
L349.025 488.049
L350.511 486.23
L351.997 483.949
L353.483 481.239
L354.969 478.14
L356.455 474.69
L357.941 470.922
L360.913 462.463
L363.885 452.672
L366.857 441.37
L369.829 428.582
L372.802 414.626
L377.26 392.43
L386.176 347.46
L389.148 333.73
L392.12 321.302
L395.092 310.32
L396.578 305.396
L398.064 300.881
L399.55 296.815
L401.037 293.256
L402.523 290.264
L404.009 287.895
L405.495 286.187
L406.981 285.154
L408.467 284.786
L409.953 285.048
L411.439 285.892
L412.925 287.268
L414.411 289.131
L415.897 291.45
L417.383 294.206
L418.869 297.391
L420.355 301.005
L421.841 305.045
L423.327 309.507
L424.813 314.38
L427.785 325.314
L430.758 337.77
L433.73 351.709
L436.702 367.024
L441.16 391.855
L454.534 468.074
L457.506 484.038
L460.479 499.009
L463.451 512.762
L466.423 525.229
L469.395 536.313
L470.881 541.254
L472.367 545.733
L473.853 549.701
L475.339 553.121
L476.825 555.977
L478.311 558.269
L479.797 560.018
L481.283 561.253
L482.769 562.003
L484.255 562.288
L485.741 562.109
L487.227 561.456
L488.714 560.304
L490.2 558.622
L491.686 556.388
L493.172 553.589
L494.658 550.23
L496.144 546.334
L497.63 541.933
L499.116 537.071
L502.088 526.119
L505.06 513.738
L508.032 500.082
L511.004 485.266
L513.976 469.432
L518.435 444.203
L530.323 375.413
L534.781 351.452
L537.753 336.301
L540.725 322.114
L543.697 309.288
L546.669 298.094
L548.156 293.123
L549.642 288.549
L551.128 284.358
L552.614 280.544
L554.1 277.118
L555.586 274.109
L557.072 271.56
L558.558 269.518
L560.044 268.023
L561.53 267.103
L563.016 266.764
L564.502 266.994
L565.988 267.766
L567.474 269.05
L568.96 270.816
L570.446 273.047
L571.932 275.738
L573.418 278.893
L574.904 282.52
L576.39 286.621
L577.877 291.186
L579.363 296.19
L582.335 307.343
L585.307 319.676
L588.279 332.845
L592.737 353.79
L598.681 383.162
L604.625 412.335
L609.084 433.09
L612.056 446.062
L615.028 458.056
L618 468.86
L620.972 478.368
L622.458 482.623
L623.944 486.535
L625.43 490.088
L626.916 493.261
L628.402 496.028
L629.888 498.363
L631.374 500.244
L632.86 501.656
L634.346 502.594
L635.833 503.058
L637.319 503.053
L638.805 502.585
L640.291 501.658
L641.777 500.271
L643.263 498.423
L644.749 496.114
L646.235 493.349
L647.721 490.143
L649.207 486.519
L650.693 482.508
L653.665 473.459
L656.637 463.222
L659.609 451.893
L662.581 439.476
L665.554 426.038
L670.012 404.493
L680.414 353.228
L684.872 332.619
L687.844 319.837
L690.816 308.036
L693.789 297.365
L696.761 287.979
L698.247 283.826
L699.733 280.064
L701.219 276.717
L702.705 273.803
L704.191 271.335
L705.677 269.324
L707.163 267.77
L708.649 266.676
L710.135 266.039
L711.621 265.856
L713.107 266.126
L714.593 266.845
L716.079 268.013
L717.565 269.627
L719.051 271.687
L720.537 274.189
L722.023 277.13
L723.51 280.506
L724.996 284.309
L726.482 288.529
L727.968 293.151
L730.94 303.524
L733.912 315.233
L736.884 328.07
L739.856 341.859
L744.314 364
L751.744 402.888
L757.689 433.299
L762.147 454.701
L765.119 467.861
L768.091 479.765
L771.063 490.196
L772.549 494.84
L774.035 499.109
L775.521 503.007
L777.007 506.531
L778.493 509.668
L779.979 512.398
L781.465 514.693
L782.952 516.524
L784.438 517.872
L785.924 518.727
L787.41 519.092
L788.896 518.983
L790.382 518.42
L791.868 517.423
L793.354 516.007
L794.84 514.176
L796.326 511.926
L797.812 509.248
L799.298 506.132
L800.784 502.574
L802.27 498.583
L803.756 494.176
L806.728 484.23
L809.7 472.982
L812.673 460.613
L815.645 447.232
L820.103 425.651
L834.963 351.331
L837.935 337.574
L840.908 324.903
L843.88 313.506
L846.852 303.384
L849.824 294.537
L851.31 290.641
L852.796 287.144
L854.282 284.087
L855.768 281.504
L857.254 279.415
L858.74 277.823
L860.226 276.715
L861.712 276.07
L863.198 275.863
L864.684 276.08
L866.17 276.717
L867.656 277.784
L869.142 279.301
L870.629 281.291
L872.115 283.77
L873.601 286.741
L875.087 290.19
L876.573 294.087
L878.059 298.394
L881.031 308.066
L884.003 318.949
L886.975 330.939
L889.947 343.992
L892.919 357.967
L897.377 380.045
L909.266 439.619
L912.238 453.417
L915.21 466.259
L918.182 478.001
L921.154 488.532
L924.126 497.691
L925.612 501.688
L927.098 505.265
L928.585 508.402
L930.071 511.089
L931.557 513.322
L933.043 515.101
L934.529 516.425
L936.015 517.292
L937.501 517.695
L938.987 517.623
L940.473 517.067
L941.959 516.019
L943.445 514.478
L944.931 512.454
L946.417 509.965
L947.903 507.035
L949.389 503.69
L950.875 499.951
L952.361 495.837
L953.847 491.356
L956.819 481.306
L959.792 469.836
L962.764 457.087
L965.736 443.343
L970.194 421.539
L976.138 391.233
L983.568 353.365
L986.54 339.117
L989.513 325.727
L992.485 313.334
L995.457 302.106
L998.429 292.265
L999.915 287.935
L1001.4 284.027
L1002.89 280.558
L1004.37 277.534
L1005.86 274.959
L1007.35 272.837
L1008.83 271.171
L1010.32 269.965
L1011.8 269.226
L1013.29 268.962
L1014.78 269.18
L1016.26 269.885
L1017.75 271.075
L1019.23 272.746
L1020.72 274.887
L1022.21 277.485
L1023.69 280.525
L1025.18 283.992
L1026.66 287.871
L1028.15 292.15
L1029.64 296.814
L1032.61 307.242
L1035.58 319.01
L1038.55 331.932
L1041.52 345.79
L1045.98 367.856
L1060.84 443.345
L1063.82 457.02
L1066.79 469.72
L1069.76 481.251
L1072.73 491.427
L1074.22 495.951
L1075.7 500.074
L1077.19 503.778
L1078.68 507.051
L1080.16 509.88
L1081.65 512.257
L1083.13 514.175
L1084.62 515.628
L1086.11 516.613
L1087.59 517.128
L1089.08 517.168
L1090.56 516.735
L1092.05 515.828
L1093.54 514.449
L1095.02 512.602
L1096.51 510.293
L1097.99 507.531
L1099.48 504.324
L1100.97 500.686
L1102.45 496.629
L1103.94 492.171
L1106.91 482.118
L1109.88 470.695
L1112.85 458.096
L1115.83 444.531
L1120.29 422.817
L1126.23 392.385
L1132.17 362.039
L1136.63 340.531
L1139.6 327.162
L1142.58 314.789
L1145.55 303.63
L1148.52 293.903
L1150.01 289.633
L1151.49 285.776
L1152.98 282.342
L1154.46 279.336
L1155.95 276.762
L1157.44 274.625
L1158.92 272.933
L1160.41 271.697
L1161.89 270.927
L1163.38 270.636
L1164.87 270.831
L1166.35 271.518
L1167.84 272.696
L1169.32 274.357
L1170.81 276.49
L1172.3 279.081
L1173.78 282.114
L1175.27 285.574
L1176.75 289.446
L1178.24 293.718
L1179.73 298.374
L1182.7 308.785
L1185.67 320.538
L1188.64 333.45
L1191.62 347.312
L1196.07 369.404
L1209.45 437.627
L1212.42 451.696
L1215.39 464.892
L1218.36 476.997
L1221.34 487.819
L1224.31 497.204
L1225.79 501.318
L1227.28 505.025
L1228.77 508.311
L1230.25 511.161
L1231.74 513.559
L1233.22 515.494
L1234.71 516.954
L1236.2 517.933
L1237.68 518.431
L1239.17 518.448
L1240.66 517.989
L1242.14 517.058
L1243.63 515.661
L1245.11 513.805
L1246.6 511.493
L1248.09 508.731
L1249.57 505.526
L1251.06 501.887
L1252.54 497.827
L1254.03 493.362
L1257 483.298
L1259.97 471.868
L1262.95 459.259
L1265.92 445.663
L1270.38 423.864
L1277.81 385.644
L1283.75 355.466
L1286.72 341.187
L1289.69 327.754
L1292.67 315.346
L1295.64 304.123
L1298.61 294.262
L1300.1 289.903
L1301.58 285.956
L1303.07 282.44
L1304.56 279.369
L1306.04 276.751
L1307.53 274.59
L1309.01 272.886
L1310.5 271.64
L1311.99 270.854
L1313.47 270.531
L1314.96 270.678
L1316.44 271.302
L1317.93 272.41
L1319.42 274.002
L1320.9 276.072
L1322.39 278.611
L1323.87 281.599
L1325.36 285.018
L1326.85 288.845
L1328.33 293.062
L1329.82 297.654
L1332.79 307.919
L1335.76 319.549
L1338.73 332.398
L1341.71 346.229
L1346.16 368.205
L1355.08 413.976
L1359.54 436.321
L1362.51 450.404
L1365.48 463.589
L1368.46 475.724
L1371.43 486.641
L1374.4 496.135
L1375.89 500.287
L1377.37 504.015
L1378.86 507.308
L1380.34 510.158
L1381.83 512.56
L1383.32 514.513
L1384.8 516.012
L1386.29 517.052
L1387.77 517.625
L1389.26 517.723
L1390.75 517.339
L1392.23 516.471
L1393.72 515.12
L1395.2 513.293
L1396.69 511.004
L1398.18 508.265
L1399.66 505.094
L1401.15 501.504
L1402.63 497.508
L1404.12 493.117
L1407.09 483.199
L1410.06 471.873
L1413.04 459.323
L1416.01 445.782
L1420.47 424.102
L1426.41 393.678
L1432.36 363.221
L1436.81 341.573
L1439.79 328.105
L1442.76 315.637
L1445.73 304.38
L1448.7 294.528
L1450.19 290.176
L1451.67 286.226
L1453.16 282.688
L1454.65 279.573
L1456.13 276.893
L1457.62 274.657
L1459.1 272.88
L1460.59 271.572
L1462.08 270.743
L1463.56 270.4
L1465.05 270.543
L1466.53 271.171
L1468.02 272.276
L1469.51 273.849
L1470.99 275.878
L1472.48 278.355
L1473.97 281.269
L1475.45 284.612
L1476.94 288.377
L1478.42 292.553
L1479.91 297.128
L1482.88 307.409
L1485.85 319.047
L1488.83 331.831
L1491.8 345.549
L1496.26 367.447
L1511.12 442.791
L1514.09 456.507
L1517.06 469.275
L1520.03 480.896
L1523 491.18
L1524.49 495.766
L1525.98 499.957
L1527.46 503.738
L1528.95 507.094
L1530.44 510.013
L1531.92 512.487
L1533.41 514.505
L1534.89 516.062
L1536.38 517.15
L1537.87 517.765
L1539.35 517.904
L1540.84 517.563
L1542.32 516.745
L1543.81 515.452
L1545.3 513.688
L1546.78 511.462
L1548.27 508.783
L1549.75 505.662
L1551.24 502.113
L1552.73 498.148
L1554.21 493.783
L1557.18 483.922
L1560.16 472.676
L1563.13 460.219
L1566.1 446.747
L1570.56 425.086
L1576.5 394.657
L1582.45 364.228
L1586.9 342.538
L1589.88 329.011
L1592.85 316.473
L1595.82 305.137
L1598.79 295.197
L1600.28 290.798
L1601.77 286.799
L1603.25 283.213
L1604.74 280.05
L1606.22 277.322
L1607.71 275.039
L1609.2 273.214
L1610.68 271.857
L1612.17 270.977
L1613.65 270.58
L1615.14 270.668
L1616.63 271.239
L1618.11 272.287
L1619.6 273.803
L1621.08 275.778
L1622.57 278.202
L1624.06 281.067
L1625.54 284.363
L1627.03 288.084
L1628.51 292.218
L1630 296.754
L1632.97 306.959
L1635.94 318.522
L1638.92 331.235
L1641.89 344.893
L1646.35 366.74
L1653.78 404.952
L1659.72 434.909
L1662.69 449.07
L1665.67 462.403
L1668.64 474.683
L1670.12 480.361
L1670.12 480.361" style="fill:none;stroke:#008000;stroke-linecap:square;"/>
   </g>
   <g id="line2d_3">
    <path clip-path="url(#p72cdcb1821)" d="
M167.727 485.705
L206.364 485.631
L209.336 485.477
L212.308 485.08
L213.794 484.712
L215.28 484.17
L216.766 483.393
L218.252 482.308
L219.738 480.833
L221.224 478.879
L222.71 476.357
L224.196 473.181
L225.683 469.278
L227.169 464.596
L228.655 459.107
L230.141 452.815
L231.627 445.755
L233.113 437.993
L236.085 420.724
L239.057 401.803
L243.515 371.645
L247.973 339.794
L252.431 306.061
L259.862 249.204
L262.834 228.115
L265.806 208.399
L268.778 190.005
L271.75 173.022
L274.722 157.862
L276.208 151.145
L277.694 145.088
L279.18 139.726
L280.666 135.072
L282.152 131.112
L283.639 127.82
L285.125 125.168
L286.611 123.136
L288.097 121.724
L289.583 120.952
L291.069 120.853
L292.555 121.47
L294.041 122.836
L295.527 124.972
L297.013 127.872
L298.499 131.509
L299.985 135.838
L301.471 140.806
L302.957 146.367
L304.443 152.487
L305.929 159.154
L307.415 166.373
L310.387 182.537
L313.36 201.058
L316.332 221.775
L319.304 244.313
L322.276 268.335
L325.248 293.735
L329.706 334.364
L341.594 446.489
L344.567 472.215
L347.539 496.237
L350.511 518.108
L353.483 537.413
L354.969 546.032
L356.455 553.956
L357.941 561.191
L359.427 567.739
L360.913 573.589
L362.399 578.713
L363.885 583.063
L365.371 586.581
L366.857 589.206
L368.343 590.892
L369.829 591.611
L371.315 591.362
L372.802 590.172
L374.288 588.082
L375.774 585.144
L377.26 581.402
L378.746 576.89
L380.232 571.624
L381.718 565.608
L383.204 558.836
L384.69 551.307
L386.176 543.028
L387.662 534.021
L390.634 513.991
L393.606 491.64
L396.578 467.411
L401.037 428.396
L414.411 307.633
L417.383 283.248
L420.355 260.908
L423.327 241.31
L424.813 232.714
L426.299 224.971
L427.785 218.092
L429.271 212.072
L430.758 206.898
L432.244 202.566
L433.73 199.08
L435.216 196.456
L436.702 194.72
L438.188 193.899
L439.674 194.01
L441.16 195.052
L442.646 197.003
L444.132 199.824
L445.618 203.463
L447.104 207.871
L448.59 213.008
L450.076 218.854
L451.562 225.407
L453.048 232.684
L454.534 240.705
L456.02 249.485
L457.506 259.023
L460.479 280.25
L463.451 303.934
L466.423 329.46
L470.881 370.098
L478.311 441.014
L484.255 496.645
L488.714 535.717
L491.686 559.891
L494.658 582.01
L497.63 601.547
L499.116 610.215
L500.602 618.102
L502.088 625.187
L503.574 631.456
L505.06 636.898
L506.546 641.501
L508.032 645.251
L509.518 648.13
L511.004 650.121
L512.49 651.204
L513.976 651.362
L515.462 650.582
L516.948 648.848
L518.435 646.154
L519.921 642.492
L521.407 637.863
L522.893 632.277
L524.379 625.752
L525.865 618.32
L527.351 610.026
L528.837 600.92
L531.809 580.502
L534.781 557.481
L537.753 532.158
L540.725 504.779
L545.183 460.706
L558.558 324.51
L563.016 282.328
L565.988 256.383
L568.96 232.761
L571.932 211.815
L573.418 202.435
L574.904 193.833
L576.39 186.048
L577.877 179.121
L579.363 173.085
L580.849 167.967
L582.335 163.78
L583.821 160.525
L585.307 158.195
L586.793 156.779
L588.279 156.269
L589.765 156.665
L591.251 157.973
L592.737 160.205
L594.223 163.374
L595.709 167.481
L597.195 172.517
L598.681 178.455
L600.167 185.25
L601.653 192.85
L603.139 201.201
L606.112 219.965
L609.084 241.265
L612.056 264.901
L615.028 290.536
L619.486 331.45
L634.346 470.644
L637.319 496.215
L640.291 519.841
L643.263 541.323
L646.235 560.581
L649.207 577.396
L650.693 584.761
L652.179 591.352
L653.665 597.117
L655.151 602.017
L656.637 606.032
L658.123 609.154
L659.609 611.387
L661.095 612.739
L662.581 613.215
L664.067 612.815
L665.554 611.537
L667.04 609.377
L668.526 606.334
L670.012 602.417
L671.498 597.644
L672.984 592.046
L674.47 585.656
L675.956 578.514
L677.442 570.656
L678.928 562.112
L681.9 543.065
L684.872 521.566
L687.844 497.88
L690.816 472.405
L695.275 431.849
L708.649 306.867
L711.621 281.379
L714.593 257.61
L717.565 235.873
L720.537 216.505
L722.023 207.817
L723.51 199.846
L724.996 192.622
L726.482 186.171
L727.968 180.514
L729.454 175.669
L730.94 171.655
L732.426 168.49
L733.912 166.193
L735.398 164.779
L736.884 164.258
L738.37 164.631
L739.856 165.889
L741.342 168.012
L742.828 170.976
L744.314 174.752
L745.8 179.318
L747.286 184.656
L748.772 190.757
L750.258 197.618
L751.744 205.234
L753.231 213.598
L754.717 222.692
L757.689 242.924
L760.661 265.515
L763.633 289.962
L768.091 329.221
L772.549 370.684
L781.465 454.571
L785.924 493.773
L788.896 518.096
L791.868 540.569
L794.84 560.795
L797.812 578.412
L799.298 586.161
L800.784 593.177
L802.27 599.443
L803.756 604.943
L805.242 609.662
L806.728 613.578
L808.214 616.67
L809.7 618.916
L811.187 620.298
L812.673 620.804
L814.159 620.432
L815.645 619.187
L817.131 617.084
L818.617 614.144
L820.103 610.388
L821.589 605.839
L823.075 600.518
L824.561 594.441
L826.047 587.625
L827.533 580.086
L829.019 571.839
L831.991 553.314
L834.963 532.298
L837.935 509.132
L840.908 484.225
L845.366 444.522
L860.226 308.479
L863.198 283.752
L866.17 260.807
L869.142 239.996
L872.115 221.621
L873.601 213.43
L875.087 205.941
L876.573 199.18
L878.059 193.172
L879.545 187.939
L881.031 183.505
L882.517 179.889
L884.003 177.11
L885.489 175.186
L886.975 174.125
L888.461 173.933
L889.947 174.609
L891.433 176.145
L892.919 178.53
L894.405 181.748
L895.891 185.783
L897.377 190.622
L898.863 196.248
L900.35 202.647
L901.836 209.8
L903.322 217.685
L904.808 226.27
L907.78 245.385
L910.752 266.767
L913.724 290.017
L916.696 314.801
L921.154 354.246
L934.529 475.862
L937.501 500.694
L940.473 523.988
L943.445 545.351
L946.417 564.368
L947.903 572.891
L949.389 580.715
L950.875 587.821
L952.361 594.191
L953.847 599.806
L955.333 604.649
L956.819 608.695
L958.306 611.92
L959.792 614.302
L961.278 615.823
L962.764 616.472
L964.25 616.249
L965.736 615.163
L967.222 613.226
L968.708 610.456
L970.194 606.869
L971.68 602.479
L973.166 597.296
L974.652 591.333
L976.138 584.603
L977.624 577.128
L979.11 568.935
L982.082 550.551
L985.054 529.802
L988.027 507.031
L990.999 482.518
L995.457 443.128
L1010.32 307.421
L1013.29 282.524
L1016.26 259.287
L1019.23 238.161
L1022.21 219.492
L1023.69 211.154
L1025.18 203.512
L1026.66 196.587
L1028.15 190.405
L1029.64 184.995
L1031.12 180.384
L1032.61 176.6
L1034.09 173.663
L1035.58 171.589
L1037.07 170.384
L1038.55 170.046
L1040.04 170.571
L1041.52 171.949
L1043.01 174.172
L1044.5 177.232
L1045.98 181.12
L1047.47 185.828
L1048.95 191.344
L1050.44 197.649
L1051.93 204.719
L1053.41 212.523
L1054.9 221.025
L1057.87 239.96
L1060.84 261.2
L1063.82 284.439
L1066.79 309.37
L1071.25 349.158
L1084.62 472.009
L1087.59 497.281
L1090.56 520.98
L1093.54 542.743
L1096.51 562.212
L1097.99 570.98
L1099.48 579.055
L1100.97 586.406
L1102.45 593.006
L1103.94 598.836
L1105.42 603.877
L1106.91 608.117
L1108.4 611.542
L1109.88 614.138
L1111.37 615.892
L1112.85 616.792
L1114.34 616.829
L1115.83 615.996
L1117.31 614.297
L1118.8 611.739
L1120.29 608.337
L1121.77 604.11
L1123.26 599.078
L1124.74 593.264
L1126.23 586.688
L1127.72 579.371
L1129.2 571.335
L1130.69 562.602
L1133.66 543.172
L1136.63 521.396
L1139.6 497.675
L1142.58 472.42
L1147.03 432.451
L1160.41 309.908
L1163.38 284.983
L1166.35 261.706
L1169.32 240.427
L1172.3 221.519
L1173.78 213.061
L1175.27 205.314
L1176.75 198.305
L1178.24 192.056
L1179.73 186.584
L1181.21 181.907
L1182.7 178.039
L1184.19 174.997
L1185.67 172.796
L1187.16 171.448
L1188.64 170.964
L1190.13 171.349
L1191.62 172.603
L1193.1 174.722
L1194.59 177.695
L1196.07 181.51
L1197.56 186.149
L1199.05 191.594
L1200.53 197.824
L1202.02 204.814
L1203.5 212.535
L1204.99 220.958
L1207.96 239.768
L1210.93 260.947
L1213.91 284.185
L1216.88 309.149
L1221.34 348.993
L1234.71 472.069
L1237.68 497.511
L1240.66 521.351
L1243.63 543.184
L1246.6 562.695
L1248.09 571.499
L1249.57 579.632
L1251.06 587.064
L1252.54 593.764
L1254.03 599.702
L1255.52 604.848
L1257 609.177
L1258.49 612.668
L1259.97 615.307
L1261.46 617.087
L1262.95 618.005
L1264.43 618.062
L1265.92 617.26
L1267.4 615.605
L1268.89 613.099
L1270.38 609.751
L1271.86 605.57
L1273.35 600.568
L1274.83 594.766
L1276.32 588.188
L1277.81 580.861
L1279.29 572.817
L1282.26 554.708
L1285.24 534.13
L1288.21 511.373
L1291.18 486.788
L1295.64 447.389
L1303.07 378.453
L1309.01 323.931
L1311.99 298.101
L1314.96 273.801
L1317.93 251.376
L1320.9 231.13
L1323.87 213.369
L1325.36 205.519
L1326.85 198.403
L1328.33 192.052
L1329.82 186.489
L1331.3 181.734
L1332.79 177.799
L1334.28 174.697
L1335.76 172.435
L1337.25 171.024
L1338.73 170.472
L1340.22 170.784
L1341.71 171.964
L1343.19 174.01
L1344.68 176.914
L1346.16 180.662
L1347.65 185.233
L1349.14 190.605
L1350.62 196.755
L1352.11 203.657
L1353.6 211.288
L1355.08 219.624
L1358.05 238.3
L1361.03 259.421
L1364 282.641
L1366.97 307.562
L1371.43 347.271
L1386.29 483.389
L1389.26 508.125
L1392.23 531.132
L1395.2 552.025
L1398.18 570.445
L1399.66 578.636
L1401.15 586.11
L1402.63 592.845
L1404.12 598.82
L1405.61 604.015
L1407.09 608.41
L1408.58 611.983
L1410.06 614.715
L1411.55 616.589
L1413.04 617.595
L1414.52 617.727
L1416.01 616.99
L1417.5 615.392
L1418.98 612.944
L1420.47 609.661
L1421.95 605.556
L1423.44 600.642
L1424.93 594.933
L1426.41 588.444
L1427.9 581.195
L1429.38 573.213
L1430.87 564.529
L1433.84 545.219
L1436.81 523.606
L1439.79 500.035
L1442.76 474.827
L1447.22 434.738
L1460.59 311.854
L1463.56 286.66
L1466.53 263.14
L1469.51 241.691
L1472.48 222.618
L1473.97 214.048
L1475.45 206.16
L1476.94 198.984
L1478.42 192.554
L1479.91 186.901
L1481.4 182.056
L1482.88 178.043
L1484.37 174.878
L1485.85 172.57
L1487.34 171.121
L1488.83 170.527
L1490.31 170.785
L1491.8 171.889
L1493.28 173.84
L1494.77 176.635
L1496.26 180.273
L1497.74 184.749
L1499.23 190.05
L1500.71 196.154
L1502.2 203.031
L1503.69 210.646
L1505.17 218.96
L1508.14 237.535
L1511.12 258.482
L1514.09 281.551
L1517.06 306.425
L1521.52 346.171
L1536.38 482.342
L1539.35 507.161
L1542.32 530.164
L1545.3 551.069
L1548.27 569.629
L1549.75 577.939
L1551.24 585.546
L1552.73 592.408
L1554.21 598.487
L1555.7 603.756
L1557.18 608.195
L1558.67 611.795
L1560.16 614.554
L1561.64 616.473
L1563.13 617.552
L1564.61 617.79
L1566.1 617.181
L1567.59 615.719
L1569.07 613.397
L1570.56 610.216
L1572.04 606.183
L1573.53 601.314
L1575.02 595.635
L1576.5 589.177
L1577.99 581.973
L1579.47 574.058
L1582.45 556.221
L1585.42 535.903
L1588.39 513.368
L1591.36 488.959
L1595.82 449.745
L1601.77 394.781
L1609.2 326.341
L1612.17 300.463
L1615.14 276.049
L1618.11 253.438
L1621.08 232.965
L1624.06 214.974
L1625.54 207.009
L1627.03 199.777
L1628.51 193.303
L1630 187.608
L1631.49 182.71
L1632.97 178.623
L1634.46 175.361
L1635.94 172.936
L1637.43 171.362
L1638.92 170.649
L1640.4 170.804
L1641.89 171.828
L1643.37 173.718
L1644.86 176.463
L1646.35 180.049
L1647.83 184.458
L1649.32 189.67
L1650.81 195.665
L1652.29 202.423
L1653.78 209.921
L1655.26 218.134
L1658.24 236.584
L1661.21 257.487
L1664.18 280.492
L1667.15 305.226
L1670.12 331.321
L1670.12 331.321" style="fill:none;stroke:#ff0000;stroke-linecap:square;"/>
   </g>
   <g id="line2d_4">
    <path clip-path="url(#p72cdcb1821)" d="
M167.727 485.705
L228.655 485.598
L231.627 485.427
L234.599 485.041
L236.085 484.707
L237.571 484.234
L239.057 483.577
L240.543 482.682
L242.029 481.486
L243.515 479.921
L245.001 477.909
L246.487 475.375
L247.973 472.241
L249.459 468.44
L250.945 463.915
L252.431 458.625
L253.917 452.553
L255.404 445.707
L256.89 438.119
L259.862 420.97
L262.834 401.777
L267.292 370.79
L273.236 327.703
L279.18 283.021
L285.125 238.587
L288.097 218.141
L291.069 199.733
L294.041 183.655
L295.527 176.527
L297.013 170.028
L298.499 164.189
L299.985 159.056
L301.471 154.693
L302.957 151.168
L304.443 148.549
L305.929 146.891
L307.415 146.222
L308.901 146.543
L310.387 147.826
L311.873 150.015
L313.36 153.042
L314.846 156.835
L316.332 161.333
L317.818 166.494
L319.304 172.297
L320.79 178.744
L322.276 185.85
L323.762 193.634
L325.248 202.108
L328.22 221.089
L331.192 242.517
L334.164 265.885
L338.622 303.491
L344.567 356.578
L351.997 423.082
L356.455 460.483
L359.427 483.829
L362.399 505.497
L365.371 524.945
L366.857 533.671
L368.343 541.67
L369.829 548.924
L371.315 555.436
L372.802 561.218
L374.288 566.285
L375.774 570.644
L377.26 574.285
L378.746 577.176
L380.232 579.274
L381.718 580.528
L383.204 580.893
L384.69 580.343
L386.176 578.876
L387.662 576.515
L389.148 573.307
L390.634 569.308
L392.12 564.571
L393.606 559.139
L395.092 553.034
L396.578 546.255
L398.064 538.793
L399.55 530.632
L401.037 521.769
L404.009 502.025
L406.981 479.974
L409.953 456.253
L414.411 418.63
L420.355 365.787
L426.299 312.654
L429.271 287.595
L432.244 264.172
L435.216 242.645
L438.188 223.36
L439.674 214.723
L441.16 206.862
L442.646 199.851
L444.132 193.752
L445.618 188.611
L447.104 184.451
L448.59 181.282
L450.076 179.102
L451.562 177.91
L453.048 177.702
L454.534 178.483
L456.02 180.257
L457.506 183.029
L458.992 186.794
L460.479 191.535
L461.965 197.222
L463.451 203.809
L464.937 211.238
L466.423 219.45
L469.395 238
L472.367 259.094
L475.339 282.484
L478.311 307.941
L481.283 335.14
L485.741 378.279
L496.144 481.258
L499.116 508.705
L502.088 534.26
L505.06 557.58
L508.032 578.441
L511.004 596.652
L512.49 604.698
L513.976 612.003
L515.462 618.539
L516.948 624.279
L518.435 629.197
L519.921 633.268
L521.407 636.468
L522.893 638.771
L524.379 640.159
L525.865 640.615
L527.351 640.131
L528.837 638.71
L530.323 636.364
L531.809 633.113
L533.295 628.985
L534.781 624.008
L536.267 618.21
L537.753 611.613
L539.239 604.233
L540.725 596.085
L542.211 587.184
L545.183 567.211
L548.156 544.594
L551.128 519.775
L554.1 493.262
L558.558 451.276
L573.418 307.716
L576.39 281.574
L579.363 257.373
L582.335 235.586
L585.307 216.546
L586.793 208.107
L588.279 200.398
L589.765 193.428
L591.251 187.21
L592.737 181.771
L594.223 177.149
L595.709 173.389
L597.195 170.537
L598.681 168.634
L600.167 167.701
L601.653 167.742
L603.139 168.742
L604.625 170.668
L606.112 173.481
L607.598 177.142
L609.084 181.62
L610.57 186.895
L612.056 192.957
L613.542 199.805
L615.028 207.433
L616.514 215.832
L618 224.976
L620.972 245.334
L623.944 268.075
L626.916 292.716
L631.374 332.322
L638.805 401.823
L644.749 456.289
L647.721 482.021
L650.693 506.203
L653.665 528.366
L656.637 548.132
L659.609 565.303
L661.095 572.89
L662.581 579.795
L664.067 586
L665.554 591.473
L667.04 596.178
L668.526 600.08
L670.012 603.145
L671.498 605.354
L672.984 606.703
L674.47 607.199
L675.956 606.86
L677.442 605.704
L678.928 603.747
L680.414 600.994
L681.9 597.444
L683.386 593.089
L684.872 587.924
L686.358 581.952
L687.844 575.191
L689.33 567.675
L690.816 559.455
L693.789 541.132
L696.761 520.659
L699.733 498.334
L702.705 474.364
L707.163 436.016
L722.023 304.948
L724.996 280.792
L727.968 258.455
L730.94 238.342
L733.912 220.65
L735.398 212.752
L736.884 205.517
L738.37 198.977
L739.856 193.169
L741.342 188.13
L742.828 183.892
L744.314 180.475
L745.8 177.887
L747.286 176.126
L748.772 175.185
L750.258 175.053
L751.744 175.725
L753.231 177.2
L754.717 179.484
L756.203 182.582
L757.689 186.499
L759.175 191.229
L760.661 196.758
L762.147 203.06
L763.633 210.099
L765.119 217.836
L768.091 235.246
L771.063 254.997
L774.035 276.827
L777.007 300.436
L781.465 338.357
L787.41 391.541
L793.354 444.791
L797.812 482.57
L800.784 506.032
L803.756 527.827
L806.728 547.66
L809.7 565.122
L811.187 572.832
L812.673 579.807
L814.159 586.025
L815.645 591.478
L817.131 596.167
L818.617 600.096
L820.103 603.268
L821.589 605.676
L823.075 607.305
L824.561 608.132
L826.047 608.137
L827.533 607.302
L829.019 605.626
L830.505 603.119
L831.991 599.807
L833.477 595.723
L834.963 590.9
L836.449 585.368
L837.935 579.148
L839.421 572.252
L840.908 564.685
L842.394 556.456
L845.366 538.099
L848.338 517.497
L851.31 495.135
L855.768 459.212
L860.226 421.086
L870.629 330.163
L873.601 305.972
L876.573 283.122
L879.545 261.841
L882.517 242.521
L885.489 225.619
L886.975 218.187
L888.461 211.469
L889.947 205.476
L891.433 200.215
L892.919 195.692
L894.405 191.915
L895.891 188.9
L897.377 186.667
L898.863 185.233
L900.35 184.614
L901.836 184.818
L903.322 185.841
L904.808 187.674
L906.294 190.3
L907.78 193.703
L909.266 197.868
L910.752 202.783
L912.238 208.439
L913.724 214.827
L915.21 221.933
L916.696 229.736
L919.668 247.299
L922.64 267.17
L925.612 288.954
L928.585 312.307
L933.043 349.631
L947.903 477.895
L950.875 501.283
L953.847 523.086
L956.819 542.937
L959.792 560.503
L961.278 568.34
L962.764 575.501
L964.25 581.959
L965.736 587.685
L967.222 592.657
L968.708 596.857
L970.194 600.273
L971.68 602.898
L973.166 604.729
L974.652 605.765
L976.138 606.005
L977.624 605.446
L979.11 604.086
L980.596 601.921
L982.082 598.95
L983.568 595.177
L985.054 590.616
L986.54 585.286
L988.027 579.216
L989.513 572.439
L990.999 564.987
L993.971 548.194
L996.943 529.065
L999.915 507.822
L1002.89 484.765
L1007.35 447.692
L1013.29 395.82
L1020.72 330.932
L1023.69 306.293
L1026.66 283.072
L1029.64 261.578
L1032.61 242.053
L1035.58 224.777
L1037.07 217.085
L1038.55 210.078
L1040.04 203.792
L1041.52 198.253
L1043.01 193.478
L1044.5 189.478
L1045.98 186.258
L1047.47 183.823
L1048.95 182.181
L1050.44 181.342
L1051.93 181.318
L1053.41 182.12
L1054.9 183.753
L1056.38 186.214
L1057.87 189.493
L1059.36 193.569
L1060.84 198.417
L1062.33 204.006
L1063.82 210.312
L1065.3 217.309
L1066.79 224.977
L1069.76 242.248
L1072.73 261.925
L1075.7 283.694
L1078.68 307.146
L1083.13 344.594
L1089.08 396.951
L1095.02 449.195
L1099.48 486.252
L1102.45 509.299
L1105.42 530.62
L1108.4 549.823
L1111.37 566.541
L1112.85 573.887
L1114.34 580.53
L1115.83 586.458
L1117.31 591.66
L1118.8 596.121
L1120.29 599.823
L1121.77 602.744
L1123.26 604.858
L1124.74 606.144
L1126.23 606.589
L1127.72 606.188
L1129.2 604.947
L1130.69 602.882
L1132.17 600.014
L1133.66 596.367
L1135.15 591.962
L1136.63 586.816
L1138.12 580.941
L1139.6 574.351
L1141.09 567.057
L1142.58 559.081
L1145.55 541.195
L1148.52 521.002
L1151.49 498.872
L1154.46 475.156
L1158.92 437.316
L1172.3 320.253
L1175.27 296.099
L1178.24 273.406
L1181.21 252.574
L1184.19 233.96
L1185.67 225.575
L1187.16 217.841
L1188.64 210.784
L1190.13 204.428
L1191.62 198.796
L1193.1 193.913
L1194.59 189.801
L1196.07 186.479
L1197.56 183.965
L1199.05 182.267
L1200.53 181.391
L1202.02 181.339
L1203.5 182.108
L1204.99 183.694
L1206.48 186.093
L1207.96 189.296
L1209.45 193.295
L1210.93 198.075
L1212.42 203.617
L1213.91 209.896
L1215.39 216.885
L1216.88 224.552
L1219.85 241.793
L1222.82 261.376
L1225.79 283.054
L1228.77 306.52
L1233.22 344.172
L1240.66 409.861
L1246.6 461.803
L1249.57 486.453
L1252.54 509.615
L1255.52 530.935
L1258.49 550.157
L1261.46 567.038
L1262.95 574.513
L1264.43 581.293
L1265.92 587.342
L1267.4 592.63
L1268.89 597.136
L1270.38 600.846
L1271.86 603.755
L1273.35 605.86
L1274.83 607.161
L1276.32 607.656
L1277.81 607.343
L1279.29 606.215
L1280.78 604.267
L1282.26 601.5
L1283.75 597.918
L1285.24 593.535
L1286.72 588.372
L1288.21 582.458
L1289.69 575.823
L1291.18 568.499
L1292.67 560.517
L1295.64 542.69
L1298.61 522.563
L1301.58 500.41
L1304.56 476.59
L1309.01 438.65
L1323.87 308.841
L1326.85 285.292
L1329.82 263.426
L1332.79 243.548
L1335.76 225.965
L1337.25 218.129
L1338.73 210.979
L1340.22 204.543
L1341.71 198.848
L1343.19 193.912
L1344.68 189.753
L1346.16 186.384
L1347.65 183.816
L1349.14 182.057
L1350.62 181.114
L1352.11 180.994
L1353.6 181.696
L1355.08 183.219
L1356.57 185.558
L1358.05 188.704
L1359.54 192.643
L1361.03 197.36
L1362.51 202.838
L1364 209.056
L1365.48 215.991
L1366.97 223.617
L1369.94 240.82
L1372.91 260.386
L1375.89 281.999
L1378.86 305.329
L1383.32 342.799
L1389.26 395.367
L1395.2 447.807
L1399.66 485.139
L1402.63 508.371
L1405.61 529.833
L1408.58 549.175
L1411.55 566.112
L1413.04 573.606
L1414.52 580.417
L1416.01 586.518
L1417.5 591.883
L1418.98 596.485
L1420.47 600.302
L1421.95 603.313
L1423.44 605.504
L1424.93 606.868
L1426.41 607.402
L1427.9 607.112
L1429.38 606.005
L1430.87 604.09
L1432.36 601.377
L1433.84 597.874
L1435.33 593.589
L1436.81 588.534
L1438.3 582.721
L1439.79 576.168
L1441.27 568.902
L1442.76 560.952
L1445.73 543.151
L1448.7 523.081
L1451.67 501.059
L1454.65 477.394
L1459.1 439.555
L1473.97 309.759
L1476.94 286.123
L1479.91 264.155
L1482.88 244.208
L1485.85 226.582
L1487.34 218.72
L1488.83 211.531
L1490.31 205.045
L1491.8 199.285
L1493.28 194.278
L1494.77 190.045
L1496.26 186.603
L1497.74 183.968
L1499.23 182.148
L1500.71 181.149
L1502.2 180.973
L1503.69 181.617
L1505.17 183.079
L1506.66 185.351
L1508.14 188.426
L1509.63 192.292
L1511.12 196.937
L1512.6 202.344
L1514.09 208.495
L1515.57 215.366
L1517.06 222.931
L1518.55 231.16
L1521.52 249.475
L1524.49 270.015
L1527.46 292.459
L1530.44 316.466
L1534.89 354.614
L1548.27 471.844
L1551.24 495.86
L1554.21 518.307
L1557.18 538.838
L1560.16 557.138
L1561.64 565.362
L1563.13 572.927
L1564.61 579.803
L1566.1 585.964
L1567.59 591.385
L1569.07 596.044
L1570.56 599.922
L1572.04 603.003
L1573.53 605.275
L1575.02 606.73
L1576.5 607.363
L1577.99 607.176
L1579.47 606.169
L1580.96 604.347
L1582.45 601.718
L1583.93 598.289
L1585.42 594.071
L1586.9 589.078
L1588.39 583.328
L1589.88 576.842
L1591.36 569.647
L1592.85 561.774
L1595.82 544.129
L1598.79 524.199
L1601.77 502.277
L1604.74 478.674
L1609.2 440.895
L1624.06 311.101
L1627.03 287.375
L1630 265.318
L1632.97 245.286
L1635.94 227.565
L1637.43 219.646
L1638.92 212.392
L1640.4 205.831
L1641.89 199.993
L1643.37 194.903
L1644.86 190.586
L1646.35 187.062
L1647.83 184.345
L1649.32 182.445
L1650.81 181.364
L1652.29 181.103
L1653.78 181.659
L1655.26 183.029
L1656.75 185.209
L1658.24 188.193
L1659.72 191.973
L1661.21 196.539
L1662.69 201.876
L1664.18 207.961
L1665.67 214.77
L1667.15 222.273
L1668.64 230.435
L1670.12 239.223
L1670.12 239.223" style="fill:none;stroke:#00bfbf;stroke-linecap:square;"/>
   </g>
   <g id="line2d_5">
    <path clip-path="url(#p72cdcb1821)" d="
M167.727 485.705
L1670.12 485.705
L1670.12 485.705" style="fill:none;stroke:#bf00bf;stroke-linecap:square;"/>
   </g>
   <g id="patch_3">
    <path d="
M1670.12 753.719
L1670.12 83.6826" style="fill:none;stroke:#000000;stroke-linecap:square;stroke-linejoin:miter;"/>
   </g>
   <g id="patch_4">
    <path d="
M167.727 83.6826
L1670.12 83.6826" style="fill:none;stroke:#000000;stroke-linecap:square;stroke-linejoin:miter;"/>
   </g>
   <g id="patch_5">
    <path d="
M167.727 753.719
L167.727 83.6826" style="fill:none;stroke:#000000;stroke-linecap:square;stroke-linejoin:miter;"/>
   </g>
   <g id="patch_6">
    <path d="
M167.727 753.719
L1670.12 753.719" style="fill:none;stroke:#000000;stroke-linecap:square;stroke-linejoin:miter;"/>
   </g>
   <g id="matplotlib.axis_1">
    <g id="xtick_1">
     <g id="line2d_6">
      <path clip-path="url(#p72cdcb1821)" d="
M167.727 753.719
L167.727 83.6826" style="fill:none;stroke:#000000;stroke-dasharray:1.000000,3.000000;stroke-dashoffset:0.0;stroke-width:0.5;"/>
     </g>
     <g id="line2d_7">
      <defs>
       <path d="
M0 0
L0 -4" id="mc7db9fdffb" style="stroke:#000000;stroke-width:0.5;"/>
      </defs>
      <g>
       <use style="stroke:#000000;stroke-width:0.5;" x="167.726553257" xlink:href="#mc7db9fdffb" y="753.719378746"/>
      </g>
     </g>
     <g id="line2d_8">
      <defs>
       <path d="
M0 0
L0 4" id="m5a7d422ac3" style="stroke:#000000;stroke-width:0.5;"/>
      </defs>
      <g>
       <use style="stroke:#000000;stroke-width:0.5;" x="167.726553257" xlink:href="#m5a7d422ac3" y="83.6826018641"/>
      </g>
     </g>
     <g id="text_1">
      <!-- $0$ -->
      <defs>
       <path d="
M42 31.6406
C42 37.75 41.9062 48.125 37.7031 56.1094
C34 63.1094 28.0938 65.5938 22.9062 65.5938
C18.0938 65.5938 12 63.4062 8.20312 56.2031
C4.20312 48.7188 3.79688 39.4375 3.79688 31.6406
C3.79688 25.9531 3.90625 17.2812 7 9.67188
C11.2969 -0.609375 19 -2 22.9062 -2
C27.5 -2 34.5 -0.109375 38.5938 9.375
C41.5938 16.2812 42 24.3594 42 31.6406
M22.9062 -0.40625
C16.5 -0.40625 12.7031 5.07812 11.2969 12.6875
C10.2031 18.5625 10.2031 27.1562 10.2031 32.75
C10.2031 40.4375 10.2031 46.8281 11.5 52.9219
C13.4062 61.3906 19 64 22.9062 64
C27 64 32.2969 61.2969 34.2031 53.125
C35.5 47.4375 35.5938 40.7344 35.5938 32.75
C35.5938 26.25 35.5938 18.2656 34.4062 12.375
C32.2969 1.48438 26.4062 -0.40625 22.9062 -0.40625" id="CMR17-48"/>
      </defs>
      <g transform="translate(158.588457834 787.288213632)scale(0.4 -0.4)">
       <use transform="scale(0.9962640099626402)" xlink:href="#CMR17-48"/>
      </g>
     </g>
    </g>
    <g id="xtick_2">
     <g id="line2d_9">
      <path clip-path="url(#p72cdcb1821)" d="
M468.206 753.719
L468.206 83.6826" style="fill:none;stroke:#000000;stroke-dasharray:1.000000,3.000000;stroke-dashoffset:0.0;stroke-width:0.5;"/>
     </g>
     <g id="line2d_10">
      <g>
       <use style="stroke:#000000;stroke-width:0.5;" x="468.206004436" xlink:href="#mc7db9fdffb" y="753.719378746"/>
      </g>
     </g>
     <g id="line2d_11">
      <g>
       <use style="stroke:#000000;stroke-width:0.5;" x="468.206004436" xlink:href="#m5a7d422ac3" y="83.6826018641"/>
      </g>
     </g>
     <g id="text_2">
      <!-- $2$ -->
      <defs>
       <path d="
M41.7031 15.4531
L39.9062 15.4531
C38.9062 8.375 38.0938 7.17188 37.7031 6.5625
C37.2031 5.76562 30 5.76562 28.5938 5.76562
L9.40625 5.76562
C13 9.67188 20 16.75 28.5 24.9531
C34.5938 30.7344 41.7031 37.5312 41.7031 47.4219
C41.7031 59.2188 32.2969 66 21.7969 66
C10.7969 66 4.09375 56.3125 4.09375 47.3438
C4.09375 43.4375 7 42.9375 8.20312 42.9375
C9.20312 42.9375 12.2031 43.5469 12.2031 47.0312
C12.2031 50.1094 9.59375 51 8.20312 51
C7.59375 51 7 50.9062 6.59375 50.7031
C8.5 59.2188 14.2969 63.4062 20.4062 63.4062
C29.0938 63.4062 34.7969 56.5156 34.7969 47.4219
C34.7969 38.7344 29.7031 31.25 24 24.75
L4.09375 2.28125
L4.09375 0
L39.2969 0
z
" id="CMR17-50"/>
      </defs>
      <g transform="translate(459.067909013 787.288213632)scale(0.4 -0.4)">
       <use transform="scale(0.9962640099626402)" xlink:href="#CMR17-50"/>
      </g>
     </g>
    </g>
    <g id="xtick_3">
     <g id="line2d_12">
      <path clip-path="url(#p72cdcb1821)" d="
M768.685 753.719
L768.685 83.6826" style="fill:none;stroke:#000000;stroke-dasharray:1.000000,3.000000;stroke-dashoffset:0.0;stroke-width:0.5;"/>
     </g>
     <g id="line2d_13">
      <g>
       <use style="stroke:#000000;stroke-width:0.5;" x="768.685455616" xlink:href="#mc7db9fdffb" y="753.719378746"/>
      </g>
     </g>
     <g id="line2d_14">
      <g>
       <use style="stroke:#000000;stroke-width:0.5;" x="768.685455616" xlink:href="#m5a7d422ac3" y="83.6826018641"/>
      </g>
     </g>
     <g id="text_3">
      <!-- $4$ -->
      <defs>
       <path d="
M33.5938 64.3281
C33.5938 66.4062 33.5 66.5 31.7031 66.5
L2 19.5938
L2 17
L27.7969 17
L27.7969 7.14062
C27.7969 3.5 27.5938 2.5 20.5938 2.5
L18.7031 2.5
L18.7031 0
C21.9062 0 27.2969 0 30.7031 0
C34.0938 0 39.5 0 42.7031 0
L42.7031 2.5
L40.7969 2.5
C33.7969 2.5 33.5938 3.5 33.5938 7.14062
L33.5938 17
L43.7969 17
L43.7969 19.5938
L33.5938 19.5938
z

M28.0938 57.7656
L28.0938 19.5938
L4 19.5938
z
" id="CMR17-52"/>
      </defs>
      <g transform="translate(759.547360192 787.288213632)scale(0.4 -0.4)">
       <use transform="scale(0.9962640099626402)" xlink:href="#CMR17-52"/>
      </g>
     </g>
    </g>
    <g id="xtick_4">
     <g id="line2d_15">
      <path clip-path="url(#p72cdcb1821)" d="
M1069.16 753.719
L1069.16 83.6826" style="fill:none;stroke:#000000;stroke-dasharray:1.000000,3.000000;stroke-dashoffset:0.0;stroke-width:0.5;"/>
     </g>
     <g id="line2d_16">
      <g>
       <use style="stroke:#000000;stroke-width:0.5;" x="1069.16490679" xlink:href="#mc7db9fdffb" y="753.719378746"/>
      </g>
     </g>
     <g id="line2d_17">
      <g>
       <use style="stroke:#000000;stroke-width:0.5;" x="1069.16490679" xlink:href="#m5a7d422ac3" y="83.6826018641"/>
      </g>
     </g>
     <g id="text_4">
      <!-- $6$ -->
      <defs>
       <path d="
M10.5938 34
C10.5938 57.6562 21.7969 63 28.2969 63
C30.4062 63 35.5 62.6406 37.5 59
C35.9062 59 32.9062 59 32.9062 55.5156
C32.9062 52.8281 35.0938 51.9219 36.5 51.9219
C37.4062 51.9219 40.0938 52.3125 40.0938 55.625
C40.0938 61.7812 35.0938 65.2969 28.2031 65.2969
C16.2969 65.2969 3.79688 52.9688 3.79688 31
C3.79688 3.95312 15.0938 -2 23.0938 -2
C32.7969 -2 42 6.67188 42 20.0469
C42 32.5156 33.9062 41.5938 23.7031 41.5938
C17.5938 41.5938 13.0938 37.6094 10.5938 30.625
z

M23.0938 0.390625
C10.7969 0.390625 10.7969 18.75 10.7969 22.4375
C10.7969 29.625 14.2031 40 23.5 40
C25.2031 40 30.0938 40 33.4062 33.125
C35.2031 29.2188 35.2031 25.1406 35.2031 20.1406
C35.2031 14.75 35.2031 10.7812 33.0938 6.78125
C30.9062 2.67188 27.7031 0.390625 23.0938 0.390625" id="CMR17-54"/>
      </defs>
      <g transform="translate(1060.02681137 787.288213632)scale(0.4 -0.4)">
       <use transform="scale(0.9962640099626402)" xlink:href="#CMR17-54"/>
      </g>
     </g>
    </g>
    <g id="xtick_5">
     <g id="line2d_18">
      <path clip-path="url(#p72cdcb1821)" d="
M1369.64 753.719
L1369.64 83.6826" style="fill:none;stroke:#000000;stroke-dasharray:1.000000,3.000000;stroke-dashoffset:0.0;stroke-width:0.5;"/>
     </g>
     <g id="line2d_19">
      <g>
       <use style="stroke:#000000;stroke-width:0.5;" x="1369.64435797" xlink:href="#mc7db9fdffb" y="753.719378746"/>
      </g>
     </g>
     <g id="line2d_20">
      <g>
       <use style="stroke:#000000;stroke-width:0.5;" x="1369.64435797" xlink:href="#m5a7d422ac3" y="83.6826018641"/>
      </g>
     </g>
     <g id="text_5">
      <!-- $8$ -->
      <defs>
       <path d="
M27.2031 35.375
C33.5 38.5625 39.9062 43.3281 39.9062 50.9844
C39.9062 60.0312 31.0938 65.2969 23 65.2969
C13.9062 65.2969 5.90625 58.7344 5.90625 49.6875
C5.90625 47.2031 6.5 42.9219 10.4062 39.1406
C11.4062 38.1562 15.5938 35.1719 18.2969 33.2812
C13.7969 30.9844 3.29688 25.5312 3.29688 14.5938
C3.29688 4.35938 13.0938 -2 22.7969 -2
C33.5 -2 42.5 5.65625 42.5 15.7969
C42.5 24.8438 36.4062 29.0312 32.4062 31.7031
z

M14.0938 44.125
C13.2969 44.625 9.29688 47.7031 9.29688 52.375
C9.29688 58.4375 15.5938 63 22.7969 63
C30.7031 63 36.5 57.4531 36.5 50.9844
C36.5 41.7344 26.0938 36.4688 25.5938 36.4688
C25.5 36.4688 25.4062 36.4688 24.5938 37.0781
z

M32.5 23.7344
C34 22.6406 38.7969 19.375 38.7969 13.2969
C38.7969 5.95312 31.4062 0.390625 23 0.390625
C13.9062 0.390625 7 6.84375 7 14.6875
C7 22.5469 13.0938 29.0938 20 32.1875
z
" id="CMR17-56"/>
      </defs>
      <g transform="translate(1360.50626255 787.288213632)scale(0.4 -0.4)">
       <use transform="scale(0.9962640099626402)" xlink:href="#CMR17-56"/>
      </g>
     </g>
    </g>
    <g id="xtick_6">
     <g id="line2d_21">
      <path clip-path="url(#p72cdcb1821)" d="
M1670.12 753.719
L1670.12 83.6826" style="fill:none;stroke:#000000;stroke-dasharray:1.000000,3.000000;stroke-dashoffset:0.0;stroke-width:0.5;"/>
     </g>
     <g id="line2d_22">
      <g>
       <use style="stroke:#000000;stroke-width:0.5;" x="1670.12380915" xlink:href="#mc7db9fdffb" y="753.719378746"/>
      </g>
     </g>
     <g id="line2d_23">
      <g>
       <use style="stroke:#000000;stroke-width:0.5;" x="1670.12380915" xlink:href="#m5a7d422ac3" y="83.6826018641"/>
      </g>
     </g>
     <g id="text_6">
      <!-- $10$ -->
      <defs>
       <path d="
M26.5938 63.3125
C26.5938 65.4062 26.5 65.5 25.0938 65.5
C21.2031 61.1875 15.2969 59.7969 9.70312 59.7969
C9.40625 59.7969 8.90625 59.7969 8.79688 59.5
C8.70312 59.2969 8.70312 59.0938 8.70312 57
C11.7969 57 17 57.5938 21 59.9844
L21 7.20312
C21 3.6875 20.7969 2.5 12.2031 2.5
L9.20312 2.5
L9.20312 0
C14 0 19 0 23.7969 0
C28.5938 0 33.5938 0 38.4062 0
L38.4062 2.5
L35.4062 2.5
C26.7969 2.5 26.5938 3.59375 26.5938 7.15625
z
" id="CMR17-49"/>
      </defs>
      <g transform="translate(1651.84761831 787.288213632)scale(0.4 -0.4)">
       <use transform="scale(0.9962640099626402)" xlink:href="#CMR17-49"/>
       <use transform="translate(45.69047711706103 0.0)scale(0.9962640099626402)" xlink:href="#CMR17-48"/>
      </g>
     </g>
    </g>
    <g id="text_7">
     <!-- Temps $t$ (s) -->
     <defs>
      <path d="
M27.9062 73.4531
C21.9062 69.7656 18.7031 67.1719 15.2969 63.1719
C7.70312 54.1875 3.59375 42.7188 3.59375 30.6406
C3.59375 19.2656 7.20312 8.57812 13.9062 -0.296875
C17.7031 -5.09375 21.0938 -8.07812 27.9062 -12.2812
L27.9062 -8.57812
C17.9062 0.203125 13.9062 11.4844 13.9062 30.6406
C13.9062 49.7969 17.9062 60.9844 27.9062 69.7656
z
" id="Century_Schoolbook_L_Roman-40"/>
      <path d="
M63.2969 72
L3.40625 72
L1.90625 44.2656
L6.20312 44.2656
C6.90625 49.25 7.79688 53.0469 8.90625 56.2344
C11.5 63.5156 16.2969 67.3125 23.0938 67.3125
C26.4062 67.3125 27.7969 66.2031 27.7969 63.7188
L27.7969 12.2812
L27.7969 9.375
C27.7969 5.1875 26.9062 4.6875 18.7969 4.6875
L16.2031 4.6875
L16.2031 0
L50.5 0
L50.5 4.6875
L47.9062 4.6875
C39.9062 4.6875 39 5.1875 39 9.375
L39 12.2812
L39 63.7188
C39 66.2031 40.4062 67.3125 43.7031 67.3125
C49.7969 67.3125 54.7031 63.9062 57.2031 57.9219
C58.7031 54.25 59.7031 49.9531 60.5 44.2656
L64.7969 44.2656
z
" id="Century_Schoolbook_L_Roman-84"/>
      <path d="
M46.5 23
C46.5938 37.8125 38.0938 48.2812 25.9062 48.2812
C13.0938 48.2812 3.5 37.25 3.5 22.3438
C3.5 8.4375 12.5938 -1 26.0938 -1
C35.5938 -1 42.4062 3.6875 46.5 13.1875
L43 15.0938
C38.9062 7.39062 34.7031 4.39062 28 4.39062
C22.9062 4.39062 19.2031 6.59375 16.5938 11
C14.7969 14 14 17.5 14.0938 23
z

M14.2031 27.2969
C14.2031 30.3438 14.5938 32.5 15.5938 35.25
C17.7031 41.1406 20.9062 44 25.7031 44
C31.7969 44 35.7969 38.7812 35.7969 30.9219
C35.7969 28.0781 34.9062 27.2969 31.7031 27.2969
z
" id="Century_Schoolbook_L_Roman-101"/>
      <path d="
M20.0938 46
L2.79688 46
L2.79688 41.2188
L6.40625 41.2188
C10.0938 41.2188 10.7031 40.5156 10.7031 36.2188
L10.7031 -7.75
L10.7031 -11.7188
C10.7031 -15.7188 9.59375 -16.4062 3.20312 -16.4062
L2.79688 -16.4062
L2.79688 -20
L28.7969 -20
L28.7969 -16.4062
L27.7031 -16.4062
C21.2031 -16.4062 20.0938 -15.7188 20.0938 -11.7344
L20.0938 -7.75
L20.0938 6.6875
C23.4062 0.90625 27.2031 -1.39062 33.2969 -1.39062
C44.9062 -1.39062 53.5 9.26562 53.5 23.5
C53.5 37.2656 44.9062 48 33.9062 48
C27.7031 48 23.5938 45.4375 20.0938 39.5156
z

M32.0938 42.6094
C39 42.6094 43 35.75 43 24.0938
C43 11.2656 38.9062 4 31.7969 4
C24.7031 4 20 11.375 20 22.8125
C20 35.1406 24.5 42.6094 32.0938 42.6094" id="Century_Schoolbook_L_Roman-112"/>
      <path d="
M5.40625 -12.2812
C11.4062 -8.57812 14.5938 -5.98438 18 -1.89062
C25.5938 6.98438 29.7031 18.5625 29.7031 30.6406
C29.7031 42.0156 26.0938 52.7031 19.4062 61.4844
C15.5938 66.375 12.2031 69.3594 5.40625 73.4531
L5.40625 69.7656
C15.4062 60.9844 19.4062 49.7969 19.4062 30.6406
C19.4062 11.375 15.4062 0.203125 5.40625 -8.57812
z
" id="Century_Schoolbook_L_Roman-41"/>
      <path d="
M20.0938 46
L2.29688 46
L2.29688 41.2188
L6.40625 41.2188
C10.0938 41.2188 10.7031 40.5156 10.7031 36.2031
L10.7031 12.2969
L10.7031 8.40625
C10.7031 4.29688 9.59375 3.59375 3.20312 3.59375
L2.79688 3.59375
L2.79688 0
L28 0
L28 3.59375
L27.5938 3.59375
C21.2031 3.59375 20.0938 4.29688 20.0938 8.39062
L20.0938 12.2812
L20.0938 26.4531
C20.0938 35.3281 25 41.9219 31.5 41.9219
C34.0938 41.9219 36.9062 40.5156 38.0938 38.625
C39.5 36.7344 40.0938 33.8281 40.0938 29.7344
L40.0938 12.2812
L40.0938 8.28125
C40.0938 4.29688 39 3.59375 32.5 3.59375
L32.0938 3.59375
L32.0938 0
L57.4062 0
L57.4062 3.59375
L57 3.59375
C50.5938 3.59375 49.5 4.29688 49.5 8.28125
L49.5 12.2812
L49.5 25.5469
C49.5 35.5312 54 41.9219 61 41.9219
C64.2969 41.9219 67 40.0156 68.2969 36.9219
C69.2031 34.7344 69.5 32.5312 69.5 28.6406
L69.5 12.2812
L69.5 8.28125
C69.5 4.29688 68.4062 3.59375 61.9062 3.59375
L61.5 3.59375
L61.5 0
L86.7969 0
L86.7969 3.59375
L86.4062 3.59375
C80 3.59375 78.9062 4.29688 78.9062 8.39062
L78.9062 12.2812
L78.9062 30.6406
C78.9062 36.8281 78.2969 38.9219 75.7031 42.3125
C72.7969 46.0156 68.7031 48 63.9062 48
C57.4062 48 52.5938 44.9375 48.2969 38.1094
C46.5938 44.0469 41.2031 48 34.5 48
C28.5 48 24 45.1406 20.0938 38.9219
z
" id="Century_Schoolbook_L_Roman-109"/>
      <path d="
M39 48
L35.5 48
L32.5938 44.4062
C29 47.2031 25.4062 48.3906 20.4062 48.3906
C11.5938 48.3906 5.79688 42.625 5.79688 33.9531
C5.79688 30.0781 7.09375 26.7812 9.29688 24.8125
C11.5938 22.7031 13.9062 21.7188 19.9062 20.3125
L25.2031 19.125
C33.0938 17.2344 35.9062 15.2344 35.9062 11.2656
C35.9062 6.57812 31.7969 3.29688 25.9062 3.29688
C17.5 3.29688 11.5 8.76562 9.09375 18.875
L5.09375 18.875
L5.09375 0
L8.59375 0
L12.0938 3.90625
C16.2031 0.59375 20.7969 -1 25.7969 -1
C35.5938 -1 42.0938 5.07812 42.0938 14.3438
C42.0938 18.7188 40.7031 22.0938 37.9062 24.3906
C35.5 26.4844 33.5 27.2812 27.4062 28.5625
L22.4062 29.6719
C16.9062 30.8594 16.9062 30.8594 15.0938 31.8594
C12.9062 32.8594 11.5938 34.9375 11.5938 37.1406
C11.5938 41.1094 15.4062 44 20.9062 44
C24.7031 44 27.7969 42.7031 30.5938 40.0156
C32.7969 37.8125 33.9062 35.8281 35.5 31.2344
L39 31.2344
z
" id="Century_Schoolbook_L_Roman-115"/>
      <path d="
M20.0938 40.0938
L29.2969 40.0938
C31.2031 40.0938 32.2031 40.0938 32.2031 41.8906
C32.2031 43 31.5938 43 29.5938 43
L20.7969 43
L24.5 57.6875
C24.9062 59.0781 24.9062 59.2812 24.9062 60
C24.9062 61.6094 23.5938 62.5 22.2969 62.5
C21.5 62.5 19.2031 62.2031 18.4062 58.9844
L14.5 43
L5.09375 43
C3.09375 43 2.20312 43 2.20312 41.0938
C2.20312 40.0938 2.90625 40.0938 4.79688 40.0938
L13.7031 40.0938
L7.09375 13.7656
C6.29688 10.2812 6 9.28125 6 7.98438
C6 3.29688 9.29688 -1 14.9062 -1
C25 -1 30.4062 13.5781 30.4062 14.2656
C30.4062 14.875 30 15.1719 29.4062 15.1719
C29.2031 15.1719 28.7969 15.1719 28.5938 14.7656
C28.5 14.6719 28.4062 14.5625 27.7031 12.9688
C25.5938 7.98438 21 1 15.2031 1
C12.2031 1 12 3.5 12 5.6875
C12 5.78125 12 7.6875 12.2969 8.875
z
" id="CMMI12-116"/>
     </defs>
     <g transform="translate(817.774041436 829.42852426)scale(0.4 -0.4)">
      <use transform="scale(0.9962640099626402)" xlink:href="#Century_Schoolbook_L_Roman-84"/>
      <use transform="translate(60.97130876400997 0.0)scale(0.9962640099626402)" xlink:href="#Century_Schoolbook_L_Roman-101"/>
      <use transform="translate(110.78450926214198 0.0)scale(0.9962640099626402)" xlink:href="#Century_Schoolbook_L_Roman-109"/>
      <use transform="translate(199.3514159548179 0.0)scale(0.9962640099626402)" xlink:href="#Century_Schoolbook_L_Roman-112"/>
      <use transform="translate(256.536903238831 0.0)scale(0.9962640099626402)" xlink:href="#Century_Schoolbook_L_Roman-115"/>
      <use transform="translate(330.35788340111304 0.0)scale(0.9962640099626402)" xlink:href="#CMMI12-116"/>
      <use transform="translate(393.27938322112396 0.0)scale(0.9962640099626402)" xlink:href="#Century_Schoolbook_L_Roman-40"/>
      <use transform="translate(426.45461295045925 0.0)scale(0.9962640099626402)" xlink:href="#Century_Schoolbook_L_Roman-115"/>
      <use transform="translate(472.5804235094957 0.0)scale(0.9962640099626402)" xlink:href="#Century_Schoolbook_L_Roman-41"/>
     </g>
    </g>
   </g>
   <g id="matplotlib.axis_2">
    <g id="ytick_1">
     <g id="line2d_24">
      <path clip-path="url(#p72cdcb1821)" d="
M167.727 753.719
L1670.12 753.719" style="fill:none;stroke:#000000;stroke-dasharray:1.000000,3.000000;stroke-dashoffset:0.0;stroke-width:0.5;"/>
     </g>
     <g id="line2d_25">
      <defs>
       <path d="
M0 0
L4 0" id="md7965d1ba0" style="stroke:#000000;stroke-width:0.5;"/>
      </defs>
      <g>
       <use style="stroke:#000000;stroke-width:0.5;" x="167.726553257" xlink:href="#md7965d1ba0" y="753.719378746"/>
      </g>
     </g>
     <g id="line2d_26">
      <defs>
       <path d="
M0 0
L-4 0" id="md9a1c1a7cd" style="stroke:#000000;stroke-width:0.5;"/>
      </defs>
      <g>
       <use style="stroke:#000000;stroke-width:0.5;" x="1670.12380915" xlink:href="#md9a1c1a7cd" y="753.719378746"/>
      </g>
     </g>
     <g id="text_8">
      <!-- $-1.0$ -->
      <defs>
       <path d="
M65.9062 23
C67.5938 23 69.4062 23 69.4062 25
C69.4062 27 67.5938 27 65.9062 27
L11.7969 27
C10.0938 27 8.29688 27 8.29688 25
C8.29688 23 10.0938 23 11.7969 23
z
" id="CMSY10-0"/>
       <path d="
M18.4062 4.79688
C18.4062 7.6875 16 9.67188 13.5938 9.67188
C10.7031 9.67188 8.70312 7.28125 8.70312 4.89062
C8.70312 2 11.0938 0 13.5 0
C16.4062 0 18.4062 2.39062 18.4062 4.79688" id="CMMI12-58"/>
      </defs>
      <g transform="translate(85.3403106271 764.718058319)scale(0.4 -0.4)">
       <use transform="scale(0.9962640099626402)" xlink:href="#CMSY10-0"/>
       <use transform="translate(77.4874676506071 0.0)scale(0.9962640099626402)" xlink:href="#CMR17-49"/>
       <use transform="translate(123.17794476766814 0.0)scale(0.9962640099626402)" xlink:href="#CMMI12-58"/>
       <use transform="translate(150.27512185748756 0.0)scale(0.9962640099626402)" xlink:href="#CMR17-48"/>
      </g>
     </g>
    </g>
    <g id="ytick_2">
     <g id="line2d_27">
      <path clip-path="url(#p72cdcb1821)" d="
M167.727 619.712
L1670.12 619.712" style="fill:none;stroke:#000000;stroke-dasharray:1.000000,3.000000;stroke-dashoffset:0.0;stroke-width:0.5;"/>
     </g>
     <g id="line2d_28">
      <g>
       <use style="stroke:#000000;stroke-width:0.5;" x="167.726553257" xlink:href="#md7965d1ba0" y="619.712023369"/>
      </g>
     </g>
     <g id="line2d_29">
      <g>
       <use style="stroke:#000000;stroke-width:0.5;" x="1670.12380915" xlink:href="#md9a1c1a7cd" y="619.712023369"/>
      </g>
     </g>
     <g id="text_9">
      <!-- $-0.5$ -->
      <defs>
       <path d="
M11.4062 57.6875
C12.4062 57.2812 16.5 56 20.7031 56
C30 56 35.0938 61.0156 38 63.9219
C38 64.7344 38 65.25 37.4062 65.25
C37.2969 65.25 37.0938 65.25 36.2969 64.8281
C32.7969 63.3125 28.7031 62.0781 23.7031 62.0781
C20.7031 62.0781 16.2031 62.5 11.2969 64.7344
C10.2031 65.25 10 65.25 9.90625 65.25
C9.40625 65.25 9.29688 65.1406 9.29688 63.1562
L9.29688 34.2812
C9.29688 32.5 9.29688 32 10.2969 32
C10.7969 32 11 32.2031 11.5 32.9062
C14.7031 37.4844 19.0938 39.4062 24.0938 39.4062
C27.5938 39.4062 35.0938 37.2188 35.0938 20.1406
C35.0938 16.9531 35.0938 11.1719 32.0938 6.57812
C29.5938 2.48438 25.7031 0.390625 21.4062 0.390625
C14.7969 0.390625 8.09375 5 6.29688 12.7188
C6.70312 12.6094 7.5 12.4219 7.90625 12.4219
C9.20312 12.4219 11.7031 13.125 11.7031 16.2188
C11.7031 18.9062 9.79688 20 7.90625 20
C5.59375 20 4.09375 18.5938 4.09375 15.7969
C4.09375 7.09375 11 -2 21.5938 -2
C31.9062 -2 41.7031 6.875 41.7031 19.75
C41.7031 31.7188 33.9062 41 24.2031 41
C19.0938 41 14.7969 39.0938 11.4062 35.4531
z
" id="CMR17-53"/>
      </defs>
      <g transform="translate(85.3403106271 630.710702943)scale(0.4 -0.4)">
       <use transform="scale(0.9962640099626402)" xlink:href="#CMSY10-0"/>
       <use transform="translate(77.4874676506071 0.0)scale(0.9962640099626402)" xlink:href="#CMR17-48"/>
       <use transform="translate(123.17794476766814 0.0)scale(0.9962640099626402)" xlink:href="#CMMI12-58"/>
       <use transform="translate(150.27512185748756 0.0)scale(0.9962640099626402)" xlink:href="#CMR17-53"/>
      </g>
     </g>
    </g>
    <g id="ytick_3">
     <g id="line2d_30">
      <path clip-path="url(#p72cdcb1821)" d="
M167.727 485.705
L1670.12 485.705" style="fill:none;stroke:#000000;stroke-dasharray:1.000000,3.000000;stroke-dashoffset:0.0;stroke-width:0.5;"/>
     </g>
     <g id="line2d_31">
      <g>
       <use style="stroke:#000000;stroke-width:0.5;" x="167.726553257" xlink:href="#md7965d1ba0" y="485.704667993"/>
      </g>
     </g>
     <g id="line2d_32">
      <g>
       <use style="stroke:#000000;stroke-width:0.5;" x="1670.12380915" xlink:href="#md9a1c1a7cd" y="485.704667993"/>
      </g>
     </g>
     <g id="text_10">
      <!-- $0.0$ -->
      <g transform="translate(116.335300728 496.703347566)scale(0.4 -0.4)">
       <use transform="scale(0.9962640099626402)" xlink:href="#CMR17-48"/>
       <use transform="translate(45.69047711706103 0.0)scale(0.9962640099626402)" xlink:href="#CMMI12-58"/>
       <use transform="translate(72.78765420688046 0.0)scale(0.9962640099626402)" xlink:href="#CMR17-48"/>
      </g>
     </g>
    </g>
    <g id="ytick_4">
     <g id="line2d_33">
      <path clip-path="url(#p72cdcb1821)" d="
M167.727 351.697
L1670.12 351.697" style="fill:none;stroke:#000000;stroke-dasharray:1.000000,3.000000;stroke-dashoffset:0.0;stroke-width:0.5;"/>
     </g>
     <g id="line2d_34">
      <g>
       <use style="stroke:#000000;stroke-width:0.5;" x="167.726553257" xlink:href="#md7965d1ba0" y="351.697312617"/>
      </g>
     </g>
     <g id="line2d_35">
      <g>
       <use style="stroke:#000000;stroke-width:0.5;" x="1670.12380915" xlink:href="#md9a1c1a7cd" y="351.697312617"/>
      </g>
     </g>
     <g id="text_11">
      <!-- $0.5$ -->
      <g transform="translate(116.335300728 362.69599219)scale(0.4 -0.4)">
       <use transform="scale(0.9962640099626402)" xlink:href="#CMR17-48"/>
       <use transform="translate(45.69047711706103 0.0)scale(0.9962640099626402)" xlink:href="#CMMI12-58"/>
       <use transform="translate(72.78765420688046 0.0)scale(0.9962640099626402)" xlink:href="#CMR17-53"/>
      </g>
     </g>
    </g>
    <g id="ytick_5">
     <g id="line2d_36">
      <path clip-path="url(#p72cdcb1821)" d="
M167.727 217.69
L1670.12 217.69" style="fill:none;stroke:#000000;stroke-dasharray:1.000000,3.000000;stroke-dashoffset:0.0;stroke-width:0.5;"/>
     </g>
     <g id="line2d_37">
      <g>
       <use style="stroke:#000000;stroke-width:0.5;" x="167.726553257" xlink:href="#md7965d1ba0" y="217.68995724"/>
      </g>
     </g>
     <g id="line2d_38">
      <g>
       <use style="stroke:#000000;stroke-width:0.5;" x="1670.12380915" xlink:href="#md9a1c1a7cd" y="217.68995724"/>
      </g>
     </g>
     <g id="text_12">
      <!-- $1.0$ -->
      <g transform="translate(116.335300728 228.688636814)scale(0.4 -0.4)">
       <use transform="scale(0.9962640099626402)" xlink:href="#CMR17-49"/>
       <use transform="translate(45.69047711706103 0.0)scale(0.9962640099626402)" xlink:href="#CMMI12-58"/>
       <use transform="translate(72.78765420688046 0.0)scale(0.9962640099626402)" xlink:href="#CMR17-48"/>
      </g>
     </g>
    </g>
    <g id="ytick_6">
     <g id="line2d_39">
      <path clip-path="url(#p72cdcb1821)" d="
M167.727 83.6826
L1670.12 83.6826" style="fill:none;stroke:#000000;stroke-dasharray:1.000000,3.000000;stroke-dashoffset:0.0;stroke-width:0.5;"/>
     </g>
     <g id="line2d_40">
      <g>
       <use style="stroke:#000000;stroke-width:0.5;" x="167.726553257" xlink:href="#md7965d1ba0" y="83.6826018641"/>
      </g>
     </g>
     <g id="line2d_41">
      <g>
       <use style="stroke:#000000;stroke-width:0.5;" x="1670.12380915" xlink:href="#md9a1c1a7cd" y="83.6826018641"/>
      </g>
     </g>
     <g id="text_13">
      <!-- $1.5$ -->
      <g transform="translate(116.335300728 94.6812814373)scale(0.4 -0.4)">
       <use transform="scale(0.9962640099626402)" xlink:href="#CMR17-49"/>
       <use transform="translate(45.69047711706103 0.0)scale(0.9962640099626402)" xlink:href="#CMMI12-58"/>
       <use transform="translate(72.78765420688046 0.0)scale(0.9962640099626402)" xlink:href="#CMR17-53"/>
      </g>
     </g>
    </g>
    <g id="text_14">
     <!-- $U_x$ (mm) -->
     <defs>
      <path d="
M50.5938 23.0312
C47.0938 9.07812 35.5 0.890625 26.0938 0.890625
C18.9062 0.890625 14 5.67188 14 13.9219
C14 14.3125 14 17.2969 15.0938 21.6719
L24.9062 60.7344
C25.7969 64.1094 26 65.1094 33.0938 65.1094
C34.9062 65.1094 35.9062 65.1094 35.9062 66.9062
C35.9062 68 35 68 34.4062 68
C32.5938 68 30.5 68 28.5938 68
L16.7969 68
C14.9062 68 12.7969 68 10.9062 68
C10.2031 68 9 68 9 66.1094
C9 65.1094 9.70312 65.1094 11.5938 65.1094
C17.5938 65.1094 17.5938 64.3125 17.5938 63.2031
C17.5938 62.625 16.9062 59.7344 16.4062 58.0469
L7.70312 23.25
C7.40625 22.1562 6.79688 19.4688 6.79688 16.7969
C6.79688 5.84375 14.7031 -2 25.5938 -2
C35.7031 -2 46.9062 6 52 18.7031
C52.7031 20.3906 53.5938 23.9062 54.2031 26.5938
C55.2031 30.2031 57.2969 39 58 41.5938
L61.7969 56.6094
C63.0938 61.8125 63.9062 65.1094 72.7031 65.1094
C73.5 65.2031 73.9062 66 73.9062 66.9062
C73.9062 68 73 68 72.5938 68
C71.2031 68 69.4062 68 68 68
L63.2969 68
C57.0938 68 53.9062 68 53.7969 68
C53.2031 68 52 68 52 66.1094
C52 65.1094 52.7969 65.1094 53.5 65.1094
C59.5 65.1094 59.9062 62.8125 59.9062 61.0156
C59.9062 60.125 59.9062 59.8125 59.5 58.4219
z
" id="CMMI12-85"/>
      <path d="
M47.4062 40.7188
C44.2031 40.1094 43 37.7188 43 35.8281
C43 33.4219 44.9062 32.625 46.2969 32.625
C49.2969 32.625 51.4062 35.2188 51.4062 37.9219
C51.4062 42.1094 46.5938 44 42.4062 44
C36.2969 44 32.9062 38.0156 32 36.125
C29.7031 44 23.5 44 21.7031 44
C11.5 44 6.09375 30.9375 6.09375 28.7344
C6.09375 28.3438 6.5 27.8438 7.20312 27.8438
C8 27.8438 8.20312 28.4375 8.40625 28.8438
C11.7969 39.9219 18.5 42.0156 21.4062 42.0156
C25.9062 42.0156 26.7969 37.8125 26.7969 35.4219
C26.7969 33.2344 26.2031 30.9375 25 26.1406
L21.5938 12.4688
C20.0938 6.48438 17.2031 1 11.9062 1
C11.4062 1 8.90625 1 6.79688 2.29688
C10.4062 3 11.2031 5.98438 11.2031 7.1875
C11.2031 9.1875 9.70312 10.375 7.79688 10.375
C5.40625 10.375 2.79688 8.28125 2.79688 5.09375
C2.79688 0.890625 7.5 -1 11.7969 -1
C16.5938 -1 20 2.79688 22.0938 6.89062
C23.7031 1 28.7031 -1 32.4062 -1
C42.5938 -1 48 12.0781 48 14.2656
C48 14.7656 47.5938 15.1719 47 15.1719
C46.0938 15.1719 46 14.6719 45.7031 13.875
C43 5.09375 37.2031 1 32.7031 1
C29.2031 1 27.2969 3.59375 27.2969 7.6875
C27.2969 9.875 27.7031 11.4688 29.2969 18.0625
L32.7969 31.625
C34.2969 37.625 37.7031 42.0156 42.2969 42.0156
C42.5 42.0156 45.2969 42.0156 47.4062 40.7188" id="CMMI12-120"/>
     </defs>
     <g transform="translate(72.7688348868 494.197100473)rotate(-90.0)scale(0.4 -0.4)">
      <use transform="translate(0.0 14.943914544092467)scale(0.9962640099626402)" xlink:href="#CMMI12-85"/>
      <use transform="translate(66.25211912846358 0.0)scale(0.6973817666173724)" xlink:href="#CMMI12-120"/>
      <use transform="translate(133.24907998813046 14.943914544092467)scale(0.9962640099626402)" xlink:href="#Century_Schoolbook_L_Roman-40"/>
      <use transform="translate(166.42430971746577 14.943914544092467)scale(0.9962640099626402)" xlink:href="#Century_Schoolbook_L_Roman-109"/>
      <use transform="translate(254.99121641014167 14.943914544092467)scale(0.9962640099626402)" xlink:href="#Century_Schoolbook_L_Roman-109"/>
      <use transform="translate(343.5581231028176 14.943914544092467)scale(0.9962640099626402)" xlink:href="#Century_Schoolbook_L_Roman-41"/>
     </g>
    </g>
    <g id="text_15">
     <!-- $\times10^{-7}$ -->
     <defs>
      <path d="
M45.0938 61.5781
L45.0938 63.7656
L21.5938 63.7656
C9.90625 63.7656 9.70312 65.0781 9.29688 67
L7.5 67
L4.59375 48.3438
L6.40625 48.3438
C6.70312 50.2344 7.40625 55.3125 8.59375 57.2031
C9.20312 58 16.5938 58 18.2969 58
L40.2969 58
L29.2031 41.5781
C21.7969 30.5312 16.7031 15.6094 16.7031 2.57812
C16.7031 1.39062 16.7031 -2 20.2969 -2
C23.9062 -2 23.9062 1.39062 23.9062 2.67188
L23.9062 7.26562
C23.9062 23.5625 26.7031 34.3125 31.2969 41.1875
z
" id="CMR17-55"/>
      <path d="
M38.9062 27.8906
L18.9062 47.7969
C17.7031 49 17.5 49.1875 16.7031 49.1875
C15.7031 49.1875 14.7031 48.2969 14.7031 47.1875
C14.7031 46.5 14.9062 46.2969 16 45.1875
L36 25.0938
L16 5
C14.9062 3.89062 14.7031 3.6875 14.7031 3
C14.7031 1.89062 15.7031 1 16.7031 1
C17.5 1 17.7031 1.1875 18.9062 2.39062
L38.7969 22.2969
L59.5 1.59375
C59.7031 1.5 60.4062 1 61 1
C62.2031 1 63 1.89062 63 3
C63 3.1875 63 3.59375 62.7031 4.09375
C62.5938 4.29688 46.7031 20 41.7031 25.0938
L60 43.3906
C60.5 44 62 45.2969 62.5 45.8906
C62.5938 46.0938 63 46.5 63 47.1875
C63 48.2969 62.2031 49.1875 61 49.1875
C60.2031 49.1875 59.7969 48.7969 58.7031 47.6875
z
" id="CMSY10-2"/>
     </defs>
     <g transform="translate(167.726553257 80.6826018641)scale(0.4 -0.4)">
      <use transform="scale(0.9962640099626402)" xlink:href="#CMSY10-2"/>
      <use transform="translate(77.4874676506071 0.0)scale(0.9962640099626402)" xlink:href="#CMR17-49"/>
      <use transform="translate(123.17794476766814 0.0)scale(0.9962640099626402)" xlink:href="#CMR17-48"/>
      <use transform="translate(168.86842188472914 36.15363894185866)scale(0.6973817666173724)" xlink:href="#CMSY10-0"/>
      <use transform="translate(223.1094151327055 36.15363894185866)scale(0.6973817666173724)" xlink:href="#CMR17-55"/>
     </g>
    </g>
   </g>
   <g id="text_16">
    <!-- Deplacement total -->
    <defs>
     <path d="
M19.4062 47
L19.4062 67
L15.2969 67
C14.2969 53.875 9.90625 47.1875 1.79688 46.5938
L1.79688 42.7031
L10 42.7031
L10 17.2656
C10 10.2812 10.2031 7.78125 11.2031 5.48438
C12.7969 1.29688 16.7969 -1 22.5938 -1
C26.5 -1 29.9062 0.203125 32.2031 2.39062
C35.5 5.59375 37.4062 10.875 37.4062 16.375
C37.4062 16.9688 37.4062 17.6719 37.2969 18.6719
L33.0938 18.6719
C32.7969 9.6875 30.2031 5.09375 25.2969 5.09375
C23 5.09375 21 6.28125 20.2969 7.98438
C19.7031 9.375 19.4062 11.875 19.4062 15.4688
L19.4062 42.7031
L34.0938 42.7031
L34.0938 47
z
" id="Century_Schoolbook_L_Roman-116"/>
     <path d="
M20.4062 73
L1.90625 73
L1.90625 68.2188
L6.79688 68.2188
C10.4062 68.2188 11 67.5156 11 63.2188
L11 12.2812
L11 8.28125
C11 4.29688 9.90625 3.59375 3.5 3.59375
L2.79688 3.59375
L2.79688 0
L28.7031 0
L28.7031 3.59375
L28 3.59375
C21.5 3.59375 20.4062 4.29688 20.4062 8.25
L20.4062 12.2188
z
" id="Century_Schoolbook_L_Roman-108"/>
     <path d="
M13.7031 12.2812
L13.7031 9.375
C13.7031 5.1875 12.7969 4.6875 4.79688 4.6875
L2.90625 4.6875
L2.90625 0
L36.5 0
C45.4062 0 52.2031 1.39062 57.5 4.39062
C67.5938 10.0625 73.2031 21.4375 73.2031 36.3906
C73.2031 50.0625 68.2031 60.9375 59 66.9062
C53.5 70.4062 46.0938 72 34.7031 72
L2.90625 72
L2.90625 67.3125
L4.79688 67.3125
C12.7969 67.3125 13.7031 66.8125 13.7031 62.6094
L13.7031 59.7188
z

M30.5938 4.6875
C25.5938 4.6875 24.9062 5.29688 24.9062 10.1875
L24.9062 61.7188
C24.9062 66.6094 25.5938 67.3125 30.5938 67.3125
L35.7969 67.3125
C52.9062 67.3125 60 58.0469 60 36
C60 13.6562 53.5 4.6875 37.4062 4.6875
z
" id="Century_Schoolbook_L_Roman-68"/>
     <path d="
M45.2031 32.5781
C45.2031 38.7969 44.0938 41.9688 41.2031 44.3438
C37.9062 46.9062 33 48.2812 26.5938 48.2812
C15.4062 48.2812 7.09375 43.0469 7.09375 35.9219
C7.09375 32.1562 9.40625 29.7812 12.9062 29.7812
C16 29.7812 18.2969 31.8594 18.2969 34.8125
C18.2969 36.1094 17.7969 37.4844 16.7969 38.875
C16.2031 39.5469 16.0938 39.8438 16.0938 40.1562
C16.0938 42.2188 20.2031 44 25 44
C28.0938 44 31.5938 43.0156 33.2031 41.5312
C35.0938 39.9531 35.7969 37.5781 35.7969 33.125
L35.7969 29.2812
C25.2969 27.4844 22.0938 26.6875 17.2031 24.8125
C8.59375 21.6094 4.40625 16.9375 4.40625 10.6562
C4.40625 3.57812 10.0938 -1 18.9062 -1
C25.7969 -1 32 1.85938 36.2969 7.0625
C37.9062 1.98438 40.4062 0 45.0938 0
C49.5938 0 54.2969 2.90625 54.2969 5.78125
C54.2969 6.46875 53.7969 6.96875 53.2969 6.96875
C52.9062 6.96875 52.5 6.875 51.7969 6.57812
C50.2031 6 49.7969 5.89062 49 5.89062
C46.2031 5.89062 45.2031 7.78125 45.2031 12.7188
z

M35.7969 20.4688
C35.7969 14.4688 35.5 13.0781 33.7969 10.4844
C31.2969 6.78125 26.7031 4.29688 22.4062 4.29688
C17.9062 4.29688 14.5 7.59375 14.5 12.0781
C14.5 16.2656 16.5938 19.2656 21 21.3594
C24.0938 22.75 28 23.75 35.7969 25.0469
z
" id="Century_Schoolbook_L_Roman-97"/>
     <path d="
M20 46
L2.70312 46
L2.70312 41.2188
L6.29688 41.2188
C10 41.2188 10.5938 40.5156 10.5938 36.2031
L10.5938 12.2969
L10.5938 8.29688
C10.5938 4.29688 9.5 3.59375 3.09375 3.59375
L2.70312 3.59375
L2.70312 0
L28 0
L28 3.59375
L27.5938 3.59375
C21.0938 3.59375 20 4.29688 20 8.28125
L20 12.2812
L20 22.6562
C20 27.5469 20.7031 32.0312 21.7969 34.3281
C23.9062 38.8281 28.4062 41.9219 32.7031 41.9219
C35.2969 41.9219 38.2969 40.4219 39.7969 38.4219
C41.2969 36.3281 42 33.2344 42 28.4375
L42 12.2812
L42 8.28125
C42 4.29688 40.9062 3.59375 34.4062 3.59375
L34 3.59375
L34 0
L59.2969 0
L59.2969 3.59375
L58.9062 3.59375
C52.5 3.59375 51.4062 4.29688 51.4062 8.28125
L51.4062 12.2812
L51.4062 27.9531
C51.4062 35.125 51.0938 36.9219 49.2969 40.3281
C46.7969 45.1094 41.7031 48 35.7969 48
C29.4062 48 24.4062 45.0469 20 38.5156
z
" id="Century_Schoolbook_L_Roman-110"/>
     <path d="
M25.2031 48.2812
C13 48.2812 3.40625 37.4531 3.40625 23.5469
C3.40625 9.9375 13 -1 25 -1
C37 -1 46.5938 9.9375 46.5938 23.6406
C46.5938 37.25 37 48.2812 25.2031 48.2812
M25.2031 44
C32.2031 44 36.0938 36.7344 36.0938 23.6406
C36.0938 10.4531 32.2031 3.29688 25 3.29688
C17.7969 3.29688 13.9062 10.4531 13.9062 23.5469
C13.9062 37.0469 17.7031 44 25.2031 44" id="Century_Schoolbook_L_Roman-111"/>
     <path d="
M38.7031 15.1094
C35.5 7.96875 32.0938 5.09375 26.9062 5.09375
C18.9062 5.09375 13.9062 12.3281 13.9062 23.9375
C13.9062 35.9531 18.7969 44 26.2031 44
C29.2031 44 31.7969 42.5938 31.7969 41.0156
C31.7969 40.7188 31.5938 40.4219 31.2031 39.8125
C29.5938 37.9375 29.2031 36.9375 29.2031 35.2656
C29.2031 31.9844 31.7031 29.7031 35.2031 29.7031
C38.7031 29.7031 41.2969 32.4844 41.2969 36.4531
C41.2969 43.1094 34.5938 48.2812 25.7031 48.2812
C12.7031 48.2812 3.40625 37.6562 3.40625 22.8438
C3.40625 8.73438 11.9062 -1 24.2969 -1
C33.2031 -1 38.2969 3.07812 42.5938 13.625
z
" id="Century_Schoolbook_L_Roman-99"/>
    </defs>
    <g transform="translate(716.096106702 78.6826018641)scale(0.48 -0.48)">
     <use transform="scale(0.9962640099626402)" xlink:href="#Century_Schoolbook_L_Roman-68"/>
     <use transform="translate(77.50837010137765 0.0)scale(0.9962640099626402)" xlink:href="#Century_Schoolbook_L_Roman-101"/>
     <use transform="translate(127.32157059950967 0.0)scale(0.9962640099626402)" xlink:href="#Century_Schoolbook_L_Roman-112"/>
     <use transform="translate(184.50705788352275 0.0)scale(0.9962640099626402)" xlink:href="#Century_Schoolbook_L_Roman-108"/>
     <use transform="translate(215.88837087970893 0.0)scale(0.9962640099626402)" xlink:href="#Century_Schoolbook_L_Roman-97"/>
     <use transform="translate(271.28004784304954 0.0)scale(0.9962640099626402)" xlink:href="#Century_Schoolbook_L_Roman-99"/>
     <use transform="translate(315.51361654051215 0.0)scale(0.9962640099626402)" xlink:href="#Century_Schoolbook_L_Roman-101"/>
     <use transform="translate(365.3268170386442 0.0)scale(0.9962640099626402)" xlink:href="#Century_Schoolbook_L_Roman-109"/>
     <use transform="translate(453.8937237313201 0.0)scale(0.9962640099626402)" xlink:href="#Century_Schoolbook_L_Roman-101"/>
     <use transform="translate(503.7069242294521 0.0)scale(0.9962640099626402)" xlink:href="#Century_Schoolbook_L_Roman-110"/>
     <use transform="translate(564.5785549064058 0.0)scale(0.9962640099626402)" xlink:href="#Century_Schoolbook_L_Roman-116"/>
     <use transform="translate(631.0274307041952 0.0)scale(0.9962640099626402)" xlink:href="#Century_Schoolbook_L_Roman-116"/>
     <use transform="translate(669.7811368987392 0.0)scale(0.9962640099626402)" xlink:href="#Century_Schoolbook_L_Roman-111"/>
     <use transform="translate(719.5943373968712 0.0)scale(0.9962640099626402)" xlink:href="#Century_Schoolbook_L_Roman-116"/>
     <use transform="translate(758.348043591415 0.0)scale(0.9962640099626402)" xlink:href="#Century_Schoolbook_L_Roman-97"/>
     <use transform="translate(813.7397205547556 0.0)scale(0.9962640099626402)" xlink:href="#Century_Schoolbook_L_Roman-108"/>
    </g>
   </g>
   <g id="legend_1">
    <g id="patch_7">
     <path d="
M330.132 259.219
L1646.12 259.219
L1646.12 107.683
L330.132 107.683
z
" style="fill:#ffffff;stroke:#000000;stroke-linejoin:miter;"/>
    </g>
    <g id="line2d_42">
     <path d="
M363.732 145.565
L430.932 145.565" style="fill:none;stroke:#0000ff;stroke-linecap:square;"/>
    </g>
    <g id="line2d_43"/>
    <g id="text_17">
     <!-- L= 0 m -->
     <defs>
      <path d="
M64.5938 27.3281
L60.2031 27.3281
C59.2031 20.5469 56.7969 13.7656 54.2031 10.4844
C51.0938 6.59375 45.2969 4.6875 36.9062 4.6875
L32.7031 4.6875
C29.7031 4.6875 27.2031 5.29688 26.2969 6.1875
C25.5938 6.78125 25.5 7.39062 25.5 9.48438
L25.5 59.7188
L25.5 62.6094
C25.5 66.8125 26.4062 67.3125 34.5 67.3125
L36.2969 67.3125
L36.2969 72
L3.5 72
L3.5 67.3125
L5.29688 67.3125
C13.4062 67.3125 14.2969 66.8125 14.2969 62.6094
L14.2969 59.7188
L14.2969 12.2812
L14.2969 9.375
C14.2969 5.1875 13.4062 4.6875 5.29688 4.6875
L3.5 4.6875
L3.5 0
L62.5 0
z
" id="Century_Schoolbook_L_Roman-76"/>
      <path d="
M5.09375 11
L55.5 11
L55.5 18.9844
L5.09375 18.9844
z

M5.09375 31.0156
L55.5 31.0156
L55.5 39
L5.09375 39
z
" id="Century_Schoolbook_L_Roman-61"/>
      <path d="
M28.4062 71
C14.4062 71 4.20312 55.6875 4.20312 34.75
C4.20312 14.125 14.0938 -1 27.5938 -1
C41.5938 -1 51.4062 13.625 51.4062 34.4375
C51.4062 45.0625 49.2031 53.875 45 60.7812
C41.0938 67.0938 34.7031 71 28.4062 71
M27.7031 66.7031
C31 66.7031 34.2031 64.5 36.5938 60.5
C39.2969 55.875 40.2031 49.9688 40.2031 36.25
C40.2031 22.2188 39.5 15.625 37.5 11.2031
C35.2031 6.29688 31.5938 3.29688 27.7969 3.29688
C24.5 3.29688 21.2969 5.5 18.9062 9.5
C16.0938 14.2188 15.2969 20.5312 15.2969 36.8594
C15.2969 48.4844 16 54.375 18 58.6875
C20.2969 63.7969 23.9062 66.7031 27.7031 66.7031" id="Century_Schoolbook_L_Roman-48"/>
     </defs>
     <g transform="translate(483.732048884 162.365203728)scale(0.48 -0.48)">
      <use transform="scale(0.9962640099626402)" xlink:href="#Century_Schoolbook_L_Roman-76"/>
      <use transform="translate(66.45003113325032 0.0)scale(0.9962640099626402)" xlink:href="#Century_Schoolbook_L_Roman-61"/>
      <use transform="translate(154.51821295143213 0.0)scale(0.9962640099626402)" xlink:href="#Century_Schoolbook_L_Roman-48"/>
      <use transform="translate(237.60505951801838 0.0)scale(0.9962640099626402)" xlink:href="#Century_Schoolbook_L_Roman-109"/>
     </g>
    </g>
    <g id="line2d_44">
     <path d="
M363.732 214.134
L430.932 214.134" style="fill:none;stroke:#008000;stroke-linecap:square;"/>
    </g>
    <g id="line2d_45"/>
    <g id="text_18">
     <!-- L= 500 m -->
     <defs>
      <path d="
M16.4062 59.7031
C21.7969 58.4062 24.5938 58 28.5 58
C37 58 43.2031 61 46.5 66.5
C47.5938 68.4062 48 69.2969 48 70.0938
C48 70.7031 47.7031 71 47.2031 71
C46.9062 71 46.4062 70.8906 45.9062 70.5938
C41 68.4844 38.2969 67.9844 32.5938 67.9844
C26.2031 67.9844 22.5 68.4844 12 71
C11.5938 62.6406 10.7031 52 9.29688 39.6562
C7.20312 37.4688 6.5 36.1719 6.5 34.5781
C6.5 32.5938 7.79688 31.2031 9.70312 31.2031
C12.2031 31.2031 13.7969 33.3281 14.2031 37.3594
C17.7031 39.8906 21 41 25 41
C33.9062 41 39.2969 34.0312 39.2969 22.5
C39.2969 15.7344 37.5938 9.95312 34.5938 6.82812
C32.5938 4.70312 28.5 3.29688 24.4062 3.29688
C18.4062 3.29688 12.2031 6.4375 12.2031 9.5625
C12.2031 10.2812 12.7969 11.0781 14 11.7812
C17.0938 13.7188 18 15.0312 18 17.75
C18 21.2969 15.2969 24.0156 11.7031 24.0156
C7.70312 24.0156 4.5 20.2812 4.5 15.5469
C4.5 10.5 7.40625 5.45312 11.9062 2.32812
C15.2969 0.109375 19.4062 -1 24.5938 -1
C40.2969 -1 50.2031 8.28125 50.2031 23.1094
C50.2031 36.8281 41.0938 46 27.5938 46
C23.4062 46 20.2031 45.2969 14.7031 43
z
" id="Century_Schoolbook_L_Roman-53"/>
     </defs>
     <g transform="translate(483.732048884 230.933576481)scale(0.48 -0.48)">
      <use transform="scale(0.9962640099626402)" xlink:href="#Century_Schoolbook_L_Roman-76"/>
      <use transform="translate(66.45003113325032 0.0)scale(0.9962640099626402)" xlink:href="#Century_Schoolbook_L_Roman-61"/>
      <use transform="translate(154.51821295143213 0.0)scale(0.9962640099626402)" xlink:href="#Century_Schoolbook_L_Roman-53"/>
      <use transform="translate(209.90988991477275 0.0)scale(0.9962640099626402)" xlink:href="#Century_Schoolbook_L_Roman-48"/>
      <use transform="translate(265.30156687811336 0.0)scale(0.9962640099626402)" xlink:href="#Century_Schoolbook_L_Roman-48"/>
      <use transform="translate(348.3884134446996 0.0)scale(0.9962640099626402)" xlink:href="#Century_Schoolbook_L_Roman-109"/>
     </g>
    </g>
    <g id="line2d_46">
     <path d="
M803.871 145.565
L871.071 145.565" style="fill:none;stroke:#ff0000;stroke-linecap:square;"/>
    </g>
    <g id="line2d_47"/>
    <g id="text_19">
     <!-- L= 1000 m -->
     <defs>
      <path d="
M32.2031 70.5
C28.7969 66.2344 19.5938 63 10.4062 63
L10.4062 58.5938
L19.2031 58.5938
C25 58.5938 25.4062 58.2031 25.4062 52.3125
L25.4062 12.2812
L25.4062 9.375
C25.4062 5.1875 24.5 4.6875 16.5 4.6875
L10 4.6875
L10 0
L49.5938 0
L49.5938 4.6875
L44.0938 4.6875
C38.7969 4.6875 36.5938 5.09375 35.7969 6.09375
C35.0938 6.78125 35.0938 6.78125 35.0938 12.3125
L35.0938 53.6719
C35.0938 58.5781 35.2969 63.375 35.7969 70.5
z
" id="Century_Schoolbook_L_Roman-49"/>
     </defs>
     <g transform="translate(923.870629913 162.365203728)scale(0.48 -0.48)">
      <use transform="scale(0.9962640099626402)" xlink:href="#Century_Schoolbook_L_Roman-76"/>
      <use transform="translate(66.45003113325032 0.0)scale(0.9962640099626402)" xlink:href="#Century_Schoolbook_L_Roman-61"/>
      <use transform="translate(154.51821295143213 0.0)scale(0.9962640099626402)" xlink:href="#Century_Schoolbook_L_Roman-49"/>
      <use transform="translate(209.90988991477275 0.0)scale(0.9962640099626402)" xlink:href="#Century_Schoolbook_L_Roman-48"/>
      <use transform="translate(265.30156687811336 0.0)scale(0.9962640099626402)" xlink:href="#Century_Schoolbook_L_Roman-48"/>
      <use transform="translate(320.693243841454 0.0)scale(0.9962640099626402)" xlink:href="#Century_Schoolbook_L_Roman-48"/>
      <use transform="translate(403.7800904080402 0.0)scale(0.9962640099626402)" xlink:href="#Century_Schoolbook_L_Roman-109"/>
     </g>
    </g>
    <g id="line2d_48">
     <path d="
M803.871 214.134
L871.071 214.134" style="fill:none;stroke:#00bfbf;stroke-linecap:square;"/>
    </g>
    <g id="line2d_49"/>
    <g id="text_20">
     <!-- L= 1500 m -->
     <g transform="translate(923.870629913 230.933576481)scale(0.48 -0.48)">
      <use transform="scale(0.9962640099626402)" xlink:href="#Century_Schoolbook_L_Roman-76"/>
      <use transform="translate(66.45003113325032 0.0)scale(0.9962640099626402)" xlink:href="#Century_Schoolbook_L_Roman-61"/>
      <use transform="translate(154.51821295143213 0.0)scale(0.9962640099626402)" xlink:href="#Century_Schoolbook_L_Roman-49"/>
      <use transform="translate(209.90988991477275 0.0)scale(0.9962640099626402)" xlink:href="#Century_Schoolbook_L_Roman-53"/>
      <use transform="translate(265.30156687811336 0.0)scale(0.9962640099626402)" xlink:href="#Century_Schoolbook_L_Roman-48"/>
      <use transform="translate(320.693243841454 0.0)scale(0.9962640099626402)" xlink:href="#Century_Schoolbook_L_Roman-48"/>
      <use transform="translate(403.7800904080402 0.0)scale(0.9962640099626402)" xlink:href="#Century_Schoolbook_L_Roman-109"/>
     </g>
    </g>
    <g id="line2d_50">
     <path d="
M1270.6 145.565
L1337.8 145.565" style="fill:none;stroke:#bf00bf;stroke-linecap:square;"/>
    </g>
    <g id="line2d_51"/>
    <g id="text_21">
     <!-- L= 2000 m -->
     <defs>
      <path d="
M50.5 21.5625
L46.0938 21.5625
L45.0938 16.4688
C43.7969 10.0781 43 9.375 36.7969 9.375
L14.4062 9.375
C21.2969 16.5625 23.5938 18.6562 30 23.6562
C39.0938 30.6562 43 34.1562 45.2969 37.1406
C48.5 41.5312 50.0938 46.0312 50.0938 50.8125
C50.0938 62.1094 40.5938 70.2969 27.5938 70.2969
C14.9062 70.2969 5.09375 62.1094 5.09375 51.5156
C5.09375 45.2344 8.29688 40.9375 13.0938 40.9375
C16.7969 40.9375 19.2969 43.4375 19.2969 47.0312
C19.2969 49.5156 17.9062 51.8125 15.7031 52.7188
C12 54.3281 11.7969 54.4219 11.7969 55.7188
C11.7969 57.2188 12.7969 59.5156 14.2031 61.2188
C16.7031 64.2031 20.9062 66 25.5938 66
C33.7969 66 38.7969 60.9062 38.7969 52.5312
C38.7969 45.125 35.2969 38.4375 27 29.6562
L21.0938 23.4688
C17.5938 19.7812 15 16.9688 13.2969 15.0781
C9.70312 10.875 7.90625 8.57812 3.5 2.79688
L3.5 0
L48.5938 0
z
" id="Century_Schoolbook_L_Roman-50"/>
     </defs>
     <g transform="translate(1390.59721953 162.365203728)scale(0.48 -0.48)">
      <use transform="scale(0.9962640099626402)" xlink:href="#Century_Schoolbook_L_Roman-76"/>
      <use transform="translate(66.45003113325032 0.0)scale(0.9962640099626402)" xlink:href="#Century_Schoolbook_L_Roman-61"/>
      <use transform="translate(154.51821295143213 0.0)scale(0.9962640099626402)" xlink:href="#Century_Schoolbook_L_Roman-50"/>
      <use transform="translate(209.90988991477275 0.0)scale(0.9962640099626402)" xlink:href="#Century_Schoolbook_L_Roman-48"/>
      <use transform="translate(265.30156687811336 0.0)scale(0.9962640099626402)" xlink:href="#Century_Schoolbook_L_Roman-48"/>
      <use transform="translate(320.693243841454 0.0)scale(0.9962640099626402)" xlink:href="#Century_Schoolbook_L_Roman-48"/>
      <use transform="translate(403.7800904080402 0.0)scale(0.9962640099626402)" xlink:href="#Century_Schoolbook_L_Roman-109"/>
     </g>
    </g>
   </g>
  </g>
 </g>
 <defs>
  <clipPath id="p72cdcb1821">
   <rect height="670.036776882" width="1502.3972559" x="167.726553257" y="83.6826018641"/>
  </clipPath>
 </defs>
</svg>
