<?xml version="1.0" encoding="utf-8" standalone="no"?>
<!DOCTYPE svg PUBLIC "-//W3C//DTD SVG 1.1//EN"
  "http://www.w3.org/Graphics/SVG/1.1/DTD/svg11.dtd">
<!-- Created with matplotlib (http://matplotlib.org/) -->
<svg height="880pt" version="1.1" viewBox="0 0 1731 880" width="1731pt" xmlns="http://www.w3.org/2000/svg" xmlns:xlink="http://www.w3.org/1999/xlink">
 <defs>
  <style type="text/css">
*{stroke-linecap:butt;stroke-linejoin:round;}
  </style>
 </defs>
 <g id="figure_1">
  <g id="patch_1">
   <path d="
M0 880.2
L1731.6 880.2
L1731.6 0
L0 0
z
" style="fill:#ffffff;"/>
  </g>
  <g id="axes_1">
   <g id="patch_2">
    <path d="
M186.003 753.719
L1670.12 753.719
L1670.12 83.6826
L186.003 83.6826
z
" style="fill:#ffffff;"/>
   </g>
   <g id="line2d_1">
    <path clip-path="url(#p942a3e477e)" d="
M186.003 418.701
L1668.66 418.701
L1668.66 418.701" style="fill:none;stroke:#0000ff;stroke-linecap:square;"/>
   </g>
   <g id="patch_3">
    <path d="
M1670.12 753.719
L1670.12 83.6826" style="fill:none;stroke:#000000;stroke-linecap:square;stroke-linejoin:miter;"/>
   </g>
   <g id="patch_4">
    <path d="
M186.003 83.6826
L1670.12 83.6826" style="fill:none;stroke:#000000;stroke-linecap:square;stroke-linejoin:miter;"/>
   </g>
   <g id="patch_5">
    <path d="
M186.003 753.719
L186.003 83.6826" style="fill:none;stroke:#000000;stroke-linecap:square;stroke-linejoin:miter;"/>
   </g>
   <g id="patch_6">
    <path d="
M186.003 753.719
L1670.12 753.719" style="fill:none;stroke:#000000;stroke-linecap:square;stroke-linejoin:miter;"/>
   </g>
   <g id="matplotlib.axis_1">
    <g id="xtick_1">
     <g id="line2d_2">
      <path clip-path="url(#p942a3e477e)" d="
M186.003 753.719
L186.003 83.6826" style="fill:none;stroke:#000000;stroke-dasharray:1.000000,3.000000;stroke-dashoffset:0.0;stroke-width:0.5;"/>
     </g>
     <g id="line2d_3">
      <defs>
       <path d="
M0 0
L0 -4" id="mc7db9fdffb" style="stroke:#000000;stroke-width:0.5;"/>
      </defs>
      <g>
       <use style="stroke:#000000;stroke-width:0.5;" x="186.002744104" xlink:href="#mc7db9fdffb" y="753.719378746"/>
      </g>
     </g>
     <g id="line2d_4">
      <defs>
       <path d="
M0 0
L0 4" id="m5a7d422ac3" style="stroke:#000000;stroke-width:0.5;"/>
      </defs>
      <g>
       <use style="stroke:#000000;stroke-width:0.5;" x="186.002744104" xlink:href="#m5a7d422ac3" y="83.6826018641"/>
      </g>
     </g>
     <g id="text_1">
      <!-- $0$ -->
      <defs>
       <path d="
M42 31.6406
C42 37.75 41.9062 48.125 37.7031 56.1094
C34 63.1094 28.0938 65.5938 22.9062 65.5938
C18.0938 65.5938 12 63.4062 8.20312 56.2031
C4.20312 48.7188 3.79688 39.4375 3.79688 31.6406
C3.79688 25.9531 3.90625 17.2812 7 9.67188
C11.2969 -0.609375 19 -2 22.9062 -2
C27.5 -2 34.5 -0.109375 38.5938 9.375
C41.5938 16.2812 42 24.3594 42 31.6406
M22.9062 -0.40625
C16.5 -0.40625 12.7031 5.07812 11.2969 12.6875
C10.2031 18.5625 10.2031 27.1562 10.2031 32.75
C10.2031 40.4375 10.2031 46.8281 11.5 52.9219
C13.4062 61.3906 19 64 22.9062 64
C27 64 32.2969 61.2969 34.2031 53.125
C35.5 47.4375 35.5938 40.7344 35.5938 32.75
C35.5938 26.25 35.5938 18.2656 34.4062 12.375
C32.2969 1.48438 26.4062 -0.40625 22.9062 -0.40625" id="CMR17-48"/>
      </defs>
      <g transform="translate(176.864648681 787.288213632)scale(0.4 -0.4)">
       <use transform="scale(0.9962640099626402)" xlink:href="#CMR17-48"/>
      </g>
     </g>
    </g>
    <g id="xtick_2">
     <g id="line2d_5">
      <path clip-path="url(#p942a3e477e)" d="
M482.827 753.719
L482.827 83.6826" style="fill:none;stroke:#000000;stroke-dasharray:1.000000,3.000000;stroke-dashoffset:0.0;stroke-width:0.5;"/>
     </g>
     <g id="line2d_6">
      <g>
       <use style="stroke:#000000;stroke-width:0.5;" x="482.826957114" xlink:href="#mc7db9fdffb" y="753.719378746"/>
      </g>
     </g>
     <g id="line2d_7">
      <g>
       <use style="stroke:#000000;stroke-width:0.5;" x="482.826957114" xlink:href="#m5a7d422ac3" y="83.6826018641"/>
      </g>
     </g>
     <g id="text_2">
      <!-- $2$ -->
      <defs>
       <path d="
M41.7031 15.4531
L39.9062 15.4531
C38.9062 8.375 38.0938 7.17188 37.7031 6.5625
C37.2031 5.76562 30 5.76562 28.5938 5.76562
L9.40625 5.76562
C13 9.67188 20 16.75 28.5 24.9531
C34.5938 30.7344 41.7031 37.5312 41.7031 47.4219
C41.7031 59.2188 32.2969 66 21.7969 66
C10.7969 66 4.09375 56.3125 4.09375 47.3438
C4.09375 43.4375 7 42.9375 8.20312 42.9375
C9.20312 42.9375 12.2031 43.5469 12.2031 47.0312
C12.2031 50.1094 9.59375 51 8.20312 51
C7.59375 51 7 50.9062 6.59375 50.7031
C8.5 59.2188 14.2969 63.4062 20.4062 63.4062
C29.0938 63.4062 34.7969 56.5156 34.7969 47.4219
C34.7969 38.7344 29.7031 31.25 24 24.75
L4.09375 2.28125
L4.09375 0
L39.2969 0
z
" id="CMR17-50"/>
      </defs>
      <g transform="translate(473.688861691 787.288213632)scale(0.4 -0.4)">
       <use transform="scale(0.9962640099626402)" xlink:href="#CMR17-50"/>
      </g>
     </g>
    </g>
    <g id="xtick_3">
     <g id="line2d_8">
      <path clip-path="url(#p942a3e477e)" d="
M779.651 753.719
L779.651 83.6826" style="fill:none;stroke:#000000;stroke-dasharray:1.000000,3.000000;stroke-dashoffset:0.0;stroke-width:0.5;"/>
     </g>
     <g id="line2d_9">
      <g>
       <use style="stroke:#000000;stroke-width:0.5;" x="779.651170124" xlink:href="#mc7db9fdffb" y="753.719378746"/>
      </g>
     </g>
     <g id="line2d_10">
      <g>
       <use style="stroke:#000000;stroke-width:0.5;" x="779.651170124" xlink:href="#m5a7d422ac3" y="83.6826018641"/>
      </g>
     </g>
     <g id="text_3">
      <!-- $4$ -->
      <defs>
       <path d="
M33.5938 64.3281
C33.5938 66.4062 33.5 66.5 31.7031 66.5
L2 19.5938
L2 17
L27.7969 17
L27.7969 7.14062
C27.7969 3.5 27.5938 2.5 20.5938 2.5
L18.7031 2.5
L18.7031 0
C21.9062 0 27.2969 0 30.7031 0
C34.0938 0 39.5 0 42.7031 0
L42.7031 2.5
L40.7969 2.5
C33.7969 2.5 33.5938 3.5 33.5938 7.14062
L33.5938 17
L43.7969 17
L43.7969 19.5938
L33.5938 19.5938
z

M28.0938 57.7656
L28.0938 19.5938
L4 19.5938
z
" id="CMR17-52"/>
      </defs>
      <g transform="translate(770.5130747 787.288213632)scale(0.4 -0.4)">
       <use transform="scale(0.9962640099626402)" xlink:href="#CMR17-52"/>
      </g>
     </g>
    </g>
    <g id="xtick_4">
     <g id="line2d_11">
      <path clip-path="url(#p942a3e477e)" d="
M1076.48 753.719
L1076.48 83.6826" style="fill:none;stroke:#000000;stroke-dasharray:1.000000,3.000000;stroke-dashoffset:0.0;stroke-width:0.5;"/>
     </g>
     <g id="line2d_12">
      <g>
       <use style="stroke:#000000;stroke-width:0.5;" x="1076.47538313" xlink:href="#mc7db9fdffb" y="753.719378746"/>
      </g>
     </g>
     <g id="line2d_13">
      <g>
       <use style="stroke:#000000;stroke-width:0.5;" x="1076.47538313" xlink:href="#m5a7d422ac3" y="83.6826018641"/>
      </g>
     </g>
     <g id="text_4">
      <!-- $6$ -->
      <defs>
       <path d="
M10.5938 34
C10.5938 57.6562 21.7969 63 28.2969 63
C30.4062 63 35.5 62.6406 37.5 59
C35.9062 59 32.9062 59 32.9062 55.5156
C32.9062 52.8281 35.0938 51.9219 36.5 51.9219
C37.4062 51.9219 40.0938 52.3125 40.0938 55.625
C40.0938 61.7812 35.0938 65.2969 28.2031 65.2969
C16.2969 65.2969 3.79688 52.9688 3.79688 31
C3.79688 3.95312 15.0938 -2 23.0938 -2
C32.7969 -2 42 6.67188 42 20.0469
C42 32.5156 33.9062 41.5938 23.7031 41.5938
C17.5938 41.5938 13.0938 37.6094 10.5938 30.625
z

M23.0938 0.390625
C10.7969 0.390625 10.7969 18.75 10.7969 22.4375
C10.7969 29.625 14.2031 40 23.5 40
C25.2031 40 30.0938 40 33.4062 33.125
C35.2031 29.2188 35.2031 25.1406 35.2031 20.1406
C35.2031 14.75 35.2031 10.7812 33.0938 6.78125
C30.9062 2.67188 27.7031 0.390625 23.0938 0.390625" id="CMR17-54"/>
      </defs>
      <g transform="translate(1067.33728771 787.288213632)scale(0.4 -0.4)">
       <use transform="scale(0.9962640099626402)" xlink:href="#CMR17-54"/>
      </g>
     </g>
    </g>
    <g id="xtick_5">
     <g id="line2d_14">
      <path clip-path="url(#p942a3e477e)" d="
M1373.3 753.719
L1373.3 83.6826" style="fill:none;stroke:#000000;stroke-dasharray:1.000000,3.000000;stroke-dashoffset:0.0;stroke-width:0.5;"/>
     </g>
     <g id="line2d_15">
      <g>
       <use style="stroke:#000000;stroke-width:0.5;" x="1373.29959614" xlink:href="#mc7db9fdffb" y="753.719378746"/>
      </g>
     </g>
     <g id="line2d_16">
      <g>
       <use style="stroke:#000000;stroke-width:0.5;" x="1373.29959614" xlink:href="#m5a7d422ac3" y="83.6826018641"/>
      </g>
     </g>
     <g id="text_5">
      <!-- $8$ -->
      <defs>
       <path d="
M27.2031 35.375
C33.5 38.5625 39.9062 43.3281 39.9062 50.9844
C39.9062 60.0312 31.0938 65.2969 23 65.2969
C13.9062 65.2969 5.90625 58.7344 5.90625 49.6875
C5.90625 47.2031 6.5 42.9219 10.4062 39.1406
C11.4062 38.1562 15.5938 35.1719 18.2969 33.2812
C13.7969 30.9844 3.29688 25.5312 3.29688 14.5938
C3.29688 4.35938 13.0938 -2 22.7969 -2
C33.5 -2 42.5 5.65625 42.5 15.7969
C42.5 24.8438 36.4062 29.0312 32.4062 31.7031
z

M14.0938 44.125
C13.2969 44.625 9.29688 47.7031 9.29688 52.375
C9.29688 58.4375 15.5938 63 22.7969 63
C30.7031 63 36.5 57.4531 36.5 50.9844
C36.5 41.7344 26.0938 36.4688 25.5938 36.4688
C25.5 36.4688 25.4062 36.4688 24.5938 37.0781
z

M32.5 23.7344
C34 22.6406 38.7969 19.375 38.7969 13.2969
C38.7969 5.95312 31.4062 0.390625 23 0.390625
C13.9062 0.390625 7 6.84375 7 14.6875
C7 22.5469 13.0938 29.0938 20 32.1875
z
" id="CMR17-56"/>
      </defs>
      <g transform="translate(1364.16150072 787.288213632)scale(0.4 -0.4)">
       <use transform="scale(0.9962640099626402)" xlink:href="#CMR17-56"/>
      </g>
     </g>
    </g>
    <g id="xtick_6">
     <g id="line2d_17">
      <path clip-path="url(#p942a3e477e)" d="
M1670.12 753.719
L1670.12 83.6826" style="fill:none;stroke:#000000;stroke-dasharray:1.000000,3.000000;stroke-dashoffset:0.0;stroke-width:0.5;"/>
     </g>
     <g id="line2d_18">
      <g>
       <use style="stroke:#000000;stroke-width:0.5;" x="1670.12380915" xlink:href="#mc7db9fdffb" y="753.719378746"/>
      </g>
     </g>
     <g id="line2d_19">
      <g>
       <use style="stroke:#000000;stroke-width:0.5;" x="1670.12380915" xlink:href="#m5a7d422ac3" y="83.6826018641"/>
      </g>
     </g>
     <g id="text_6">
      <!-- $10$ -->
      <defs>
       <path d="
M26.5938 63.3125
C26.5938 65.4062 26.5 65.5 25.0938 65.5
C21.2031 61.1875 15.2969 59.7969 9.70312 59.7969
C9.40625 59.7969 8.90625 59.7969 8.79688 59.5
C8.70312 59.2969 8.70312 59.0938 8.70312 57
C11.7969 57 17 57.5938 21 59.9844
L21 7.20312
C21 3.6875 20.7969 2.5 12.2031 2.5
L9.20312 2.5
L9.20312 0
C14 0 19 0 23.7969 0
C28.5938 0 33.5938 0 38.4062 0
L38.4062 2.5
L35.4062 2.5
C26.7969 2.5 26.5938 3.59375 26.5938 7.15625
z
" id="CMR17-49"/>
      </defs>
      <g transform="translate(1651.84761831 787.288213632)scale(0.4 -0.4)">
       <use transform="scale(0.9962640099626402)" xlink:href="#CMR17-49"/>
       <use transform="translate(45.69047711706103 0.0)scale(0.9962640099626402)" xlink:href="#CMR17-48"/>
      </g>
     </g>
    </g>
    <g id="text_7">
     <!-- Instant simule - temps $t$ (s) -->
     <defs>
      <path d="
M27.9062 73.4531
C21.9062 69.7656 18.7031 67.1719 15.2969 63.1719
C7.70312 54.1875 3.59375 42.7188 3.59375 30.6406
C3.59375 19.2656 7.20312 8.57812 13.9062 -0.296875
C17.7031 -5.09375 21.0938 -8.07812 27.9062 -12.2812
L27.9062 -8.57812
C17.9062 0.203125 13.9062 11.4844 13.9062 30.6406
C13.9062 49.7969 17.9062 60.9844 27.9062 69.7656
z
" id="Century_Schoolbook_L_Roman-40"/>
      <path d="
M45.2031 32.5781
C45.2031 38.7969 44.0938 41.9688 41.2031 44.3438
C37.9062 46.9062 33 48.2812 26.5938 48.2812
C15.4062 48.2812 7.09375 43.0469 7.09375 35.9219
C7.09375 32.1562 9.40625 29.7812 12.9062 29.7812
C16 29.7812 18.2969 31.8594 18.2969 34.8125
C18.2969 36.1094 17.7969 37.4844 16.7969 38.875
C16.2031 39.5469 16.0938 39.8438 16.0938 40.1562
C16.0938 42.2188 20.2031 44 25 44
C28.0938 44 31.5938 43.0156 33.2031 41.5312
C35.0938 39.9531 35.7969 37.5781 35.7969 33.125
L35.7969 29.2812
C25.2969 27.4844 22.0938 26.6875 17.2031 24.8125
C8.59375 21.6094 4.40625 16.9375 4.40625 10.6562
C4.40625 3.57812 10.0938 -1 18.9062 -1
C25.7969 -1 32 1.85938 36.2969 7.0625
C37.9062 1.98438 40.4062 0 45.0938 0
C49.5938 0 54.2969 2.90625 54.2969 5.78125
C54.2969 6.46875 53.7969 6.96875 53.2969 6.96875
C52.9062 6.96875 52.5 6.875 51.7969 6.57812
C50.2031 6 49.7969 5.89062 49 5.89062
C46.2031 5.89062 45.2031 7.78125 45.2031 12.7188
z

M35.7969 20.4688
C35.7969 14.4688 35.5 13.0781 33.7969 10.4844
C31.2969 6.78125 26.7031 4.29688 22.4062 4.29688
C17.9062 4.29688 14.5 7.59375 14.5 12.0781
C14.5 16.2656 16.5938 19.2656 21 21.3594
C24.0938 22.75 28 23.75 35.7969 25.0469
z
" id="Century_Schoolbook_L_Roman-97"/>
      <path d="
M5.40625 -12.2812
C11.4062 -8.57812 14.5938 -5.98438 18 -1.89062
C25.5938 6.98438 29.7031 18.5625 29.7031 30.6406
C29.7031 42.0156 26.0938 52.7031 19.4062 61.4844
C15.5938 66.375 12.2031 69.3594 5.40625 73.4531
L5.40625 69.7656
C15.4062 60.9844 19.4062 49.7969 19.4062 30.6406
C19.4062 11.375 15.4062 0.203125 5.40625 -8.57812
z
" id="Century_Schoolbook_L_Roman-41"/>
      <path d="
M20.5938 46
L1.79688 46
L1.79688 41.2188
L6.90625 41.2188
C10.5938 41.2188 11.2031 40.5156 11.2031 36.2031
L11.2031 12.2969
L11.2031 8.29688
C11.2031 4.29688 10.0938 3.59375 3.70312 3.59375
L3 3.59375
L3 0
L28.9062 0
L28.9062 3.59375
L28.2031 3.59375
C21.7031 3.59375 20.5938 4.28125 20.5938 8.21875
L20.5938 12.1719
z

M15.9062 71.5781
C12.7031 71.5781 10.0938 68.9844 10.0938 65.7969
C10.0938 62.7031 12.7031 60 15.7969 60
C19.0938 60 21.7031 62.5938 21.7031 65.7969
C21.7031 68.9844 19.0938 71.5781 15.9062 71.5781" id="Century_Schoolbook_L_Roman-105"/>
      <path d="
M4.20312 27.2812
L4.20312 19
L29.0938 19
L29.0938 27.2812
z
" id="Century_Schoolbook_L_Roman-45"/>
      <path d="
M20.0938 40.0938
L29.2969 40.0938
C31.2031 40.0938 32.2031 40.0938 32.2031 41.8906
C32.2031 43 31.5938 43 29.5938 43
L20.7969 43
L24.5 57.6875
C24.9062 59.0781 24.9062 59.2812 24.9062 60
C24.9062 61.6094 23.5938 62.5 22.2969 62.5
C21.5 62.5 19.2031 62.2031 18.4062 58.9844
L14.5 43
L5.09375 43
C3.09375 43 2.20312 43 2.20312 41.0938
C2.20312 40.0938 2.90625 40.0938 4.79688 40.0938
L13.7031 40.0938
L7.09375 13.7656
C6.29688 10.2812 6 9.28125 6 7.98438
C6 3.29688 9.29688 -1 14.9062 -1
C25 -1 30.4062 13.5781 30.4062 14.2656
C30.4062 14.875 30 15.1719 29.4062 15.1719
C29.2031 15.1719 28.7969 15.1719 28.5938 14.7656
C28.5 14.6719 28.4062 14.5625 27.7031 12.9688
C25.5938 7.98438 21 1 15.2031 1
C12.2031 1 12 3.5 12 5.6875
C12 5.78125 12 7.6875 12.2969 8.875
z
" id="CMMI12-116"/>
      <path d="
M41.2031 0
L59.4062 0
L59.4062 4.70312
L56.9062 4.70312
C51.4062 4.70312 50.5938 5.59375 50.5938 11.9531
L50.5938 46.7812
L31.7969 46.7812
L31.7969 42
L36.9062 42
C40.5938 42 41.2031 41.2969 41.2031 36.9531
L41.2031 24.5625
C41.2031 18.8125 40.5938 15.4844 39.0938 12.1562
C37 7.71875 33 5.09375 28.0938 5.09375
C25 5.09375 22.4062 6.1875 21.0938 8.17188
C19.7969 10.0469 19.5938 11.0469 19.5938 16.5
L19.5938 46.7812
L2.09375 46.7812
L2.09375 42
L5.90625 42
C9.59375 42 10.2031 41.2969 10.2031 36.9531
L10.2031 15.2188
C10.2031 10.0781 10.5938 7.76562 12.0938 5.45312
C14.7969 1.3125 19.5938 -1 25.5938 -1
C32.2031 -1 36.7969 1.71875 41.2031 8.125
z
" id="Century_Schoolbook_L_Roman-117"/>
      <path d="
M39 48
L35.5 48
L32.5938 44.4062
C29 47.2031 25.4062 48.3906 20.4062 48.3906
C11.5938 48.3906 5.79688 42.625 5.79688 33.9531
C5.79688 30.0781 7.09375 26.7812 9.29688 24.8125
C11.5938 22.7031 13.9062 21.7188 19.9062 20.3125
L25.2031 19.125
C33.0938 17.2344 35.9062 15.2344 35.9062 11.2656
C35.9062 6.57812 31.7969 3.29688 25.9062 3.29688
C17.5 3.29688 11.5 8.76562 9.09375 18.875
L5.09375 18.875
L5.09375 0
L8.59375 0
L12.0938 3.90625
C16.2031 0.59375 20.7969 -1 25.7969 -1
C35.5938 -1 42.0938 5.07812 42.0938 14.3438
C42.0938 18.7188 40.7031 22.0938 37.9062 24.3906
C35.5 26.4844 33.5 27.2812 27.4062 28.5625
L22.4062 29.6719
C16.9062 30.8594 16.9062 30.8594 15.0938 31.8594
C12.9062 32.8594 11.5938 34.9375 11.5938 37.1406
C11.5938 41.1094 15.4062 44 20.9062 44
C24.7031 44 27.7969 42.7031 30.5938 40.0156
C32.7969 37.8125 33.9062 35.8281 35.5 31.2344
L39 31.2344
z
" id="Century_Schoolbook_L_Roman-115"/>
      <path d="
M20.0938 46
L2.79688 46
L2.79688 41.2188
L6.40625 41.2188
C10.0938 41.2188 10.7031 40.5156 10.7031 36.2188
L10.7031 -7.75
L10.7031 -11.7188
C10.7031 -15.7188 9.59375 -16.4062 3.20312 -16.4062
L2.79688 -16.4062
L2.79688 -20
L28.7969 -20
L28.7969 -16.4062
L27.7031 -16.4062
C21.2031 -16.4062 20.0938 -15.7188 20.0938 -11.7344
L20.0938 -7.75
L20.0938 6.6875
C23.4062 0.90625 27.2031 -1.39062 33.2969 -1.39062
C44.9062 -1.39062 53.5 9.26562 53.5 23.5
C53.5 37.2656 44.9062 48 33.9062 48
C27.7031 48 23.5938 45.4375 20.0938 39.5156
z

M32.0938 42.6094
C39 42.6094 43 35.75 43 24.0938
C43 11.2656 38.9062 4 31.7969 4
C24.7031 4 20 11.375 20 22.8125
C20 35.1406 24.5 42.6094 32.0938 42.6094" id="Century_Schoolbook_L_Roman-112"/>
      <path d="
M19.4062 47
L19.4062 67
L15.2969 67
C14.2969 53.875 9.90625 47.1875 1.79688 46.5938
L1.79688 42.7031
L10 42.7031
L10 17.2656
C10 10.2812 10.2031 7.78125 11.2031 5.48438
C12.7969 1.29688 16.7969 -1 22.5938 -1
C26.5 -1 29.9062 0.203125 32.2031 2.39062
C35.5 5.59375 37.4062 10.875 37.4062 16.375
C37.4062 16.9688 37.4062 17.6719 37.2969 18.6719
L33.0938 18.6719
C32.7969 9.6875 30.2031 5.09375 25.2969 5.09375
C23 5.09375 21 6.28125 20.2969 7.98438
C19.7031 9.375 19.4062 11.875 19.4062 15.4688
L19.4062 42.7031
L34.0938 42.7031
L34.0938 47
z
" id="Century_Schoolbook_L_Roman-116"/>
      <path d="
M20.0938 46
L2.29688 46
L2.29688 41.2188
L6.40625 41.2188
C10.0938 41.2188 10.7031 40.5156 10.7031 36.2031
L10.7031 12.2969
L10.7031 8.40625
C10.7031 4.29688 9.59375 3.59375 3.20312 3.59375
L2.79688 3.59375
L2.79688 0
L28 0
L28 3.59375
L27.5938 3.59375
C21.2031 3.59375 20.0938 4.29688 20.0938 8.39062
L20.0938 12.2812
L20.0938 26.4531
C20.0938 35.3281 25 41.9219 31.5 41.9219
C34.0938 41.9219 36.9062 40.5156 38.0938 38.625
C39.5 36.7344 40.0938 33.8281 40.0938 29.7344
L40.0938 12.2812
L40.0938 8.28125
C40.0938 4.29688 39 3.59375 32.5 3.59375
L32.0938 3.59375
L32.0938 0
L57.4062 0
L57.4062 3.59375
L57 3.59375
C50.5938 3.59375 49.5 4.29688 49.5 8.28125
L49.5 12.2812
L49.5 25.5469
C49.5 35.5312 54 41.9219 61 41.9219
C64.2969 41.9219 67 40.0156 68.2969 36.9219
C69.2031 34.7344 69.5 32.5312 69.5 28.6406
L69.5 12.2812
L69.5 8.28125
C69.5 4.29688 68.4062 3.59375 61.9062 3.59375
L61.5 3.59375
L61.5 0
L86.7969 0
L86.7969 3.59375
L86.4062 3.59375
C80 3.59375 78.9062 4.29688 78.9062 8.39062
L78.9062 12.2812
L78.9062 30.6406
C78.9062 36.8281 78.2969 38.9219 75.7031 42.3125
C72.7969 46.0156 68.7031 48 63.9062 48
C57.4062 48 52.5938 44.9375 48.2969 38.1094
C46.5938 44.0469 41.2031 48 34.5 48
C28.5 48 24 45.1406 20.0938 38.9219
z
" id="Century_Schoolbook_L_Roman-109"/>
      <path d="
M46.5 23
C46.5938 37.8125 38.0938 48.2812 25.9062 48.2812
C13.0938 48.2812 3.5 37.25 3.5 22.3438
C3.5 8.4375 12.5938 -1 26.0938 -1
C35.5938 -1 42.4062 3.6875 46.5 13.1875
L43 15.0938
C38.9062 7.39062 34.7031 4.39062 28 4.39062
C22.9062 4.39062 19.2031 6.59375 16.5938 11
C14.7969 14 14 17.5 14.0938 23
z

M14.2031 27.2969
C14.2031 30.3438 14.5938 32.5 15.5938 35.25
C17.7031 41.1406 20.9062 44 25.7031 44
C31.7969 44 35.7969 38.7812 35.7969 30.9219
C35.7969 28.0781 34.9062 27.2969 31.7031 27.2969
z
" id="Century_Schoolbook_L_Roman-101"/>
      <path d="
M20 46
L2.70312 46
L2.70312 41.2188
L6.29688 41.2188
C10 41.2188 10.5938 40.5156 10.5938 36.2031
L10.5938 12.2969
L10.5938 8.29688
C10.5938 4.29688 9.5 3.59375 3.09375 3.59375
L2.70312 3.59375
L2.70312 0
L28 0
L28 3.59375
L27.5938 3.59375
C21.0938 3.59375 20 4.29688 20 8.28125
L20 12.2812
L20 22.6562
C20 27.5469 20.7031 32.0312 21.7969 34.3281
C23.9062 38.8281 28.4062 41.9219 32.7031 41.9219
C35.2969 41.9219 38.2969 40.4219 39.7969 38.4219
C41.2969 36.3281 42 33.2344 42 28.4375
L42 12.2812
L42 8.28125
C42 4.29688 40.9062 3.59375 34.4062 3.59375
L34 3.59375
L34 0
L59.2969 0
L59.2969 3.59375
L58.9062 3.59375
C52.5 3.59375 51.4062 4.29688 51.4062 8.28125
L51.4062 12.2812
L51.4062 27.9531
C51.4062 35.125 51.0938 36.9219 49.2969 40.3281
C46.7969 45.1094 41.7031 48 35.7969 48
C29.4062 48 24.4062 45.0469 20 38.5156
z
" id="Century_Schoolbook_L_Roman-110"/>
      <path d="
M26 59.7188
L26 62.6094
C26 66.8125 26.9062 67.3125 34.9062 67.3125
L36.9062 67.3125
L36.9062 72
L3.79688 72
L3.79688 67.3125
L5.79688 67.3125
C13.9062 67.3125 14.7969 66.8125 14.7969 62.6094
L14.7969 59.7188
L14.7969 12.2812
L14.7969 9.375
C14.7969 5.1875 13.9062 4.6875 5.79688 4.6875
L3.79688 4.6875
L3.79688 0
L36.9062 0
L36.9062 4.6875
L34.9062 4.6875
C26.9062 4.6875 26 5.1875 26 9.375
L26 12.2812
z
" id="Century_Schoolbook_L_Roman-73"/>
      <path d="
M20.4062 73
L1.90625 73
L1.90625 68.2188
L6.79688 68.2188
C10.4062 68.2188 11 67.5156 11 63.2188
L11 12.2812
L11 8.28125
C11 4.29688 9.90625 3.59375 3.5 3.59375
L2.79688 3.59375
L2.79688 0
L28.7031 0
L28.7031 3.59375
L28 3.59375
C21.5 3.59375 20.4062 4.29688 20.4062 8.25
L20.4062 12.2188
z
" id="Century_Schoolbook_L_Roman-108"/>
     </defs>
     <g transform="translate(678.212352908 829.42852426)scale(0.4 -0.4)">
      <use transform="scale(0.9962640099626402)" xlink:href="#Century_Schoolbook_L_Roman-73"/>
      <use transform="translate(40.54742530452211 0.0)scale(0.9962640099626402)" xlink:href="#Century_Schoolbook_L_Roman-110"/>
      <use transform="translate(101.41905598147572 0.0)scale(0.9962640099626402)" xlink:href="#Century_Schoolbook_L_Roman-115"/>
      <use transform="translate(147.54486654051215 0.0)scale(0.9962640099626402)" xlink:href="#Century_Schoolbook_L_Roman-116"/>
      <use transform="translate(186.29857273505607 0.0)scale(0.9962640099626402)" xlink:href="#Century_Schoolbook_L_Roman-97"/>
      <use transform="translate(241.69024969839666 0.0)scale(0.9962640099626402)" xlink:href="#Century_Schoolbook_L_Roman-110"/>
      <use transform="translate(302.56188037535026 0.0)scale(0.9962640099626402)" xlink:href="#Century_Schoolbook_L_Roman-116"/>
      <use transform="translate(369.01075617313984 0.0)scale(0.9962640099626402)" xlink:href="#Century_Schoolbook_L_Roman-115"/>
      <use transform="translate(415.1365667321763 0.0)scale(0.9962640099626402)" xlink:href="#Century_Schoolbook_L_Roman-105"/>
      <use transform="translate(446.51787972836246 0.0)scale(0.9962640099626402)" xlink:href="#Century_Schoolbook_L_Roman-109"/>
      <use transform="translate(535.0847864210383 0.0)scale(0.9962640099626402)" xlink:href="#Century_Schoolbook_L_Roman-117"/>
      <use transform="translate(595.956417097992 0.0)scale(0.9962640099626402)" xlink:href="#Century_Schoolbook_L_Roman-108"/>
      <use transform="translate(627.3377300941781 0.0)scale(0.9962640099626402)" xlink:href="#Century_Schoolbook_L_Roman-101"/>
      <use transform="translate(704.8461001955558 0.0)scale(0.9962640099626402)" xlink:href="#Century_Schoolbook_L_Roman-45"/>
      <use transform="translate(765.7164995281368 0.0)scale(0.9962640099626402)" xlink:href="#Century_Schoolbook_L_Roman-116"/>
      <use transform="translate(804.4702057226807 0.0)scale(0.9962640099626402)" xlink:href="#Century_Schoolbook_L_Roman-101"/>
      <use transform="translate(854.2834062208127 0.0)scale(0.9962640099626402)" xlink:href="#Century_Schoolbook_L_Roman-109"/>
      <use transform="translate(942.8503129134886 0.0)scale(0.9962640099626402)" xlink:href="#Century_Schoolbook_L_Roman-112"/>
      <use transform="translate(1000.0358001975017 0.0)scale(0.9962640099626402)" xlink:href="#Century_Schoolbook_L_Roman-115"/>
      <use transform="translate(1073.8567803597837 0.0)scale(0.9962640099626402)" xlink:href="#CMMI12-116"/>
      <use transform="translate(1136.7782801797946 0.0)scale(0.9962640099626402)" xlink:href="#Century_Schoolbook_L_Roman-40"/>
      <use transform="translate(1169.95350990913 0.0)scale(0.9962640099626402)" xlink:href="#Century_Schoolbook_L_Roman-115"/>
      <use transform="translate(1216.0793204681663 0.0)scale(0.9962640099626402)" xlink:href="#Century_Schoolbook_L_Roman-41"/>
     </g>
    </g>
   </g>
   <g id="matplotlib.axis_2">
    <g id="ytick_1">
     <g id="line2d_20">
      <path clip-path="url(#p942a3e477e)" d="
M186.003 753.719
L1670.12 753.719" style="fill:none;stroke:#000000;stroke-dasharray:1.000000,3.000000;stroke-dashoffset:0.0;stroke-width:0.5;"/>
     </g>
     <g id="line2d_21">
      <defs>
       <path d="
M0 0
L4 0" id="md7965d1ba0" style="stroke:#000000;stroke-width:0.5;"/>
      </defs>
      <g>
       <use style="stroke:#000000;stroke-width:0.5;" x="186.002744104" xlink:href="#md7965d1ba0" y="753.719378746"/>
      </g>
     </g>
     <g id="line2d_22">
      <defs>
       <path d="
M0 0
L-4 0" id="md9a1c1a7cd" style="stroke:#000000;stroke-width:0.5;"/>
      </defs>
      <g>
       <use style="stroke:#000000;stroke-width:0.5;" x="1670.12380915" xlink:href="#md9a1c1a7cd" y="753.719378746"/>
      </g>
     </g>
     <g id="text_8">
      <!-- $-0.06$ -->
      <defs>
       <path d="
M65.9062 23
C67.5938 23 69.4062 23 69.4062 25
C69.4062 27 67.5938 27 65.9062 27
L11.7969 27
C10.0938 27 8.29688 27 8.29688 25
C8.29688 23 10.0938 23 11.7969 23
z
" id="CMSY10-0"/>
       <path d="
M18.4062 4.79688
C18.4062 7.6875 16 9.67188 13.5938 9.67188
C10.7031 9.67188 8.70312 7.28125 8.70312 4.89062
C8.70312 2 11.0938 0 13.5 0
C16.4062 0 18.4062 2.39062 18.4062 4.79688" id="CMMI12-58"/>
      </defs>
      <g transform="translate(85.3403106271 764.718058319)scale(0.4 -0.4)">
       <use transform="scale(0.9962640099626402)" xlink:href="#CMSY10-0"/>
       <use transform="translate(77.4874676506071 0.0)scale(0.9962640099626402)" xlink:href="#CMR17-48"/>
       <use transform="translate(123.17794476766814 0.0)scale(0.9962640099626402)" xlink:href="#CMMI12-58"/>
       <use transform="translate(150.27512185748756 0.0)scale(0.9962640099626402)" xlink:href="#CMR17-48"/>
       <use transform="translate(195.96559897454858 0.0)scale(0.9962640099626402)" xlink:href="#CMR17-54"/>
      </g>
     </g>
    </g>
    <g id="ytick_2">
     <g id="line2d_23">
      <path clip-path="url(#p942a3e477e)" d="
M186.003 642.047
L1670.12 642.047" style="fill:none;stroke:#000000;stroke-dasharray:1.000000,3.000000;stroke-dashoffset:0.0;stroke-width:0.5;"/>
     </g>
     <g id="line2d_24">
      <g>
       <use style="stroke:#000000;stroke-width:0.5;" x="186.002744104" xlink:href="#md7965d1ba0" y="642.046582599"/>
      </g>
     </g>
     <g id="line2d_25">
      <g>
       <use style="stroke:#000000;stroke-width:0.5;" x="1670.12380915" xlink:href="#md9a1c1a7cd" y="642.046582599"/>
      </g>
     </g>
     <g id="text_9">
      <!-- $-0.04$ -->
      <g transform="translate(85.3403106271 653.045262172)scale(0.4 -0.4)">
       <use transform="scale(0.9962640099626402)" xlink:href="#CMSY10-0"/>
       <use transform="translate(77.4874676506071 0.0)scale(0.9962640099626402)" xlink:href="#CMR17-48"/>
       <use transform="translate(123.17794476766814 0.0)scale(0.9962640099626402)" xlink:href="#CMMI12-58"/>
       <use transform="translate(150.27512185748756 0.0)scale(0.9962640099626402)" xlink:href="#CMR17-48"/>
       <use transform="translate(195.96559897454858 0.0)scale(0.9962640099626402)" xlink:href="#CMR17-52"/>
      </g>
     </g>
    </g>
    <g id="ytick_3">
     <g id="line2d_26">
      <path clip-path="url(#p942a3e477e)" d="
M186.003 530.374
L1670.12 530.374" style="fill:none;stroke:#000000;stroke-dasharray:1.000000,3.000000;stroke-dashoffset:0.0;stroke-width:0.5;"/>
     </g>
     <g id="line2d_27">
      <g>
       <use style="stroke:#000000;stroke-width:0.5;" x="186.002744104" xlink:href="#md7965d1ba0" y="530.373786452"/>
      </g>
     </g>
     <g id="line2d_28">
      <g>
       <use style="stroke:#000000;stroke-width:0.5;" x="1670.12380915" xlink:href="#md9a1c1a7cd" y="530.373786452"/>
      </g>
     </g>
     <g id="text_10">
      <!-- $-0.02$ -->
      <g transform="translate(85.3403106271 541.372466025)scale(0.4 -0.4)">
       <use transform="scale(0.9962640099626402)" xlink:href="#CMSY10-0"/>
       <use transform="translate(77.4874676506071 0.0)scale(0.9962640099626402)" xlink:href="#CMR17-48"/>
       <use transform="translate(123.17794476766814 0.0)scale(0.9962640099626402)" xlink:href="#CMMI12-58"/>
       <use transform="translate(150.27512185748756 0.0)scale(0.9962640099626402)" xlink:href="#CMR17-48"/>
       <use transform="translate(195.96559897454858 0.0)scale(0.9962640099626402)" xlink:href="#CMR17-50"/>
      </g>
     </g>
    </g>
    <g id="ytick_4">
     <g id="line2d_29">
      <path clip-path="url(#p942a3e477e)" d="
M186.003 418.701
L1670.12 418.701" style="fill:none;stroke:#000000;stroke-dasharray:1.000000,3.000000;stroke-dashoffset:0.0;stroke-width:0.5;"/>
     </g>
     <g id="line2d_30">
      <g>
       <use style="stroke:#000000;stroke-width:0.5;" x="186.002744104" xlink:href="#md7965d1ba0" y="418.700990305"/>
      </g>
     </g>
     <g id="line2d_31">
      <g>
       <use style="stroke:#000000;stroke-width:0.5;" x="1670.12380915" xlink:href="#md9a1c1a7cd" y="418.700990305"/>
      </g>
     </g>
     <g id="text_11">
      <!-- $0.00$ -->
      <g transform="translate(116.335300728 429.699669878)scale(0.4 -0.4)">
       <use transform="scale(0.9962640099626402)" xlink:href="#CMR17-48"/>
       <use transform="translate(45.69047711706103 0.0)scale(0.9962640099626402)" xlink:href="#CMMI12-58"/>
       <use transform="translate(72.78765420688046 0.0)scale(0.9962640099626402)" xlink:href="#CMR17-48"/>
       <use transform="translate(118.47813132394148 0.0)scale(0.9962640099626402)" xlink:href="#CMR17-48"/>
      </g>
     </g>
    </g>
    <g id="ytick_5">
     <g id="line2d_32">
      <path clip-path="url(#p942a3e477e)" d="
M186.003 307.028
L1670.12 307.028" style="fill:none;stroke:#000000;stroke-dasharray:1.000000,3.000000;stroke-dashoffset:0.0;stroke-width:0.5;"/>
     </g>
     <g id="line2d_33">
      <g>
       <use style="stroke:#000000;stroke-width:0.5;" x="186.002744104" xlink:href="#md7965d1ba0" y="307.028194158"/>
      </g>
     </g>
     <g id="line2d_34">
      <g>
       <use style="stroke:#000000;stroke-width:0.5;" x="1670.12380915" xlink:href="#md9a1c1a7cd" y="307.028194158"/>
      </g>
     </g>
     <g id="text_12">
      <!-- $0.02$ -->
      <g transform="translate(116.335300728 318.026873731)scale(0.4 -0.4)">
       <use transform="scale(0.9962640099626402)" xlink:href="#CMR17-48"/>
       <use transform="translate(45.69047711706103 0.0)scale(0.9962640099626402)" xlink:href="#CMMI12-58"/>
       <use transform="translate(72.78765420688046 0.0)scale(0.9962640099626402)" xlink:href="#CMR17-48"/>
       <use transform="translate(118.47813132394148 0.0)scale(0.9962640099626402)" xlink:href="#CMR17-50"/>
      </g>
     </g>
    </g>
    <g id="ytick_6">
     <g id="line2d_35">
      <path clip-path="url(#p942a3e477e)" d="
M186.003 195.355
L1670.12 195.355" style="fill:none;stroke:#000000;stroke-dasharray:1.000000,3.000000;stroke-dashoffset:0.0;stroke-width:0.5;"/>
     </g>
     <g id="line2d_36">
      <g>
       <use style="stroke:#000000;stroke-width:0.5;" x="186.002744104" xlink:href="#md7965d1ba0" y="195.355398011"/>
      </g>
     </g>
     <g id="line2d_37">
      <g>
       <use style="stroke:#000000;stroke-width:0.5;" x="1670.12380915" xlink:href="#md9a1c1a7cd" y="195.355398011"/>
      </g>
     </g>
     <g id="text_13">
      <!-- $0.04$ -->
      <g transform="translate(116.335300728 206.354077584)scale(0.4 -0.4)">
       <use transform="scale(0.9962640099626402)" xlink:href="#CMR17-48"/>
       <use transform="translate(45.69047711706103 0.0)scale(0.9962640099626402)" xlink:href="#CMMI12-58"/>
       <use transform="translate(72.78765420688046 0.0)scale(0.9962640099626402)" xlink:href="#CMR17-48"/>
       <use transform="translate(118.47813132394148 0.0)scale(0.9962640099626402)" xlink:href="#CMR17-52"/>
      </g>
     </g>
    </g>
    <g id="ytick_7">
     <g id="line2d_38">
      <path clip-path="url(#p942a3e477e)" d="
M186.003 83.6826
L1670.12 83.6826" style="fill:none;stroke:#000000;stroke-dasharray:1.000000,3.000000;stroke-dashoffset:0.0;stroke-width:0.5;"/>
     </g>
     <g id="line2d_39">
      <g>
       <use style="stroke:#000000;stroke-width:0.5;" x="186.002744104" xlink:href="#md7965d1ba0" y="83.6826018641"/>
      </g>
     </g>
     <g id="line2d_40">
      <g>
       <use style="stroke:#000000;stroke-width:0.5;" x="1670.12380915" xlink:href="#md9a1c1a7cd" y="83.6826018641"/>
      </g>
     </g>
     <g id="text_14">
      <!-- $0.06$ -->
      <g transform="translate(116.335300728 94.6812814373)scale(0.4 -0.4)">
       <use transform="scale(0.9962640099626402)" xlink:href="#CMR17-48"/>
       <use transform="translate(45.69047711706103 0.0)scale(0.9962640099626402)" xlink:href="#CMMI12-58"/>
       <use transform="translate(72.78765420688046 0.0)scale(0.9962640099626402)" xlink:href="#CMR17-48"/>
       <use transform="translate(118.47813132394148 0.0)scale(0.9962640099626402)" xlink:href="#CMR17-54"/>
      </g>
     </g>
    </g>
    <g id="text_15">
     <!-- $N_{iter}$ -->
     <defs>
      <path d="
M74 57.7031
C75.0938 62 76.7031 65 84.2969 65
C84.5938 65 85.7969 65.0938 85.7969 66.8594
C85.7969 68 84.9062 68 84.5 68
C82.5 68 77.4062 68 75.4062 68
L70.5938 68
C69.2031 68 67.4062 68 66 68
C65.4062 68 64.2031 68 64.2031 66.0312
C64.2031 65 65 65 65.7031 65
C71.7031 65 72.0938 62.7031 72.0938 60.9062
C72.0938 60.0156 72 59.7031 71.7031 58.3125
L60.4062 13.2812
L39 66.2969
C38.2969 67.9062 38.2031 68 36 68
L23.7969 68
C21.7969 68 20.9062 68 20.9062 66.0312
C20.9062 65 21.5938 65 23.5 65
C24 65 29.9062 65 29.9062 64.0938
C29.9062 63.8906 29.7031 63.0938 29.5938 62.7969
L16.2969 9.89062
C15.0938 5 12.7031 2.90625 6.09375 2.90625
C5.59375 2.90625 4.59375 2.8125 4.59375 1
C4.59375 0 5.59375 0 5.90625 0
C7.90625 0 13 0 15 0
L19.7969 0
C21.2031 0 22.9062 0 24.2969 0
C25 0 26.0938 0 26.0938 1.90625
C26.0938 2.8125 25.0938 2.90625 24.7031 2.90625
C21.4062 2.90625 18.2031 3.5 18.2031 7.09375
C18.2031 7.89062 18.4062 8.78125 18.5938 9.57812
L32.0938 62.9688
C32.7031 61.9688 32.7031 61.7812 33.0938 60.875
L56.9062 1.73438
C57.4062 0.578125 57.5938 0 58.5 0
C59.5 0 59.5938 0.296875 60 2
z
" id="CMMI12-78"/>
      <path d="
M38.9062 40.8125
C35.7969 40.2188 34.2031 38.0156 34.2031 35.8281
C34.2031 33.4219 36.0938 32.625 37.5 32.625
C40.2969 32.625 42.5938 35.0312 42.5938 38.0156
C42.5938 41.2188 39.5 44 34.5 44
C30.5 44 25.9062 42.2031 21.7031 36.125
C21 41.4062 17 44 13 44
C9.09375 44 7.09375 41.0156 5.90625 38.8125
C4.20312 35.2188 2.70312 29.2344 2.70312 28.7344
C2.70312 28.3438 3.09375 27.8438 3.79688 27.8438
C4.59375 27.8438 4.70312 27.9375 5.29688 30.2344
C6.79688 36.2188 8.70312 42.0156 12.7031 42.0156
C15.0938 42.0156 15.7969 40.3125 15.7969 37.4219
C15.7969 35.2188 14.7969 31.3281 14.0938 28.2344
L11.2969 17.4688
C10.9062 15.5625 9.79688 11.0781 9.29688 9.28125
C8.59375 6.6875 7.5 2 7.5 1.5
C7.5 0.09375 8.59375 -1 10.0938 -1
C11.2031 -1 13.0938 -0.296875 13.7031 1.70312
C14 2.5 17.7031 17.5625 18.2969 19.8594
C18.7969 22.0469 19.4062 24.1562 19.9062 26.3438
C20.2969 27.7344 20.7031 29.3438 21 30.6406
C21.2969 31.5312 24 36.4219 26.5 38.625
C27.7031 39.7188 30.2969 42.0156 34.4062 42.0156
C36 42.0156 37.5938 41.7188 38.9062 40.8125" id="CMMI12-114"/>
      <path d="
M17.9062 23.1094
C20.5938 23.1094 27.4062 23.1094 32.2031 24.9219
C39.7969 27.8594 40.5 33.7188 40.5 35.5312
C40.5 39.9688 36.7031 44 30.0938 44
C19.5938 44 4.5 34.5312 4.5 16.7656
C4.5 6.28125 10.5 -1 19.5938 -1
C33.2031 -1 41.7969 9.53125 41.7969 10.8125
C41.7969 11.4062 41.2031 11.9062 40.7969 11.9062
C40.5 11.9062 40.4062 11.8125 39.5 10.9219
C33.0938 2.48438 23.5938 1 19.7969 1
C14.0938 1 11.0938 5.46875 11.0938 12.8438
C11.0938 14.2344 11.0938 16.7344 12.5938 23.1094
z

M13.0938 25
C17.4062 40.5 26.9062 42.0156 30.0938 42.0156
C34.5 42.0156 37.5 39.4062 37.5 35.5781
C37.5 25 21.5 25 17.2969 25
z
" id="CMMI12-101"/>
      <path d="
M28.2969 14.2656
C28.2969 14.7656 27.9062 15.1719 27.2969 15.1719
C26.4062 15.1719 26.2969 14.875 25.7969 13.1719
C23.2031 4.09375 19.0938 1 15.7969 1
C14.5938 1 13.2031 1.29688 13.2031 4.29688
C13.2031 6.98438 14.4062 9.98438 15.5 12.9688
L22.5 31.5312
C22.7969 32.3281 23.5 34.125 23.5 36.0156
C23.5 40.2188 20.5 44 15.5938 44
C6.40625 44 2.70312 29.5312 2.70312 28.7344
C2.70312 28.3438 3.09375 27.8438 3.79688 27.8438
C4.70312 27.8438 4.79688 28.2344 5.20312 29.625
C7.59375 37.9375 11.4062 41.9062 15.2969 41.9062
C16.2031 41.9062 17.9062 41.9062 17.9062 38.7188
C17.9062 36.125 16.5938 32.8281 15.7969 30.6406
L8.79688 12.0781
C8.20312 10.4844 7.59375 8.875 7.59375 7.07812
C7.59375 2.59375 10.7031 -1 15.5 -1
C24.7031 -1 28.2969 13.5781 28.2969 14.2656
M27.5 62.7031
C27.5 64.2031 26.2969 66 24.0938 66
C21.7969 66 19.2031 63.7969 19.2031 61.2031
C19.2031 58.7188 21.2969 57.9219 22.5 57.9219
C25.2031 57.9219 27.5 60.5156 27.5 62.7031" id="CMMI12-105"/>
     </defs>
     <g transform="translate(72.7688348868 456.398803498)rotate(-90.0)scale(0.4 -0.4)">
      <use transform="translate(0.0 14.943914544092467)scale(0.9962640099626402)" xlink:href="#CMMI12-78"/>
      <use transform="translate(78.11511884145393 0.0)scale(0.6973817666173724)" xlink:href="#CMMI12-105"/>
      <use transform="translate(101.41002612274285 0.0)scale(0.6973817666173724)" xlink:href="#CMMI12-116"/>
      <use transform="translate(126.0683356602195 0.0)scale(0.6973817666173724)" xlink:href="#CMMI12-101"/>
      <use transform="translate(157.71659195497355 0.0)scale(0.6973817666173724)" xlink:href="#CMMI12-114"/>
     </g>
    </g>
   </g>
   <g id="text_16">
    <!-- Nombre d'iteration a chaque pas de temps - schema HHT -->
    <defs>
     <path d="
M63.2969 72
L3.40625 72
L1.90625 44.2656
L6.20312 44.2656
C6.90625 49.25 7.79688 53.0469 8.90625 56.2344
C11.5 63.5156 16.2969 67.3125 23.0938 67.3125
C26.4062 67.3125 27.7969 66.2031 27.7969 63.7188
L27.7969 12.2812
L27.7969 9.375
C27.7969 5.1875 26.9062 4.6875 18.7969 4.6875
L16.2031 4.6875
L16.2031 0
L50.5 0
L50.5 4.6875
L47.9062 4.6875
C39.9062 4.6875 39 5.1875 39 9.375
L39 12.2812
L39 63.7188
C39 66.2031 40.4062 67.3125 43.7031 67.3125
C49.7969 67.3125 54.7031 63.9062 57.2031 57.9219
C58.7031 54.25 59.7031 49.9531 60.5 44.2656
L64.7969 44.2656
z
" id="Century_Schoolbook_L_Roman-84"/>
     <path d="
M4.70312 44.8281
C5.20312 45.1406 5.90625 45.7344 6.29688 45.9375
C10.5938 49.125 12.2031 50.4219 13.5938 52.3125
C16.2969 55.9062 17.7969 60.2031 17.7969 64.3906
C17.7969 69.9844 14.4062 73.875 9.59375 73.875
C5.90625 73.875 3.09375 71.2812 3.09375 67.8906
C3.09375 64.2031 5.79688 62 10.2031 62
C10.7031 62 11.0938 62 11.5 62
L11.7969 62
C12.2031 62 12.5 61.7031 12.5 61.1094
C12.5 56.4531 9 51.7969 2.40625 47.625
z
" id="Century_Schoolbook_L_Roman-39"/>
     <path d="
M38 0
L55.4062 0
L55.4062 4.70312
L53.5938 4.70312
C48.2031 4.70312 47.4062 5.70312 47.4062 11.9688
L47.4062 73.7812
L27.7969 73.7812
L27.7969 69
L33.7031 69
C37.2969 69 38 68.2812 38 63.9219
L38 41
C34.2969 46.0938 30 48.3906 24.2031 48.3906
C12.9062 48.3906 4.29688 37.5469 4.29688 23.2031
C4.29688 9.0625 12.5938 -1 24.2031 -1
C30.5 -1 34.7969 1.67188 38 7.59375
z

M26.2031 43
C30.2969 43 34.2031 40.0312 36 35.4375
C37.2031 32.4531 37.9062 28.2812 37.9062 23.5156
C37.9062 11.9688 33.2969 4.39062 26.0938 4.39062
C19.0938 4.39062 14.7969 10.9688 14.7969 22.0156
C14.7969 27.8906 15.4062 32.3594 16.7031 35.7344
C18.4062 40.125 22.0938 43 26.2031 43" id="Century_Schoolbook_L_Roman-100"/>
     <path d="
M58.4062 34.6094
L58.4062 12.2812
L58.4062 9.375
C58.4062 5.1875 57.5 4.6875 49.4062 4.6875
L47.5938 4.6875
L47.5938 0
L80.4062 0
L80.4062 4.6875
L78.5938 4.6875
C70.5 4.6875 69.5938 5.1875 69.5938 9.375
L69.5938 12.2812
L69.5938 59.7188
L69.5938 62.6094
C69.5938 66.8125 70.5 67.3125 78.5938 67.3125
L80.4062 67.3125
L80.4062 72
L48 72
L48 67.3125
L49.4062 67.3125
C57.5 67.3125 58.4062 66.8125 58.4062 62.625
L58.4062 59.7344
L58.4062 40
L24.9062 40
L24.9062 59.7344
L24.9062 62.625
C24.9062 66.8125 25.7969 67.3125 33.9062 67.3125
L35.7969 67.3125
L35.7969 72
L2.90625 72
L2.90625 67.3125
L4.70312 67.3125
C12.7969 67.3125 13.7031 66.8125 13.7031 62.6094
L13.7031 59.7188
L13.7031 12.2812
L13.7031 9.375
C13.7031 5.1875 12.7969 4.6875 4.70312 4.6875
L2.90625 4.6875
L2.90625 0
L35.7969 0
L35.7969 4.6875
L33.9062 4.6875
C25.7969 4.6875 24.9062 5.1875 24.9062 9.375
L24.9062 12.2812
L24.9062 34.6094
z
" id="Century_Schoolbook_L_Roman-72"/>
     <path d="
M20 73
L1.5 73
L1.5 68.2188
L6.29688 68.2188
C10 68.2188 10.5938 67.5156 10.5938 63.2188
L10.5938 12.2812
L10.5938 8.28125
C10.5938 4.29688 9.5 3.59375 3.09375 3.59375
L2.70312 3.59375
L2.70312 0
L28 0
L28 3.59375
L27.5938 3.59375
C21.0938 3.59375 20 4.29688 20 8.28125
L20 12.2812
L20 22.5625
C20 27.5469 20.7031 32.0312 21.7969 34.3281
C23.9062 38.8281 28.4062 41.9219 32.7031 41.9219
C35.2969 41.9219 38.2969 40.4219 39.7969 38.4219
C41.2969 36.2344 42 33.2344 42 28.3438
L42 12.2812
L42 8.28125
C42 4.29688 40.9062 3.59375 34.4062 3.59375
L34 3.59375
L34 0
L59.2969 0
L59.2969 3.59375
L58.9062 3.59375
C52.5 3.59375 51.4062 4.29688 51.4062 8.28125
L51.4062 12.2812
L51.4062 27.9531
C51.4062 35.125 51.0938 36.9219 49.2969 40.3281
C46.7969 45.1094 41.7969 48 35.7969 48
C29.4062 48 24.5 45.0156 20 38.3281
z
" id="Century_Schoolbook_L_Roman-104"/>
     <path d="
M18 73
L0.796875 73
L0.796875 68.2188
L4.29688 68.2188
C8 68.2188 8.59375 67.5156 8.59375 63.25
L8.59375 24.625
C8.59375 11.3125 8.09375 4.84375 6.79688 -1
L10.5938 -1
L15.5 6.75
C19.5938 1.45312 24.2969 -1 30.5 -1
C42.7969 -1 52 9.59375 52 23.8281
C52 38.0781 43.5938 48.0781 31.5938 48.0781
C25.5 48.0781 21.7969 46 18 40.3281
z

M29.7969 43
C37.2969 43 41.5 35.7656 41.5 22.7969
C41.5 10.3125 37.4062 3.1875 30.0938 3.1875
C22.2031 3.1875 17.5 10.4062 17.5 22.5938
C17.5 35.7656 21.7969 43 29.7969 43" id="Century_Schoolbook_L_Roman-98"/>
     <path d="
M22.5 72
L1.90625 72
L1.90625 67.3125
L4.40625 67.3125
C9.5 67.3125 11.7969 66.5 13.5938 64.0156
L13.5938 21.5
C13.5938 7.78125 11.5938 4.89062 2 4.89062
L2 0
L30.5 0
L30.5 4.89062
C21 4.89062 19 7.79688 19 21.5
L19 58.6406
L63.5938 -1.6875
L67.7969 -1.6875
L67.7969 50.5938
C67.7969 64.3906 69.7969 67.3125 79.4062 67.3125
L79.4062 72
L50.9062 72
L50.9062 67.3125
C60.4062 67.3125 62.4062 64.4062 62.4062 50.625
L62.4062 19.0469
z
" id="Century_Schoolbook_L_Roman-78"/>
     <path d="
M19.7969 46
L2.09375 46
L2.09375 41.2188
L6.20312 41.2188
C9.90625 41.2188 10.5 40.5156 10.5 36.2031
L10.5 12.2969
L10.5 8.29688
C10.5 4.29688 9.40625 3.59375 2.90625 3.59375
L2.5 3.59375
L2.5 0
L29.2031 0
L29.2031 3.59375
L27.2969 3.59375
C20.9062 3.59375 19.7969 4.29688 19.7969 8.29688
L19.7969 12.2969
L19.7969 13.2969
C19.7969 20.8125 21.2031 28.4062 23.7031 34.1094
C26.0938 39.7031 29.5 42.8125 33.7031 43.3125
C32.2969 41.7031 31.9062 40.6875 31.9062 38.7656
C31.9062 35.5469 34.2031 33.2344 37.4062 33.2344
C41 33.2344 43.5 35.9375 43.5 40.0156
C43.5 44.8125 40.0938 48 34.7969 48
C28.5 48 23 42.9219 19.7969 34.1406
z
" id="Century_Schoolbook_L_Roman-114"/>
     <path d="
M44.9062 46.7969
L40.2031 39.9844
C36.2031 45.5938 31.2969 48.2812 25 48.2812
C12.7969 48.2812 3.59375 37.1719 3.59375 22.3438
C3.59375 8.625 12.2031 -1.39062 23.9062 -1.39062
C30.0938 -1.39062 33.5 0.40625 37.5 5.90625
L37.5 -7.75
L37.5 -11.7188
C37.5 -15.7188 36.4062 -16.4062 29.9062 -16.4062
L28.7969 -16.4062
L28.7969 -20
L54.7969 -20
L54.7969 -16.4062
L54.4062 -16.4062
C48 -16.4062 46.9062 -15.7188 46.9062 -11.7031
L46.9062 -7.71875
L46.9062 31.0781
C47 36.7812 47 37.1719 47 38.2812
C47.2031 40.1719 47.5 41.5781 48.5938 46.7969
z

M25.9062 44
C29.9062 44 33.5 41.3906 35.4062 37.1719
C36.9062 33.875 37.5 30.2656 37.5 24.5625
C37.5 10.8125 33.5938 4 25.7969 4
C18.4062 4 14.0938 10.9219 14.0938 22.9375
C14.0938 36.9844 18 44 25.9062 44" id="Century_Schoolbook_L_Roman-113"/>
     <path d="
M25.2031 48.2812
C13 48.2812 3.40625 37.4531 3.40625 23.5469
C3.40625 9.9375 13 -1 25 -1
C37 -1 46.5938 9.9375 46.5938 23.6406
C46.5938 37.25 37 48.2812 25.2031 48.2812
M25.2031 44
C32.2031 44 36.0938 36.7344 36.0938 23.6406
C36.0938 10.4531 32.2031 3.29688 25 3.29688
C17.7969 3.29688 13.9062 10.4531 13.9062 23.5469
C13.9062 37.0469 17.7031 44 25.2031 44" id="Century_Schoolbook_L_Roman-111"/>
     <path d="
M38.7031 15.1094
C35.5 7.96875 32.0938 5.09375 26.9062 5.09375
C18.9062 5.09375 13.9062 12.3281 13.9062 23.9375
C13.9062 35.9531 18.7969 44 26.2031 44
C29.2031 44 31.7969 42.5938 31.7969 41.0156
C31.7969 40.7188 31.5938 40.4219 31.2031 39.8125
C29.5938 37.9375 29.2031 36.9375 29.2031 35.2656
C29.2031 31.9844 31.7031 29.7031 35.2031 29.7031
C38.7031 29.7031 41.2969 32.4844 41.2969 36.4531
C41.2969 43.1094 34.5938 48.2812 25.7031 48.2812
C12.7031 48.2812 3.40625 37.6562 3.40625 22.8438
C3.40625 8.73438 11.9062 -1 24.2969 -1
C33.2031 -1 38.2969 3.07812 42.5938 13.625
z
" id="Century_Schoolbook_L_Roman-99"/>
    </defs>
    <g transform="translate(296.024562554 78.6826018641)scale(0.48 -0.48)">
     <use transform="scale(0.9962640099626402)" xlink:href="#Century_Schoolbook_L_Roman-78"/>
     <use transform="translate(81.19451349431819 0.0)scale(0.9962640099626402)" xlink:href="#Century_Schoolbook_L_Roman-111"/>
     <use transform="translate(131.0077139924502 0.0)scale(0.9962640099626402)" xlink:href="#Century_Schoolbook_L_Roman-109"/>
     <use transform="translate(219.57462068512612 0.0)scale(0.9962640099626402)" xlink:href="#Century_Schoolbook_L_Roman-98"/>
     <use transform="translate(274.9662976484667 0.0)scale(0.9962640099626402)" xlink:href="#Century_Schoolbook_L_Roman-114"/>
     <use transform="translate(319.19986634592937 0.0)scale(0.9962640099626402)" xlink:href="#Century_Schoolbook_L_Roman-101"/>
     <use transform="translate(396.708236447307 0.0)scale(0.9962640099626402)" xlink:href="#Century_Schoolbook_L_Roman-100"/>
     <use transform="translate(453.8937237313201 0.0)scale(0.9962640099626402)" xlink:href="#Century_Schoolbook_L_Roman-39"/>
     <use transform="translate(474.2166977593789 0.0)scale(0.9962640099626402)" xlink:href="#Century_Schoolbook_L_Roman-105"/>
     <use transform="translate(505.5980107555651 0.0)scale(0.9962640099626402)" xlink:href="#Century_Schoolbook_L_Roman-116"/>
     <use transform="translate(544.351716950109 0.0)scale(0.9962640099626402)" xlink:href="#Century_Schoolbook_L_Roman-101"/>
     <use transform="translate(594.164917448241 0.0)scale(0.9962640099626402)" xlink:href="#Century_Schoolbook_L_Roman-114"/>
     <use transform="translate(638.3984861457037 0.0)scale(0.9962640099626402)" xlink:href="#Century_Schoolbook_L_Roman-97"/>
     <use transform="translate(693.7901631090443 0.0)scale(0.9962640099626402)" xlink:href="#Century_Schoolbook_L_Roman-116"/>
     <use transform="translate(732.5438693035882 0.0)scale(0.9962640099626402)" xlink:href="#Century_Schoolbook_L_Roman-105"/>
     <use transform="translate(763.9251822997744 0.0)scale(0.9962640099626402)" xlink:href="#Century_Schoolbook_L_Roman-111"/>
     <use transform="translate(813.7383827979064 0.0)scale(0.9962640099626402)" xlink:href="#Century_Schoolbook_L_Roman-110"/>
     <use transform="translate(902.3051830781056 0.0)scale(0.9962640099626402)" xlink:href="#Century_Schoolbook_L_Roman-97"/>
     <use transform="translate(985.3920296446919 0.0)scale(0.9962640099626402)" xlink:href="#Century_Schoolbook_L_Roman-99"/>
     <use transform="translate(1028.928687830791 0.0)scale(0.9962640099626402)" xlink:href="#Century_Schoolbook_L_Roman-104"/>
     <use transform="translate(1089.8003185077446 0.0)scale(0.9962640099626402)" xlink:href="#Century_Schoolbook_L_Roman-97"/>
     <use transform="translate(1145.1919954710852 0.0)scale(0.9962640099626402)" xlink:href="#Century_Schoolbook_L_Roman-113"/>
     <use transform="translate(1200.5836724344258 0.0)scale(0.9962640099626402)" xlink:href="#Century_Schoolbook_L_Roman-117"/>
     <use transform="translate(1261.4553031113794 0.0)scale(0.9962640099626402)" xlink:href="#Century_Schoolbook_L_Roman-101"/>
     <use transform="translate(1338.963673212757 0.0)scale(0.9962640099626402)" xlink:href="#Century_Schoolbook_L_Roman-112"/>
     <use transform="translate(1396.14916049677 0.0)scale(0.9962640099626402)" xlink:href="#Century_Schoolbook_L_Roman-97"/>
     <use transform="translate(1451.5408374601107 0.0)scale(0.9962640099626402)" xlink:href="#Century_Schoolbook_L_Roman-115"/>
     <use transform="translate(1525.3618176223927 0.0)scale(0.9962640099626402)" xlink:href="#Century_Schoolbook_L_Roman-100"/>
     <use transform="translate(1582.5473049064058 0.0)scale(0.9962640099626402)" xlink:href="#Century_Schoolbook_L_Roman-101"/>
     <use transform="translate(1660.0556750077835 0.0)scale(0.9962640099626402)" xlink:href="#Century_Schoolbook_L_Roman-116"/>
     <use transform="translate(1698.8093812023274 0.0)scale(0.9962640099626402)" xlink:href="#Century_Schoolbook_L_Roman-101"/>
     <use transform="translate(1748.6225817004595 0.0)scale(0.9962640099626402)" xlink:href="#Century_Schoolbook_L_Roman-109"/>
     <use transform="translate(1837.1894883931352 0.0)scale(0.9962640099626402)" xlink:href="#Century_Schoolbook_L_Roman-112"/>
     <use transform="translate(1894.3749756771483 0.0)scale(0.9962640099626402)" xlink:href="#Century_Schoolbook_L_Roman-115"/>
     <use transform="translate(1968.1959558394306 0.0)scale(0.9962640099626402)" xlink:href="#Century_Schoolbook_L_Roman-45"/>
     <use transform="translate(2029.0663551720113 0.0)scale(0.9962640099626402)" xlink:href="#Century_Schoolbook_L_Roman-115"/>
     <use transform="translate(2075.1921657310477 0.0)scale(0.9962640099626402)" xlink:href="#Century_Schoolbook_L_Roman-99"/>
     <use transform="translate(2118.7288239171467 0.0)scale(0.9962640099626402)" xlink:href="#Century_Schoolbook_L_Roman-104"/>
     <use transform="translate(2179.6004545941005 0.0)scale(0.9962640099626402)" xlink:href="#Century_Schoolbook_L_Roman-101"/>
     <use transform="translate(2229.4136550922326 0.0)scale(0.9962640099626402)" xlink:href="#Century_Schoolbook_L_Roman-109"/>
     <use transform="translate(2317.9805617849083 0.0)scale(0.9962640099626402)" xlink:href="#Century_Schoolbook_L_Roman-97"/>
     <use transform="translate(2401.0674083514946 0.0)scale(0.9962640099626402)" xlink:href="#Century_Schoolbook_L_Roman-72"/>
     <use transform="translate(2484.055838578962 0.0)scale(0.9962640099626402)" xlink:href="#Century_Schoolbook_L_Roman-72"/>
     <use transform="translate(2567.044268806429 0.0)scale(0.9962640099626402)" xlink:href="#Century_Schoolbook_L_Roman-84"/>
    </g>
   </g>
  </g>
 </g>
 <defs>
  <clipPath id="p942a3e477e">
   <rect height="670.036776882" width="1484.12106505" x="186.002744104" y="83.6826018641"/>
  </clipPath>
 </defs>
</svg>
