<?xml version="1.0" encoding="utf-8" standalone="no"?>
<!DOCTYPE svg PUBLIC "-//W3C//DTD SVG 1.1//EN"
  "http://www.w3.org/Graphics/SVG/1.1/DTD/svg11.dtd">
<!-- Created with matplotlib (http://matplotlib.org/) -->
<svg height="880pt" version="1.1" viewBox="0 0 1731 880" width="1731pt" xmlns="http://www.w3.org/2000/svg" xmlns:xlink="http://www.w3.org/1999/xlink">
 <defs>
  <style type="text/css">
*{stroke-linecap:butt;stroke-linejoin:round;}
  </style>
 </defs>
 <g id="figure_1">
  <g id="patch_1">
   <path d="
M0 880.2
L1731.6 880.2
L1731.6 0
L0 0
z
" style="fill:#ffffff;"/>
  </g>
  <g id="axes_1">
   <g id="patch_2">
    <path d="
M211.104 753.719
L1670.12 753.719
L1670.12 83.6826
L211.104 83.6826
z
" style="fill:#ffffff;"/>
   </g>
   <g id="line2d_1">
    <path clip-path="url(#p455bd3de04)" d="
M211.104 586.21
L212.548 585.84
L213.991 584.916
L215.434 583.563
L218.32 580.446
L219.763 579.079
L221.206 577.986
L222.65 577.159
L228.422 574.52
L231.308 572.624
L234.195 570.791
L235.638 570.123
L237.081 569.67
L238.524 569.402
L244.297 568.748
L248.626 568.036
L250.069 568.007
L251.512 568.165
L252.956 568.502
L255.842 569.513
L258.728 570.562
L263.058 571.963
L264.501 572.553
L265.944 573.282
L268.83 575.159
L274.603 579.316
L280.375 583.132
L283.262 585.463
L287.591 589.156
L290.477 591.269
L299.136 597.034
L302.022 598.948
L304.909 600.444
L307.795 601.51
L315.011 603.706
L317.897 604.259
L319.34 604.346
L322.227 604.151
L326.556 603.415
L330.885 602.508
L333.772 601.52
L336.658 600.077
L345.317 594.913
L348.203 593.022
L351.089 590.827
L356.862 586.174
L369.85 576.646
L372.737 574.829
L375.623 573.336
L381.395 570.729
L384.282 569.637
L385.725 569.234
L387.168 568.955
L388.611 568.801
L391.497 568.808
L394.384 569.103
L397.27 569.658
L398.713 570.083
L400.156 570.647
L401.599 571.371
L403.043 572.263
L405.929 574.489
L408.815 577.123
L413.145 581.494
L416.031 584.681
L421.804 591.34
L424.69 594.261
L427.576 596.686
L430.462 598.752
L436.235 602.545
L439.121 604.282
L442.008 605.82
L444.894 607.173
L447.78 608.34
L450.666 609.174
L452.11 609.389
L453.553 609.436
L454.996 609.31
L456.439 609.025
L459.325 608.114
L466.541 605.332
L469.427 603.986
L472.314 602.236
L475.2 600.06
L478.086 597.576
L482.416 593.519
L491.074 585.18
L499.733 577.235
L504.063 573.116
L506.949 570.797
L509.835 568.997
L512.722 567.564
L518.494 564.958
L521.381 563.902
L522.824 563.544
L524.267 563.329
L525.71 563.26
L528.596 563.501
L531.483 564.086
L534.369 564.879
L537.255 565.884
L540.141 567.181
L543.028 568.822
L545.914 570.799
L548.8 573.07
L553.13 576.882
L564.675 587.592
L571.891 594.744
L574.777 597.196
L577.663 599.289
L583.436 603.035
L586.322 604.719
L587.765 605.417
L589.208 605.973
L590.651 606.372
L592.095 606.616
L594.981 606.736
L597.867 606.575
L600.753 606.265
L603.64 605.697
L605.083 605.252
L606.526 604.678
L609.412 603.177
L615.185 599.557
L620.958 595.861
L623.844 593.737
L628.173 590.163
L645.491 575.557
L648.377 573.411
L651.264 571.584
L654.15 570.079
L657.036 568.848
L659.922 567.831
L662.809 567
L665.695 566.392
L668.581 566.085
L671.468 566.138
L674.354 566.54
L677.24 567.229
L680.126 568.181
L683.013 569.441
L685.899 571.055
L688.785 572.967
L698.887 580.224
L701.774 582.611
L706.103 586.61
L710.432 590.485
L714.762 593.881
L721.978 599.208
L724.864 601.052
L727.75 602.563
L730.637 603.81
L734.966 605.391
L737.852 606.149
L739.295 606.37
L740.739 606.463
L743.625 606.289
L746.511 605.795
L750.841 604.851
L753.727 604.029
L756.613 602.823
L759.499 601.154
L763.829 598.145
L772.488 591.857
L776.817 588.233
L782.59 583.411
L788.362 578.967
L792.692 575.826
L795.578 573.99
L798.464 572.418
L802.794 570.386
L805.68 569.175
L808.566 568.181
L811.453 567.547
L814.339 567.311
L817.225 567.376
L820.111 567.623
L822.998 568.045
L825.884 568.756
L828.77 569.863
L831.657 571.351
L835.986 574.005
L841.759 577.857
L846.088 581.088
L853.304 586.988
L859.076 591.537
L864.849 595.833
L869.178 598.79
L872.065 600.512
L874.951 601.966
L877.837 603.134
L880.724 604.024
L883.61 604.651
L886.496 605.021
L889.382 605.132
L892.269 604.974
L895.155 604.531
L898.041 603.786
L900.928 602.734
L903.814 601.401
L906.7 599.843
L911.03 597.181
L915.359 594.142
L919.688 590.752
L928.347 583.843
L938.449 575.921
L941.336 574.01
L944.222 572.4
L948.551 570.345
L952.881 568.568
L955.767 567.697
L958.653 567.215
L961.54 567.105
L964.426 567.253
L967.312 567.588
L970.199 568.161
L973.085 569.066
L975.971 570.319
L980.301 572.62
L984.63 575.196
L987.516 577.142
L990.403 579.333
L1010.61 595.577
L1013.49 597.603
L1016.38 599.426
L1019.27 601.052
L1022.15 602.458
L1025.04 603.585
L1027.92 604.404
L1030.81 604.95
L1033.7 605.276
L1036.58 605.366
L1039.47 605.139
L1042.36 604.535
L1045.24 603.6
L1048.13 602.446
L1051.01 601.134
L1053.9 599.616
L1056.79 597.815
L1059.67 595.745
L1068.33 589.024
L1072.66 585.484
L1078.43 580.688
L1082.76 577.492
L1088.54 573.587
L1091.42 571.774
L1094.31 570.242
L1097.2 569.092
L1100.08 568.267
L1104.41 567.374
L1107.3 567.013
L1110.18 566.994
L1113.07 567.401
L1115.96 568.162
L1120.29 569.658
L1123.17 570.854
L1126.06 572.319
L1128.94 574.112
L1133.27 577.232
L1140.49 582.768
L1146.26 587.547
L1152.03 592.239
L1157.81 596.533
L1162.14 599.451
L1165.02 601.109
L1167.91 602.485
L1170.8 603.608
L1173.68 604.513
L1176.57 605.175
L1179.45 605.527
L1182.34 605.532
L1185.23 605.218
L1188.11 604.639
L1191 603.814
L1193.89 602.713
L1196.77 601.318
L1199.66 599.663
L1203.99 596.84
L1208.32 593.711
L1212.65 590.296
L1227.08 578.509
L1231.41 575.369
L1234.29 573.514
L1238.62 571.051
L1241.51 569.63
L1244.4 568.468
L1247.28 567.646
L1250.17 567.172
L1253.05 566.979
L1255.94 567.01
L1258.83 567.285
L1261.71 567.877
L1264.6 568.826
L1267.49 570.075
L1271.82 572.309
L1274.7 574.006
L1277.59 575.924
L1280.47 578.074
L1289.13 585.055
L1302.12 595.513
L1305.01 597.495
L1309.34 600.137
L1312.22 601.706
L1315.11 603.061
L1318 604.124
L1320.88 604.866
L1323.77 605.317
L1326.66 605.504
L1329.54 605.412
L1332.43 605.002
L1335.31 604.272
L1338.2 603.268
L1341.09 602.039
L1343.97 600.592
L1346.86 598.899
L1349.75 596.959
L1354.08 593.733
L1361.29 588.025
L1372.84 578.557
L1377.17 575.482
L1381.49 572.689
L1384.38 571.037
L1387.27 569.647
L1390.15 568.563
L1393.04 567.769
L1395.93 567.226
L1398.81 566.936
L1401.7 566.94
L1404.59 567.277
L1407.47 567.934
L1410.36 568.859
L1413.24 570.013
L1416.13 571.401
L1419.02 573.043
L1421.9 574.93
L1426.23 578.084
L1432 582.586
L1439.22 588.563
L1444.99 593.243
L1449.32 596.411
L1453.65 599.255
L1456.54 600.939
L1459.42 602.396
L1462.31 603.581
L1465.2 604.476
L1468.08 605.091
L1470.97 605.435
L1473.86 605.5
L1476.74 605.266
L1479.63 604.719
L1482.51 603.869
L1485.4 602.746
L1488.29 601.382
L1491.17 599.803
L1494.06 598.019
L1498.39 594.991
L1502.72 591.631
L1521.48 576.569
L1525.81 573.63
L1528.7 571.915
L1531.58 570.425
L1534.47 569.179
L1537.35 568.191
L1540.24 567.476
L1543.13 567.048
L1546.01 566.916
L1548.9 567.086
L1551.79 567.555
L1554.67 568.313
L1557.56 569.347
L1560.44 570.637
L1563.33 572.165
L1566.22 573.908
L1570.55 576.869
L1574.88 580.159
L1580.65 584.856
L1589.31 591.958
L1593.64 595.27
L1597.97 598.271
L1600.85 600.044
L1603.74 601.603
L1606.63 602.925
L1609.51 603.991
L1612.4 604.785
L1615.28 605.29
L1618.17 605.494
L1621.06 605.397
L1623.94 605.01
L1626.83 604.342
L1629.72 603.398
L1632.6 602.181
L1635.49 600.705
L1638.37 599.001
L1642.7 596.111
L1647.03 592.902
L1651.36 589.421
L1661.46 581.097
L1667.24 576.704
L1670.12 574.666
L1670.12 574.666" style="fill:none;stroke:#0000ff;stroke-linecap:square;"/>
   </g>
   <g id="line2d_2">
    <path clip-path="url(#p455bd3de04)" d="
M211.104 586.21
L228.422 586.14
L231.308 585.952
L234.195 585.461
L235.638 585.03
L237.081 584.438
L238.524 583.667
L239.967 582.712
L242.854 580.332
L247.183 576.376
L248.626 575.221
L250.069 574.235
L251.512 573.432
L252.956 572.797
L255.842 571.847
L258.728 570.949
L265.944 568.317
L267.387 568.044
L268.83 567.945
L270.273 568.01
L273.16 568.47
L277.489 569.281
L280.375 569.776
L281.818 570.114
L283.262 570.571
L284.705 571.173
L287.591 572.772
L294.807 577.267
L297.693 578.996
L300.579 581.018
L303.466 583.389
L307.795 586.992
L310.681 589.079
L316.454 593.086
L322.227 597.31
L325.113 598.961
L327.999 600.246
L335.215 603.074
L338.101 603.874
L339.544 604.093
L342.431 604.179
L346.76 603.854
L351.089 603.315
L353.976 602.579
L356.862 601.394
L361.191 599.134
L368.407 595.172
L371.293 593.25
L377.066 589.211
L379.952 587.509
L388.611 582.959
L391.497 581.599
L394.384 580.494
L400.156 578.48
L407.372 575.573
L410.258 574.823
L413.145 574.401
L416.031 574.204
L418.917 574.226
L421.804 574.582
L424.69 575.335
L427.576 576.378
L433.349 578.733
L436.235 580.157
L439.121 581.951
L447.78 587.986
L450.666 589.527
L457.882 592.936
L463.655 595.464
L470.87 598.335
L473.757 599.191
L476.643 599.658
L479.529 599.769
L485.302 599.579
L488.188 599.346
L491.074 598.853
L493.961 598.058
L499.733 596.071
L502.62 594.988
L505.506 593.679
L508.392 592.064
L514.165 588.557
L518.494 586.296
L522.824 583.981
L531.483 578.869
L534.369 577.538
L538.698 575.899
L543.028 574.489
L547.357 573.331
L550.243 572.765
L553.13 572.425
L556.016 572.369
L558.902 572.598
L564.675 573.463
L569.004 574.215
L571.891 574.971
L574.777 576.054
L589.208 582.561
L592.095 584.294
L596.424 587.016
L599.31 588.631
L609.412 593.79
L612.299 595.05
L615.185 595.98
L618.071 596.631
L622.401 597.371
L625.287 597.745
L628.173 597.927
L631.06 597.873
L635.389 597.466
L639.718 596.789
L642.605 596.118
L645.491 595.247
L651.264 593.205
L655.593 591.539
L658.479 590.255
L662.809 588.069
L672.911 582.922
L677.24 580.798
L680.126 579.574
L683.013 578.56
L691.672 575.968
L694.558 575.223
L697.444 574.721
L700.33 574.506
L703.217 574.52
L707.546 574.824
L710.432 575.205
L713.319 575.757
L717.648 576.873
L721.978 578.256
L726.307 579.942
L730.637 581.951
L752.284 592.559
L756.613 594.422
L759.499 595.48
L763.829 596.759
L768.158 597.758
L771.045 598.259
L773.931 598.548
L776.817 598.583
L779.703 598.4
L784.033 597.88
L786.919 597.37
L789.805 596.633
L792.692 595.634
L801.351 592.081
L805.68 590.195
L810.009 587.953
L814.339 585.669
L820.111 582.987
L830.214 578.333
L833.1 577.308
L837.429 576.015
L841.759 574.943
L844.645 574.492
L847.531 574.31
L851.861 574.349
L856.19 574.579
L859.076 574.988
L861.963 575.716
L866.292 577.201
L874.951 580.347
L877.837 581.74
L885.053 585.545
L892.269 588.975
L899.484 592.715
L902.371 593.872
L906.7 595.258
L912.473 596.928
L915.359 597.563
L918.245 597.949
L921.132 598.119
L925.461 598.106
L928.347 597.894
L931.234 597.446
L934.12 596.77
L938.449 595.499
L942.779 594.024
L945.665 592.856
L949.995 590.818
L960.097 585.718
L967.312 581.915
L971.642 579.996
L980.301 576.602
L983.187 575.686
L986.073 575.032
L988.959 574.61
L993.289 574.211
L996.175 574.068
L999.061 574.112
L1001.95 574.408
L1004.83 574.936
L1009.16 575.996
L1013.49 577.321
L1016.38 578.418
L1020.71 580.373
L1029.37 584.669
L1043.8 592.024
L1048.13 593.886
L1052.46 595.525
L1055.34 596.438
L1058.23 597.178
L1061.12 597.745
L1064 598.145
L1066.89 598.372
L1069.78 598.411
L1072.66 598.251
L1075.55 597.895
L1078.43 597.361
L1081.32 596.666
L1085.65 595.337
L1089.98 593.676
L1094.31 591.732
L1100.08 588.878
L1117.4 580.12
L1121.73 578.254
L1126.06 576.683
L1128.94 575.835
L1131.83 575.154
L1134.72 574.629
L1137.6 574.262
L1140.49 574.072
L1143.38 574.087
L1146.26 574.314
L1149.15 574.728
L1153.48 575.63
L1156.36 576.416
L1159.25 577.375
L1163.58 579.133
L1170.8 582.483
L1176.57 585.367
L1186.67 590.664
L1191 592.654
L1195.33 594.449
L1199.66 595.991
L1202.54 596.827
L1205.43 597.492
L1208.32 597.982
L1211.2 598.288
L1214.09 598.401
L1216.98 598.319
L1219.86 598.056
L1222.75 597.624
L1225.64 597.022
L1228.52 596.244
L1232.85 594.775
L1237.18 593.03
L1241.51 591.068
L1247.28 588.141
L1257.38 582.912
L1263.16 580.117
L1267.49 578.243
L1271.82 576.679
L1276.15 575.45
L1279.03 574.828
L1281.92 574.379
L1284.8 574.11
L1287.69 574.022
L1290.58 574.119
L1293.46 574.414
L1296.35 574.909
L1299.24 575.58
L1303.57 576.844
L1307.89 578.403
L1312.22 580.303
L1319.44 583.878
L1328.1 588.345
L1333.87 591.285
L1338.2 593.181
L1343.97 595.413
L1346.86 596.382
L1349.75 597.16
L1352.63 597.711
L1355.52 598.065
L1359.85 598.336
L1362.73 598.328
L1365.62 598.107
L1368.51 597.655
L1372.84 596.643
L1377.17 595.351
L1380.05 594.311
L1384.38 592.447
L1391.6 588.941
L1398.81 585.221
L1404.59 582.228
L1408.91 580.207
L1414.69 577.789
L1419.02 576.275
L1421.9 575.492
L1424.79 574.89
L1429.12 574.276
L1432 574.066
L1434.89 574.054
L1437.78 574.258
L1440.66 574.656
L1444.99 575.551
L1447.88 576.342
L1450.77 577.299
L1455.1 579.016
L1460.87 581.623
L1466.64 584.517
L1476.74 589.777
L1482.51 592.493
L1486.84 594.348
L1489.73 595.423
L1492.62 596.329
L1495.5 597.067
L1498.39 597.649
L1501.28 598.077
L1504.16 598.329
L1507.05 598.383
L1509.93 598.233
L1512.82 597.892
L1515.71 597.381
L1518.59 596.71
L1521.48 595.881
L1525.81 594.35
L1530.14 592.519
L1535.91 589.765
L1544.57 585.294
L1551.79 581.62
L1556.12 579.618
L1560.44 577.842
L1564.77 576.351
L1567.66 575.547
L1570.55 574.906
L1573.43 574.435
L1576.32 574.144
L1579.21 574.046
L1582.09 574.145
L1584.98 574.432
L1587.86 574.888
L1590.75 575.504
L1593.64 576.286
L1596.52 577.237
L1600.85 578.942
L1606.63 581.548
L1612.4 584.438
L1622.5 589.692
L1628.27 592.425
L1632.6 594.288
L1635.49 595.364
L1638.37 596.272
L1642.7 597.337
L1645.59 597.861
L1648.48 598.217
L1651.36 598.374
L1654.25 598.323
L1657.14 598.084
L1660.02 597.68
L1662.91 597.113
L1665.79 596.369
L1668.68 595.449
L1670.12 594.93
L1670.12 594.93" style="fill:none;stroke:#008000;stroke-linecap:square;"/>
   </g>
   <g id="line2d_3">
    <path clip-path="url(#p455bd3de04)" d="
M211.104 586.21
L248.626 586.142
L252.956 585.91
L255.842 585.514
L258.728 584.769
L260.171 584.221
L261.614 583.536
L263.058 582.708
L265.944 580.64
L268.83 578.174
L273.16 574.459
L274.603 573.409
L276.046 572.513
L277.489 571.784
L278.932 571.215
L281.818 570.445
L289.034 568.916
L291.92 568.251
L293.364 568.025
L294.807 567.924
L296.25 567.976
L297.693 568.185
L300.579 569
L310.681 572.76
L313.568 574.192
L316.454 576.09
L325.113 582.511
L329.442 585.505
L332.329 587.766
L338.101 592.53
L340.987 594.552
L353.976 602.612
L356.862 604.048
L361.191 605.748
L366.964 607.901
L369.85 608.66
L371.293 608.837
L372.737 608.856
L374.18 608.723
L377.066 608.087
L379.952 607.132
L382.839 605.937
L385.725 604.425
L388.611 602.538
L394.384 598.193
L400.156 593.723
L403.043 591.091
L407.372 586.577
L410.258 583.596
L413.145 580.911
L418.917 576.102
L424.69 571.404
L427.576 569.386
L430.462 567.734
L433.349 566.408
L436.235 565.379
L439.121 564.715
L440.564 564.552
L442.008 564.509
L444.894 564.756
L447.78 565.362
L450.666 566.288
L452.11 566.898
L453.553 567.633
L454.996 568.509
L457.882 570.687
L460.768 573.284
L473.757 585.645
L478.086 590.003
L480.972 592.593
L485.302 596.01
L489.631 599.49
L493.961 603.019
L496.847 604.97
L499.733 606.42
L502.62 607.451
L505.506 608.198
L508.392 608.676
L511.278 608.801
L514.165 608.525
L517.051 607.917
L519.937 607.077
L522.824 606.005
L525.71 604.593
L528.596 602.752
L531.483 600.524
L535.812 596.774
L541.585 591.459
L545.914 587.199
L551.687 581.186
L557.459 575.16
L560.345 572.429
L563.232 570.045
L566.118 567.993
L569.004 566.177
L571.891 564.545
L574.777 563.194
L576.22 562.68
L577.663 562.296
L579.106 562.049
L581.993 561.921
L584.879 562.136
L587.765 562.558
L590.651 563.208
L593.538 564.217
L596.424 565.671
L599.31 567.516
L602.197 569.635
L605.083 571.976
L607.969 574.562
L612.299 578.85
L619.514 586.119
L625.287 591.964
L629.616 596.297
L632.503 598.844
L635.389 601.06
L639.718 604.008
L642.605 605.757
L645.491 607.143
L646.934 607.642
L648.377 608.001
L651.264 608.375
L655.593 608.49
L658.479 608.403
L661.366 608.005
L662.809 607.621
L664.252 607.1
L667.138 605.709
L671.468 603.197
L675.797 600.521
L678.683 598.447
L681.57 595.998
L685.899 591.853
L697.444 580.702
L701.774 576.716
L704.66 574.336
L708.989 571.142
L713.319 568.297
L716.205 566.707
L719.091 565.474
L721.978 564.61
L724.864 564.072
L727.75 563.847
L730.637 563.983
L733.523 564.529
L736.409 565.457
L739.295 566.691
L742.182 568.172
L745.068 569.907
L747.954 571.92
L750.841 574.184
L755.17 577.9
L759.499 581.884
L769.601 591.55
L773.931 595.257
L781.147 601.158
L784.033 603.214
L786.919 604.879
L789.805 606.159
L792.692 607.157
L795.578 607.942
L798.464 608.457
L801.351 608.585
L804.237 608.276
L807.123 607.593
L810.009 606.641
L812.896 605.459
L815.782 604.001
L818.668 602.221
L821.555 600.151
L825.884 596.717
L830.214 593.046
L834.543 589.085
L843.202 580.906
L847.531 577.192
L851.861 573.721
L856.19 570.534
L859.076 568.686
L861.963 567.142
L864.849 565.933
L867.735 565.056
L870.622 564.497
L873.508 564.252
L876.394 564.335
L879.28 564.761
L882.167 565.534
L885.053 566.639
L887.939 568.051
L890.826 569.739
L893.712 571.669
L898.041 574.934
L902.371 578.558
L906.7 582.486
L918.245 593.233
L922.575 596.933
L926.904 600.328
L929.791 602.281
L932.677 603.912
L935.563 605.243
L938.449 606.343
L941.336 607.231
L944.222 607.833
L947.108 608.038
L949.995 607.81
L952.881 607.22
L955.767 606.368
L958.653 605.289
L961.54 603.929
L964.426 602.232
L967.312 600.229
L971.642 596.871
L975.971 593.248
L980.301 589.302
L988.959 581.178
L994.732 576.168
L999.061 572.7
L1001.95 570.685
L1004.83 568.958
L1007.72 567.478
L1010.61 566.205
L1013.49 565.182
L1016.38 564.518
L1019.27 564.281
L1022.15 564.432
L1025.04 564.871
L1027.92 565.545
L1030.81 566.501
L1033.7 567.814
L1036.58 569.488
L1039.47 571.439
L1043.8 574.682
L1048.13 578.275
L1052.46 582.244
L1062.56 591.707
L1068.33 596.797
L1071.22 599.119
L1074.1 601.198
L1076.99 603.019
L1079.88 604.599
L1082.76 605.94
L1085.65 607.005
L1088.54 607.744
L1091.42 608.122
L1094.31 608.139
L1097.2 607.812
L1100.08 607.163
L1102.97 606.21
L1105.85 604.966
L1108.74 603.436
L1111.63 601.621
L1114.51 599.542
L1118.84 596.045
L1124.62 590.976
L1130.39 585.582
L1136.16 580.169
L1140.49 576.406
L1144.82 572.941
L1147.71 570.831
L1150.59 568.972
L1153.48 567.433
L1156.36 566.224
L1159.25 565.302
L1162.14 564.641
L1165.02 564.28
L1167.91 564.286
L1170.8 564.688
L1173.68 565.444
L1176.57 566.487
L1179.45 567.788
L1182.34 569.367
L1185.23 571.243
L1188.11 573.385
L1192.44 576.936
L1196.77 580.741
L1202.54 586.131
L1209.76 592.902
L1214.09 596.673
L1216.98 598.988
L1219.86 601.097
L1222.75 602.972
L1225.64 604.6
L1228.52 605.968
L1231.41 607.038
L1234.29 607.765
L1237.18 608.127
L1240.07 608.146
L1242.95 607.858
L1245.84 607.269
L1248.73 606.35
L1251.61 605.08
L1254.5 603.489
L1257.38 601.648
L1260.27 599.614
L1263.16 597.396
L1267.49 593.711
L1273.26 588.343
L1283.36 578.943
L1287.69 575.203
L1290.58 572.935
L1293.46 570.875
L1296.35 569.031
L1299.24 567.437
L1302.12 566.147
L1305.01 565.198
L1307.89 564.585
L1310.78 564.274
L1313.67 564.262
L1316.55 564.585
L1319.44 565.28
L1322.33 566.335
L1325.21 567.692
L1328.1 569.296
L1330.98 571.138
L1333.87 573.228
L1336.76 575.551
L1341.09 579.335
L1348.3 586.018
L1355.52 592.796
L1359.85 596.539
L1364.18 599.939
L1367.06 601.989
L1369.95 603.797
L1372.84 605.302
L1375.72 606.487
L1378.61 607.369
L1381.49 607.953
L1384.38 608.212
L1387.27 608.109
L1390.15 607.646
L1393.04 606.861
L1395.93 605.787
L1398.81 604.421
L1401.7 602.749
L1404.59 600.789
L1408.91 597.453
L1413.24 593.801
L1417.57 589.858
L1427.68 580.363
L1433.45 575.339
L1436.33 573.019
L1439.22 570.924
L1442.11 569.105
L1444.99 567.557
L1447.88 566.262
L1450.77 565.243
L1453.65 564.558
L1456.54 564.247
L1459.42 564.291
L1462.31 564.644
L1465.2 565.293
L1468.08 566.267
L1470.97 567.593
L1473.86 569.236
L1476.74 571.118
L1481.07 574.287
L1483.96 576.644
L1488.29 580.529
L1502.72 593.947
L1507.05 597.684
L1509.93 599.895
L1512.82 601.872
L1515.71 603.651
L1518.59 605.219
L1521.48 606.494
L1524.37 607.394
L1527.25 607.917
L1530.14 608.129
L1533.03 608.076
L1535.91 607.718
L1538.8 606.983
L1541.68 605.854
L1544.57 604.411
L1547.46 602.751
L1550.34 600.9
L1553.23 598.813
L1556.12 596.456
L1560.44 592.568
L1579.21 575.394
L1582.09 573.145
L1586.42 570.133
L1589.31 568.375
L1592.19 566.889
L1595.08 565.735
L1597.97 564.923
L1600.85 564.423
L1603.74 564.23
L1606.63 564.37
L1609.51 564.874
L1612.4 565.731
L1615.28 566.89
L1618.17 568.315
L1621.06 570.005
L1623.94 571.969
L1626.83 574.183
L1631.16 577.829
L1636.93 583.044
L1649.92 595.08
L1654.25 598.643
L1657.14 600.813
L1660.02 602.756
L1662.91 604.418
L1665.79 605.785
L1668.68 606.862
L1670.12 607.291
L1670.12 607.291" style="fill:none;stroke:#ff0000;stroke-linecap:square;"/>
   </g>
   <g id="line2d_4">
    <path clip-path="url(#p455bd3de04)" d="
M211.104 586.21
L270.273 586.127
L274.603 585.915
L277.489 585.589
L280.375 585.007
L283.262 584.057
L284.705 583.414
L287.591 581.759
L290.477 579.647
L299.136 572.615
L300.579 571.727
L302.022 570.994
L303.466 570.419
L304.909 569.992
L307.795 569.475
L319.34 568.307
L320.783 568.345
L322.227 568.525
L323.67 568.864
L325.113 569.364
L327.999 570.784
L330.885 572.553
L336.658 576.439
L339.544 578.674
L342.431 581.327
L345.317 584.363
L349.646 588.981
L352.533 591.631
L355.419 593.86
L362.635 599.063
L366.964 602.25
L369.85 604.003
L372.737 605.319
L375.623 606.276
L378.509 606.987
L381.395 607.446
L384.282 607.549
L387.168 607.232
L390.054 606.573
L394.384 605.226
L397.27 604.077
L400.156 602.552
L403.043 600.571
L407.372 597.09
L417.474 588.881
L421.804 584.61
L424.69 581.785
L427.576 579.283
L431.906 576.026
L440.564 569.599
L442.008 568.74
L443.451 568.017
L446.337 566.946
L449.223 566.19
L453.553 565.273
L456.439 564.935
L457.882 564.942
L459.325 565.094
L460.768 565.396
L463.655 566.377
L466.541 567.679
L469.427 569.173
L472.314 570.933
L475.2 573.133
L478.086 575.823
L482.416 580.414
L495.404 594.472
L498.29 597.316
L501.176 599.793
L504.063 601.926
L508.392 604.715
L511.278 606.354
L514.165 607.737
L517.051 608.787
L519.937 609.47
L522.824 609.773
L524.267 609.769
L525.71 609.65
L527.153 609.409
L528.596 609.04
L531.483 607.938
L534.369 606.433
L537.255 604.659
L541.585 601.686
L545.914 598.359
L550.243 594.648
L554.573 590.571
L560.345 584.701
L564.675 580.364
L569.004 576.401
L574.777 571.545
L577.663 569.317
L580.549 567.382
L583.436 565.842
L586.322 564.695
L589.208 563.866
L592.095 563.308
L594.981 563.047
L597.867 563.132
L600.753 563.577
L603.64 564.369
L606.526 565.515
L609.412 567.051
L612.299 568.966
L616.628 572.289
L622.401 576.98
L625.287 579.563
L628.173 582.437
L635.389 589.974
L638.275 592.656
L645.491 598.889
L648.377 601.248
L651.264 603.322
L654.15 605.011
L657.036 606.335
L659.922 607.348
L662.809 608.038
L665.695 608.344
L668.581 608.245
L671.468 607.797
L674.354 607.058
L677.24 606.012
L680.126 604.6
L683.013 602.83
L687.342 599.79
L693.115 595.457
L696.001 593.03
L700.33 589.023
L704.66 585.02
L716.205 574.905
L719.091 572.675
L721.978 570.816
L724.864 569.258
L729.193 567.244
L732.08 566.165
L734.966 565.459
L737.852 565.171
L740.739 565.187
L743.625 565.382
L746.511 565.776
L749.397 566.527
L750.841 567.08
L753.727 568.528
L756.613 570.299
L760.943 573.209
L763.829 575.304
L766.715 577.62
L771.045 581.461
L778.26 587.907
L788.362 596.774
L791.249 598.982
L794.135 600.941
L797.021 602.688
L799.907 604.224
L802.794 605.492
L805.68 606.443
L808.566 607.082
L811.453 607.428
L814.339 607.458
L817.225 607.115
L820.111 606.389
L822.998 605.362
L825.884 604.137
L828.77 602.721
L831.657 601.021
L834.543 598.972
L838.872 595.439
L848.974 586.876
L856.19 580.347
L859.076 578.013
L864.849 573.717
L867.735 571.68
L870.622 569.895
L873.508 568.505
L876.394 567.477
L880.724 566.271
L883.61 565.638
L886.496 565.33
L887.939 565.356
L889.382 565.512
L892.269 566.156
L895.155 567.076
L899.484 568.718
L902.371 570.09
L905.257 571.826
L908.143 573.899
L913.916 578.471
L918.245 582.052
L924.018 587.183
L929.791 592.199
L935.563 596.886
L939.893 600.115
L942.779 601.942
L945.665 603.452
L948.551 604.689
L951.438 605.7
L954.324 606.456
L957.21 606.881
L960.097 606.932
L962.983 606.641
L965.869 606.068
L968.755 605.238
L971.642 604.132
L974.528 602.73
L977.414 601.048
L980.301 599.124
L983.187 596.99
L987.516 593.468
L997.618 584.695
L1006.28 577.184
L1009.16 574.946
L1012.05 572.921
L1016.38 570.213
L1019.27 568.643
L1022.15 567.357
L1025.04 566.429
L1027.92 565.844
L1030.81 565.531
L1033.7 565.456
L1036.58 565.675
L1039.47 566.266
L1042.36 567.234
L1045.24 568.495
L1048.13 569.958
L1051.01 571.615
L1053.9 573.519
L1056.79 575.688
L1061.12 579.269
L1068.33 585.523
L1078.43 594.474
L1082.76 597.814
L1087.09 600.854
L1089.98 602.651
L1092.87 604.152
L1095.75 605.313
L1098.64 606.169
L1101.52 606.766
L1104.41 607.09
L1107.3 607.077
L1110.18 606.696
L1113.07 605.991
L1115.96 605.025
L1118.84 603.807
L1121.73 602.291
L1124.62 600.459
L1128.94 597.276
L1134.72 592.673
L1139.05 588.907
L1147.71 581.05
L1152.03 577.492
L1157.81 573.065
L1160.69 571.102
L1163.58 569.423
L1166.47 568.037
L1169.35 566.91
L1172.24 566.039
L1175.13 565.475
L1178.01 565.275
L1180.9 565.436
L1183.78 565.902
L1186.67 566.629
L1189.56 567.631
L1192.44 568.944
L1195.33 570.568
L1198.22 572.444
L1202.54 575.595
L1206.87 579.089
L1212.65 584.174
L1222.75 593.158
L1227.08 596.713
L1229.96 598.858
L1232.85 600.803
L1235.74 602.561
L1238.62 604.11
L1241.51 605.379
L1244.4 606.294
L1247.28 606.847
L1250.17 607.097
L1253.05 607.092
L1255.94 606.811
L1258.83 606.182
L1261.71 605.174
L1264.6 603.839
L1267.49 602.272
L1270.37 600.522
L1273.26 598.565
L1276.15 596.367
L1280.47 592.71
L1293.46 581.186
L1297.79 577.44
L1300.68 575.161
L1305.01 572.104
L1307.89 570.284
L1310.78 568.675
L1313.67 567.355
L1316.55 566.369
L1319.44 565.708
L1322.33 565.337
L1325.21 565.252
L1328.1 565.49
L1330.98 566.078
L1333.87 567.002
L1336.76 568.21
L1339.64 569.662
L1342.53 571.354
L1345.42 573.291
L1348.3 575.457
L1352.63 579.014
L1358.4 584.072
L1368.51 593.061
L1372.84 596.62
L1377.17 599.826
L1380.05 601.697
L1382.94 603.316
L1385.82 604.673
L1388.71 605.766
L1391.6 606.573
L1394.48 607.058
L1397.37 607.197
L1400.26 606.999
L1403.14 606.494
L1406.03 605.696
L1408.91 604.599
L1411.8 603.197
L1414.69 601.517
L1417.57 599.613
L1421.9 596.429
L1426.23 592.876
L1432 587.71
L1439.22 581.292
L1444.99 576.425
L1447.88 574.166
L1450.77 572.119
L1453.65 570.325
L1456.54 568.783
L1459.42 567.483
L1462.31 566.442
L1465.2 565.707
L1468.08 565.313
L1470.97 565.261
L1473.86 565.527
L1476.74 566.091
L1479.63 566.955
L1482.51 568.126
L1485.4 569.591
L1488.29 571.315
L1491.17 573.256
L1495.5 576.517
L1499.83 580.135
L1507.05 586.582
L1514.26 592.945
L1518.59 596.516
L1522.92 599.736
L1525.81 601.617
L1528.7 603.253
L1531.58 604.626
L1534.47 605.723
L1537.35 606.527
L1540.24 607.018
L1543.13 607.182
L1546.01 607.017
L1548.9 606.528
L1551.79 605.729
L1554.67 604.632
L1557.56 603.251
L1560.44 601.606
L1563.33 599.725
L1566.22 597.639
L1570.55 594.189
L1576.32 589.159
L1587.86 578.921
L1592.19 575.381
L1595.08 573.236
L1597.97 571.311
L1600.85 569.62
L1603.74 568.165
L1606.63 566.965
L1609.51 566.063
L1612.4 565.499
L1615.28 565.276
L1618.17 565.369
L1621.06 565.752
L1623.94 566.431
L1626.83 567.43
L1629.72 568.752
L1632.6 570.357
L1635.49 572.187
L1639.82 575.276
L1644.15 578.764
L1649.92 583.852
L1660.02 592.815
L1664.35 596.417
L1667.24 598.609
L1670.12 600.589
L1670.12 600.589" style="fill:none;stroke:#00bfbf;stroke-linecap:square;"/>
   </g>
   <g id="line2d_5">
    <path clip-path="url(#p455bd3de04)" d="
M211.104 586.21
L289.034 586.109
L293.364 585.836
L296.25 585.385
L297.693 585.011
L299.136 584.494
L300.579 583.789
L302.022 582.846
L303.466 581.6
L304.909 579.983
L306.352 577.916
L307.795 575.313
L309.238 572.088
L310.681 568.153
L312.125 563.425
L313.568 557.831
L315.011 551.313
L316.454 543.83
L317.897 535.368
L319.34 525.938
L320.783 515.578
L323.67 492.348
L326.556 466.435
L330.885 424.516
L339.544 337.234
L348.203 250.027
L351.089 222.863
L353.976 197.857
L356.862 175.498
L359.748 155.961
L361.191 147.25
L362.635 139.243
L364.078 131.953
L365.521 125.405
L366.964 119.641
L368.407 114.712
L369.85 110.674
L371.293 107.578
L372.737 105.461
L374.18 104.342
L375.623 104.222
L377.066 105.08
L378.509 106.883
L379.952 109.59
L381.395 113.163
L382.839 117.572
L384.282 122.798
L385.725 128.835
L387.168 135.684
L388.611 143.349
L390.054 151.828
L391.497 161.106
L394.384 181.922
L397.27 205.363
L400.156 230.869
L404.486 271.974
L408.815 315.607
L418.917 419.515
L421.804 447.261
L424.69 473.437
L427.576 497.769
L430.462 519.874
L433.349 539.278
L434.792 547.83
L436.235 555.565
L437.678 562.461
L439.121 568.505
L440.564 573.696
L442.008 578.028
L443.451 581.495
L444.894 584.084
L446.337 585.775
L447.78 586.546
L449.223 586.376
L450.666 585.251
L452.11 583.169
L453.553 580.141
L454.996 576.188
L456.439 571.342
L457.882 565.639
L459.325 559.113
L460.768 551.792
L462.212 543.701
L463.655 534.859
L466.541 515.005
L469.427 492.457
L472.314 467.598
L475.2 440.935
L479.529 398.654
L491.074 283.341
L493.961 257.055
L496.847 232.997
L499.733 211.644
L501.176 202.13
L502.62 193.472
L504.063 185.736
L505.506 178.981
L506.949 173.259
L508.392 168.611
L509.835 165.062
L511.278 162.622
L512.722 161.29
L514.165 161.05
L515.608 161.886
L517.051 163.775
L518.494 166.696
L519.937 170.625
L521.381 175.538
L522.824 181.409
L524.267 188.202
L525.71 195.879
L527.153 204.394
L528.596 213.702
L531.483 234.512
L534.369 258.003
L537.255 283.967
L540.141 312.209
L543.028 342.423
L547.357 390.368
L557.459 504.072
L560.345 534.506
L563.232 563.118
L566.118 589.548
L569.004 613.53
L571.891 634.8
L573.334 644.314
L574.777 653.011
L576.22 660.838
L577.663 667.741
L579.106 673.674
L580.549 678.604
L581.993 682.508
L583.436 685.377
L584.879 687.212
L586.322 688.023
L587.765 687.823
L589.208 686.624
L590.651 684.44
L592.095 681.283
L593.538 677.163
L594.981 672.093
L596.424 666.087
L597.867 659.161
L599.31 651.336
L600.753 642.635
L602.197 633.087
L605.083 611.568
L607.969 587.074
L610.855 559.998
L613.742 530.843
L618.071 484.409
L625.287 403.587
L631.06 339.585
L633.946 309.304
L636.832 280.93
L639.718 254.883
L642.605 231.47
L645.491 210.968
L646.934 201.902
L648.377 193.679
L649.82 186.339
L651.264 179.919
L652.707 174.449
L654.15 169.957
L655.593 166.46
L657.036 163.973
L658.479 162.502
L659.922 162.048
L661.366 162.607
L662.809 164.17
L664.252 166.722
L665.695 170.246
L667.138 174.722
L668.581 180.127
L670.024 186.438
L671.468 193.633
L672.911 201.686
L674.354 210.571
L675.797 220.257
L678.683 241.879
L681.57 266.156
L684.456 292.582
L688.785 335.079
L694.558 394.682
L700.33 454.433
L704.66 496.828
L707.546 523.061
L710.432 547.313
L713.319 569.339
L716.205 588.856
L717.648 597.572
L719.091 605.538
L720.534 612.716
L721.978 619.074
L723.421 624.586
L724.864 629.233
L726.307 632.999
L727.75 635.874
L729.193 637.847
L730.637 638.909
L732.08 639.051
L733.523 638.265
L734.966 636.546
L736.409 633.891
L737.852 630.305
L739.295 625.796
L740.739 620.382
L742.182 614.087
L743.625 606.941
L745.068 598.98
L746.511 590.244
L749.397 570.624
L752.284 548.442
L755.17 524.051
L758.056 497.787
L762.386 455.636
L768.158 396.467
L773.931 337.37
L778.26 295.269
L781.147 269.092
L784.033 244.967
L786.919 223.315
L789.805 204.441
L791.249 196.11
L792.692 188.543
L794.135 181.76
L795.578 175.782
L797.021 170.637
L798.464 166.352
L799.907 162.959
L801.351 160.483
L802.794 158.945
L804.237 158.357
L805.68 158.722
L807.123 160.033
L808.566 162.276
L810.009 165.435
L811.453 169.488
L812.896 174.417
L814.339 180.201
L815.782 186.821
L817.225 194.256
L818.668 202.48
L820.111 211.465
L822.998 231.569
L825.884 254.234
L828.77 279.098
L831.657 305.804
L835.986 348.519
L850.418 494.901
L853.304 521.502
L856.19 546.315
L859.076 568.941
L861.963 588.985
L863.406 597.931
L864.849 606.11
L866.292 613.497
L867.735 620.067
L869.178 625.803
L870.622 630.69
L872.065 634.717
L873.508 637.874
L874.951 640.152
L876.394 641.544
L877.837 642.043
L879.28 641.647
L880.724 640.354
L882.167 638.167
L883.61 635.094
L885.053 631.145
L886.496 626.337
L887.939 620.69
L889.382 614.227
L890.826 606.975
L892.269 598.963
L893.712 590.221
L896.598 570.683
L899.484 548.654
L902.371 524.463
L905.257 498.469
L909.586 456.925
L916.802 384.317
L921.132 341.341
L925.461 300.777
L928.347 275.727
L931.234 252.676
L934.12 231.99
L935.563 222.65
L937.006 214.038
L938.449 206.192
L939.893 199.14
L941.336 192.907
L942.779 187.507
L944.222 182.95
L945.665 179.246
L947.108 176.401
L948.551 174.425
L949.995 173.328
L951.438 173.123
L952.881 173.818
L954.324 175.42
L955.767 177.93
L957.21 181.341
L958.653 185.64
L960.097 190.807
L961.54 196.816
L962.983 203.64
L964.426 211.249
L965.869 219.612
L968.755 238.475
L971.642 259.953
L974.528 283.716
L977.414 309.381
L981.744 350.539
L987.516 408.205
L993.289 465.861
L997.618 506.942
L1000.5 532.527
L1003.39 556.212
L1006.28 577.597
L1009.16 596.309
L1010.61 604.566
L1012.05 612.05
L1013.49 618.74
L1014.94 624.617
L1016.38 629.668
L1017.82 633.876
L1019.27 637.228
L1020.71 639.708
L1022.15 641.3
L1023.59 641.989
L1025.04 641.766
L1026.48 640.626
L1027.92 638.572
L1029.37 635.612
L1030.81 631.762
L1032.25 627.042
L1033.7 621.477
L1035.14 615.09
L1036.58 607.909
L1038.03 599.958
L1039.47 591.265
L1042.36 571.771
L1045.24 549.704
L1048.13 525.412
L1051.01 499.295
L1055.34 457.594
L1062.56 384.731
L1068.33 327.367
L1071.22 300.279
L1074.1 274.823
L1076.99 251.362
L1079.88 230.228
L1082.76 211.74
L1084.21 203.583
L1085.65 196.199
L1087.09 189.619
L1088.54 183.873
L1089.98 178.986
L1091.42 174.978
L1092.87 171.864
L1094.31 169.656
L1095.75 168.36
L1097.2 167.979
L1098.64 168.513
L1100.08 169.958
L1101.52 172.308
L1102.97 175.552
L1104.41 179.679
L1105.85 184.674
L1107.3 190.518
L1108.74 197.19
L1110.18 204.665
L1111.63 212.915
L1113.07 221.908
L1115.96 241.98
L1118.84 264.561
L1121.73 289.29
L1124.62 315.78
L1128.94 357.926
L1143.38 501.646
L1146.26 527.674
L1149.15 551.812
L1152.03 573.668
L1154.92 592.885
L1156.36 601.411
L1157.81 609.173
L1159.25 616.145
L1160.69 622.305
L1162.14 627.632
L1163.58 632.106
L1165.02 635.709
L1166.47 638.424
L1167.91 640.235
L1169.35 641.131
L1170.8 641.106
L1172.24 640.158
L1173.68 638.294
L1175.13 635.524
L1176.57 631.865
L1178.01 627.336
L1179.45 621.959
L1180.9 615.754
L1182.34 608.745
L1183.78 600.952
L1185.23 592.4
L1188.11 573.131
L1191 551.21
L1193.89 527
L1196.77 500.917
L1201.1 459.209
L1208.32 386.247
L1214.09 328.783
L1216.98 301.603
L1219.86 276.006
L1222.75 252.378
L1225.64 231.096
L1228.52 212.51
L1229.96 204.323
L1231.41 196.915
L1232.85 190.312
L1234.29 184.537
L1235.74 179.61
L1237.18 175.549
L1238.62 172.372
L1240.07 170.091
L1241.51 168.72
L1242.95 168.266
L1244.4 168.731
L1245.84 170.115
L1247.28 172.41
L1248.73 175.605
L1250.17 179.685
L1251.61 184.634
L1253.05 190.43
L1254.5 197.054
L1255.94 204.483
L1257.38 212.689
L1258.83 221.646
L1261.71 241.673
L1264.6 264.256
L1267.49 289.026
L1270.37 315.583
L1274.7 357.855
L1289.13 502.219
L1292.02 528.366
L1294.91 552.595
L1297.79 574.54
L1300.68 593.881
L1302.12 602.486
L1303.57 610.336
L1305.01 617.401
L1306.45 623.652
L1307.89 629.06
L1309.34 633.603
L1310.78 637.261
L1312.22 640.02
L1313.67 641.872
L1315.11 642.811
L1316.55 642.836
L1318 641.949
L1319.44 640.155
L1320.88 637.46
L1322.33 633.873
L1323.77 629.403
L1325.21 624.065
L1326.66 617.877
L1328.1 610.863
L1329.54 603.051
L1330.98 594.474
L1333.87 575.173
L1336.76 553.277
L1339.64 529.12
L1342.53 503.049
L1346.86 461.212
L1354.08 387.964
L1359.85 330.302
L1362.73 302.977
L1365.62 277.226
L1368.51 253.456
L1371.39 232.034
L1374.28 213.285
L1375.72 205.004
L1377.17 197.498
L1378.61 190.797
L1380.05 184.929
L1381.49 179.917
L1382.94 175.781
L1384.38 172.535
L1385.82 170.189
L1387.27 168.75
L1388.71 168.221
L1390.15 168.603
L1391.6 169.894
L1393.04 172.093
L1394.48 175.192
L1395.93 179.184
L1397.37 184.054
L1398.81 189.785
L1400.26 196.355
L1401.7 203.734
L1403.14 211.893
L1404.59 220.795
L1407.47 240.685
L1410.36 263.099
L1413.24 287.715
L1416.13 314.168
L1420.46 356.383
L1434.89 500.695
L1437.78 526.896
L1440.66 551.207
L1443.55 573.257
L1446.44 592.721
L1447.88 601.392
L1449.32 609.309
L1450.77 616.441
L1452.21 622.756
L1453.65 628.229
L1455.1 632.835
L1456.54 636.557
L1457.98 639.381
L1459.42 641.297
L1460.87 642.301
L1462.31 642.392
L1463.75 641.571
L1465.2 639.842
L1466.64 637.213
L1468.08 633.693
L1469.53 629.292
L1470.97 624.025
L1472.41 617.912
L1473.86 610.973
L1475.3 603.237
L1476.74 594.733
L1479.63 575.563
L1482.51 553.774
L1485.4 529.707
L1488.29 503.726
L1492.62 462.025
L1499.83 388.866
L1505.61 331.157
L1509.93 290.68
L1512.82 265.808
L1515.71 243.082
L1518.59 222.86
L1520.04 213.79
L1521.48 205.462
L1522.92 197.907
L1524.37 191.155
L1525.81 185.231
L1527.25 180.157
L1528.7 175.951
L1530.14 172.629
L1531.58 170.203
L1533.03 168.684
L1534.47 168.076
L1535.91 168.382
L1537.35 169.603
L1538.8 171.733
L1540.24 174.766
L1541.68 178.69
L1543.13 183.489
L1544.57 189.147
L1546.01 195.639
L1547.46 202.942
L1548.9 211.025
L1550.34 219.859
L1553.23 239.634
L1556.12 261.962
L1559 286.499
L1561.89 312.87
L1566.22 354.97
L1580.65 499.358
L1583.54 525.624
L1586.42 550.034
L1589.31 572.211
L1592.19 591.816
L1593.64 600.557
L1595.08 608.546
L1596.52 615.749
L1597.97 622.14
L1599.41 627.693
L1600.85 632.387
L1602.3 636.204
L1603.74 639.128
L1605.18 641.149
L1606.63 642.259
L1608.07 642.454
L1609.51 641.735
L1610.95 640.103
L1612.4 637.565
L1613.84 634.13
L1615.28 629.812
L1616.73 624.626
L1618.17 618.593
L1619.61 611.736
L1621.06 604.083
L1622.5 595.662
L1625.39 576.655
L1628.27 555.013
L1631.16 531.064
L1634.05 505.17
L1638.37 463.556
L1645.59 390.49
L1651.36 332.745
L1655.69 292.147
L1658.58 267.181
L1661.46 244.364
L1664.35 224.044
L1665.79 214.915
L1667.24 206.518
L1668.68 198.883
L1670.12 192.041
L1670.12 192.041" style="fill:none;stroke:#bf00bf;stroke-linecap:square;"/>
   </g>
   <g id="patch_3">
    <path d="
M1670.12 753.719
L1670.12 83.6826" style="fill:none;stroke:#000000;stroke-linecap:square;stroke-linejoin:miter;"/>
   </g>
   <g id="patch_4">
    <path d="
M211.104 83.6826
L1670.12 83.6826" style="fill:none;stroke:#000000;stroke-linecap:square;stroke-linejoin:miter;"/>
   </g>
   <g id="patch_5">
    <path d="
M211.104 753.719
L211.104 83.6826" style="fill:none;stroke:#000000;stroke-linecap:square;stroke-linejoin:miter;"/>
   </g>
   <g id="patch_6">
    <path d="
M211.104 753.719
L1670.12 753.719" style="fill:none;stroke:#000000;stroke-linecap:square;stroke-linejoin:miter;"/>
   </g>
   <g id="matplotlib.axis_1">
    <g id="xtick_1">
     <g id="line2d_6">
      <path clip-path="url(#p455bd3de04)" d="
M211.104 753.719
L211.104 83.6826" style="fill:none;stroke:#000000;stroke-dasharray:1.000000,3.000000;stroke-dashoffset:0.0;stroke-width:0.5;"/>
     </g>
     <g id="line2d_7">
      <defs>
       <path d="
M0 0
L0 -4" id="mc7db9fdffb" style="stroke:#000000;stroke-width:0.5;"/>
      </defs>
      <g>
       <use style="stroke:#000000;stroke-width:0.5;" x="211.104368019" xlink:href="#mc7db9fdffb" y="753.719378746"/>
      </g>
     </g>
     <g id="line2d_8">
      <defs>
       <path d="
M0 0
L0 4" id="m5a7d422ac3" style="stroke:#000000;stroke-width:0.5;"/>
      </defs>
      <g>
       <use style="stroke:#000000;stroke-width:0.5;" x="211.104368019" xlink:href="#m5a7d422ac3" y="83.6826018641"/>
      </g>
     </g>
     <g id="text_1">
      <!-- $0$ -->
      <defs>
       <path d="
M42 31.6406
C42 37.75 41.9062 48.125 37.7031 56.1094
C34 63.1094 28.0938 65.5938 22.9062 65.5938
C18.0938 65.5938 12 63.4062 8.20312 56.2031
C4.20312 48.7188 3.79688 39.4375 3.79688 31.6406
C3.79688 25.9531 3.90625 17.2812 7 9.67188
C11.2969 -0.609375 19 -2 22.9062 -2
C27.5 -2 34.5 -0.109375 38.5938 9.375
C41.5938 16.2812 42 24.3594 42 31.6406
M22.9062 -0.40625
C16.5 -0.40625 12.7031 5.07812 11.2969 12.6875
C10.2031 18.5625 10.2031 27.1562 10.2031 32.75
C10.2031 40.4375 10.2031 46.8281 11.5 52.9219
C13.4062 61.3906 19 64 22.9062 64
C27 64 32.2969 61.2969 34.2031 53.125
C35.5 47.4375 35.5938 40.7344 35.5938 32.75
C35.5938 26.25 35.5938 18.2656 34.4062 12.375
C32.2969 1.48438 26.4062 -0.40625 22.9062 -0.40625" id="CMR17-48"/>
      </defs>
      <g transform="translate(201.966272596 787.288213632)scale(0.4 -0.4)">
       <use transform="scale(0.9962640099626402)" xlink:href="#CMR17-48"/>
      </g>
     </g>
    </g>
    <g id="xtick_2">
     <g id="line2d_9">
      <path clip-path="url(#p455bd3de04)" d="
M502.908 753.719
L502.908 83.6826" style="fill:none;stroke:#000000;stroke-dasharray:1.000000,3.000000;stroke-dashoffset:0.0;stroke-width:0.5;"/>
     </g>
     <g id="line2d_10">
      <g>
       <use style="stroke:#000000;stroke-width:0.5;" x="502.908256246" xlink:href="#mc7db9fdffb" y="753.719378746"/>
      </g>
     </g>
     <g id="line2d_11">
      <g>
       <use style="stroke:#000000;stroke-width:0.5;" x="502.908256246" xlink:href="#m5a7d422ac3" y="83.6826018641"/>
      </g>
     </g>
     <g id="text_2">
      <!-- $2$ -->
      <defs>
       <path d="
M41.7031 15.4531
L39.9062 15.4531
C38.9062 8.375 38.0938 7.17188 37.7031 6.5625
C37.2031 5.76562 30 5.76562 28.5938 5.76562
L9.40625 5.76562
C13 9.67188 20 16.75 28.5 24.9531
C34.5938 30.7344 41.7031 37.5312 41.7031 47.4219
C41.7031 59.2188 32.2969 66 21.7969 66
C10.7969 66 4.09375 56.3125 4.09375 47.3438
C4.09375 43.4375 7 42.9375 8.20312 42.9375
C9.20312 42.9375 12.2031 43.5469 12.2031 47.0312
C12.2031 50.1094 9.59375 51 8.20312 51
C7.59375 51 7 50.9062 6.59375 50.7031
C8.5 59.2188 14.2969 63.4062 20.4062 63.4062
C29.0938 63.4062 34.7969 56.5156 34.7969 47.4219
C34.7969 38.7344 29.7031 31.25 24 24.75
L4.09375 2.28125
L4.09375 0
L39.2969 0
z
" id="CMR17-50"/>
      </defs>
      <g transform="translate(493.770160823 787.288213632)scale(0.4 -0.4)">
       <use transform="scale(0.9962640099626402)" xlink:href="#CMR17-50"/>
      </g>
     </g>
    </g>
    <g id="xtick_3">
     <g id="line2d_12">
      <path clip-path="url(#p455bd3de04)" d="
M794.712 753.719
L794.712 83.6826" style="fill:none;stroke:#000000;stroke-dasharray:1.000000,3.000000;stroke-dashoffset:0.0;stroke-width:0.5;"/>
     </g>
     <g id="line2d_13">
      <g>
       <use style="stroke:#000000;stroke-width:0.5;" x="794.712144473" xlink:href="#mc7db9fdffb" y="753.719378746"/>
      </g>
     </g>
     <g id="line2d_14">
      <g>
       <use style="stroke:#000000;stroke-width:0.5;" x="794.712144473" xlink:href="#m5a7d422ac3" y="83.6826018641"/>
      </g>
     </g>
     <g id="text_3">
      <!-- $4$ -->
      <defs>
       <path d="
M33.5938 64.3281
C33.5938 66.4062 33.5 66.5 31.7031 66.5
L2 19.5938
L2 17
L27.7969 17
L27.7969 7.14062
C27.7969 3.5 27.5938 2.5 20.5938 2.5
L18.7031 2.5
L18.7031 0
C21.9062 0 27.2969 0 30.7031 0
C34.0938 0 39.5 0 42.7031 0
L42.7031 2.5
L40.7969 2.5
C33.7969 2.5 33.5938 3.5 33.5938 7.14062
L33.5938 17
L43.7969 17
L43.7969 19.5938
L33.5938 19.5938
z

M28.0938 57.7656
L28.0938 19.5938
L4 19.5938
z
" id="CMR17-52"/>
      </defs>
      <g transform="translate(785.574049049 787.288213632)scale(0.4 -0.4)">
       <use transform="scale(0.9962640099626402)" xlink:href="#CMR17-52"/>
      </g>
     </g>
    </g>
    <g id="xtick_4">
     <g id="line2d_15">
      <path clip-path="url(#p455bd3de04)" d="
M1086.52 753.719
L1086.52 83.6826" style="fill:none;stroke:#000000;stroke-dasharray:1.000000,3.000000;stroke-dashoffset:0.0;stroke-width:0.5;"/>
     </g>
     <g id="line2d_16">
      <g>
       <use style="stroke:#000000;stroke-width:0.5;" x="1086.5160327" xlink:href="#mc7db9fdffb" y="753.719378746"/>
      </g>
     </g>
     <g id="line2d_17">
      <g>
       <use style="stroke:#000000;stroke-width:0.5;" x="1086.5160327" xlink:href="#m5a7d422ac3" y="83.6826018641"/>
      </g>
     </g>
     <g id="text_4">
      <!-- $6$ -->
      <defs>
       <path d="
M10.5938 34
C10.5938 57.6562 21.7969 63 28.2969 63
C30.4062 63 35.5 62.6406 37.5 59
C35.9062 59 32.9062 59 32.9062 55.5156
C32.9062 52.8281 35.0938 51.9219 36.5 51.9219
C37.4062 51.9219 40.0938 52.3125 40.0938 55.625
C40.0938 61.7812 35.0938 65.2969 28.2031 65.2969
C16.2969 65.2969 3.79688 52.9688 3.79688 31
C3.79688 3.95312 15.0938 -2 23.0938 -2
C32.7969 -2 42 6.67188 42 20.0469
C42 32.5156 33.9062 41.5938 23.7031 41.5938
C17.5938 41.5938 13.0938 37.6094 10.5938 30.625
z

M23.0938 0.390625
C10.7969 0.390625 10.7969 18.75 10.7969 22.4375
C10.7969 29.625 14.2031 40 23.5 40
C25.2031 40 30.0938 40 33.4062 33.125
C35.2031 29.2188 35.2031 25.1406 35.2031 20.1406
C35.2031 14.75 35.2031 10.7812 33.0938 6.78125
C30.9062 2.67188 27.7031 0.390625 23.0938 0.390625" id="CMR17-54"/>
      </defs>
      <g transform="translate(1077.37793728 787.288213632)scale(0.4 -0.4)">
       <use transform="scale(0.9962640099626402)" xlink:href="#CMR17-54"/>
      </g>
     </g>
    </g>
    <g id="xtick_5">
     <g id="line2d_18">
      <path clip-path="url(#p455bd3de04)" d="
M1378.32 753.719
L1378.32 83.6826" style="fill:none;stroke:#000000;stroke-dasharray:1.000000,3.000000;stroke-dashoffset:0.0;stroke-width:0.5;"/>
     </g>
     <g id="line2d_19">
      <g>
       <use style="stroke:#000000;stroke-width:0.5;" x="1378.31992093" xlink:href="#mc7db9fdffb" y="753.719378746"/>
      </g>
     </g>
     <g id="line2d_20">
      <g>
       <use style="stroke:#000000;stroke-width:0.5;" x="1378.31992093" xlink:href="#m5a7d422ac3" y="83.6826018641"/>
      </g>
     </g>
     <g id="text_5">
      <!-- $8$ -->
      <defs>
       <path d="
M27.2031 35.375
C33.5 38.5625 39.9062 43.3281 39.9062 50.9844
C39.9062 60.0312 31.0938 65.2969 23 65.2969
C13.9062 65.2969 5.90625 58.7344 5.90625 49.6875
C5.90625 47.2031 6.5 42.9219 10.4062 39.1406
C11.4062 38.1562 15.5938 35.1719 18.2969 33.2812
C13.7969 30.9844 3.29688 25.5312 3.29688 14.5938
C3.29688 4.35938 13.0938 -2 22.7969 -2
C33.5 -2 42.5 5.65625 42.5 15.7969
C42.5 24.8438 36.4062 29.0312 32.4062 31.7031
z

M14.0938 44.125
C13.2969 44.625 9.29688 47.7031 9.29688 52.375
C9.29688 58.4375 15.5938 63 22.7969 63
C30.7031 63 36.5 57.4531 36.5 50.9844
C36.5 41.7344 26.0938 36.4688 25.5938 36.4688
C25.5 36.4688 25.4062 36.4688 24.5938 37.0781
z

M32.5 23.7344
C34 22.6406 38.7969 19.375 38.7969 13.2969
C38.7969 5.95312 31.4062 0.390625 23 0.390625
C13.9062 0.390625 7 6.84375 7 14.6875
C7 22.5469 13.0938 29.0938 20 32.1875
z
" id="CMR17-56"/>
      </defs>
      <g transform="translate(1369.1818255 787.288213632)scale(0.4 -0.4)">
       <use transform="scale(0.9962640099626402)" xlink:href="#CMR17-56"/>
      </g>
     </g>
    </g>
    <g id="xtick_6">
     <g id="line2d_21">
      <path clip-path="url(#p455bd3de04)" d="
M1670.12 753.719
L1670.12 83.6826" style="fill:none;stroke:#000000;stroke-dasharray:1.000000,3.000000;stroke-dashoffset:0.0;stroke-width:0.5;"/>
     </g>
     <g id="line2d_22">
      <g>
       <use style="stroke:#000000;stroke-width:0.5;" x="1670.12380915" xlink:href="#mc7db9fdffb" y="753.719378746"/>
      </g>
     </g>
     <g id="line2d_23">
      <g>
       <use style="stroke:#000000;stroke-width:0.5;" x="1670.12380915" xlink:href="#m5a7d422ac3" y="83.6826018641"/>
      </g>
     </g>
     <g id="text_6">
      <!-- $10$ -->
      <defs>
       <path d="
M26.5938 63.3125
C26.5938 65.4062 26.5 65.5 25.0938 65.5
C21.2031 61.1875 15.2969 59.7969 9.70312 59.7969
C9.40625 59.7969 8.90625 59.7969 8.79688 59.5
C8.70312 59.2969 8.70312 59.0938 8.70312 57
C11.7969 57 17 57.5938 21 59.9844
L21 7.20312
C21 3.6875 20.7969 2.5 12.2031 2.5
L9.20312 2.5
L9.20312 0
C14 0 19 0 23.7969 0
C28.5938 0 33.5938 0 38.4062 0
L38.4062 2.5
L35.4062 2.5
C26.7969 2.5 26.5938 3.59375 26.5938 7.15625
z
" id="CMR17-49"/>
      </defs>
      <g transform="translate(1651.84761831 787.288213632)scale(0.4 -0.4)">
       <use transform="scale(0.9962640099626402)" xlink:href="#CMR17-49"/>
       <use transform="translate(45.69047711706103 0.0)scale(0.9962640099626402)" xlink:href="#CMR17-48"/>
      </g>
     </g>
    </g>
    <g id="text_7">
     <!-- Temps $t$ (s) -->
     <defs>
      <path d="
M27.9062 73.4531
C21.9062 69.7656 18.7031 67.1719 15.2969 63.1719
C7.70312 54.1875 3.59375 42.7188 3.59375 30.6406
C3.59375 19.2656 7.20312 8.57812 13.9062 -0.296875
C17.7031 -5.09375 21.0938 -8.07812 27.9062 -12.2812
L27.9062 -8.57812
C17.9062 0.203125 13.9062 11.4844 13.9062 30.6406
C13.9062 49.7969 17.9062 60.9844 27.9062 69.7656
z
" id="Century_Schoolbook_L_Roman-40"/>
      <path d="
M63.2969 72
L3.40625 72
L1.90625 44.2656
L6.20312 44.2656
C6.90625 49.25 7.79688 53.0469 8.90625 56.2344
C11.5 63.5156 16.2969 67.3125 23.0938 67.3125
C26.4062 67.3125 27.7969 66.2031 27.7969 63.7188
L27.7969 12.2812
L27.7969 9.375
C27.7969 5.1875 26.9062 4.6875 18.7969 4.6875
L16.2031 4.6875
L16.2031 0
L50.5 0
L50.5 4.6875
L47.9062 4.6875
C39.9062 4.6875 39 5.1875 39 9.375
L39 12.2812
L39 63.7188
C39 66.2031 40.4062 67.3125 43.7031 67.3125
C49.7969 67.3125 54.7031 63.9062 57.2031 57.9219
C58.7031 54.25 59.7031 49.9531 60.5 44.2656
L64.7969 44.2656
z
" id="Century_Schoolbook_L_Roman-84"/>
      <path d="
M46.5 23
C46.5938 37.8125 38.0938 48.2812 25.9062 48.2812
C13.0938 48.2812 3.5 37.25 3.5 22.3438
C3.5 8.4375 12.5938 -1 26.0938 -1
C35.5938 -1 42.4062 3.6875 46.5 13.1875
L43 15.0938
C38.9062 7.39062 34.7031 4.39062 28 4.39062
C22.9062 4.39062 19.2031 6.59375 16.5938 11
C14.7969 14 14 17.5 14.0938 23
z

M14.2031 27.2969
C14.2031 30.3438 14.5938 32.5 15.5938 35.25
C17.7031 41.1406 20.9062 44 25.7031 44
C31.7969 44 35.7969 38.7812 35.7969 30.9219
C35.7969 28.0781 34.9062 27.2969 31.7031 27.2969
z
" id="Century_Schoolbook_L_Roman-101"/>
      <path d="
M20.0938 46
L2.79688 46
L2.79688 41.2188
L6.40625 41.2188
C10.0938 41.2188 10.7031 40.5156 10.7031 36.2188
L10.7031 -7.75
L10.7031 -11.7188
C10.7031 -15.7188 9.59375 -16.4062 3.20312 -16.4062
L2.79688 -16.4062
L2.79688 -20
L28.7969 -20
L28.7969 -16.4062
L27.7031 -16.4062
C21.2031 -16.4062 20.0938 -15.7188 20.0938 -11.7344
L20.0938 -7.75
L20.0938 6.6875
C23.4062 0.90625 27.2031 -1.39062 33.2969 -1.39062
C44.9062 -1.39062 53.5 9.26562 53.5 23.5
C53.5 37.2656 44.9062 48 33.9062 48
C27.7031 48 23.5938 45.4375 20.0938 39.5156
z

M32.0938 42.6094
C39 42.6094 43 35.75 43 24.0938
C43 11.2656 38.9062 4 31.7969 4
C24.7031 4 20 11.375 20 22.8125
C20 35.1406 24.5 42.6094 32.0938 42.6094" id="Century_Schoolbook_L_Roman-112"/>
      <path d="
M5.40625 -12.2812
C11.4062 -8.57812 14.5938 -5.98438 18 -1.89062
C25.5938 6.98438 29.7031 18.5625 29.7031 30.6406
C29.7031 42.0156 26.0938 52.7031 19.4062 61.4844
C15.5938 66.375 12.2031 69.3594 5.40625 73.4531
L5.40625 69.7656
C15.4062 60.9844 19.4062 49.7969 19.4062 30.6406
C19.4062 11.375 15.4062 0.203125 5.40625 -8.57812
z
" id="Century_Schoolbook_L_Roman-41"/>
      <path d="
M20.0938 46
L2.29688 46
L2.29688 41.2188
L6.40625 41.2188
C10.0938 41.2188 10.7031 40.5156 10.7031 36.2031
L10.7031 12.2969
L10.7031 8.40625
C10.7031 4.29688 9.59375 3.59375 3.20312 3.59375
L2.79688 3.59375
L2.79688 0
L28 0
L28 3.59375
L27.5938 3.59375
C21.2031 3.59375 20.0938 4.29688 20.0938 8.39062
L20.0938 12.2812
L20.0938 26.4531
C20.0938 35.3281 25 41.9219 31.5 41.9219
C34.0938 41.9219 36.9062 40.5156 38.0938 38.625
C39.5 36.7344 40.0938 33.8281 40.0938 29.7344
L40.0938 12.2812
L40.0938 8.28125
C40.0938 4.29688 39 3.59375 32.5 3.59375
L32.0938 3.59375
L32.0938 0
L57.4062 0
L57.4062 3.59375
L57 3.59375
C50.5938 3.59375 49.5 4.29688 49.5 8.28125
L49.5 12.2812
L49.5 25.5469
C49.5 35.5312 54 41.9219 61 41.9219
C64.2969 41.9219 67 40.0156 68.2969 36.9219
C69.2031 34.7344 69.5 32.5312 69.5 28.6406
L69.5 12.2812
L69.5 8.28125
C69.5 4.29688 68.4062 3.59375 61.9062 3.59375
L61.5 3.59375
L61.5 0
L86.7969 0
L86.7969 3.59375
L86.4062 3.59375
C80 3.59375 78.9062 4.29688 78.9062 8.39062
L78.9062 12.2812
L78.9062 30.6406
C78.9062 36.8281 78.2969 38.9219 75.7031 42.3125
C72.7969 46.0156 68.7031 48 63.9062 48
C57.4062 48 52.5938 44.9375 48.2969 38.1094
C46.5938 44.0469 41.2031 48 34.5 48
C28.5 48 24 45.1406 20.0938 38.9219
z
" id="Century_Schoolbook_L_Roman-109"/>
      <path d="
M39 48
L35.5 48
L32.5938 44.4062
C29 47.2031 25.4062 48.3906 20.4062 48.3906
C11.5938 48.3906 5.79688 42.625 5.79688 33.9531
C5.79688 30.0781 7.09375 26.7812 9.29688 24.8125
C11.5938 22.7031 13.9062 21.7188 19.9062 20.3125
L25.2031 19.125
C33.0938 17.2344 35.9062 15.2344 35.9062 11.2656
C35.9062 6.57812 31.7969 3.29688 25.9062 3.29688
C17.5 3.29688 11.5 8.76562 9.09375 18.875
L5.09375 18.875
L5.09375 0
L8.59375 0
L12.0938 3.90625
C16.2031 0.59375 20.7969 -1 25.7969 -1
C35.5938 -1 42.0938 5.07812 42.0938 14.3438
C42.0938 18.7188 40.7031 22.0938 37.9062 24.3906
C35.5 26.4844 33.5 27.2812 27.4062 28.5625
L22.4062 29.6719
C16.9062 30.8594 16.9062 30.8594 15.0938 31.8594
C12.9062 32.8594 11.5938 34.9375 11.5938 37.1406
C11.5938 41.1094 15.4062 44 20.9062 44
C24.7031 44 27.7969 42.7031 30.5938 40.0156
C32.7969 37.8125 33.9062 35.8281 35.5 31.2344
L39 31.2344
z
" id="Century_Schoolbook_L_Roman-115"/>
      <path d="
M20.0938 40.0938
L29.2969 40.0938
C31.2031 40.0938 32.2031 40.0938 32.2031 41.8906
C32.2031 43 31.5938 43 29.5938 43
L20.7969 43
L24.5 57.6875
C24.9062 59.0781 24.9062 59.2812 24.9062 60
C24.9062 61.6094 23.5938 62.5 22.2969 62.5
C21.5 62.5 19.2031 62.2031 18.4062 58.9844
L14.5 43
L5.09375 43
C3.09375 43 2.20312 43 2.20312 41.0938
C2.20312 40.0938 2.90625 40.0938 4.79688 40.0938
L13.7031 40.0938
L7.09375 13.7656
C6.29688 10.2812 6 9.28125 6 7.98438
C6 3.29688 9.29688 -1 14.9062 -1
C25 -1 30.4062 13.5781 30.4062 14.2656
C30.4062 14.875 30 15.1719 29.4062 15.1719
C29.2031 15.1719 28.7969 15.1719 28.5938 14.7656
C28.5 14.6719 28.4062 14.5625 27.7031 12.9688
C25.5938 7.98438 21 1 15.2031 1
C12.2031 1 12 3.5 12 5.6875
C12 5.78125 12 7.6875 12.2969 8.875
z
" id="CMMI12-116"/>
     </defs>
     <g transform="translate(839.462948817 829.42852426)scale(0.4 -0.4)">
      <use transform="scale(0.9962640099626402)" xlink:href="#Century_Schoolbook_L_Roman-84"/>
      <use transform="translate(60.97130876400997 0.0)scale(0.9962640099626402)" xlink:href="#Century_Schoolbook_L_Roman-101"/>
      <use transform="translate(110.78450926214198 0.0)scale(0.9962640099626402)" xlink:href="#Century_Schoolbook_L_Roman-109"/>
      <use transform="translate(199.3514159548179 0.0)scale(0.9962640099626402)" xlink:href="#Century_Schoolbook_L_Roman-112"/>
      <use transform="translate(256.536903238831 0.0)scale(0.9962640099626402)" xlink:href="#Century_Schoolbook_L_Roman-115"/>
      <use transform="translate(330.35788340111304 0.0)scale(0.9962640099626402)" xlink:href="#CMMI12-116"/>
      <use transform="translate(393.27938322112396 0.0)scale(0.9962640099626402)" xlink:href="#Century_Schoolbook_L_Roman-40"/>
      <use transform="translate(426.45461295045925 0.0)scale(0.9962640099626402)" xlink:href="#Century_Schoolbook_L_Roman-115"/>
      <use transform="translate(472.5804235094957 0.0)scale(0.9962640099626402)" xlink:href="#Century_Schoolbook_L_Roman-41"/>
     </g>
    </g>
   </g>
   <g id="matplotlib.axis_2">
    <g id="ytick_1">
     <g id="line2d_24">
      <path clip-path="url(#p455bd3de04)" d="
M211.104 753.719
L1670.12 753.719" style="fill:none;stroke:#000000;stroke-dasharray:1.000000,3.000000;stroke-dashoffset:0.0;stroke-width:0.5;"/>
     </g>
     <g id="line2d_25">
      <defs>
       <path d="
M0 0
L4 0" id="md7965d1ba0" style="stroke:#000000;stroke-width:0.5;"/>
      </defs>
      <g>
       <use style="stroke:#000000;stroke-width:0.5;" x="211.104368019" xlink:href="#md7965d1ba0" y="753.719378746"/>
      </g>
     </g>
     <g id="line2d_26">
      <defs>
       <path d="
M0 0
L-4 0" id="md9a1c1a7cd" style="stroke:#000000;stroke-width:0.5;"/>
      </defs>
      <g>
       <use style="stroke:#000000;stroke-width:0.5;" x="1670.12380915" xlink:href="#md9a1c1a7cd" y="753.719378746"/>
      </g>
     </g>
     <g id="text_8">
      <!-- $-0.004$ -->
      <defs>
       <path d="
M65.9062 23
C67.5938 23 69.4062 23 69.4062 25
C69.4062 27 67.5938 27 65.9062 27
L11.7969 27
C10.0938 27 8.29688 27 8.29688 25
C8.29688 23 10.0938 23 11.7969 23
z
" id="CMSY10-0"/>
       <path d="
M18.4062 4.79688
C18.4062 7.6875 16 9.67188 13.5938 9.67188
C10.7031 9.67188 8.70312 7.28125 8.70312 4.89062
C8.70312 2 11.0938 0 13.5 0
C16.4062 0 18.4062 2.39062 18.4062 4.79688" id="CMMI12-58"/>
      </defs>
      <g transform="translate(92.1657436955 764.718058319)scale(0.4 -0.4)">
       <use transform="scale(0.9962640099626402)" xlink:href="#CMSY10-0"/>
       <use transform="translate(77.4874676506071 0.0)scale(0.9962640099626402)" xlink:href="#CMR17-48"/>
       <use transform="translate(123.17794476766814 0.0)scale(0.9962640099626402)" xlink:href="#CMMI12-58"/>
       <use transform="translate(150.27512185748756 0.0)scale(0.9962640099626402)" xlink:href="#CMR17-48"/>
       <use transform="translate(195.96559897454858 0.0)scale(0.9962640099626402)" xlink:href="#CMR17-48"/>
       <use transform="translate(241.6560760916096 0.0)scale(0.9962640099626402)" xlink:href="#CMR17-52"/>
      </g>
     </g>
    </g>
    <g id="ytick_2">
     <g id="line2d_27">
      <path clip-path="url(#p455bd3de04)" d="
M211.104 669.965
L1670.12 669.965" style="fill:none;stroke:#000000;stroke-dasharray:1.000000,3.000000;stroke-dashoffset:0.0;stroke-width:0.5;"/>
     </g>
     <g id="line2d_28">
      <g>
       <use style="stroke:#000000;stroke-width:0.5;" x="211.104368019" xlink:href="#md7965d1ba0" y="669.964781636"/>
      </g>
     </g>
     <g id="line2d_29">
      <g>
       <use style="stroke:#000000;stroke-width:0.5;" x="1670.12380915" xlink:href="#md9a1c1a7cd" y="669.964781636"/>
      </g>
     </g>
     <g id="text_9">
      <!-- $-0.002$ -->
      <g transform="translate(92.1657436955 680.963461209)scale(0.4 -0.4)">
       <use transform="scale(0.9962640099626402)" xlink:href="#CMSY10-0"/>
       <use transform="translate(77.4874676506071 0.0)scale(0.9962640099626402)" xlink:href="#CMR17-48"/>
       <use transform="translate(123.17794476766814 0.0)scale(0.9962640099626402)" xlink:href="#CMMI12-58"/>
       <use transform="translate(150.27512185748756 0.0)scale(0.9962640099626402)" xlink:href="#CMR17-48"/>
       <use transform="translate(195.96559897454858 0.0)scale(0.9962640099626402)" xlink:href="#CMR17-48"/>
       <use transform="translate(241.6560760916096 0.0)scale(0.9962640099626402)" xlink:href="#CMR17-50"/>
      </g>
     </g>
    </g>
    <g id="ytick_3">
     <g id="line2d_30">
      <path clip-path="url(#p455bd3de04)" d="
M211.104 586.21
L1670.12 586.21" style="fill:none;stroke:#000000;stroke-dasharray:1.000000,3.000000;stroke-dashoffset:0.0;stroke-width:0.5;"/>
     </g>
     <g id="line2d_31">
      <g>
       <use style="stroke:#000000;stroke-width:0.5;" x="211.104368019" xlink:href="#md7965d1ba0" y="586.210184525"/>
      </g>
     </g>
     <g id="line2d_32">
      <g>
       <use style="stroke:#000000;stroke-width:0.5;" x="1670.12380915" xlink:href="#md9a1c1a7cd" y="586.210184525"/>
      </g>
     </g>
     <g id="text_10">
      <!-- $0.000$ -->
      <g transform="translate(123.160733796 597.208864098)scale(0.4 -0.4)">
       <use transform="scale(0.9962640099626402)" xlink:href="#CMR17-48"/>
       <use transform="translate(45.69047711706103 0.0)scale(0.9962640099626402)" xlink:href="#CMMI12-58"/>
       <use transform="translate(72.78765420688046 0.0)scale(0.9962640099626402)" xlink:href="#CMR17-48"/>
       <use transform="translate(118.47813132394148 0.0)scale(0.9962640099626402)" xlink:href="#CMR17-48"/>
       <use transform="translate(164.1686084410025 0.0)scale(0.9962640099626402)" xlink:href="#CMR17-48"/>
      </g>
     </g>
    </g>
    <g id="ytick_4">
     <g id="line2d_33">
      <path clip-path="url(#p455bd3de04)" d="
M211.104 502.456
L1670.12 502.456" style="fill:none;stroke:#000000;stroke-dasharray:1.000000,3.000000;stroke-dashoffset:0.0;stroke-width:0.5;"/>
     </g>
     <g id="line2d_34">
      <g>
       <use style="stroke:#000000;stroke-width:0.5;" x="211.104368019" xlink:href="#md7965d1ba0" y="502.455587415"/>
      </g>
     </g>
     <g id="line2d_35">
      <g>
       <use style="stroke:#000000;stroke-width:0.5;" x="1670.12380915" xlink:href="#md9a1c1a7cd" y="502.455587415"/>
      </g>
     </g>
     <g id="text_11">
      <!-- $0.002$ -->
      <g transform="translate(123.160733796 513.454266988)scale(0.4 -0.4)">
       <use transform="scale(0.9962640099626402)" xlink:href="#CMR17-48"/>
       <use transform="translate(45.69047711706103 0.0)scale(0.9962640099626402)" xlink:href="#CMMI12-58"/>
       <use transform="translate(72.78765420688046 0.0)scale(0.9962640099626402)" xlink:href="#CMR17-48"/>
       <use transform="translate(118.47813132394148 0.0)scale(0.9962640099626402)" xlink:href="#CMR17-48"/>
       <use transform="translate(164.1686084410025 0.0)scale(0.9962640099626402)" xlink:href="#CMR17-50"/>
      </g>
     </g>
    </g>
    <g id="ytick_5">
     <g id="line2d_36">
      <path clip-path="url(#p455bd3de04)" d="
M211.104 418.701
L1670.12 418.701" style="fill:none;stroke:#000000;stroke-dasharray:1.000000,3.000000;stroke-dashoffset:0.0;stroke-width:0.5;"/>
     </g>
     <g id="line2d_37">
      <g>
       <use style="stroke:#000000;stroke-width:0.5;" x="211.104368019" xlink:href="#md7965d1ba0" y="418.700990305"/>
      </g>
     </g>
     <g id="line2d_38">
      <g>
       <use style="stroke:#000000;stroke-width:0.5;" x="1670.12380915" xlink:href="#md9a1c1a7cd" y="418.700990305"/>
      </g>
     </g>
     <g id="text_12">
      <!-- $0.004$ -->
      <g transform="translate(123.160733796 429.699669878)scale(0.4 -0.4)">
       <use transform="scale(0.9962640099626402)" xlink:href="#CMR17-48"/>
       <use transform="translate(45.69047711706103 0.0)scale(0.9962640099626402)" xlink:href="#CMMI12-58"/>
       <use transform="translate(72.78765420688046 0.0)scale(0.9962640099626402)" xlink:href="#CMR17-48"/>
       <use transform="translate(118.47813132394148 0.0)scale(0.9962640099626402)" xlink:href="#CMR17-48"/>
       <use transform="translate(164.1686084410025 0.0)scale(0.9962640099626402)" xlink:href="#CMR17-52"/>
      </g>
     </g>
    </g>
    <g id="ytick_6">
     <g id="line2d_39">
      <path clip-path="url(#p455bd3de04)" d="
M211.104 334.946
L1670.12 334.946" style="fill:none;stroke:#000000;stroke-dasharray:1.000000,3.000000;stroke-dashoffset:0.0;stroke-width:0.5;"/>
     </g>
     <g id="line2d_40">
      <g>
       <use style="stroke:#000000;stroke-width:0.5;" x="211.104368019" xlink:href="#md7965d1ba0" y="334.946393195"/>
      </g>
     </g>
     <g id="line2d_41">
      <g>
       <use style="stroke:#000000;stroke-width:0.5;" x="1670.12380915" xlink:href="#md9a1c1a7cd" y="334.946393195"/>
      </g>
     </g>
     <g id="text_13">
      <!-- $0.006$ -->
      <g transform="translate(123.160733796 345.945072768)scale(0.4 -0.4)">
       <use transform="scale(0.9962640099626402)" xlink:href="#CMR17-48"/>
       <use transform="translate(45.69047711706103 0.0)scale(0.9962640099626402)" xlink:href="#CMMI12-58"/>
       <use transform="translate(72.78765420688046 0.0)scale(0.9962640099626402)" xlink:href="#CMR17-48"/>
       <use transform="translate(118.47813132394148 0.0)scale(0.9962640099626402)" xlink:href="#CMR17-48"/>
       <use transform="translate(164.1686084410025 0.0)scale(0.9962640099626402)" xlink:href="#CMR17-54"/>
      </g>
     </g>
    </g>
    <g id="ytick_7">
     <g id="line2d_42">
      <path clip-path="url(#p455bd3de04)" d="
M211.104 251.192
L1670.12 251.192" style="fill:none;stroke:#000000;stroke-dasharray:1.000000,3.000000;stroke-dashoffset:0.0;stroke-width:0.5;"/>
     </g>
     <g id="line2d_43">
      <g>
       <use style="stroke:#000000;stroke-width:0.5;" x="211.104368019" xlink:href="#md7965d1ba0" y="251.191796085"/>
      </g>
     </g>
     <g id="line2d_44">
      <g>
       <use style="stroke:#000000;stroke-width:0.5;" x="1670.12380915" xlink:href="#md9a1c1a7cd" y="251.191796085"/>
      </g>
     </g>
     <g id="text_14">
      <!-- $0.008$ -->
      <g transform="translate(123.160733796 262.190475658)scale(0.4 -0.4)">
       <use transform="scale(0.9962640099626402)" xlink:href="#CMR17-48"/>
       <use transform="translate(45.69047711706103 0.0)scale(0.9962640099626402)" xlink:href="#CMMI12-58"/>
       <use transform="translate(72.78765420688046 0.0)scale(0.9962640099626402)" xlink:href="#CMR17-48"/>
       <use transform="translate(118.47813132394148 0.0)scale(0.9962640099626402)" xlink:href="#CMR17-48"/>
       <use transform="translate(164.1686084410025 0.0)scale(0.9962640099626402)" xlink:href="#CMR17-56"/>
      </g>
     </g>
    </g>
    <g id="ytick_8">
     <g id="line2d_45">
      <path clip-path="url(#p455bd3de04)" d="
M211.104 167.437
L1670.12 167.437" style="fill:none;stroke:#000000;stroke-dasharray:1.000000,3.000000;stroke-dashoffset:0.0;stroke-width:0.5;"/>
     </g>
     <g id="line2d_46">
      <g>
       <use style="stroke:#000000;stroke-width:0.5;" x="211.104368019" xlink:href="#md7965d1ba0" y="167.437198974"/>
      </g>
     </g>
     <g id="line2d_47">
      <g>
       <use style="stroke:#000000;stroke-width:0.5;" x="1670.12380915" xlink:href="#md9a1c1a7cd" y="167.437198974"/>
      </g>
     </g>
     <g id="text_15">
      <!-- $0.010$ -->
      <g transform="translate(123.160733796 178.435878547)scale(0.4 -0.4)">
       <use transform="scale(0.9962640099626402)" xlink:href="#CMR17-48"/>
       <use transform="translate(45.69047711706103 0.0)scale(0.9962640099626402)" xlink:href="#CMMI12-58"/>
       <use transform="translate(72.78765420688046 0.0)scale(0.9962640099626402)" xlink:href="#CMR17-48"/>
       <use transform="translate(118.47813132394148 0.0)scale(0.9962640099626402)" xlink:href="#CMR17-49"/>
       <use transform="translate(164.1686084410025 0.0)scale(0.9962640099626402)" xlink:href="#CMR17-48"/>
      </g>
     </g>
    </g>
    <g id="ytick_9">
     <g id="line2d_48">
      <path clip-path="url(#p455bd3de04)" d="
M211.104 83.6826
L1670.12 83.6826" style="fill:none;stroke:#000000;stroke-dasharray:1.000000,3.000000;stroke-dashoffset:0.0;stroke-width:0.5;"/>
     </g>
     <g id="line2d_49">
      <g>
       <use style="stroke:#000000;stroke-width:0.5;" x="211.104368019" xlink:href="#md7965d1ba0" y="83.6826018641"/>
      </g>
     </g>
     <g id="line2d_50">
      <g>
       <use style="stroke:#000000;stroke-width:0.5;" x="1670.12380915" xlink:href="#md9a1c1a7cd" y="83.6826018641"/>
      </g>
     </g>
     <g id="text_16">
      <!-- $0.012$ -->
      <g transform="translate(123.160733796 94.6812814373)scale(0.4 -0.4)">
       <use transform="scale(0.9962640099626402)" xlink:href="#CMR17-48"/>
       <use transform="translate(45.69047711706103 0.0)scale(0.9962640099626402)" xlink:href="#CMMI12-58"/>
       <use transform="translate(72.78765420688046 0.0)scale(0.9962640099626402)" xlink:href="#CMR17-48"/>
       <use transform="translate(118.47813132394148 0.0)scale(0.9962640099626402)" xlink:href="#CMR17-49"/>
       <use transform="translate(164.1686084410025 0.0)scale(0.9962640099626402)" xlink:href="#CMR17-50"/>
      </g>
     </g>
    </g>
    <g id="text_17">
     <!-- $\dot{U}_x$ ($\mu$ m.s$^{-1}$) -->
     <defs>
      <path d="
M14.4062 2.20312
C16.9062 -0.09375 20.5938 -1 24 -1
C30.4062 -1 34.7969 3.29688 37.0938 6.39062
C38.0938 1.09375 42.2969 -1 45.7969 -1
C48.7969 -1 51.2031 0.796875 53 4.39062
C54.5938 7.78125 56 13.875 56 14.2656
C56 14.7656 55.5938 15.1719 55 15.1719
C54.0938 15.1719 54 14.6719 53.5938 13.1719
C52.0938 7.28125 50.2031 1 46.0938 1
C43.2031 1 43 3.59375 43 5.59375
C43 7.89062 43.9062 11.4688 44.5938 14.4688
L47.4062 25.25
C47.7969 27.1406 48.9062 31.625 49.4062 33.4219
C50 35.8281 51.0938 40.1094 51.0938 40.5156
C51.0938 42.0156 49.9062 43.0156 48.4062 43.0156
C47.5 43.0156 45.4062 42.6094 44.5938 39.6094
L37.5938 11.875
C37.0938 9.875 37.0938 9.67188 35.7969 8.07812
C34.5938 6.39062 30.7031 1 24.4062 1
C18.7969 1 17 5.09375 17 9.78125
C17 12.6719 17.9062 16.1719 18.2969 17.8594
L22.7969 35.8281
C23.2969 37.7188 24.0938 40.9062 24.0938 41.5156
C24.0938 43.1094 22.7969 44 21.5 44
C20.5938 44 18.4062 43.7031 17.5938 40.5156
L3.09375 -17.3125
C3 -17.8125 2.79688 -18.4062 2.79688 -19
C2.79688 -20.5 4 -21.5 5.5 -21.5
C8.40625 -21.5 9 -19.2031 9.70312 -16.3906
z
" id="CMMI12-22"/>
      <path d="
M50.5938 23.0312
C47.0938 9.07812 35.5 0.890625 26.0938 0.890625
C18.9062 0.890625 14 5.67188 14 13.9219
C14 14.3125 14 17.2969 15.0938 21.6719
L24.9062 60.7344
C25.7969 64.1094 26 65.1094 33.0938 65.1094
C34.9062 65.1094 35.9062 65.1094 35.9062 66.9062
C35.9062 68 35 68 34.4062 68
C32.5938 68 30.5 68 28.5938 68
L16.7969 68
C14.9062 68 12.7969 68 10.9062 68
C10.2031 68 9 68 9 66.1094
C9 65.1094 9.70312 65.1094 11.5938 65.1094
C17.5938 65.1094 17.5938 64.3125 17.5938 63.2031
C17.5938 62.625 16.9062 59.7344 16.4062 58.0469
L7.70312 23.25
C7.40625 22.1562 6.79688 19.4688 6.79688 16.7969
C6.79688 5.84375 14.7031 -2 25.5938 -2
C35.7031 -2 46.9062 6 52 18.7031
C52.7031 20.3906 53.5938 23.9062 54.2031 26.5938
C55.2031 30.2031 57.2969 39 58 41.5938
L61.7969 56.6094
C63.0938 61.8125 63.9062 65.1094 72.7031 65.1094
C73.5 65.2031 73.9062 66 73.9062 66.9062
C73.9062 68 73 68 72.5938 68
C71.2031 68 69.4062 68 68 68
L63.2969 68
C57.0938 68 53.9062 68 53.7969 68
C53.2031 68 52 68 52 66.1094
C52 65.1094 52.7969 65.1094 53.5 65.1094
C59.5 65.1094 59.9062 62.8125 59.9062 61.0156
C59.9062 60.125 59.9062 59.8125 59.5 58.4219
z
" id="CMMI12-85"/>
      <path d="
M13.7031 11.4688
C10.2031 11.4688 7.40625 8.67188 7.40625 5.28125
C7.40625 1.78125 10.2031 -1 13.5938 -1
C17.0938 -1 19.9062 1.78125 19.9062 5.28125
C19.9062 8.67188 17.0938 11.4688 13.7031 11.4688" id="Century_Schoolbook_L_Roman-46"/>
      <path d="
M47.4062 40.7188
C44.2031 40.1094 43 37.7188 43 35.8281
C43 33.4219 44.9062 32.625 46.2969 32.625
C49.2969 32.625 51.4062 35.2188 51.4062 37.9219
C51.4062 42.1094 46.5938 44 42.4062 44
C36.2969 44 32.9062 38.0156 32 36.125
C29.7031 44 23.5 44 21.7031 44
C11.5 44 6.09375 30.9375 6.09375 28.7344
C6.09375 28.3438 6.5 27.8438 7.20312 27.8438
C8 27.8438 8.20312 28.4375 8.40625 28.8438
C11.7969 39.9219 18.5 42.0156 21.4062 42.0156
C25.9062 42.0156 26.7969 37.8125 26.7969 35.4219
C26.7969 33.2344 26.2031 30.9375 25 26.1406
L21.5938 12.4688
C20.0938 6.48438 17.2031 1 11.9062 1
C11.4062 1 8.90625 1 6.79688 2.29688
C10.4062 3 11.2031 5.98438 11.2031 7.1875
C11.2031 9.1875 9.70312 10.375 7.79688 10.375
C5.40625 10.375 2.79688 8.28125 2.79688 5.09375
C2.79688 0.890625 7.5 -1 11.7969 -1
C16.5938 -1 20 2.79688 22.0938 6.89062
C23.7031 1 28.7031 -1 32.4062 -1
C42.5938 -1 48 12.0781 48 14.2656
C48 14.7656 47.5938 15.1719 47 15.1719
C46.0938 15.1719 46 14.6719 45.7031 13.875
C43 5.09375 37.2031 1 32.7031 1
C29.2031 1 27.2969 3.59375 27.2969 7.6875
C27.2969 9.875 27.7031 11.4688 29.2969 18.0625
L32.7969 31.625
C34.2969 37.625 37.7031 42.0156 42.2969 42.0156
C42.5 42.0156 45.2969 42.0156 47.4062 40.7188" id="CMMI12-120"/>
      <path d="
M16.5 61.0781
C16.5 63.4688 14.5938 65.1562 12.5 65.1562
C10.0938 65.1562 8.40625 63.2656 8.40625 61.0781
C8.40625 58.6875 10.2969 57 12.4062 57
C14.7969 57 16.5 58.8906 16.5 61.0781" id="CMR17-95"/>
     </defs>
     <g transform="translate(79.5942679551 526.019135943)rotate(-90.0)scale(0.4 -0.4)">
      <use transform="translate(28.60358251284247 40.133647989959535)scale(0.9962640099626402)" xlink:href="#CMR17-95"/>
      <use transform="translate(0.0 14.943914544092467)scale(0.9962640099626402)" xlink:href="#CMMI12-85"/>
      <use transform="translate(66.25211912846358 0.0)scale(0.6973817666173724)" xlink:href="#CMMI12-120"/>
      <use transform="translate(133.24907998813046 14.943914544092467)scale(0.9962640099626402)" xlink:href="#Century_Schoolbook_L_Roman-40"/>
      <use transform="translate(166.42430971746577 14.943914544092467)scale(0.9962640099626402)" xlink:href="#CMMI12-22"/>
      <use transform="translate(252.8109007724938 14.943914544092467)scale(0.9962640099626402)" xlink:href="#Century_Schoolbook_L_Roman-109"/>
      <use transform="translate(341.3778074651697 14.943914544092467)scale(0.9962640099626402)" xlink:href="#Century_Schoolbook_L_Roman-46"/>
      <use transform="translate(369.07297706841536 14.943914544092467)scale(0.9962640099626402)" xlink:href="#Century_Schoolbook_L_Roman-115"/>
      <use transform="translate(415.1987876274518 51.097553485951124)scale(0.6973817666173724)" xlink:href="#CMSY10-0"/>
      <use transform="translate(469.43978087542814 51.097553485951124)scale(0.6973817666173724)" xlink:href="#CMR17-49"/>
      <use transform="translate(501.9210948445284 14.943914544092467)scale(0.9962640099626402)" xlink:href="#Century_Schoolbook_L_Roman-41"/>
     </g>
    </g>
   </g>
   <g id="text_18">
    <!-- Vitesse de perturbation du glacier en fonction du temps -->
    <defs>
     <path d="
M20.5938 46
L1.79688 46
L1.79688 41.2188
L6.90625 41.2188
C10.5938 41.2188 11.2031 40.5156 11.2031 36.2031
L11.2031 12.2969
L11.2031 8.29688
C11.2031 4.29688 10.0938 3.59375 3.70312 3.59375
L3 3.59375
L3 0
L28.9062 0
L28.9062 3.59375
L28.2031 3.59375
C21.7031 3.59375 20.5938 4.28125 20.5938 8.21875
L20.5938 12.1719
z

M15.9062 71.5781
C12.7031 71.5781 10.0938 68.9844 10.0938 65.7969
C10.0938 62.7031 12.7031 60 15.7969 60
C19.0938 60 21.7031 62.5938 21.7031 65.7969
C21.7031 68.9844 19.0938 71.5781 15.9062 71.5781" id="Century_Schoolbook_L_Roman-105"/>
     <path d="
M19.5938 7.59375
C14.0938 7.59375 13.7969 7.70312 12.5938 8.46875
C11.9062 8.90625 11.4062 10.1094 11.4062 11.2969
C11.4062 14.5781 14.0938 16 20.7969 16
C30.2969 16 31.7969 16.2031 35.0938 17.6875
C41.0938 20.3594 44.5 25.4844 44.5 31.9844
C44.5 35.9219 43.5938 38.3906 40.7969 41.6406
C42.5 43.4062 43.4062 44 44.2031 44
C44.7031 44 45 43.6875 45.2031 42.625
C45.5938 40.2656 47.2031 39 49.7031 39
C52.2031 39 54.2031 41.0938 54.2031 43.7812
C54.2031 47.1875 51.5 49.5781 47.5938 49.5781
C44.4062 49.5781 42.5938 48.5625 38 44.2969
C33.7969 47.0938 30.5938 48.0781 25.5938 48.0781
C13.7031 48.0781 5.90625 41.625 5.90625 31.8125
C5.90625 26.0312 9.09375 21.0312 14.2969 18.6875
C7.59375 17.1562 4.79688 14.0938 4.79688 8.46875
C4.79688 3.98438 6.79688 1.32812 11.5 -0.296875
C5.29688 -2.48438 2.29688 -5.67188 2.29688 -9.75
C2.29688 -16.3125 10 -20 23.4062 -20
C40.0938 -20 48.5 -14.7188 48.5 -4.25
C48.5 0.71875 46.2031 4.6875 42.5 6.1875
C39.9062 7.1875 36.7031 7.59375 29.7969 7.59375
z

M25.5 44
C31.7969 44 35.2969 39.6719 35.2969 32.0938
C35.2969 24.4219 31.5 19.7812 25.0938 19.7812
C18.9062 19.7812 15 24.4219 15 31.7969
C15 39.5625 18.7969 44 25.5 44
M24.5938 -1
C32.9062 -1 33.5 -1 35 -1.1875
C39 -1.59375 41.5 -3.78125 41.5 -6.95312
C41.5 -12.625 35 -15.9062 23.7969 -15.9062
C15.4062 -15.9062 10.5938 -13.4219 10.5938 -8.95312
C10.5938 -5.67188 12.4062 -3.46875 17.2031 -1
z
" id="Century_Schoolbook_L_Roman-103"/>
     <path d="
M41.2031 0
L59.4062 0
L59.4062 4.70312
L56.9062 4.70312
C51.4062 4.70312 50.5938 5.59375 50.5938 11.9531
L50.5938 46.7812
L31.7969 46.7812
L31.7969 42
L36.9062 42
C40.5938 42 41.2031 41.2969 41.2031 36.9531
L41.2031 24.5625
C41.2031 18.8125 40.5938 15.4844 39.0938 12.1562
C37 7.71875 33 5.09375 28.0938 5.09375
C25 5.09375 22.4062 6.1875 21.0938 8.17188
C19.7969 10.0469 19.5938 11.0469 19.5938 16.5
L19.5938 46.7812
L2.09375 46.7812
L2.09375 42
L5.90625 42
C9.59375 42 10.2031 41.2969 10.2031 36.9531
L10.2031 15.2188
C10.2031 10.0781 10.5938 7.76562 12.0938 5.45312
C14.7969 1.3125 19.5938 -1 25.5938 -1
C32.2031 -1 36.7969 1.71875 41.2031 8.125
z
" id="Century_Schoolbook_L_Roman-117"/>
     <path d="
M19.7969 46
L2.09375 46
L2.09375 41.2188
L6.20312 41.2188
C9.90625 41.2188 10.5 40.5156 10.5 36.2031
L10.5 12.2969
L10.5 8.29688
C10.5 4.29688 9.40625 3.59375 2.90625 3.59375
L2.5 3.59375
L2.5 0
L29.2031 0
L29.2031 3.59375
L27.2969 3.59375
C20.9062 3.59375 19.7969 4.29688 19.7969 8.29688
L19.7969 12.2969
L19.7969 13.2969
C19.7969 20.8125 21.2031 28.4062 23.7031 34.1094
C26.0938 39.7031 29.5 42.8125 33.7031 43.3125
C32.2969 41.7031 31.9062 40.6875 31.9062 38.7656
C31.9062 35.5469 34.2031 33.2344 37.4062 33.2344
C41 33.2344 43.5 35.9375 43.5 40.0156
C43.5 44.8125 40.0938 48 34.7969 48
C28.5 48 23 42.9219 19.7969 34.1406
z
" id="Century_Schoolbook_L_Roman-114"/>
     <path d="
M20.0938 46.2969
L20.0938 52.1406
C20.0938 57.2656 20.4062 60.6562 21.2031 62.7188
C22.7969 67.2344 26.2969 70 30.2969 70
C32.4062 70 33.7031 69.3906 33.7031 68.2656
C33.7031 67.9375 33.5938 67.75 33.0938 66.9219
C32.5 65.9062 32.2031 64.7656 32.2031 63.6406
C32.2031 60.5469 34.5938 58.2031 37.7031 58.2031
C41 58.2031 43.2969 60.7344 43.2969 64.4062
C43.2969 70.3281 38.2969 74 30.2031 74
C23.2969 74 18.2969 71.5312 14.7031 66.4375
C11.7031 62.1406 10.7031 57.7344 10.7031 49.4688
L10.7031 46.2969
L1.90625 46.2969
L1.90625 42
L10.7031 42
L10.7031 12.2344
L10.7031 8.25
C10.7031 4.29688 9.59375 3.59375 3.20312 3.59375
L2.79688 3.59375
L2.79688 0
L29.5 0
L29.5 3.59375
L27.7031 3.59375
C21.2031 3.59375 20.0938 4.29688 20.0938 8.25
L20.0938 12.2344
L20.0938 42
L31.0938 42
L31.0938 46.2969
z
" id="Century_Schoolbook_L_Roman-102"/>
     <path d="
M38.7031 15.1094
C35.5 7.96875 32.0938 5.09375 26.9062 5.09375
C18.9062 5.09375 13.9062 12.3281 13.9062 23.9375
C13.9062 35.9531 18.7969 44 26.2031 44
C29.2031 44 31.7969 42.5938 31.7969 41.0156
C31.7969 40.7188 31.5938 40.4219 31.2031 39.8125
C29.5938 37.9375 29.2031 36.9375 29.2031 35.2656
C29.2031 31.9844 31.7031 29.7031 35.2031 29.7031
C38.7031 29.7031 41.2969 32.4844 41.2969 36.4531
C41.2969 43.1094 34.5938 48.2812 25.7031 48.2812
C12.7031 48.2812 3.40625 37.6562 3.40625 22.8438
C3.40625 8.73438 11.9062 -1 24.2969 -1
C33.2031 -1 38.2969 3.07812 42.5938 13.625
z
" id="Century_Schoolbook_L_Roman-99"/>
     <path d="
M39.2969 15.3125
L21 61.7969
C20.5 63.0156 20.2031 64.2188 20.2031 64.8125
C20.2031 66.6094 21.9062 67.3125 26.4062 67.3125
L30.4062 67.3125
L30.4062 72
L-0.796875 72
L-0.796875 67.3125
L1.20312 67.3125
C5.70312 67.3125 7 66.3125 8.90625 61.7031
L34.2031 -1.6875
L38.2031 -1.6875
L61.2031 57.5156
C64.2031 65.3125 66.4062 67.3125 72.0938 67.3125
L73.0938 67.3125
L73.0938 72
L46 72
L46 67.3125
L47.9062 67.3125
C53 67.3125 56 65.3125 56 62.0938
C56 60.7031 55.5 58.4062 54.7969 56.5156
z
" id="Century_Schoolbook_L_Roman-86"/>
     <path d="
M38 0
L55.4062 0
L55.4062 4.70312
L53.5938 4.70312
C48.2031 4.70312 47.4062 5.70312 47.4062 11.9688
L47.4062 73.7812
L27.7969 73.7812
L27.7969 69
L33.7031 69
C37.2969 69 38 68.2812 38 63.9219
L38 41
C34.2969 46.0938 30 48.3906 24.2031 48.3906
C12.9062 48.3906 4.29688 37.5469 4.29688 23.2031
C4.29688 9.0625 12.5938 -1 24.2031 -1
C30.5 -1 34.7969 1.67188 38 7.59375
z

M26.2031 43
C30.2969 43 34.2031 40.0312 36 35.4375
C37.2031 32.4531 37.9062 28.2812 37.9062 23.5156
C37.9062 11.9688 33.2969 4.39062 26.0938 4.39062
C19.0938 4.39062 14.7969 10.9688 14.7969 22.0156
C14.7969 27.8906 15.4062 32.3594 16.7031 35.7344
C18.4062 40.125 22.0938 43 26.2031 43" id="Century_Schoolbook_L_Roman-100"/>
     <path d="
M19.4062 47
L19.4062 67
L15.2969 67
C14.2969 53.875 9.90625 47.1875 1.79688 46.5938
L1.79688 42.7031
L10 42.7031
L10 17.2656
C10 10.2812 10.2031 7.78125 11.2031 5.48438
C12.7969 1.29688 16.7969 -1 22.5938 -1
C26.5 -1 29.9062 0.203125 32.2031 2.39062
C35.5 5.59375 37.4062 10.875 37.4062 16.375
C37.4062 16.9688 37.4062 17.6719 37.2969 18.6719
L33.0938 18.6719
C32.7969 9.6875 30.2031 5.09375 25.2969 5.09375
C23 5.09375 21 6.28125 20.2969 7.98438
C19.7031 9.375 19.4062 11.875 19.4062 15.4688
L19.4062 42.7031
L34.0938 42.7031
L34.0938 47
z
" id="Century_Schoolbook_L_Roman-116"/>
     <path d="
M18 73
L0.796875 73
L0.796875 68.2188
L4.29688 68.2188
C8 68.2188 8.59375 67.5156 8.59375 63.25
L8.59375 24.625
C8.59375 11.3125 8.09375 4.84375 6.79688 -1
L10.5938 -1
L15.5 6.75
C19.5938 1.45312 24.2969 -1 30.5 -1
C42.7969 -1 52 9.59375 52 23.8281
C52 38.0781 43.5938 48.0781 31.5938 48.0781
C25.5 48.0781 21.7969 46 18 40.3281
z

M29.7969 43
C37.2969 43 41.5 35.7656 41.5 22.7969
C41.5 10.3125 37.4062 3.1875 30.0938 3.1875
C22.2031 3.1875 17.5 10.4062 17.5 22.5938
C17.5 35.7656 21.7969 43 29.7969 43" id="Century_Schoolbook_L_Roman-98"/>
     <path d="
M20.4062 73
L1.90625 73
L1.90625 68.2188
L6.79688 68.2188
C10.4062 68.2188 11 67.5156 11 63.2188
L11 12.2812
L11 8.28125
C11 4.29688 9.90625 3.59375 3.5 3.59375
L2.79688 3.59375
L2.79688 0
L28.7031 0
L28.7031 3.59375
L28 3.59375
C21.5 3.59375 20.4062 4.29688 20.4062 8.25
L20.4062 12.2188
z
" id="Century_Schoolbook_L_Roman-108"/>
     <path d="
M20 46
L2.70312 46
L2.70312 41.2188
L6.29688 41.2188
C10 41.2188 10.5938 40.5156 10.5938 36.2031
L10.5938 12.2969
L10.5938 8.29688
C10.5938 4.29688 9.5 3.59375 3.09375 3.59375
L2.70312 3.59375
L2.70312 0
L28 0
L28 3.59375
L27.5938 3.59375
C21.0938 3.59375 20 4.29688 20 8.28125
L20 12.2812
L20 22.6562
C20 27.5469 20.7031 32.0312 21.7969 34.3281
C23.9062 38.8281 28.4062 41.9219 32.7031 41.9219
C35.2969 41.9219 38.2969 40.4219 39.7969 38.4219
C41.2969 36.3281 42 33.2344 42 28.4375
L42 12.2812
L42 8.28125
C42 4.29688 40.9062 3.59375 34.4062 3.59375
L34 3.59375
L34 0
L59.2969 0
L59.2969 3.59375
L58.9062 3.59375
C52.5 3.59375 51.4062 4.29688 51.4062 8.28125
L51.4062 12.2812
L51.4062 27.9531
C51.4062 35.125 51.0938 36.9219 49.2969 40.3281
C46.7969 45.1094 41.7031 48 35.7969 48
C29.4062 48 24.4062 45.0469 20 38.5156
z
" id="Century_Schoolbook_L_Roman-110"/>
     <path d="
M25.2031 48.2812
C13 48.2812 3.40625 37.4531 3.40625 23.5469
C3.40625 9.9375 13 -1 25 -1
C37 -1 46.5938 9.9375 46.5938 23.6406
C46.5938 37.25 37 48.2812 25.2031 48.2812
M25.2031 44
C32.2031 44 36.0938 36.7344 36.0938 23.6406
C36.0938 10.4531 32.2031 3.29688 25 3.29688
C17.7969 3.29688 13.9062 10.4531 13.9062 23.5469
C13.9062 37.0469 17.7031 44 25.2031 44" id="Century_Schoolbook_L_Roman-111"/>
     <path d="
M45.2031 32.5781
C45.2031 38.7969 44.0938 41.9688 41.2031 44.3438
C37.9062 46.9062 33 48.2812 26.5938 48.2812
C15.4062 48.2812 7.09375 43.0469 7.09375 35.9219
C7.09375 32.1562 9.40625 29.7812 12.9062 29.7812
C16 29.7812 18.2969 31.8594 18.2969 34.8125
C18.2969 36.1094 17.7969 37.4844 16.7969 38.875
C16.2031 39.5469 16.0938 39.8438 16.0938 40.1562
C16.0938 42.2188 20.2031 44 25 44
C28.0938 44 31.5938 43.0156 33.2031 41.5312
C35.0938 39.9531 35.7969 37.5781 35.7969 33.125
L35.7969 29.2812
C25.2969 27.4844 22.0938 26.6875 17.2031 24.8125
C8.59375 21.6094 4.40625 16.9375 4.40625 10.6562
C4.40625 3.57812 10.0938 -1 18.9062 -1
C25.7969 -1 32 1.85938 36.2969 7.0625
C37.9062 1.98438 40.4062 0 45.0938 0
C49.5938 0 54.2969 2.90625 54.2969 5.78125
C54.2969 6.46875 53.7969 6.96875 53.2969 6.96875
C52.9062 6.96875 52.5 6.875 51.7969 6.57812
C50.2031 6 49.7969 5.89062 49 5.89062
C46.2031 5.89062 45.2031 7.78125 45.2031 12.7188
z

M35.7969 20.4688
C35.7969 14.4688 35.5 13.0781 33.7969 10.4844
C31.2969 6.78125 26.7031 4.29688 22.4062 4.29688
C17.9062 4.29688 14.5 7.59375 14.5 12.0781
C14.5 16.2656 16.5938 19.2656 21 21.3594
C24.0938 22.75 28 23.75 35.7969 25.0469
z
" id="Century_Schoolbook_L_Roman-97"/>
    </defs>
    <g transform="translate(327.77483801 78.6826018641)scale(0.48 -0.48)">
     <use transform="scale(0.9962640099626402)" xlink:href="#Century_Schoolbook_L_Roman-86"/>
     <use transform="translate(70.13740587056351 0.0)scale(0.9962640099626402)" xlink:href="#Century_Schoolbook_L_Roman-105"/>
     <use transform="translate(101.5187188667497 0.0)scale(0.9962640099626402)" xlink:href="#Century_Schoolbook_L_Roman-116"/>
     <use transform="translate(140.2724250612936 0.0)scale(0.9962640099626402)" xlink:href="#Century_Schoolbook_L_Roman-101"/>
     <use transform="translate(190.0856255594256 0.0)scale(0.9962640099626402)" xlink:href="#Century_Schoolbook_L_Roman-115"/>
     <use transform="translate(236.21143611846205 0.0)scale(0.9962640099626402)" xlink:href="#Century_Schoolbook_L_Roman-115"/>
     <use transform="translate(282.33724667749846 0.0)scale(0.9962640099626402)" xlink:href="#Century_Schoolbook_L_Roman-101"/>
     <use transform="translate(359.84561677887615 0.0)scale(0.9962640099626402)" xlink:href="#Century_Schoolbook_L_Roman-100"/>
     <use transform="translate(417.0311040628892 0.0)scale(0.9962640099626402)" xlink:href="#Century_Schoolbook_L_Roman-101"/>
     <use transform="translate(494.53947416426684 0.0)scale(0.9962640099626402)" xlink:href="#Century_Schoolbook_L_Roman-112"/>
     <use transform="translate(551.7249614482799 0.0)scale(0.9962640099626402)" xlink:href="#Century_Schoolbook_L_Roman-101"/>
     <use transform="translate(601.538161946412 0.0)scale(0.9962640099626402)" xlink:href="#Century_Schoolbook_L_Roman-114"/>
     <use transform="translate(645.7717306438745 0.0)scale(0.9962640099626402)" xlink:href="#Century_Schoolbook_L_Roman-116"/>
     <use transform="translate(684.5254368384185 0.0)scale(0.9962640099626402)" xlink:href="#Century_Schoolbook_L_Roman-117"/>
     <use transform="translate(745.3970675153721 0.0)scale(0.9962640099626402)" xlink:href="#Century_Schoolbook_L_Roman-114"/>
     <use transform="translate(789.6306362128347 0.0)scale(0.9962640099626402)" xlink:href="#Century_Schoolbook_L_Roman-98"/>
     <use transform="translate(845.0223131761753 0.0)scale(0.9962640099626402)" xlink:href="#Century_Schoolbook_L_Roman-97"/>
     <use transform="translate(900.4139901395159 0.0)scale(0.9962640099626402)" xlink:href="#Century_Schoolbook_L_Roman-116"/>
     <use transform="translate(939.1676963340599 0.0)scale(0.9962640099626402)" xlink:href="#Century_Schoolbook_L_Roman-105"/>
     <use transform="translate(970.549009330246 0.0)scale(0.9962640099626402)" xlink:href="#Century_Schoolbook_L_Roman-111"/>
     <use transform="translate(1020.362209828378 0.0)scale(0.9962640099626402)" xlink:href="#Century_Schoolbook_L_Roman-110"/>
     <use transform="translate(1108.9290101085774 0.0)scale(0.9962640099626402)" xlink:href="#Century_Schoolbook_L_Roman-100"/>
     <use transform="translate(1166.1144973925905 0.0)scale(0.9962640099626402)" xlink:href="#Century_Schoolbook_L_Roman-117"/>
     <use transform="translate(1254.6812976727897 0.0)scale(0.9962640099626402)" xlink:href="#Century_Schoolbook_L_Roman-103"/>
     <use transform="translate(1308.1806415638623 0.0)scale(0.9962640099626402)" xlink:href="#Century_Schoolbook_L_Roman-108"/>
     <use transform="translate(1339.5619545600484 0.0)scale(0.9962640099626402)" xlink:href="#Century_Schoolbook_L_Roman-97"/>
     <use transform="translate(1394.953631523389 0.0)scale(0.9962640099626402)" xlink:href="#Century_Schoolbook_L_Roman-99"/>
     <use transform="translate(1439.1872002208515 0.0)scale(0.9962640099626402)" xlink:href="#Century_Schoolbook_L_Roman-105"/>
     <use transform="translate(1470.568513217038 0.0)scale(0.9962640099626402)" xlink:href="#Century_Schoolbook_L_Roman-101"/>
     <use transform="translate(1520.3817137151698 0.0)scale(0.9962640099626402)" xlink:href="#Century_Schoolbook_L_Roman-114"/>
     <use transform="translate(1592.3104520158781 0.0)scale(0.9962640099626402)" xlink:href="#Century_Schoolbook_L_Roman-101"/>
     <use transform="translate(1642.12365251401 0.0)scale(0.9962640099626402)" xlink:href="#Century_Schoolbook_L_Roman-110"/>
     <use transform="translate(1730.6904527942095 0.0)scale(0.9962640099626402)" xlink:href="#Century_Schoolbook_L_Roman-102"/>
     <use transform="translate(1763.8656825235446 0.0)scale(0.9962640099626402)" xlink:href="#Century_Schoolbook_L_Roman-111"/>
     <use transform="translate(1813.6788830216767 0.0)scale(0.9962640099626402)" xlink:href="#Century_Schoolbook_L_Roman-110"/>
     <use transform="translate(1874.5505136986303 0.0)scale(0.9962640099626402)" xlink:href="#Century_Schoolbook_L_Roman-99"/>
     <use transform="translate(1918.784082396093 0.0)scale(0.9962640099626402)" xlink:href="#Century_Schoolbook_L_Roman-116"/>
     <use transform="translate(1957.5377885906369 0.0)scale(0.9962640099626402)" xlink:href="#Century_Schoolbook_L_Roman-105"/>
     <use transform="translate(1988.919101586823 0.0)scale(0.9962640099626402)" xlink:href="#Century_Schoolbook_L_Roman-111"/>
     <use transform="translate(2038.732302084955 0.0)scale(0.9962640099626402)" xlink:href="#Century_Schoolbook_L_Roman-110"/>
     <use transform="translate(2127.2991023651543 0.0)scale(0.9962640099626402)" xlink:href="#Century_Schoolbook_L_Roman-100"/>
     <use transform="translate(2184.4845896491674 0.0)scale(0.9962640099626402)" xlink:href="#Century_Schoolbook_L_Roman-117"/>
     <use transform="translate(2273.0513899293665 0.0)scale(0.9962640099626402)" xlink:href="#Century_Schoolbook_L_Roman-116"/>
     <use transform="translate(2311.8050961239105 0.0)scale(0.9962640099626402)" xlink:href="#Century_Schoolbook_L_Roman-101"/>
     <use transform="translate(2361.6182966220426 0.0)scale(0.9962640099626402)" xlink:href="#Century_Schoolbook_L_Roman-109"/>
     <use transform="translate(2450.1852033147184 0.0)scale(0.9962640099626402)" xlink:href="#Century_Schoolbook_L_Roman-112"/>
     <use transform="translate(2507.3706905987315 0.0)scale(0.9962640099626402)" xlink:href="#Century_Schoolbook_L_Roman-115"/>
    </g>
   </g>
   <g id="legend_1">
    <g id="patch_7">
     <path d="
M330.132 259.219
L1646.12 259.219
L1646.12 107.683
L330.132 107.683
z
" style="fill:#ffffff;stroke:#000000;stroke-linejoin:miter;"/>
    </g>
    <g id="line2d_51">
     <path d="
M363.732 145.565
L430.932 145.565" style="fill:none;stroke:#0000ff;stroke-linecap:square;"/>
    </g>
    <g id="line2d_52"/>
    <g id="text_19">
     <!-- L= 0 m -->
     <defs>
      <path d="
M64.5938 27.3281
L60.2031 27.3281
C59.2031 20.5469 56.7969 13.7656 54.2031 10.4844
C51.0938 6.59375 45.2969 4.6875 36.9062 4.6875
L32.7031 4.6875
C29.7031 4.6875 27.2031 5.29688 26.2969 6.1875
C25.5938 6.78125 25.5 7.39062 25.5 9.48438
L25.5 59.7188
L25.5 62.6094
C25.5 66.8125 26.4062 67.3125 34.5 67.3125
L36.2969 67.3125
L36.2969 72
L3.5 72
L3.5 67.3125
L5.29688 67.3125
C13.4062 67.3125 14.2969 66.8125 14.2969 62.6094
L14.2969 59.7188
L14.2969 12.2812
L14.2969 9.375
C14.2969 5.1875 13.4062 4.6875 5.29688 4.6875
L3.5 4.6875
L3.5 0
L62.5 0
z
" id="Century_Schoolbook_L_Roman-76"/>
      <path d="
M5.09375 11
L55.5 11
L55.5 18.9844
L5.09375 18.9844
z

M5.09375 31.0156
L55.5 31.0156
L55.5 39
L5.09375 39
z
" id="Century_Schoolbook_L_Roman-61"/>
      <path d="
M28.4062 71
C14.4062 71 4.20312 55.6875 4.20312 34.75
C4.20312 14.125 14.0938 -1 27.5938 -1
C41.5938 -1 51.4062 13.625 51.4062 34.4375
C51.4062 45.0625 49.2031 53.875 45 60.7812
C41.0938 67.0938 34.7031 71 28.4062 71
M27.7031 66.7031
C31 66.7031 34.2031 64.5 36.5938 60.5
C39.2969 55.875 40.2031 49.9688 40.2031 36.25
C40.2031 22.2188 39.5 15.625 37.5 11.2031
C35.2031 6.29688 31.5938 3.29688 27.7969 3.29688
C24.5 3.29688 21.2969 5.5 18.9062 9.5
C16.0938 14.2188 15.2969 20.5312 15.2969 36.8594
C15.2969 48.4844 16 54.375 18 58.6875
C20.2969 63.7969 23.9062 66.7031 27.7031 66.7031" id="Century_Schoolbook_L_Roman-48"/>
     </defs>
     <g transform="translate(483.732048884 162.365203728)scale(0.48 -0.48)">
      <use transform="scale(0.9962640099626402)" xlink:href="#Century_Schoolbook_L_Roman-76"/>
      <use transform="translate(66.45003113325032 0.0)scale(0.9962640099626402)" xlink:href="#Century_Schoolbook_L_Roman-61"/>
      <use transform="translate(154.51821295143213 0.0)scale(0.9962640099626402)" xlink:href="#Century_Schoolbook_L_Roman-48"/>
      <use transform="translate(237.60505951801838 0.0)scale(0.9962640099626402)" xlink:href="#Century_Schoolbook_L_Roman-109"/>
     </g>
    </g>
    <g id="line2d_53">
     <path d="
M363.732 214.134
L430.932 214.134" style="fill:none;stroke:#008000;stroke-linecap:square;"/>
    </g>
    <g id="line2d_54"/>
    <g id="text_20">
     <!-- L= 500 m -->
     <defs>
      <path d="
M16.4062 59.7031
C21.7969 58.4062 24.5938 58 28.5 58
C37 58 43.2031 61 46.5 66.5
C47.5938 68.4062 48 69.2969 48 70.0938
C48 70.7031 47.7031 71 47.2031 71
C46.9062 71 46.4062 70.8906 45.9062 70.5938
C41 68.4844 38.2969 67.9844 32.5938 67.9844
C26.2031 67.9844 22.5 68.4844 12 71
C11.5938 62.6406 10.7031 52 9.29688 39.6562
C7.20312 37.4688 6.5 36.1719 6.5 34.5781
C6.5 32.5938 7.79688 31.2031 9.70312 31.2031
C12.2031 31.2031 13.7969 33.3281 14.2031 37.3594
C17.7031 39.8906 21 41 25 41
C33.9062 41 39.2969 34.0312 39.2969 22.5
C39.2969 15.7344 37.5938 9.95312 34.5938 6.82812
C32.5938 4.70312 28.5 3.29688 24.4062 3.29688
C18.4062 3.29688 12.2031 6.4375 12.2031 9.5625
C12.2031 10.2812 12.7969 11.0781 14 11.7812
C17.0938 13.7188 18 15.0312 18 17.75
C18 21.2969 15.2969 24.0156 11.7031 24.0156
C7.70312 24.0156 4.5 20.2812 4.5 15.5469
C4.5 10.5 7.40625 5.45312 11.9062 2.32812
C15.2969 0.109375 19.4062 -1 24.5938 -1
C40.2969 -1 50.2031 8.28125 50.2031 23.1094
C50.2031 36.8281 41.0938 46 27.5938 46
C23.4062 46 20.2031 45.2969 14.7031 43
z
" id="Century_Schoolbook_L_Roman-53"/>
     </defs>
     <g transform="translate(483.732048884 230.933576481)scale(0.48 -0.48)">
      <use transform="scale(0.9962640099626402)" xlink:href="#Century_Schoolbook_L_Roman-76"/>
      <use transform="translate(66.45003113325032 0.0)scale(0.9962640099626402)" xlink:href="#Century_Schoolbook_L_Roman-61"/>
      <use transform="translate(154.51821295143213 0.0)scale(0.9962640099626402)" xlink:href="#Century_Schoolbook_L_Roman-53"/>
      <use transform="translate(209.90988991477275 0.0)scale(0.9962640099626402)" xlink:href="#Century_Schoolbook_L_Roman-48"/>
      <use transform="translate(265.30156687811336 0.0)scale(0.9962640099626402)" xlink:href="#Century_Schoolbook_L_Roman-48"/>
      <use transform="translate(348.3884134446996 0.0)scale(0.9962640099626402)" xlink:href="#Century_Schoolbook_L_Roman-109"/>
     </g>
    </g>
    <g id="line2d_55">
     <path d="
M803.871 145.565
L871.071 145.565" style="fill:none;stroke:#ff0000;stroke-linecap:square;"/>
    </g>
    <g id="line2d_56"/>
    <g id="text_21">
     <!-- L= 1000 m -->
     <defs>
      <path d="
M32.2031 70.5
C28.7969 66.2344 19.5938 63 10.4062 63
L10.4062 58.5938
L19.2031 58.5938
C25 58.5938 25.4062 58.2031 25.4062 52.3125
L25.4062 12.2812
L25.4062 9.375
C25.4062 5.1875 24.5 4.6875 16.5 4.6875
L10 4.6875
L10 0
L49.5938 0
L49.5938 4.6875
L44.0938 4.6875
C38.7969 4.6875 36.5938 5.09375 35.7969 6.09375
C35.0938 6.78125 35.0938 6.78125 35.0938 12.3125
L35.0938 53.6719
C35.0938 58.5781 35.2969 63.375 35.7969 70.5
z
" id="Century_Schoolbook_L_Roman-49"/>
     </defs>
     <g transform="translate(923.870629913 162.365203728)scale(0.48 -0.48)">
      <use transform="scale(0.9962640099626402)" xlink:href="#Century_Schoolbook_L_Roman-76"/>
      <use transform="translate(66.45003113325032 0.0)scale(0.9962640099626402)" xlink:href="#Century_Schoolbook_L_Roman-61"/>
      <use transform="translate(154.51821295143213 0.0)scale(0.9962640099626402)" xlink:href="#Century_Schoolbook_L_Roman-49"/>
      <use transform="translate(209.90988991477275 0.0)scale(0.9962640099626402)" xlink:href="#Century_Schoolbook_L_Roman-48"/>
      <use transform="translate(265.30156687811336 0.0)scale(0.9962640099626402)" xlink:href="#Century_Schoolbook_L_Roman-48"/>
      <use transform="translate(320.693243841454 0.0)scale(0.9962640099626402)" xlink:href="#Century_Schoolbook_L_Roman-48"/>
      <use transform="translate(403.7800904080402 0.0)scale(0.9962640099626402)" xlink:href="#Century_Schoolbook_L_Roman-109"/>
     </g>
    </g>
    <g id="line2d_57">
     <path d="
M803.871 214.134
L871.071 214.134" style="fill:none;stroke:#00bfbf;stroke-linecap:square;"/>
    </g>
    <g id="line2d_58"/>
    <g id="text_22">
     <!-- L= 1500 m -->
     <g transform="translate(923.870629913 230.933576481)scale(0.48 -0.48)">
      <use transform="scale(0.9962640099626402)" xlink:href="#Century_Schoolbook_L_Roman-76"/>
      <use transform="translate(66.45003113325032 0.0)scale(0.9962640099626402)" xlink:href="#Century_Schoolbook_L_Roman-61"/>
      <use transform="translate(154.51821295143213 0.0)scale(0.9962640099626402)" xlink:href="#Century_Schoolbook_L_Roman-49"/>
      <use transform="translate(209.90988991477275 0.0)scale(0.9962640099626402)" xlink:href="#Century_Schoolbook_L_Roman-53"/>
      <use transform="translate(265.30156687811336 0.0)scale(0.9962640099626402)" xlink:href="#Century_Schoolbook_L_Roman-48"/>
      <use transform="translate(320.693243841454 0.0)scale(0.9962640099626402)" xlink:href="#Century_Schoolbook_L_Roman-48"/>
      <use transform="translate(403.7800904080402 0.0)scale(0.9962640099626402)" xlink:href="#Century_Schoolbook_L_Roman-109"/>
     </g>
    </g>
    <g id="line2d_59">
     <path d="
M1270.6 145.565
L1337.8 145.565" style="fill:none;stroke:#bf00bf;stroke-linecap:square;"/>
    </g>
    <g id="line2d_60"/>
    <g id="text_23">
     <!-- L= 2000 m -->
     <defs>
      <path d="
M50.5 21.5625
L46.0938 21.5625
L45.0938 16.4688
C43.7969 10.0781 43 9.375 36.7969 9.375
L14.4062 9.375
C21.2969 16.5625 23.5938 18.6562 30 23.6562
C39.0938 30.6562 43 34.1562 45.2969 37.1406
C48.5 41.5312 50.0938 46.0312 50.0938 50.8125
C50.0938 62.1094 40.5938 70.2969 27.5938 70.2969
C14.9062 70.2969 5.09375 62.1094 5.09375 51.5156
C5.09375 45.2344 8.29688 40.9375 13.0938 40.9375
C16.7969 40.9375 19.2969 43.4375 19.2969 47.0312
C19.2969 49.5156 17.9062 51.8125 15.7031 52.7188
C12 54.3281 11.7969 54.4219 11.7969 55.7188
C11.7969 57.2188 12.7969 59.5156 14.2031 61.2188
C16.7031 64.2031 20.9062 66 25.5938 66
C33.7969 66 38.7969 60.9062 38.7969 52.5312
C38.7969 45.125 35.2969 38.4375 27 29.6562
L21.0938 23.4688
C17.5938 19.7812 15 16.9688 13.2969 15.0781
C9.70312 10.875 7.90625 8.57812 3.5 2.79688
L3.5 0
L48.5938 0
z
" id="Century_Schoolbook_L_Roman-50"/>
     </defs>
     <g transform="translate(1390.59721953 162.365203728)scale(0.48 -0.48)">
      <use transform="scale(0.9962640099626402)" xlink:href="#Century_Schoolbook_L_Roman-76"/>
      <use transform="translate(66.45003113325032 0.0)scale(0.9962640099626402)" xlink:href="#Century_Schoolbook_L_Roman-61"/>
      <use transform="translate(154.51821295143213 0.0)scale(0.9962640099626402)" xlink:href="#Century_Schoolbook_L_Roman-50"/>
      <use transform="translate(209.90988991477275 0.0)scale(0.9962640099626402)" xlink:href="#Century_Schoolbook_L_Roman-48"/>
      <use transform="translate(265.30156687811336 0.0)scale(0.9962640099626402)" xlink:href="#Century_Schoolbook_L_Roman-48"/>
      <use transform="translate(320.693243841454 0.0)scale(0.9962640099626402)" xlink:href="#Century_Schoolbook_L_Roman-48"/>
      <use transform="translate(403.7800904080402 0.0)scale(0.9962640099626402)" xlink:href="#Century_Schoolbook_L_Roman-109"/>
     </g>
    </g>
   </g>
  </g>
 </g>
 <defs>
  <clipPath id="p455bd3de04">
   <rect height="670.036776882" width="1459.01944113" x="211.104368019" y="83.6826018641"/>
  </clipPath>
 </defs>
</svg>
