<?xml version="1.0" encoding="utf-8" standalone="no"?>
<!DOCTYPE svg PUBLIC "-//W3C//DTD SVG 1.1//EN"
  "http://www.w3.org/Graphics/SVG/1.1/DTD/svg11.dtd">
<!-- Created with matplotlib (http://matplotlib.org/) -->
<svg height="880pt" version="1.1" viewBox="0 0 1731 880" width="1731pt" xmlns="http://www.w3.org/2000/svg" xmlns:xlink="http://www.w3.org/1999/xlink">
 <defs>
  <style type="text/css">
*{stroke-linecap:butt;stroke-linejoin:round;}
  </style>
 </defs>
 <g id="figure_1">
  <g id="patch_1">
   <path d="
M0 880.2
L1731.6 880.2
L1731.6 0
L0 0
z
" style="fill:#ffffff;"/>
  </g>
  <g id="axes_1">
   <g id="patch_2">
    <path d="
M246.389 753.719
L1670.12 753.719
L1670.12 83.6826
L246.389 83.6826
z
" style="fill:#ffffff;"/>
   </g>
   <g id="line2d_1">
    <path clip-path="url(#p49a85c0896)" d="
M246.389 753.719
L247.797 753.501
L249.205 752.789
L250.613 751.578
L256.246 745.62
L257.655 744.567
L263.288 741.082
L264.696 739.913
L271.737 733.404
L274.554 731.505
L277.37 729.61
L280.187 727.266
L284.411 723.334
L287.228 721.097
L292.861 717.123
L295.677 714.686
L299.902 710.897
L302.718 708.76
L306.943 705.751
L309.76 703.405
L313.984 699.635
L316.801 697.414
L322.434 693.284
L325.25 690.872
L329.475 687.191
L332.292 685.041
L336.516 681.938
L339.333 679.593
L344.966 674.766
L353.415 668.301
L359.048 663.461
L363.273 660.273
L366.089 658.142
L370.314 654.571
L374.539 651.033
L382.988 644.507
L388.621 639.72
L392.846 636.513
L397.071 633.205
L404.112 627.297
L412.562 620.77
L418.195 616.155
L422.419 613.175
L430.869 607.613
L433.685 606.204
L436.502 605.21
L440.726 604.17
L444.951 603.362
L447.768 603.019
L451.992 602.643
L454.809 602.133
L457.625 601.244
L466.075 598.001
L470.3 596.779
L474.524 595.77
L482.974 594.181
L485.79 593.235
L491.423 591.039
L494.24 590.286
L502.689 588.611
L506.914 587.341
L515.363 584.712
L519.588 583.654
L526.629 582.136
L529.446 581.206
L533.671 579.667
L536.487 578.899
L544.937 577.148
L553.386 574.363
L563.244 572.043
L573.101 569.125
L585.776 565.829
L591.409 564.053
L595.633 563.042
L599.858 562.021
L602.675 561.079
L608.308 558.99
L616.757 556.342
L619.573 555.025
L625.206 552.206
L632.248 549.094
L636.472 546.787
L639.289 545.261
L642.105 543.962
L653.371 539.373
L659.004 536.945
L664.637 534.493
L677.311 528.44
L687.169 524.365
L706.885 515.274
L711.109 513.515
L715.334 511.804
L718.151 510.485
L725.192 506.945
L729.417 505.276
L733.641 503.578
L737.866 501.531
L742.091 499.531
L750.54 495.827
L756.173 493.235
L763.214 490.334
L767.439 488.2
L770.256 486.804
L773.072 485.619
L778.705 483.481
L781.522 482.175
L787.155 479.415
L791.379 477.744
L795.604 476.12
L805.462 472.065
L812.503 469.408
L818.136 467.312
L823.769 465.34
L827.994 463.585
L832.218 461.816
L843.484 457.444
L847.709 455.618
L851.934 454.08
L857.567 452.114
L863.2 449.809
L868.833 447.589
L875.874 444.871
L885.732 440.961
L895.589 437.253
L909.672 431.649
L920.938 427.335
L930.795 423.465
L937.837 420.69
L943.47 418.501
L950.511 415.881
L960.369 411.829
L967.41 409.281
L978.676 404.65
L982.901 403.022
L994.166 398.357
L998.391 396.645
L1006.84 392.988
L1015.29 389.676
L1023.74 386.148
L1032.19 382.777
L1068.8 367.834
L1073.03 366.116
L1080.07 363.095
L1088.52 359.727
L1094.15 357.349
L1102.6 354.041
L1109.64 350.958
L1119.5 347.099
L1125.13 344.644
L1134.99 340.779
L1140.62 338.315
L1154.71 332.665
L1170.2 326.406
L1181.46 321.916
L1187.1 319.647
L1195.55 316.287
L1203.99 312.89
L1211.04 310.024
L1219.49 306.627
L1233.57 300.979
L1260.32 290.195
L1265.96 287.997
L1274.41 284.501
L1281.45 281.75
L1289.9 278.264
L1296.94 275.52
L1305.39 272.038
L1312.43 269.285
L1322.29 265.251
L1329.33 262.451
L1339.19 258.471
L1377.21 243.018
L1384.25 240.252
L1389.88 237.958
L1396.92 235.07
L1405.37 231.694
L1413.82 228.266
L1422.27 224.82
L1429.31 221.997
L1436.36 219.165
L1444.8 215.716
L1453.25 212.323
L1463.11 208.328
L1474.38 203.748
L1670.12 124.709
L1670.12 124.709" style="fill:none;stroke:#0000ff;stroke-linecap:square;"/>
   </g>
   <g id="line2d_2">
    <path clip-path="url(#p49a85c0896)" d="
M246.389 753.719
L263.288 753.664
L266.104 753.505
L268.921 753.074
L270.329 752.684
L271.737 752.138
L273.145 751.411
L274.554 750.489
L275.962 749.377
L278.778 746.697
L283.003 742.373
L285.82 739.941
L288.636 737.997
L292.861 735.221
L295.677 732.921
L302.718 726.569
L305.535 724.535
L309.76 721.555
L312.576 719.187
L318.209 714.193
L321.026 712.087
L325.25 709.048
L328.067 706.708
L333.7 701.787
L336.516 699.666
L340.741 696.57
L343.558 694.222
L349.191 689.368
L353.415 686.234
L356.232 684.101
L360.457 680.495
L364.681 676.948
L373.131 670.461
L378.764 665.639
L382.988 662.431
L387.213 659.171
L395.663 652.187
L404.112 645.905
L408.337 642.748
L411.153 640.992
L416.786 637.993
L422.419 635.048
L426.644 633.212
L429.46 632.006
L432.277 630.562
L436.502 627.983
L439.318 626.294
L443.543 624.091
L450.584 620.759
L453.401 619.652
L457.625 618.338
L461.85 617.014
L466.075 615.657
L468.891 615.029
L473.116 614.51
L475.933 614.089
L478.749 613.378
L482.974 611.925
L488.607 610.046
L494.24 608.404
L498.464 607.446
L502.689 606.592
L505.506 605.837
L513.955 603.185
L520.996 601.415
L528.038 599.438
L533.671 598.142
L536.487 597.283
L542.12 595.42
L544.937 594.754
L550.57 593.583
L553.386 592.748
L559.019 590.902
L563.244 589.826
L568.877 588.482
L574.51 586.859
L582.959 584.306
L591.409 581.975
L595.633 580.347
L599.858 578.737
L608.308 575.885
L616.757 572.271
L625.206 569.49
L633.656 566.172
L637.881 564.638
L640.697 563.407
L651.963 558.07
L659.004 554.773
L664.637 552.244
L671.679 549.048
L675.903 547.174
L684.353 543.62
L704.068 534.512
L715.334 529.727
L722.375 526.315
L742.091 517.655
L751.948 513.179
L763.214 508.255
L771.664 504.493
L789.971 496.828
L799.829 492.829
L805.462 490.483
L812.503 487.682
L820.952 484.049
L829.402 480.937
L836.443 478.098
L844.893 475.058
L853.342 471.642
L858.975 469.478
L866.016 466.649
L873.057 464.021
L880.099 461.091
L889.956 457.478
L895.589 455.052
L899.814 453.571
L904.039 452.011
L912.488 448.474
L919.53 446.031
L925.163 443.603
L929.387 441.927
L936.428 439.305
L944.878 435.991
L950.511 433.778
L957.552 430.914
L966.002 427.624
L973.043 424.776
L978.676 422.529
L987.125 419.055
L994.166 416.359
L1002.62 412.789
L1011.07 409.493
L1019.51 405.913
L1026.56 403.061
L1035.01 399.556
L1043.46 396.154
L1051.9 392.702
L1060.35 389.235
L1075.84 382.894
L1118.09 365.639
L1136.4 358.157
L1161.75 347.928
L1184.28 338.803
L1191.32 335.925
L1201.18 332.022
L1212.44 327.488
L1243.43 315.004
L1288.49 296.89
L1349.04 272.415
L1468.74 224.035
L1491.28 214.949
L1501.13 210.947
L1526.48 200.727
L1592.67 173.994
L1613.79 165.443
L1639.14 155.24
L1651.82 150.125
L1670.12 142.716
L1670.12 142.716" style="fill:none;stroke:#008000;stroke-linecap:square;"/>
   </g>
   <g id="line2d_3">
    <path clip-path="url(#p49a85c0896)" d="
M246.389 753.719
L284.411 753.621
L287.228 753.456
L290.044 753.096
L292.861 752.401
L294.269 751.879
L295.677 751.216
L297.086 750.4
L298.494 749.426
L301.31 747.039
L304.127 744.235
L308.351 739.964
L311.168 737.522
L313.984 735.504
L319.617 731.758
L322.434 729.465
L330.883 721.952
L335.108 718.967
L337.925 716.929
L340.741 714.598
L346.374 709.585
L349.191 707.383
L354.824 703.292
L357.64 700.954
L363.273 696.044
L366.089 693.883
L371.722 689.722
L381.58 681.797
L390.03 676.384
L392.846 674.612
L395.663 673.111
L398.479 671.918
L402.704 670.215
L405.52 668.802
L426.644 656.933
L432.277 654.392
L435.093 652.833
L442.135 648.507
L444.951 647.114
L450.584 644.422
L456.217 641.225
L460.442 638.954
L470.3 634.03
L474.524 632.244
L482.974 628.986
L485.79 628.199
L488.607 627.693
L492.831 627.064
L495.648 626.435
L504.097 624.249
L506.914 623.588
L509.73 622.723
L516.772 620.127
L519.588 619.467
L525.221 618.463
L528.038 617.721
L537.895 614.805
L550.57 611.369
L554.794 610.353
L559.019 609.021
L564.652 607.141
L575.918 603.682
L580.143 602.073
L588.592 598.612
L601.266 594.063
L605.491 592.525
L613.94 589.865
L625.206 585.506
L642.105 579.57
L651.963 575.702
L656.188 574.188
L660.413 572.353
L664.637 570.47
L671.679 567.545
L675.903 565.329
L678.72 563.839
L681.536 562.56
L688.577 559.671
L697.027 555.591
L705.476 552.267
L716.742 546.965
L754.765 530.167
L792.788 514.425
L798.421 511.852
L802.645 510.232
L806.87 508.628
L811.095 506.761
L815.319 504.89
L827.994 499.671
L832.218 497.895
L843.484 493.394
L849.117 491.205
L856.159 488.518
L863.2 485.723
L874.466 481.537
L884.323 477.544
L912.488 466.657
L936.428 457.19
L943.47 454.417
L949.103 452.187
L957.552 448.632
L967.41 444.846
L974.451 441.917
L982.901 438.66
L989.942 435.787
L998.391 432.448
L1005.43 429.575
L1012.47 426.801
L1019.51 423.942
L1026.56 421.153
L1035.01 417.572
L1042.05 414.829
L1053.31 410.109
L1058.95 407.842
L1067.4 404.346
L1075.84 400.925
L1084.29 397.499
L1091.34 394.571
L1098.38 391.677
L1108.23 387.714
L1120.91 382.55
L1130.77 378.523
L1139.22 375.145
L1147.67 371.691
L1170.2 362.6
L1175.83 360.297
L1182.87 357.393
L1191.32 354.024
L1199.77 350.587
L1208.22 347.176
L1216.67 343.771
L1232.16 337.554
L1254.69 328.475
L1264.55 324.514
L1271.59 321.677
L1280.04 318.302
L1289.9 314.333
L1340.59 293.85
L1358.9 286.477
L1368.76 282.485
L1377.21 279.114
L1395.52 271.701
L1406.78 267.162
L1629.28 177.226
L1639.14 173.22
L1670.12 160.711
L1670.12 160.711" style="fill:none;stroke:#ff0000;stroke-linecap:square;"/>
   </g>
   <g id="line2d_4">
    <path clip-path="url(#p49a85c0896)" d="
M246.389 753.719
L304.127 753.647
L308.351 753.455
L311.168 753.153
L313.984 752.603
L316.801 751.683
L318.209 751.049
L319.617 750.282
L321.026 749.377
L323.842 747.164
L326.659 744.504
L333.7 737.47
L336.516 735.135
L339.333 733.162
L344.966 729.418
L347.782 727.176
L356.232 719.739
L359.048 717.765
L364.681 714.404
L373.131 709.189
L375.947 707.879
L382.988 705.092
L385.805 703.5
L392.846 698.934
L395.663 697.471
L402.704 694.093
L425.236 681.768
L430.869 679.016
L433.685 677.412
L439.318 674.03
L442.135 672.621
L447.768 669.983
L450.584 668.351
L456.217 664.928
L459.034 663.545
L463.258 661.621
L466.075 660.088
L473.116 655.882
L477.341 653.904
L480.157 652.566
L482.974 651.016
L488.607 647.807
L491.423 646.519
L499.873 642.975
L502.689 641.792
L505.506 640.86
L508.322 640.2
L515.363 638.763
L522.405 637.23
L526.629 636.285
L529.446 635.434
L539.304 632.039
L553.386 627.882
L557.611 626.317
L568.877 621.647
L575.918 619.321
L582.959 616.936
L595.633 612.285
L599.858 610.842
L612.532 606.161
L618.165 604.268
L637.881 597.085
L642.105 595.733
L644.922 594.669
L651.963 591.776
L656.188 590.467
L660.413 589.138
L664.637 587.417
L668.862 585.67
L680.128 581.502
L691.394 576.598
L713.926 566.096
L720.967 563.253
L728.008 560.121
L736.458 556.658
L742.091 554.041
L746.315 552.408
L750.54 550.813
L768.847 543.061
L773.072 541.098
L777.297 539.481
L781.522 537.871
L808.278 526.588
L813.911 524.264
L822.361 520.666
L840.668 513.013
L846.301 510.608
L854.75 507.299
L861.792 504.218
L873.057 499.875
L877.282 498.19
L885.732 495.08
L891.365 492.754
L901.222 489.138
L906.855 486.6
L911.08 485.065
L915.305 483.545
L919.53 481.71
L923.754 479.915
L935.02 475.558
L940.653 473.249
L947.694 470.425
L953.327 468.148
L961.777 464.923
L970.226 461.454
L977.268 458.68
L985.717 455.247
L996.983 450.831
L1015.29 443.535
L1035.01 435.583
L1040.64 433.28
L1047.68 430.53
L1057.54 426.426
L1063.17 424.187
L1073.03 420.062
L1080.07 417.198
L1085.7 414.865
L1094.15 411.501
L1101.19 408.595
L1109.64 405.23
L1116.68 402.315
L1125.13 398.912
L1132.17 396.095
L1137.81 393.821
L1144.85 390.868
L1153.3 387.541
L1160.34 384.574
L1170.2 380.681
L1177.24 377.773
L1185.69 374.343
L1192.73 371.517
L1199.77 368.673
L1206.81 365.779
L1216.67 361.803
L1232.16 355.559
L1258.92 344.772
L1264.55 342.516
L1271.59 339.744
L1280.04 336.261
L1287.08 333.475
L1295.53 330.021
L1302.57 327.221
L1311.02 323.777
L1318.06 320.963
L1326.51 317.529
L1334.96 314.124
L1343.41 310.742
L1361.72 303.35
L1670.12 178.738
L1670.12 178.738" style="fill:none;stroke:#00bfbf;stroke-linecap:square;"/>
   </g>
   <g id="line2d_5">
    <path clip-path="url(#p49a85c0896)" d="
M246.389 753.719
L1670.12 753.719
L1670.12 753.719" style="fill:none;stroke:#bf00bf;stroke-linecap:square;"/>
   </g>
   <g id="patch_3">
    <path d="
M1670.12 753.719
L1670.12 83.6826" style="fill:none;stroke:#000000;stroke-linecap:square;stroke-linejoin:miter;"/>
   </g>
   <g id="patch_4">
    <path d="
M246.389 753.719
L246.389 83.6826" style="fill:none;stroke:#000000;stroke-linecap:square;stroke-linejoin:miter;"/>
   </g>
   <g id="patch_5">
    <path d="
M246.389 753.719
L1670.12 753.719" style="fill:none;stroke:#000000;stroke-linecap:square;stroke-linejoin:miter;"/>
   </g>
   <g id="patch_6">
    <path d="
M246.389 83.6826
L1670.12 83.6826" style="fill:none;stroke:#000000;stroke-linecap:square;stroke-linejoin:miter;"/>
   </g>
   <g id="matplotlib.axis_1">
    <g id="xtick_1">
     <g id="line2d_6">
      <path clip-path="url(#p49a85c0896)" d="
M246.389 753.719
L246.389 83.6826" style="fill:none;stroke:#000000;stroke-dasharray:1.000000,3.000000;stroke-dashoffset:0.0;stroke-width:0.5;"/>
     </g>
     <g id="line2d_7">
      <defs>
       <path d="
M0 0
L0 -4" id="mc7db9fdffb" style="stroke:#000000;stroke-width:0.5;"/>
      </defs>
      <g>
       <use style="stroke:#000000;stroke-width:0.5;" x="246.388708238" xlink:href="#mc7db9fdffb" y="753.719378746"/>
      </g>
     </g>
     <g id="line2d_8">
      <defs>
       <path d="
M0 0
L0 4" id="m5a7d422ac3" style="stroke:#000000;stroke-width:0.5;"/>
      </defs>
      <g>
       <use style="stroke:#000000;stroke-width:0.5;" x="246.388708238" xlink:href="#m5a7d422ac3" y="83.6826018641"/>
      </g>
     </g>
     <g id="text_1">
      <!-- $0$ -->
      <defs>
       <path d="
M42 31.6406
C42 37.75 41.9062 48.125 37.7031 56.1094
C34 63.1094 28.0938 65.5938 22.9062 65.5938
C18.0938 65.5938 12 63.4062 8.20312 56.2031
C4.20312 48.7188 3.79688 39.4375 3.79688 31.6406
C3.79688 25.9531 3.90625 17.2812 7 9.67188
C11.2969 -0.609375 19 -2 22.9062 -2
C27.5 -2 34.5 -0.109375 38.5938 9.375
C41.5938 16.2812 42 24.3594 42 31.6406
M22.9062 -0.40625
C16.5 -0.40625 12.7031 5.07812 11.2969 12.6875
C10.2031 18.5625 10.2031 27.1562 10.2031 32.75
C10.2031 40.4375 10.2031 46.8281 11.5 52.9219
C13.4062 61.3906 19 64 22.9062 64
C27 64 32.2969 61.2969 34.2031 53.125
C35.5 47.4375 35.5938 40.7344 35.5938 32.75
C35.5938 26.25 35.5938 18.2656 34.4062 12.375
C32.2969 1.48438 26.4062 -0.40625 22.9062 -0.40625" id="CMR17-48"/>
      </defs>
      <g transform="translate(237.250612814 787.288213632)scale(0.4 -0.4)">
       <use transform="scale(0.9962640099626402)" xlink:href="#CMR17-48"/>
      </g>
     </g>
    </g>
    <g id="xtick_2">
     <g id="line2d_9">
      <path clip-path="url(#p49a85c0896)" d="
M531.136 753.719
L531.136 83.6826" style="fill:none;stroke:#000000;stroke-dasharray:1.000000,3.000000;stroke-dashoffset:0.0;stroke-width:0.5;"/>
     </g>
     <g id="line2d_10">
      <g>
       <use style="stroke:#000000;stroke-width:0.5;" x="531.135728421" xlink:href="#mc7db9fdffb" y="753.719378746"/>
      </g>
     </g>
     <g id="line2d_11">
      <g>
       <use style="stroke:#000000;stroke-width:0.5;" x="531.135728421" xlink:href="#m5a7d422ac3" y="83.6826018641"/>
      </g>
     </g>
     <g id="text_2">
      <!-- $2$ -->
      <defs>
       <path d="
M41.7031 15.4531
L39.9062 15.4531
C38.9062 8.375 38.0938 7.17188 37.7031 6.5625
C37.2031 5.76562 30 5.76562 28.5938 5.76562
L9.40625 5.76562
C13 9.67188 20 16.75 28.5 24.9531
C34.5938 30.7344 41.7031 37.5312 41.7031 47.4219
C41.7031 59.2188 32.2969 66 21.7969 66
C10.7969 66 4.09375 56.3125 4.09375 47.3438
C4.09375 43.4375 7 42.9375 8.20312 42.9375
C9.20312 42.9375 12.2031 43.5469 12.2031 47.0312
C12.2031 50.1094 9.59375 51 8.20312 51
C7.59375 51 7 50.9062 6.59375 50.7031
C8.5 59.2188 14.2969 63.4062 20.4062 63.4062
C29.0938 63.4062 34.7969 56.5156 34.7969 47.4219
C34.7969 38.7344 29.7031 31.25 24 24.75
L4.09375 2.28125
L4.09375 0
L39.2969 0
z
" id="CMR17-50"/>
      </defs>
      <g transform="translate(521.997632997 787.288213632)scale(0.4 -0.4)">
       <use transform="scale(0.9962640099626402)" xlink:href="#CMR17-50"/>
      </g>
     </g>
    </g>
    <g id="xtick_3">
     <g id="line2d_12">
      <path clip-path="url(#p49a85c0896)" d="
M815.883 753.719
L815.883 83.6826" style="fill:none;stroke:#000000;stroke-dasharray:1.000000,3.000000;stroke-dashoffset:0.0;stroke-width:0.5;"/>
     </g>
     <g id="line2d_13">
      <g>
       <use style="stroke:#000000;stroke-width:0.5;" x="815.882748604" xlink:href="#mc7db9fdffb" y="753.719378746"/>
      </g>
     </g>
     <g id="line2d_14">
      <g>
       <use style="stroke:#000000;stroke-width:0.5;" x="815.882748604" xlink:href="#m5a7d422ac3" y="83.6826018641"/>
      </g>
     </g>
     <g id="text_3">
      <!-- $4$ -->
      <defs>
       <path d="
M33.5938 64.3281
C33.5938 66.4062 33.5 66.5 31.7031 66.5
L2 19.5938
L2 17
L27.7969 17
L27.7969 7.14062
C27.7969 3.5 27.5938 2.5 20.5938 2.5
L18.7031 2.5
L18.7031 0
C21.9062 0 27.2969 0 30.7031 0
C34.0938 0 39.5 0 42.7031 0
L42.7031 2.5
L40.7969 2.5
C33.7969 2.5 33.5938 3.5 33.5938 7.14062
L33.5938 17
L43.7969 17
L43.7969 19.5938
L33.5938 19.5938
z

M28.0938 57.7656
L28.0938 19.5938
L4 19.5938
z
" id="CMR17-52"/>
      </defs>
      <g transform="translate(806.74465318 787.288213632)scale(0.4 -0.4)">
       <use transform="scale(0.9962640099626402)" xlink:href="#CMR17-52"/>
      </g>
     </g>
    </g>
    <g id="xtick_4">
     <g id="line2d_15">
      <path clip-path="url(#p49a85c0896)" d="
M1100.63 753.719
L1100.63 83.6826" style="fill:none;stroke:#000000;stroke-dasharray:1.000000,3.000000;stroke-dashoffset:0.0;stroke-width:0.5;"/>
     </g>
     <g id="line2d_16">
      <g>
       <use style="stroke:#000000;stroke-width:0.5;" x="1100.62976879" xlink:href="#mc7db9fdffb" y="753.719378746"/>
      </g>
     </g>
     <g id="line2d_17">
      <g>
       <use style="stroke:#000000;stroke-width:0.5;" x="1100.62976879" xlink:href="#m5a7d422ac3" y="83.6826018641"/>
      </g>
     </g>
     <g id="text_4">
      <!-- $6$ -->
      <defs>
       <path d="
M10.5938 34
C10.5938 57.6562 21.7969 63 28.2969 63
C30.4062 63 35.5 62.6406 37.5 59
C35.9062 59 32.9062 59 32.9062 55.5156
C32.9062 52.8281 35.0938 51.9219 36.5 51.9219
C37.4062 51.9219 40.0938 52.3125 40.0938 55.625
C40.0938 61.7812 35.0938 65.2969 28.2031 65.2969
C16.2969 65.2969 3.79688 52.9688 3.79688 31
C3.79688 3.95312 15.0938 -2 23.0938 -2
C32.7969 -2 42 6.67188 42 20.0469
C42 32.5156 33.9062 41.5938 23.7031 41.5938
C17.5938 41.5938 13.0938 37.6094 10.5938 30.625
z

M23.0938 0.390625
C10.7969 0.390625 10.7969 18.75 10.7969 22.4375
C10.7969 29.625 14.2031 40 23.5 40
C25.2031 40 30.0938 40 33.4062 33.125
C35.2031 29.2188 35.2031 25.1406 35.2031 20.1406
C35.2031 14.75 35.2031 10.7812 33.0938 6.78125
C30.9062 2.67188 27.7031 0.390625 23.0938 0.390625" id="CMR17-54"/>
      </defs>
      <g transform="translate(1091.49167336 787.288213632)scale(0.4 -0.4)">
       <use transform="scale(0.9962640099626402)" xlink:href="#CMR17-54"/>
      </g>
     </g>
    </g>
    <g id="xtick_5">
     <g id="line2d_18">
      <path clip-path="url(#p49a85c0896)" d="
M1385.38 753.719
L1385.38 83.6826" style="fill:none;stroke:#000000;stroke-dasharray:1.000000,3.000000;stroke-dashoffset:0.0;stroke-width:0.5;"/>
     </g>
     <g id="line2d_19">
      <g>
       <use style="stroke:#000000;stroke-width:0.5;" x="1385.37678897" xlink:href="#mc7db9fdffb" y="753.719378746"/>
      </g>
     </g>
     <g id="line2d_20">
      <g>
       <use style="stroke:#000000;stroke-width:0.5;" x="1385.37678897" xlink:href="#m5a7d422ac3" y="83.6826018641"/>
      </g>
     </g>
     <g id="text_5">
      <!-- $8$ -->
      <defs>
       <path d="
M27.2031 35.375
C33.5 38.5625 39.9062 43.3281 39.9062 50.9844
C39.9062 60.0312 31.0938 65.2969 23 65.2969
C13.9062 65.2969 5.90625 58.7344 5.90625 49.6875
C5.90625 47.2031 6.5 42.9219 10.4062 39.1406
C11.4062 38.1562 15.5938 35.1719 18.2969 33.2812
C13.7969 30.9844 3.29688 25.5312 3.29688 14.5938
C3.29688 4.35938 13.0938 -2 22.7969 -2
C33.5 -2 42.5 5.65625 42.5 15.7969
C42.5 24.8438 36.4062 29.0312 32.4062 31.7031
z

M14.0938 44.125
C13.2969 44.625 9.29688 47.7031 9.29688 52.375
C9.29688 58.4375 15.5938 63 22.7969 63
C30.7031 63 36.5 57.4531 36.5 50.9844
C36.5 41.7344 26.0938 36.4688 25.5938 36.4688
C25.5 36.4688 25.4062 36.4688 24.5938 37.0781
z

M32.5 23.7344
C34 22.6406 38.7969 19.375 38.7969 13.2969
C38.7969 5.95312 31.4062 0.390625 23 0.390625
C13.9062 0.390625 7 6.84375 7 14.6875
C7 22.5469 13.0938 29.0938 20 32.1875
z
" id="CMR17-56"/>
      </defs>
      <g transform="translate(1376.23869355 787.288213632)scale(0.4 -0.4)">
       <use transform="scale(0.9962640099626402)" xlink:href="#CMR17-56"/>
      </g>
     </g>
    </g>
    <g id="xtick_6">
     <g id="line2d_21">
      <path clip-path="url(#p49a85c0896)" d="
M1670.12 753.719
L1670.12 83.6826" style="fill:none;stroke:#000000;stroke-dasharray:1.000000,3.000000;stroke-dashoffset:0.0;stroke-width:0.5;"/>
     </g>
     <g id="line2d_22">
      <g>
       <use style="stroke:#000000;stroke-width:0.5;" x="1670.12380915" xlink:href="#mc7db9fdffb" y="753.719378746"/>
      </g>
     </g>
     <g id="line2d_23">
      <g>
       <use style="stroke:#000000;stroke-width:0.5;" x="1670.12380915" xlink:href="#m5a7d422ac3" y="83.6826018641"/>
      </g>
     </g>
     <g id="text_6">
      <!-- $10$ -->
      <defs>
       <path d="
M26.5938 63.3125
C26.5938 65.4062 26.5 65.5 25.0938 65.5
C21.2031 61.1875 15.2969 59.7969 9.70312 59.7969
C9.40625 59.7969 8.90625 59.7969 8.79688 59.5
C8.70312 59.2969 8.70312 59.0938 8.70312 57
C11.7969 57 17 57.5938 21 59.9844
L21 7.20312
C21 3.6875 20.7969 2.5 12.2031 2.5
L9.20312 2.5
L9.20312 0
C14 0 19 0 23.7969 0
C28.5938 0 33.5938 0 38.4062 0
L38.4062 2.5
L35.4062 2.5
C26.7969 2.5 26.5938 3.59375 26.5938 7.15625
z
" id="CMR17-49"/>
      </defs>
      <g transform="translate(1651.84761831 787.288213632)scale(0.4 -0.4)">
       <use transform="scale(0.9962640099626402)" xlink:href="#CMR17-49"/>
       <use transform="translate(45.69047711706103 0.0)scale(0.9962640099626402)" xlink:href="#CMR17-48"/>
      </g>
     </g>
    </g>
    <g id="text_7">
     <!-- Temps $t$ (s) -->
     <defs>
      <path d="
M5.40625 -12.2812
C11.4062 -8.57812 14.5938 -5.98438 18 -1.89062
C25.5938 6.98438 29.7031 18.5625 29.7031 30.6406
C29.7031 42.0156 26.0938 52.7031 19.4062 61.4844
C15.5938 66.375 12.2031 69.3594 5.40625 73.4531
L5.40625 69.7656
C15.4062 60.9844 19.4062 49.7969 19.4062 30.6406
C19.4062 11.375 15.4062 0.203125 5.40625 -8.57812
z
" id="Century_Schoolbook_L_Roman-41"/>
      <path d="
M63.2969 72
L3.40625 72
L1.90625 44.2656
L6.20312 44.2656
C6.90625 49.25 7.79688 53.0469 8.90625 56.2344
C11.5 63.5156 16.2969 67.3125 23.0938 67.3125
C26.4062 67.3125 27.7969 66.2031 27.7969 63.7188
L27.7969 12.2812
L27.7969 9.375
C27.7969 5.1875 26.9062 4.6875 18.7969 4.6875
L16.2031 4.6875
L16.2031 0
L50.5 0
L50.5 4.6875
L47.9062 4.6875
C39.9062 4.6875 39 5.1875 39 9.375
L39 12.2812
L39 63.7188
C39 66.2031 40.4062 67.3125 43.7031 67.3125
C49.7969 67.3125 54.7031 63.9062 57.2031 57.9219
C58.7031 54.25 59.7031 49.9531 60.5 44.2656
L64.7969 44.2656
z
" id="Century_Schoolbook_L_Roman-84"/>
      <path d="
M20.0938 46
L2.29688 46
L2.29688 41.2188
L6.40625 41.2188
C10.0938 41.2188 10.7031 40.5156 10.7031 36.2031
L10.7031 12.2969
L10.7031 8.40625
C10.7031 4.29688 9.59375 3.59375 3.20312 3.59375
L2.79688 3.59375
L2.79688 0
L28 0
L28 3.59375
L27.5938 3.59375
C21.2031 3.59375 20.0938 4.29688 20.0938 8.39062
L20.0938 12.2812
L20.0938 26.4531
C20.0938 35.3281 25 41.9219 31.5 41.9219
C34.0938 41.9219 36.9062 40.5156 38.0938 38.625
C39.5 36.7344 40.0938 33.8281 40.0938 29.7344
L40.0938 12.2812
L40.0938 8.28125
C40.0938 4.29688 39 3.59375 32.5 3.59375
L32.0938 3.59375
L32.0938 0
L57.4062 0
L57.4062 3.59375
L57 3.59375
C50.5938 3.59375 49.5 4.29688 49.5 8.28125
L49.5 12.2812
L49.5 25.5469
C49.5 35.5312 54 41.9219 61 41.9219
C64.2969 41.9219 67 40.0156 68.2969 36.9219
C69.2031 34.7344 69.5 32.5312 69.5 28.6406
L69.5 12.2812
L69.5 8.28125
C69.5 4.29688 68.4062 3.59375 61.9062 3.59375
L61.5 3.59375
L61.5 0
L86.7969 0
L86.7969 3.59375
L86.4062 3.59375
C80 3.59375 78.9062 4.29688 78.9062 8.39062
L78.9062 12.2812
L78.9062 30.6406
C78.9062 36.8281 78.2969 38.9219 75.7031 42.3125
C72.7969 46.0156 68.7031 48 63.9062 48
C57.4062 48 52.5938 44.9375 48.2969 38.1094
C46.5938 44.0469 41.2031 48 34.5 48
C28.5 48 24 45.1406 20.0938 38.9219
z
" id="Century_Schoolbook_L_Roman-109"/>
      <path d="
M27.9062 73.4531
C21.9062 69.7656 18.7031 67.1719 15.2969 63.1719
C7.70312 54.1875 3.59375 42.7188 3.59375 30.6406
C3.59375 19.2656 7.20312 8.57812 13.9062 -0.296875
C17.7031 -5.09375 21.0938 -8.07812 27.9062 -12.2812
L27.9062 -8.57812
C17.9062 0.203125 13.9062 11.4844 13.9062 30.6406
C13.9062 49.7969 17.9062 60.9844 27.9062 69.7656
z
" id="Century_Schoolbook_L_Roman-40"/>
      <path d="
M39 48
L35.5 48
L32.5938 44.4062
C29 47.2031 25.4062 48.3906 20.4062 48.3906
C11.5938 48.3906 5.79688 42.625 5.79688 33.9531
C5.79688 30.0781 7.09375 26.7812 9.29688 24.8125
C11.5938 22.7031 13.9062 21.7188 19.9062 20.3125
L25.2031 19.125
C33.0938 17.2344 35.9062 15.2344 35.9062 11.2656
C35.9062 6.57812 31.7969 3.29688 25.9062 3.29688
C17.5 3.29688 11.5 8.76562 9.09375 18.875
L5.09375 18.875
L5.09375 0
L8.59375 0
L12.0938 3.90625
C16.2031 0.59375 20.7969 -1 25.7969 -1
C35.5938 -1 42.0938 5.07812 42.0938 14.3438
C42.0938 18.7188 40.7031 22.0938 37.9062 24.3906
C35.5 26.4844 33.5 27.2812 27.4062 28.5625
L22.4062 29.6719
C16.9062 30.8594 16.9062 30.8594 15.0938 31.8594
C12.9062 32.8594 11.5938 34.9375 11.5938 37.1406
C11.5938 41.1094 15.4062 44 20.9062 44
C24.7031 44 27.7969 42.7031 30.5938 40.0156
C32.7969 37.8125 33.9062 35.8281 35.5 31.2344
L39 31.2344
z
" id="Century_Schoolbook_L_Roman-115"/>
      <path d="
M20.0938 46
L2.79688 46
L2.79688 41.2188
L6.40625 41.2188
C10.0938 41.2188 10.7031 40.5156 10.7031 36.2188
L10.7031 -7.75
L10.7031 -11.7188
C10.7031 -15.7188 9.59375 -16.4062 3.20312 -16.4062
L2.79688 -16.4062
L2.79688 -20
L28.7969 -20
L28.7969 -16.4062
L27.7031 -16.4062
C21.2031 -16.4062 20.0938 -15.7188 20.0938 -11.7344
L20.0938 -7.75
L20.0938 6.6875
C23.4062 0.90625 27.2031 -1.39062 33.2969 -1.39062
C44.9062 -1.39062 53.5 9.26562 53.5 23.5
C53.5 37.2656 44.9062 48 33.9062 48
C27.7031 48 23.5938 45.4375 20.0938 39.5156
z

M32.0938 42.6094
C39 42.6094 43 35.75 43 24.0938
C43 11.2656 38.9062 4 31.7969 4
C24.7031 4 20 11.375 20 22.8125
C20 35.1406 24.5 42.6094 32.0938 42.6094" id="Century_Schoolbook_L_Roman-112"/>
      <path d="
M46.5 23
C46.5938 37.8125 38.0938 48.2812 25.9062 48.2812
C13.0938 48.2812 3.5 37.25 3.5 22.3438
C3.5 8.4375 12.5938 -1 26.0938 -1
C35.5938 -1 42.4062 3.6875 46.5 13.1875
L43 15.0938
C38.9062 7.39062 34.7031 4.39062 28 4.39062
C22.9062 4.39062 19.2031 6.59375 16.5938 11
C14.7969 14 14 17.5 14.0938 23
z

M14.2031 27.2969
C14.2031 30.3438 14.5938 32.5 15.5938 35.25
C17.7031 41.1406 20.9062 44 25.7031 44
C31.7969 44 35.7969 38.7812 35.7969 30.9219
C35.7969 28.0781 34.9062 27.2969 31.7031 27.2969
z
" id="Century_Schoolbook_L_Roman-101"/>
      <path d="
M20.0938 40.0938
L29.2969 40.0938
C31.2031 40.0938 32.2031 40.0938 32.2031 41.8906
C32.2031 43 31.5938 43 29.5938 43
L20.7969 43
L24.5 57.6875
C24.9062 59.0781 24.9062 59.2812 24.9062 60
C24.9062 61.6094 23.5938 62.5 22.2969 62.5
C21.5 62.5 19.2031 62.2031 18.4062 58.9844
L14.5 43
L5.09375 43
C3.09375 43 2.20312 43 2.20312 41.0938
C2.20312 40.0938 2.90625 40.0938 4.79688 40.0938
L13.7031 40.0938
L7.09375 13.7656
C6.29688 10.2812 6 9.28125 6 7.98438
C6 3.29688 9.29688 -1 14.9062 -1
C25 -1 30.4062 13.5781 30.4062 14.2656
C30.4062 14.875 30 15.1719 29.4062 15.1719
C29.2031 15.1719 28.7969 15.1719 28.5938 14.7656
C28.5 14.6719 28.4062 14.5625 27.7031 12.9688
C25.5938 7.98438 21 1 15.2031 1
C12.2031 1 12 3.5 12 5.6875
C12 5.78125 12 7.6875 12.2969 8.875
z
" id="CMMI12-116"/>
     </defs>
     <g transform="translate(857.105118927 829.42852426)scale(0.4 -0.4)">
      <use transform="scale(0.9962640099626402)" xlink:href="#Century_Schoolbook_L_Roman-84"/>
      <use transform="translate(60.97130876400997 0.0)scale(0.9962640099626402)" xlink:href="#Century_Schoolbook_L_Roman-101"/>
      <use transform="translate(110.78450926214198 0.0)scale(0.9962640099626402)" xlink:href="#Century_Schoolbook_L_Roman-109"/>
      <use transform="translate(199.3514159548179 0.0)scale(0.9962640099626402)" xlink:href="#Century_Schoolbook_L_Roman-112"/>
      <use transform="translate(256.536903238831 0.0)scale(0.9962640099626402)" xlink:href="#Century_Schoolbook_L_Roman-115"/>
      <use transform="translate(330.35788340111304 0.0)scale(0.9962640099626402)" xlink:href="#CMMI12-116"/>
      <use transform="translate(393.27938322112396 0.0)scale(0.9962640099626402)" xlink:href="#Century_Schoolbook_L_Roman-40"/>
      <use transform="translate(426.45461295045925 0.0)scale(0.9962640099626402)" xlink:href="#Century_Schoolbook_L_Roman-115"/>
      <use transform="translate(472.5804235094957 0.0)scale(0.9962640099626402)" xlink:href="#Century_Schoolbook_L_Roman-41"/>
     </g>
    </g>
   </g>
   <g id="matplotlib.axis_2">
    <g id="ytick_1">
     <g id="line2d_24">
      <path clip-path="url(#p49a85c0896)" d="
M246.389 753.719
L1670.12 753.719" style="fill:none;stroke:#000000;stroke-dasharray:1.000000,3.000000;stroke-dashoffset:0.0;stroke-width:0.5;"/>
     </g>
     <g id="line2d_25">
      <defs>
       <path d="
M0 0
L4 0" id="md7965d1ba0" style="stroke:#000000;stroke-width:0.5;"/>
      </defs>
      <g>
       <use style="stroke:#000000;stroke-width:0.5;" x="246.388708238" xlink:href="#md7965d1ba0" y="753.719378746"/>
      </g>
     </g>
     <g id="line2d_26">
      <defs>
       <path d="
M0 0
L-4 0" id="md9a1c1a7cd" style="stroke:#000000;stroke-width:0.5;"/>
      </defs>
      <g>
       <use style="stroke:#000000;stroke-width:0.5;" x="1670.12380915" xlink:href="#md9a1c1a7cd" y="753.719378746"/>
      </g>
     </g>
     <g id="text_8">
      <!-- $0.0000000$ -->
      <defs>
       <path d="
M18.4062 4.79688
C18.4062 7.6875 16 9.67188 13.5938 9.67188
C10.7031 9.67188 8.70312 7.28125 8.70312 4.89062
C8.70312 2 11.0938 0 13.5 0
C16.4062 0 18.4062 2.39062 18.4062 4.79688" id="CMMI12-58"/>
      </defs>
      <g transform="translate(85.3403106271 764.718058319)scale(0.4 -0.4)">
       <use transform="scale(0.9962640099626402)" xlink:href="#CMR17-48"/>
       <use transform="translate(45.69047711706103 0.0)scale(0.9962640099626402)" xlink:href="#CMMI12-58"/>
       <use transform="translate(72.78765420688046 0.0)scale(0.9962640099626402)" xlink:href="#CMR17-48"/>
       <use transform="translate(118.47813132394148 0.0)scale(0.9962640099626402)" xlink:href="#CMR17-48"/>
       <use transform="translate(164.1686084410025 0.0)scale(0.9962640099626402)" xlink:href="#CMR17-48"/>
       <use transform="translate(209.85908555806353 0.0)scale(0.9962640099626402)" xlink:href="#CMR17-48"/>
       <use transform="translate(255.54956267512455 0.0)scale(0.9962640099626402)" xlink:href="#CMR17-48"/>
       <use transform="translate(301.2400397921856 0.0)scale(0.9962640099626402)" xlink:href="#CMR17-48"/>
       <use transform="translate(346.9305169092466 0.0)scale(0.9962640099626402)" xlink:href="#CMR17-48"/>
      </g>
     </g>
    </g>
    <g id="ytick_2">
     <g id="line2d_27">
      <path clip-path="url(#p49a85c0896)" d="
M246.389 619.712
L1670.12 619.712" style="fill:none;stroke:#000000;stroke-dasharray:1.000000,3.000000;stroke-dashoffset:0.0;stroke-width:0.5;"/>
     </g>
     <g id="line2d_28">
      <g>
       <use style="stroke:#000000;stroke-width:0.5;" x="246.388708238" xlink:href="#md7965d1ba0" y="619.712023369"/>
      </g>
     </g>
     <g id="line2d_29">
      <g>
       <use style="stroke:#000000;stroke-width:0.5;" x="1670.12380915" xlink:href="#md9a1c1a7cd" y="619.712023369"/>
      </g>
     </g>
     <g id="text_9">
      <!-- $0.0000005$ -->
      <defs>
       <path d="
M11.4062 57.6875
C12.4062 57.2812 16.5 56 20.7031 56
C30 56 35.0938 61.0156 38 63.9219
C38 64.7344 38 65.25 37.4062 65.25
C37.2969 65.25 37.0938 65.25 36.2969 64.8281
C32.7969 63.3125 28.7031 62.0781 23.7031 62.0781
C20.7031 62.0781 16.2031 62.5 11.2969 64.7344
C10.2031 65.25 10 65.25 9.90625 65.25
C9.40625 65.25 9.29688 65.1406 9.29688 63.1562
L9.29688 34.2812
C9.29688 32.5 9.29688 32 10.2969 32
C10.7969 32 11 32.2031 11.5 32.9062
C14.7031 37.4844 19.0938 39.4062 24.0938 39.4062
C27.5938 39.4062 35.0938 37.2188 35.0938 20.1406
C35.0938 16.9531 35.0938 11.1719 32.0938 6.57812
C29.5938 2.48438 25.7031 0.390625 21.4062 0.390625
C14.7969 0.390625 8.09375 5 6.29688 12.7188
C6.70312 12.6094 7.5 12.4219 7.90625 12.4219
C9.20312 12.4219 11.7031 13.125 11.7031 16.2188
C11.7031 18.9062 9.79688 20 7.90625 20
C5.59375 20 4.09375 18.5938 4.09375 15.7969
C4.09375 7.09375 11 -2 21.5938 -2
C31.9062 -2 41.7031 6.875 41.7031 19.75
C41.7031 31.7188 33.9062 41 24.2031 41
C19.0938 41 14.7969 39.0938 11.4062 35.4531
z
" id="CMR17-53"/>
      </defs>
      <g transform="translate(85.3403106271 630.710702943)scale(0.4 -0.4)">
       <use transform="scale(0.9962640099626402)" xlink:href="#CMR17-48"/>
       <use transform="translate(45.69047711706103 0.0)scale(0.9962640099626402)" xlink:href="#CMMI12-58"/>
       <use transform="translate(72.78765420688046 0.0)scale(0.9962640099626402)" xlink:href="#CMR17-48"/>
       <use transform="translate(118.47813132394148 0.0)scale(0.9962640099626402)" xlink:href="#CMR17-48"/>
       <use transform="translate(164.1686084410025 0.0)scale(0.9962640099626402)" xlink:href="#CMR17-48"/>
       <use transform="translate(209.85908555806353 0.0)scale(0.9962640099626402)" xlink:href="#CMR17-48"/>
       <use transform="translate(255.54956267512455 0.0)scale(0.9962640099626402)" xlink:href="#CMR17-48"/>
       <use transform="translate(301.2400397921856 0.0)scale(0.9962640099626402)" xlink:href="#CMR17-48"/>
       <use transform="translate(346.9305169092466 0.0)scale(0.9962640099626402)" xlink:href="#CMR17-53"/>
      </g>
     </g>
    </g>
    <g id="ytick_3">
     <g id="line2d_30">
      <path clip-path="url(#p49a85c0896)" d="
M246.389 485.705
L1670.12 485.705" style="fill:none;stroke:#000000;stroke-dasharray:1.000000,3.000000;stroke-dashoffset:0.0;stroke-width:0.5;"/>
     </g>
     <g id="line2d_31">
      <g>
       <use style="stroke:#000000;stroke-width:0.5;" x="246.388708238" xlink:href="#md7965d1ba0" y="485.704667993"/>
      </g>
     </g>
     <g id="line2d_32">
      <g>
       <use style="stroke:#000000;stroke-width:0.5;" x="1670.12380915" xlink:href="#md9a1c1a7cd" y="485.704667993"/>
      </g>
     </g>
     <g id="text_10">
      <!-- $0.0000010$ -->
      <g transform="translate(85.3403106271 496.703347566)scale(0.4 -0.4)">
       <use transform="scale(0.9962640099626402)" xlink:href="#CMR17-48"/>
       <use transform="translate(45.69047711706103 0.0)scale(0.9962640099626402)" xlink:href="#CMMI12-58"/>
       <use transform="translate(72.78765420688046 0.0)scale(0.9962640099626402)" xlink:href="#CMR17-48"/>
       <use transform="translate(118.47813132394148 0.0)scale(0.9962640099626402)" xlink:href="#CMR17-48"/>
       <use transform="translate(164.1686084410025 0.0)scale(0.9962640099626402)" xlink:href="#CMR17-48"/>
       <use transform="translate(209.85908555806353 0.0)scale(0.9962640099626402)" xlink:href="#CMR17-48"/>
       <use transform="translate(255.54956267512455 0.0)scale(0.9962640099626402)" xlink:href="#CMR17-48"/>
       <use transform="translate(301.2400397921856 0.0)scale(0.9962640099626402)" xlink:href="#CMR17-49"/>
       <use transform="translate(346.9305169092466 0.0)scale(0.9962640099626402)" xlink:href="#CMR17-48"/>
      </g>
     </g>
    </g>
    <g id="ytick_4">
     <g id="line2d_33">
      <path clip-path="url(#p49a85c0896)" d="
M246.389 351.697
L1670.12 351.697" style="fill:none;stroke:#000000;stroke-dasharray:1.000000,3.000000;stroke-dashoffset:0.0;stroke-width:0.5;"/>
     </g>
     <g id="line2d_34">
      <g>
       <use style="stroke:#000000;stroke-width:0.5;" x="246.388708238" xlink:href="#md7965d1ba0" y="351.697312617"/>
      </g>
     </g>
     <g id="line2d_35">
      <g>
       <use style="stroke:#000000;stroke-width:0.5;" x="1670.12380915" xlink:href="#md9a1c1a7cd" y="351.697312617"/>
      </g>
     </g>
     <g id="text_11">
      <!-- $0.0000015$ -->
      <g transform="translate(85.3403106271 362.69599219)scale(0.4 -0.4)">
       <use transform="scale(0.9962640099626402)" xlink:href="#CMR17-48"/>
       <use transform="translate(45.69047711706103 0.0)scale(0.9962640099626402)" xlink:href="#CMMI12-58"/>
       <use transform="translate(72.78765420688046 0.0)scale(0.9962640099626402)" xlink:href="#CMR17-48"/>
       <use transform="translate(118.47813132394148 0.0)scale(0.9962640099626402)" xlink:href="#CMR17-48"/>
       <use transform="translate(164.1686084410025 0.0)scale(0.9962640099626402)" xlink:href="#CMR17-48"/>
       <use transform="translate(209.85908555806353 0.0)scale(0.9962640099626402)" xlink:href="#CMR17-48"/>
       <use transform="translate(255.54956267512455 0.0)scale(0.9962640099626402)" xlink:href="#CMR17-48"/>
       <use transform="translate(301.2400397921856 0.0)scale(0.9962640099626402)" xlink:href="#CMR17-49"/>
       <use transform="translate(346.9305169092466 0.0)scale(0.9962640099626402)" xlink:href="#CMR17-53"/>
      </g>
     </g>
    </g>
    <g id="ytick_5">
     <g id="line2d_36">
      <path clip-path="url(#p49a85c0896)" d="
M246.389 217.69
L1670.12 217.69" style="fill:none;stroke:#000000;stroke-dasharray:1.000000,3.000000;stroke-dashoffset:0.0;stroke-width:0.5;"/>
     </g>
     <g id="line2d_37">
      <g>
       <use style="stroke:#000000;stroke-width:0.5;" x="246.388708238" xlink:href="#md7965d1ba0" y="217.68995724"/>
      </g>
     </g>
     <g id="line2d_38">
      <g>
       <use style="stroke:#000000;stroke-width:0.5;" x="1670.12380915" xlink:href="#md9a1c1a7cd" y="217.68995724"/>
      </g>
     </g>
     <g id="text_12">
      <!-- $0.0000020$ -->
      <g transform="translate(85.3403106271 228.688636814)scale(0.4 -0.4)">
       <use transform="scale(0.9962640099626402)" xlink:href="#CMR17-48"/>
       <use transform="translate(45.69047711706103 0.0)scale(0.9962640099626402)" xlink:href="#CMMI12-58"/>
       <use transform="translate(72.78765420688046 0.0)scale(0.9962640099626402)" xlink:href="#CMR17-48"/>
       <use transform="translate(118.47813132394148 0.0)scale(0.9962640099626402)" xlink:href="#CMR17-48"/>
       <use transform="translate(164.1686084410025 0.0)scale(0.9962640099626402)" xlink:href="#CMR17-48"/>
       <use transform="translate(209.85908555806353 0.0)scale(0.9962640099626402)" xlink:href="#CMR17-48"/>
       <use transform="translate(255.54956267512455 0.0)scale(0.9962640099626402)" xlink:href="#CMR17-48"/>
       <use transform="translate(301.2400397921856 0.0)scale(0.9962640099626402)" xlink:href="#CMR17-50"/>
       <use transform="translate(346.9305169092466 0.0)scale(0.9962640099626402)" xlink:href="#CMR17-48"/>
      </g>
     </g>
    </g>
    <g id="ytick_6">
     <g id="line2d_39">
      <path clip-path="url(#p49a85c0896)" d="
M246.389 83.6826
L1670.12 83.6826" style="fill:none;stroke:#000000;stroke-dasharray:1.000000,3.000000;stroke-dashoffset:0.0;stroke-width:0.5;"/>
     </g>
     <g id="line2d_40">
      <g>
       <use style="stroke:#000000;stroke-width:0.5;" x="246.388708238" xlink:href="#md7965d1ba0" y="83.6826018641"/>
      </g>
     </g>
     <g id="line2d_41">
      <g>
       <use style="stroke:#000000;stroke-width:0.5;" x="1670.12380915" xlink:href="#md9a1c1a7cd" y="83.6826018641"/>
      </g>
     </g>
     <g id="text_13">
      <!-- $0.0000025$ -->
      <g transform="translate(85.3403106271 94.6812814373)scale(0.4 -0.4)">
       <use transform="scale(0.9962640099626402)" xlink:href="#CMR17-48"/>
       <use transform="translate(45.69047711706103 0.0)scale(0.9962640099626402)" xlink:href="#CMMI12-58"/>
       <use transform="translate(72.78765420688046 0.0)scale(0.9962640099626402)" xlink:href="#CMR17-48"/>
       <use transform="translate(118.47813132394148 0.0)scale(0.9962640099626402)" xlink:href="#CMR17-48"/>
       <use transform="translate(164.1686084410025 0.0)scale(0.9962640099626402)" xlink:href="#CMR17-48"/>
       <use transform="translate(209.85908555806353 0.0)scale(0.9962640099626402)" xlink:href="#CMR17-48"/>
       <use transform="translate(255.54956267512455 0.0)scale(0.9962640099626402)" xlink:href="#CMR17-48"/>
       <use transform="translate(301.2400397921856 0.0)scale(0.9962640099626402)" xlink:href="#CMR17-50"/>
       <use transform="translate(346.9305169092466 0.0)scale(0.9962640099626402)" xlink:href="#CMR17-53"/>
      </g>
     </g>
    </g>
    <g id="text_14">
     <!-- $U_x$ (mm) -->
     <defs>
      <path d="
M50.5938 23.0312
C47.0938 9.07812 35.5 0.890625 26.0938 0.890625
C18.9062 0.890625 14 5.67188 14 13.9219
C14 14.3125 14 17.2969 15.0938 21.6719
L24.9062 60.7344
C25.7969 64.1094 26 65.1094 33.0938 65.1094
C34.9062 65.1094 35.9062 65.1094 35.9062 66.9062
C35.9062 68 35 68 34.4062 68
C32.5938 68 30.5 68 28.5938 68
L16.7969 68
C14.9062 68 12.7969 68 10.9062 68
C10.2031 68 9 68 9 66.1094
C9 65.1094 9.70312 65.1094 11.5938 65.1094
C17.5938 65.1094 17.5938 64.3125 17.5938 63.2031
C17.5938 62.625 16.9062 59.7344 16.4062 58.0469
L7.70312 23.25
C7.40625 22.1562 6.79688 19.4688 6.79688 16.7969
C6.79688 5.84375 14.7031 -2 25.5938 -2
C35.7031 -2 46.9062 6 52 18.7031
C52.7031 20.3906 53.5938 23.9062 54.2031 26.5938
C55.2031 30.2031 57.2969 39 58 41.5938
L61.7969 56.6094
C63.0938 61.8125 63.9062 65.1094 72.7031 65.1094
C73.5 65.2031 73.9062 66 73.9062 66.9062
C73.9062 68 73 68 72.5938 68
C71.2031 68 69.4062 68 68 68
L63.2969 68
C57.0938 68 53.9062 68 53.7969 68
C53.2031 68 52 68 52 66.1094
C52 65.1094 52.7969 65.1094 53.5 65.1094
C59.5 65.1094 59.9062 62.8125 59.9062 61.0156
C59.9062 60.125 59.9062 59.8125 59.5 58.4219
z
" id="CMMI12-85"/>
      <path d="
M47.4062 40.7188
C44.2031 40.1094 43 37.7188 43 35.8281
C43 33.4219 44.9062 32.625 46.2969 32.625
C49.2969 32.625 51.4062 35.2188 51.4062 37.9219
C51.4062 42.1094 46.5938 44 42.4062 44
C36.2969 44 32.9062 38.0156 32 36.125
C29.7031 44 23.5 44 21.7031 44
C11.5 44 6.09375 30.9375 6.09375 28.7344
C6.09375 28.3438 6.5 27.8438 7.20312 27.8438
C8 27.8438 8.20312 28.4375 8.40625 28.8438
C11.7969 39.9219 18.5 42.0156 21.4062 42.0156
C25.9062 42.0156 26.7969 37.8125 26.7969 35.4219
C26.7969 33.2344 26.2031 30.9375 25 26.1406
L21.5938 12.4688
C20.0938 6.48438 17.2031 1 11.9062 1
C11.4062 1 8.90625 1 6.79688 2.29688
C10.4062 3 11.2031 5.98438 11.2031 7.1875
C11.2031 9.1875 9.70312 10.375 7.79688 10.375
C5.40625 10.375 2.79688 8.28125 2.79688 5.09375
C2.79688 0.890625 7.5 -1 11.7969 -1
C16.5938 -1 20 2.79688 22.0938 6.89062
C23.7031 1 28.7031 -1 32.4062 -1
C42.5938 -1 48 12.0781 48 14.2656
C48 14.7656 47.5938 15.1719 47 15.1719
C46.0938 15.1719 46 14.6719 45.7031 13.875
C43 5.09375 37.2031 1 32.7031 1
C29.2031 1 27.2969 3.59375 27.2969 7.6875
C27.2969 9.875 27.7031 11.4688 29.2969 18.0625
L32.7969 31.625
C34.2969 37.625 37.7031 42.0156 42.2969 42.0156
C42.5 42.0156 45.2969 42.0156 47.4062 40.7188" id="CMMI12-120"/>
     </defs>
     <g transform="translate(72.7688348868 494.197100473)rotate(-90.0)scale(0.4 -0.4)">
      <use transform="translate(0.0 14.943914544092467)scale(0.9962640099626402)" xlink:href="#CMMI12-85"/>
      <use transform="translate(66.25211912846358 0.0)scale(0.6973817666173724)" xlink:href="#CMMI12-120"/>
      <use transform="translate(133.24907998813046 14.943914544092467)scale(0.9962640099626402)" xlink:href="#Century_Schoolbook_L_Roman-40"/>
      <use transform="translate(166.42430971746577 14.943914544092467)scale(0.9962640099626402)" xlink:href="#Century_Schoolbook_L_Roman-109"/>
      <use transform="translate(254.99121641014167 14.943914544092467)scale(0.9962640099626402)" xlink:href="#Century_Schoolbook_L_Roman-109"/>
      <use transform="translate(343.5581231028176 14.943914544092467)scale(0.9962640099626402)" xlink:href="#Century_Schoolbook_L_Roman-41"/>
     </g>
    </g>
   </g>
   <g id="text_15">
    <!-- Deplacement total -->
    <defs>
     <path d="
M13.7031 12.2812
L13.7031 9.375
C13.7031 5.1875 12.7969 4.6875 4.79688 4.6875
L2.90625 4.6875
L2.90625 0
L36.5 0
C45.4062 0 52.2031 1.39062 57.5 4.39062
C67.5938 10.0625 73.2031 21.4375 73.2031 36.3906
C73.2031 50.0625 68.2031 60.9375 59 66.9062
C53.5 70.4062 46.0938 72 34.7031 72
L2.90625 72
L2.90625 67.3125
L4.79688 67.3125
C12.7969 67.3125 13.7031 66.8125 13.7031 62.6094
L13.7031 59.7188
z

M30.5938 4.6875
C25.5938 4.6875 24.9062 5.29688 24.9062 10.1875
L24.9062 61.7188
C24.9062 66.6094 25.5938 67.3125 30.5938 67.3125
L35.7969 67.3125
C52.9062 67.3125 60 58.0469 60 36
C60 13.6562 53.5 4.6875 37.4062 4.6875
z
" id="Century_Schoolbook_L_Roman-68"/>
     <path d="
M25.2031 48.2812
C13 48.2812 3.40625 37.4531 3.40625 23.5469
C3.40625 9.9375 13 -1 25 -1
C37 -1 46.5938 9.9375 46.5938 23.6406
C46.5938 37.25 37 48.2812 25.2031 48.2812
M25.2031 44
C32.2031 44 36.0938 36.7344 36.0938 23.6406
C36.0938 10.4531 32.2031 3.29688 25 3.29688
C17.7969 3.29688 13.9062 10.4531 13.9062 23.5469
C13.9062 37.0469 17.7031 44 25.2031 44" id="Century_Schoolbook_L_Roman-111"/>
     <path d="
M45.2031 32.5781
C45.2031 38.7969 44.0938 41.9688 41.2031 44.3438
C37.9062 46.9062 33 48.2812 26.5938 48.2812
C15.4062 48.2812 7.09375 43.0469 7.09375 35.9219
C7.09375 32.1562 9.40625 29.7812 12.9062 29.7812
C16 29.7812 18.2969 31.8594 18.2969 34.8125
C18.2969 36.1094 17.7969 37.4844 16.7969 38.875
C16.2031 39.5469 16.0938 39.8438 16.0938 40.1562
C16.0938 42.2188 20.2031 44 25 44
C28.0938 44 31.5938 43.0156 33.2031 41.5312
C35.0938 39.9531 35.7969 37.5781 35.7969 33.125
L35.7969 29.2812
C25.2969 27.4844 22.0938 26.6875 17.2031 24.8125
C8.59375 21.6094 4.40625 16.9375 4.40625 10.6562
C4.40625 3.57812 10.0938 -1 18.9062 -1
C25.7969 -1 32 1.85938 36.2969 7.0625
C37.9062 1.98438 40.4062 0 45.0938 0
C49.5938 0 54.2969 2.90625 54.2969 5.78125
C54.2969 6.46875 53.7969 6.96875 53.2969 6.96875
C52.9062 6.96875 52.5 6.875 51.7969 6.57812
C50.2031 6 49.7969 5.89062 49 5.89062
C46.2031 5.89062 45.2031 7.78125 45.2031 12.7188
z

M35.7969 20.4688
C35.7969 14.4688 35.5 13.0781 33.7969 10.4844
C31.2969 6.78125 26.7031 4.29688 22.4062 4.29688
C17.9062 4.29688 14.5 7.59375 14.5 12.0781
C14.5 16.2656 16.5938 19.2656 21 21.3594
C24.0938 22.75 28 23.75 35.7969 25.0469
z
" id="Century_Schoolbook_L_Roman-97"/>
     <path d="
M38.7031 15.1094
C35.5 7.96875 32.0938 5.09375 26.9062 5.09375
C18.9062 5.09375 13.9062 12.3281 13.9062 23.9375
C13.9062 35.9531 18.7969 44 26.2031 44
C29.2031 44 31.7969 42.5938 31.7969 41.0156
C31.7969 40.7188 31.5938 40.4219 31.2031 39.8125
C29.5938 37.9375 29.2031 36.9375 29.2031 35.2656
C29.2031 31.9844 31.7031 29.7031 35.2031 29.7031
C38.7031 29.7031 41.2969 32.4844 41.2969 36.4531
C41.2969 43.1094 34.5938 48.2812 25.7031 48.2812
C12.7031 48.2812 3.40625 37.6562 3.40625 22.8438
C3.40625 8.73438 11.9062 -1 24.2969 -1
C33.2031 -1 38.2969 3.07812 42.5938 13.625
z
" id="Century_Schoolbook_L_Roman-99"/>
     <path d="
M20.4062 73
L1.90625 73
L1.90625 68.2188
L6.79688 68.2188
C10.4062 68.2188 11 67.5156 11 63.2188
L11 12.2812
L11 8.28125
C11 4.29688 9.90625 3.59375 3.5 3.59375
L2.79688 3.59375
L2.79688 0
L28.7031 0
L28.7031 3.59375
L28 3.59375
C21.5 3.59375 20.4062 4.29688 20.4062 8.25
L20.4062 12.2188
z
" id="Century_Schoolbook_L_Roman-108"/>
     <path d="
M19.4062 47
L19.4062 67
L15.2969 67
C14.2969 53.875 9.90625 47.1875 1.79688 46.5938
L1.79688 42.7031
L10 42.7031
L10 17.2656
C10 10.2812 10.2031 7.78125 11.2031 5.48438
C12.7969 1.29688 16.7969 -1 22.5938 -1
C26.5 -1 29.9062 0.203125 32.2031 2.39062
C35.5 5.59375 37.4062 10.875 37.4062 16.375
C37.4062 16.9688 37.4062 17.6719 37.2969 18.6719
L33.0938 18.6719
C32.7969 9.6875 30.2031 5.09375 25.2969 5.09375
C23 5.09375 21 6.28125 20.2969 7.98438
C19.7031 9.375 19.4062 11.875 19.4062 15.4688
L19.4062 42.7031
L34.0938 42.7031
L34.0938 47
z
" id="Century_Schoolbook_L_Roman-116"/>
     <path d="
M20 46
L2.70312 46
L2.70312 41.2188
L6.29688 41.2188
C10 41.2188 10.5938 40.5156 10.5938 36.2031
L10.5938 12.2969
L10.5938 8.29688
C10.5938 4.29688 9.5 3.59375 3.09375 3.59375
L2.70312 3.59375
L2.70312 0
L28 0
L28 3.59375
L27.5938 3.59375
C21.0938 3.59375 20 4.29688 20 8.28125
L20 12.2812
L20 22.6562
C20 27.5469 20.7031 32.0312 21.7969 34.3281
C23.9062 38.8281 28.4062 41.9219 32.7031 41.9219
C35.2969 41.9219 38.2969 40.4219 39.7969 38.4219
C41.2969 36.3281 42 33.2344 42 28.4375
L42 12.2812
L42 8.28125
C42 4.29688 40.9062 3.59375 34.4062 3.59375
L34 3.59375
L34 0
L59.2969 0
L59.2969 3.59375
L58.9062 3.59375
C52.5 3.59375 51.4062 4.29688 51.4062 8.28125
L51.4062 12.2812
L51.4062 27.9531
C51.4062 35.125 51.0938 36.9219 49.2969 40.3281
C46.7969 45.1094 41.7031 48 35.7969 48
C29.4062 48 24.4062 45.0469 20 38.5156
z
" id="Century_Schoolbook_L_Roman-110"/>
    </defs>
    <g transform="translate(755.427184192 78.6826018641)scale(0.48 -0.48)">
     <use transform="scale(0.9962640099626402)" xlink:href="#Century_Schoolbook_L_Roman-68"/>
     <use transform="translate(77.50837010137765 0.0)scale(0.9962640099626402)" xlink:href="#Century_Schoolbook_L_Roman-101"/>
     <use transform="translate(127.32157059950967 0.0)scale(0.9962640099626402)" xlink:href="#Century_Schoolbook_L_Roman-112"/>
     <use transform="translate(184.50705788352275 0.0)scale(0.9962640099626402)" xlink:href="#Century_Schoolbook_L_Roman-108"/>
     <use transform="translate(215.88837087970893 0.0)scale(0.9962640099626402)" xlink:href="#Century_Schoolbook_L_Roman-97"/>
     <use transform="translate(271.28004784304954 0.0)scale(0.9962640099626402)" xlink:href="#Century_Schoolbook_L_Roman-99"/>
     <use transform="translate(315.51361654051215 0.0)scale(0.9962640099626402)" xlink:href="#Century_Schoolbook_L_Roman-101"/>
     <use transform="translate(365.3268170386442 0.0)scale(0.9962640099626402)" xlink:href="#Century_Schoolbook_L_Roman-109"/>
     <use transform="translate(453.8937237313201 0.0)scale(0.9962640099626402)" xlink:href="#Century_Schoolbook_L_Roman-101"/>
     <use transform="translate(503.7069242294521 0.0)scale(0.9962640099626402)" xlink:href="#Century_Schoolbook_L_Roman-110"/>
     <use transform="translate(564.5785549064058 0.0)scale(0.9962640099626402)" xlink:href="#Century_Schoolbook_L_Roman-116"/>
     <use transform="translate(631.0274307041952 0.0)scale(0.9962640099626402)" xlink:href="#Century_Schoolbook_L_Roman-116"/>
     <use transform="translate(669.7811368987392 0.0)scale(0.9962640099626402)" xlink:href="#Century_Schoolbook_L_Roman-111"/>
     <use transform="translate(719.5943373968712 0.0)scale(0.9962640099626402)" xlink:href="#Century_Schoolbook_L_Roman-116"/>
     <use transform="translate(758.348043591415 0.0)scale(0.9962640099626402)" xlink:href="#Century_Schoolbook_L_Roman-97"/>
     <use transform="translate(813.7397205547556 0.0)scale(0.9962640099626402)" xlink:href="#Century_Schoolbook_L_Roman-108"/>
    </g>
   </g>
   <g id="legend_1">
    <g id="patch_7">
     <path d="
M330.132 259.219
L1646.12 259.219
L1646.12 107.683
L330.132 107.683
z
" style="fill:#ffffff;stroke:#000000;stroke-linejoin:miter;"/>
    </g>
    <g id="line2d_42">
     <path d="
M363.732 145.565
L430.932 145.565" style="fill:none;stroke:#0000ff;stroke-linecap:square;"/>
    </g>
    <g id="line2d_43"/>
    <g id="text_16">
     <!-- L= 0 m -->
     <defs>
      <path d="
M64.5938 27.3281
L60.2031 27.3281
C59.2031 20.5469 56.7969 13.7656 54.2031 10.4844
C51.0938 6.59375 45.2969 4.6875 36.9062 4.6875
L32.7031 4.6875
C29.7031 4.6875 27.2031 5.29688 26.2969 6.1875
C25.5938 6.78125 25.5 7.39062 25.5 9.48438
L25.5 59.7188
L25.5 62.6094
C25.5 66.8125 26.4062 67.3125 34.5 67.3125
L36.2969 67.3125
L36.2969 72
L3.5 72
L3.5 67.3125
L5.29688 67.3125
C13.4062 67.3125 14.2969 66.8125 14.2969 62.6094
L14.2969 59.7188
L14.2969 12.2812
L14.2969 9.375
C14.2969 5.1875 13.4062 4.6875 5.29688 4.6875
L3.5 4.6875
L3.5 0
L62.5 0
z
" id="Century_Schoolbook_L_Roman-76"/>
      <path d="
M5.09375 11
L55.5 11
L55.5 18.9844
L5.09375 18.9844
z

M5.09375 31.0156
L55.5 31.0156
L55.5 39
L5.09375 39
z
" id="Century_Schoolbook_L_Roman-61"/>
      <path d="
M28.4062 71
C14.4062 71 4.20312 55.6875 4.20312 34.75
C4.20312 14.125 14.0938 -1 27.5938 -1
C41.5938 -1 51.4062 13.625 51.4062 34.4375
C51.4062 45.0625 49.2031 53.875 45 60.7812
C41.0938 67.0938 34.7031 71 28.4062 71
M27.7031 66.7031
C31 66.7031 34.2031 64.5 36.5938 60.5
C39.2969 55.875 40.2031 49.9688 40.2031 36.25
C40.2031 22.2188 39.5 15.625 37.5 11.2031
C35.2031 6.29688 31.5938 3.29688 27.7969 3.29688
C24.5 3.29688 21.2969 5.5 18.9062 9.5
C16.0938 14.2188 15.2969 20.5312 15.2969 36.8594
C15.2969 48.4844 16 54.375 18 58.6875
C20.2969 63.7969 23.9062 66.7031 27.7031 66.7031" id="Century_Schoolbook_L_Roman-48"/>
     </defs>
     <g transform="translate(483.732048884 162.365203728)scale(0.48 -0.48)">
      <use transform="scale(0.9962640099626402)" xlink:href="#Century_Schoolbook_L_Roman-76"/>
      <use transform="translate(66.45003113325032 0.0)scale(0.9962640099626402)" xlink:href="#Century_Schoolbook_L_Roman-61"/>
      <use transform="translate(154.51821295143213 0.0)scale(0.9962640099626402)" xlink:href="#Century_Schoolbook_L_Roman-48"/>
      <use transform="translate(237.60505951801838 0.0)scale(0.9962640099626402)" xlink:href="#Century_Schoolbook_L_Roman-109"/>
     </g>
    </g>
    <g id="line2d_44">
     <path d="
M363.732 214.134
L430.932 214.134" style="fill:none;stroke:#008000;stroke-linecap:square;"/>
    </g>
    <g id="line2d_45"/>
    <g id="text_17">
     <!-- L= 500 m -->
     <defs>
      <path d="
M16.4062 59.7031
C21.7969 58.4062 24.5938 58 28.5 58
C37 58 43.2031 61 46.5 66.5
C47.5938 68.4062 48 69.2969 48 70.0938
C48 70.7031 47.7031 71 47.2031 71
C46.9062 71 46.4062 70.8906 45.9062 70.5938
C41 68.4844 38.2969 67.9844 32.5938 67.9844
C26.2031 67.9844 22.5 68.4844 12 71
C11.5938 62.6406 10.7031 52 9.29688 39.6562
C7.20312 37.4688 6.5 36.1719 6.5 34.5781
C6.5 32.5938 7.79688 31.2031 9.70312 31.2031
C12.2031 31.2031 13.7969 33.3281 14.2031 37.3594
C17.7031 39.8906 21 41 25 41
C33.9062 41 39.2969 34.0312 39.2969 22.5
C39.2969 15.7344 37.5938 9.95312 34.5938 6.82812
C32.5938 4.70312 28.5 3.29688 24.4062 3.29688
C18.4062 3.29688 12.2031 6.4375 12.2031 9.5625
C12.2031 10.2812 12.7969 11.0781 14 11.7812
C17.0938 13.7188 18 15.0312 18 17.75
C18 21.2969 15.2969 24.0156 11.7031 24.0156
C7.70312 24.0156 4.5 20.2812 4.5 15.5469
C4.5 10.5 7.40625 5.45312 11.9062 2.32812
C15.2969 0.109375 19.4062 -1 24.5938 -1
C40.2969 -1 50.2031 8.28125 50.2031 23.1094
C50.2031 36.8281 41.0938 46 27.5938 46
C23.4062 46 20.2031 45.2969 14.7031 43
z
" id="Century_Schoolbook_L_Roman-53"/>
     </defs>
     <g transform="translate(483.732048884 230.933576481)scale(0.48 -0.48)">
      <use transform="scale(0.9962640099626402)" xlink:href="#Century_Schoolbook_L_Roman-76"/>
      <use transform="translate(66.45003113325032 0.0)scale(0.9962640099626402)" xlink:href="#Century_Schoolbook_L_Roman-61"/>
      <use transform="translate(154.51821295143213 0.0)scale(0.9962640099626402)" xlink:href="#Century_Schoolbook_L_Roman-53"/>
      <use transform="translate(209.90988991477275 0.0)scale(0.9962640099626402)" xlink:href="#Century_Schoolbook_L_Roman-48"/>
      <use transform="translate(265.30156687811336 0.0)scale(0.9962640099626402)" xlink:href="#Century_Schoolbook_L_Roman-48"/>
      <use transform="translate(348.3884134446996 0.0)scale(0.9962640099626402)" xlink:href="#Century_Schoolbook_L_Roman-109"/>
     </g>
    </g>
    <g id="line2d_46">
     <path d="
M803.871 145.565
L871.071 145.565" style="fill:none;stroke:#ff0000;stroke-linecap:square;"/>
    </g>
    <g id="line2d_47"/>
    <g id="text_18">
     <!-- L= 1000 m -->
     <defs>
      <path d="
M32.2031 70.5
C28.7969 66.2344 19.5938 63 10.4062 63
L10.4062 58.5938
L19.2031 58.5938
C25 58.5938 25.4062 58.2031 25.4062 52.3125
L25.4062 12.2812
L25.4062 9.375
C25.4062 5.1875 24.5 4.6875 16.5 4.6875
L10 4.6875
L10 0
L49.5938 0
L49.5938 4.6875
L44.0938 4.6875
C38.7969 4.6875 36.5938 5.09375 35.7969 6.09375
C35.0938 6.78125 35.0938 6.78125 35.0938 12.3125
L35.0938 53.6719
C35.0938 58.5781 35.2969 63.375 35.7969 70.5
z
" id="Century_Schoolbook_L_Roman-49"/>
     </defs>
     <g transform="translate(923.870629913 162.365203728)scale(0.48 -0.48)">
      <use transform="scale(0.9962640099626402)" xlink:href="#Century_Schoolbook_L_Roman-76"/>
      <use transform="translate(66.45003113325032 0.0)scale(0.9962640099626402)" xlink:href="#Century_Schoolbook_L_Roman-61"/>
      <use transform="translate(154.51821295143213 0.0)scale(0.9962640099626402)" xlink:href="#Century_Schoolbook_L_Roman-49"/>
      <use transform="translate(209.90988991477275 0.0)scale(0.9962640099626402)" xlink:href="#Century_Schoolbook_L_Roman-48"/>
      <use transform="translate(265.30156687811336 0.0)scale(0.9962640099626402)" xlink:href="#Century_Schoolbook_L_Roman-48"/>
      <use transform="translate(320.693243841454 0.0)scale(0.9962640099626402)" xlink:href="#Century_Schoolbook_L_Roman-48"/>
      <use transform="translate(403.7800904080402 0.0)scale(0.9962640099626402)" xlink:href="#Century_Schoolbook_L_Roman-109"/>
     </g>
    </g>
    <g id="line2d_48">
     <path d="
M803.871 214.134
L871.071 214.134" style="fill:none;stroke:#00bfbf;stroke-linecap:square;"/>
    </g>
    <g id="line2d_49"/>
    <g id="text_19">
     <!-- L= 1500 m -->
     <g transform="translate(923.870629913 230.933576481)scale(0.48 -0.48)">
      <use transform="scale(0.9962640099626402)" xlink:href="#Century_Schoolbook_L_Roman-76"/>
      <use transform="translate(66.45003113325032 0.0)scale(0.9962640099626402)" xlink:href="#Century_Schoolbook_L_Roman-61"/>
      <use transform="translate(154.51821295143213 0.0)scale(0.9962640099626402)" xlink:href="#Century_Schoolbook_L_Roman-49"/>
      <use transform="translate(209.90988991477275 0.0)scale(0.9962640099626402)" xlink:href="#Century_Schoolbook_L_Roman-53"/>
      <use transform="translate(265.30156687811336 0.0)scale(0.9962640099626402)" xlink:href="#Century_Schoolbook_L_Roman-48"/>
      <use transform="translate(320.693243841454 0.0)scale(0.9962640099626402)" xlink:href="#Century_Schoolbook_L_Roman-48"/>
      <use transform="translate(403.7800904080402 0.0)scale(0.9962640099626402)" xlink:href="#Century_Schoolbook_L_Roman-109"/>
     </g>
    </g>
    <g id="line2d_50">
     <path d="
M1270.6 145.565
L1337.8 145.565" style="fill:none;stroke:#bf00bf;stroke-linecap:square;"/>
    </g>
    <g id="line2d_51"/>
    <g id="text_20">
     <!-- L= 2000 m -->
     <defs>
      <path d="
M50.5 21.5625
L46.0938 21.5625
L45.0938 16.4688
C43.7969 10.0781 43 9.375 36.7969 9.375
L14.4062 9.375
C21.2969 16.5625 23.5938 18.6562 30 23.6562
C39.0938 30.6562 43 34.1562 45.2969 37.1406
C48.5 41.5312 50.0938 46.0312 50.0938 50.8125
C50.0938 62.1094 40.5938 70.2969 27.5938 70.2969
C14.9062 70.2969 5.09375 62.1094 5.09375 51.5156
C5.09375 45.2344 8.29688 40.9375 13.0938 40.9375
C16.7969 40.9375 19.2969 43.4375 19.2969 47.0312
C19.2969 49.5156 17.9062 51.8125 15.7031 52.7188
C12 54.3281 11.7969 54.4219 11.7969 55.7188
C11.7969 57.2188 12.7969 59.5156 14.2031 61.2188
C16.7031 64.2031 20.9062 66 25.5938 66
C33.7969 66 38.7969 60.9062 38.7969 52.5312
C38.7969 45.125 35.2969 38.4375 27 29.6562
L21.0938 23.4688
C17.5938 19.7812 15 16.9688 13.2969 15.0781
C9.70312 10.875 7.90625 8.57812 3.5 2.79688
L3.5 0
L48.5938 0
z
" id="Century_Schoolbook_L_Roman-50"/>
     </defs>
     <g transform="translate(1390.59721953 162.365203728)scale(0.48 -0.48)">
      <use transform="scale(0.9962640099626402)" xlink:href="#Century_Schoolbook_L_Roman-76"/>
      <use transform="translate(66.45003113325032 0.0)scale(0.9962640099626402)" xlink:href="#Century_Schoolbook_L_Roman-61"/>
      <use transform="translate(154.51821295143213 0.0)scale(0.9962640099626402)" xlink:href="#Century_Schoolbook_L_Roman-50"/>
      <use transform="translate(209.90988991477275 0.0)scale(0.9962640099626402)" xlink:href="#Century_Schoolbook_L_Roman-48"/>
      <use transform="translate(265.30156687811336 0.0)scale(0.9962640099626402)" xlink:href="#Century_Schoolbook_L_Roman-48"/>
      <use transform="translate(320.693243841454 0.0)scale(0.9962640099626402)" xlink:href="#Century_Schoolbook_L_Roman-48"/>
      <use transform="translate(403.7800904080402 0.0)scale(0.9962640099626402)" xlink:href="#Century_Schoolbook_L_Roman-109"/>
     </g>
    </g>
   </g>
  </g>
 </g>
 <defs>
  <clipPath id="p49a85c0896">
   <rect height="670.036776882" width="1423.73510092" x="246.388708238" y="83.6826018641"/>
  </clipPath>
 </defs>
</svg>
