<?xml version="1.0" encoding="utf-8" standalone="no"?>
<!DOCTYPE svg PUBLIC "-//W3C//DTD SVG 1.1//EN"
  "http://www.w3.org/Graphics/SVG/1.1/DTD/svg11.dtd">
<!-- Created with matplotlib (http://matplotlib.org/) -->
<svg height="880pt" version="1.1" viewBox="0 0 1731 880" width="1731pt" xmlns="http://www.w3.org/2000/svg" xmlns:xlink="http://www.w3.org/1999/xlink">
 <defs>
  <style type="text/css">
*{stroke-linecap:butt;stroke-linejoin:round;}
  </style>
 </defs>
 <g id="figure_1">
  <g id="patch_1">
   <path d="
M0 880.2
L1731.6 880.2
L1731.6 0
L0 0
z
" style="fill:#ffffff;"/>
  </g>
  <g id="axes_1">
   <g id="patch_2">
    <path d="
M161.833 753.719
L1670.12 753.719
L1670.12 83.6826
L161.833 83.6826
z
" style="fill:#ffffff;"/>
   </g>
   <g id="line2d_1">
    <path clip-path="url(#p7fbd6cdb68)" d="
M161.833 753.719
L163.325 753.361
L164.817 752.876
L166.309 752.517
L167.801 752.347
L169.293 752.362
L176.752 753.057
L179.736 752.811
L182.72 752.549
L185.703 752.584
L191.671 752.972
L194.655 752.842
L199.13 752.584
L202.114 752.677
L206.59 752.924
L209.573 752.862
L214.049 752.626
L217.033 752.661
L223 752.903
L227.476 752.726
L230.46 752.636
L234.935 752.785
L239.411 752.876
L248.362 752.692
L254.33 752.872
L264.773 752.729
L269.249 752.862
L273.724 752.755
L278.2 752.677
L287.151 752.826
L294.611 752.698
L302.07 752.835
L311.021 752.723
L316.989 752.839
L327.432 752.75
L333.399 752.829
L340.859 752.73
L351.302 752.916
L355.778 752.967
L369.204 753.477
L379.648 753.577
L388.599 753.222
L405.01 753.511
L409.485 753.509
L418.437 753.232
L430.372 753.481
L439.323 753.34
L449.766 753.437
L455.734 753.475
L464.685 753.285
L473.636 753.515
L482.587 753.292
L493.031 753.454
L501.982 753.353
L518.392 753.389
L525.852 753.354
L533.311 753.456
L543.754 753.291
L549.722 753.39
L561.657 753.143
L567.625 753.209
L576.576 753.07
L585.527 753.275
L595.97 753.208
L603.43 753.183
L610.889 753.118
L625.808 753.216
L636.251 753.169
L657.137 753.236
L666.089 753.111
L675.04 753.264
L683.991 753.141
L691.451 753.214
L698.91 753.163
L706.369 753.242
L715.321 753.126
L722.78 753.287
L733.223 753.153
L740.683 753.277
L749.634 753.224
L758.585 753.266
L766.045 753.295
L772.012 753.293
L780.963 753.229
L788.423 753.283
L797.374 753.211
L806.325 753.313
L816.768 753.237
L827.212 753.247
L837.655 753.272
L849.59 753.243
L866.001 753.275
L927.168 753.207
L933.135 753.238
L940.595 753.254
L948.054 753.214
L957.005 753.229
L964.465 753.209
L973.416 753.248
L982.367 753.233
L992.81 753.231
L1061.44 753.273
L1067.4 753.224
L1073.37 753.193
L1082.32 753.266
L1089.78 753.192
L1098.73 753.265
L1106.19 753.191
L1116.64 753.248
L1124.1 753.224
L1134.54 753.226
L1188.25 753.244
L1209.13 753.235
L1264.33 753.235
L1273.28 753.239
L1282.24 753.252
L1291.19 753.224
L1301.63 753.264
L1380.7 753.256
L1419.49 753.238
L1437.39 753.236
L1459.77 753.23
L1513.48 753.238
L1640.29 753.242
L1670.12 753.224
L1670.12 753.224" style="fill:none;stroke:#0000ff;stroke-linecap:square;"/>
   </g>
   <g id="line2d_2">
    <path clip-path="url(#p7fbd6cdb68)" d="
M161.833 753.719
L182.72 753.611
L187.195 753.331
L196.146 752.496
L199.13 752.501
L208.081 752.977
L212.557 752.747
L215.541 752.598
L218.525 752.626
L225.984 752.916
L236.427 752.692
L242.395 752.893
L252.838 752.704
L258.805 752.875
L269.249 752.721
L275.216 752.859
L284.167 752.693
L291.627 752.844
L300.578 752.713
L306.546 752.848
L318.481 752.793
L322.956 752.871
L331.908 752.846
L339.367 753.101
L349.81 753.192
L354.286 753.218
L364.729 753.004
L373.68 753.147
L379.648 753.252
L385.615 753.373
L394.566 753.39
L400.534 753.596
L405.01 753.486
L410.977 753.294
L422.912 753.384
L433.355 753.445
L440.815 753.321
L449.766 753.426
L457.225 753.383
L464.685 753.439
L472.144 753.309
L482.587 753.457
L490.047 753.317
L501.982 753.425
L515.409 753.362
L524.36 753.391
L533.311 753.248
L542.263 753.318
L549.722 753.177
L560.165 753.326
L566.133 753.221
L576.576 753.244
L584.035 753.13
L594.478 753.162
L610.889 753.166
L655.645 753.184
L661.613 753.126
L675.04 753.196
L697.418 753.21
L728.748 753.214
L751.126 753.221
L760.077 753.228
L767.536 753.213
L774.996 753.3
L783.947 753.238
L791.407 753.31
L801.85 753.248
L809.309 753.25
L816.768 753.262
L822.736 753.28
L830.195 753.216
L839.147 753.301
L846.606 753.195
L855.557 753.301
L863.017 753.196
L871.968 753.317
L880.919 753.208
L889.871 753.277
L898.822 753.262
L909.265 753.221
L952.53 753.242
L959.989 753.221
L967.448 753.268
L977.892 753.224
L986.843 753.223
L997.286 753.257
L1088.29 753.239
L1161.39 753.25
L1177.8 753.239
L1210.62 753.246
L1282.24 753.248
L1324.01 753.225
L1344.89 753.219
L1365.78 753.252
L1404.57 753.233
L1428.44 753.242
L1462.75 753.253
L1556.74 753.24
L1670.12 753.232
L1670.12 753.232" style="fill:none;stroke:#008000;stroke-linecap:square;"/>
   </g>
   <g id="line2d_3">
    <path clip-path="url(#p7fbd6cdb68)" d="
M161.833 753.719
L205.098 753.618
L211.065 753.335
L223 752.488
L227.476 752.596
L234.935 752.967
L239.411 752.835
L245.378 752.597
L249.854 752.738
L254.33 752.908
L258.805 752.804
L263.281 752.639
L267.757 752.728
L273.724 752.88
L284.167 752.699
L290.135 752.873
L296.102 752.725
L300.578 752.733
L309.529 752.976
L315.497 752.965
L325.94 753.236
L334.891 753.025
L342.351 753.054
L348.318 753.031
L357.269 753.179
L366.221 752.974
L375.172 753.166
L384.123 753.045
L394.566 753.115
L412.469 753.325
L419.928 753.56
L446.782 753.309
L452.75 753.529
L457.225 753.453
L463.193 753.341
L485.571 753.45
L497.506 753.335
L506.457 753.356
L522.868 753.258
L530.328 753.326
L539.279 753.267
L546.738 753.372
L557.181 753.242
L566.133 753.297
L588.511 753.273
L594.478 753.288
L601.938 753.175
L610.889 753.202
L616.857 753.065
L630.283 753.154
L634.759 753.112
L643.71 753.281
L654.154 753.15
L661.613 753.186
L670.564 753.216
L678.024 753.193
L685.483 753.182
L701.894 753.238
L712.337 753.209
L864.509 753.264
L915.233 753.265
L922.692 753.249
L930.151 753.226
L939.103 753.256
L948.054 753.25
L957.005 753.227
L974.908 753.223
L1004.75 753.218
L1012.2 753.229
L1021.16 753.228
L1031.6 753.254
L1425.46 753.228
L1450.82 753.255
L1526.9 753.248
L1534.36 753.238
L1541.82 753.232
L1550.77 753.238
L1558.23 753.231
L1567.18 753.24
L1576.14 753.246
L1588.07 753.224
L1626.86 753.252
L1667.14 753.233
L1670.12 753.244
L1670.12 753.244" style="fill:none;stroke:#ff0000;stroke-linecap:square;"/>
   </g>
   <g id="line2d_4">
    <path clip-path="url(#p7fbd6cdb68)" d="
M161.833 753.719
L227.476 753.631
L233.443 753.419
L240.903 752.898
L246.87 752.528
L251.346 752.518
L264.773 752.91
L273.724 752.626
L278.2 752.808
L284.167 753.029
L296.102 753.092
L302.07 753.296
L306.546 753.132
L311.021 752.922
L315.497 752.979
L321.464 753.18
L327.432 753.08
L333.399 753.061
L340.859 753.076
L348.318 753.075
L354.286 753.155
L364.729 753.02
L372.188 753.184
L382.631 753.02
L388.599 753.198
L394.566 753.015
L399.042 752.996
L406.501 753.188
L416.945 753.065
L424.404 753.248
L431.863 753.215
L442.307 753.493
L452.75 753.48
L458.717 753.404
L466.177 753.283
L481.095 753.371
L491.539 753.232
L497.506 753.204
L513.917 753.326
L528.836 753.313
L536.295 753.284
L543.754 753.269
L552.706 753.323
L566.133 753.271
L594.478 753.373
L598.954 753.334
L606.413 753.212
L616.857 753.28
L625.808 753.212
L648.186 753.129
L654.154 753.182
L660.121 753.26
L670.564 753.211
L676.532 753.252
L685.483 753.177
L692.942 753.286
L703.386 753.239
L709.353 753.244
L716.813 753.147
L727.256 753.258
L734.715 753.202
L743.666 753.217
L751.126 753.211
L758.585 753.247
L769.028 753.223
L788.423 753.21
L795.882 753.229
L803.342 753.251
L810.801 753.194
L819.752 753.28
L827.212 753.23
L834.671 753.301
L843.622 753.242
L851.082 753.305
L858.541 753.168
L868.984 753.283
L876.444 753.198
L885.395 753.277
L894.346 753.232
L903.298 753.227
L925.676 753.238
L934.627 753.237
L945.07 753.263
L977.892 753.239
L988.335 753.265
L1058.45 753.226
L1067.4 753.26
L1088.29 753.243
L1100.23 753.262
L1128.57 753.237
L1136.03 753.253
L1144.98 753.233
L1156.92 753.221
L1185.26 753.236
L1209.13 753.247
L1256.87 753.263
L1310.58 753.24
L1331.47 753.227
L1370.26 753.237
L1425.46 753.234
L1444.85 753.248
L1470.21 753.234
L1544.81 753.237
L1670.12 753.229
L1670.12 753.229" style="fill:none;stroke:#00bfbf;stroke-linecap:square;"/>
   </g>
   <g id="line2d_5">
    <path clip-path="url(#p7fbd6cdb68)" d="
M161.833 753.719
L245.378 753.641
L251.346 753.38
L254.33 753.079
L257.314 752.585
L260.297 751.829
L263.281 750.755
L266.265 749.341
L269.249 747.619
L273.724 744.684
L278.2 741.775
L281.184 740.064
L284.167 738.574
L293.119 734.39
L297.594 731.84
L303.562 728.317
L308.037 726.01
L314.005 723.094
L318.481 720.624
L324.448 717.207
L328.924 714.902
L334.891 711.879
L349.81 703.806
L354.286 701.47
L366.221 694.974
L372.188 691.876
L384.123 685.405
L391.583 681.464
L400.534 676.609
L409.485 671.869
L416.945 667.826
L427.388 662.289
L434.847 658.326
L449.766 650.848
L455.734 648.305
L461.701 645.982
L466.177 644.456
L479.604 640.23
L487.063 637.517
L500.49 632.397
L512.425 628.394
L522.868 624.502
L530.328 621.793
L540.771 618.237
L552.706 613.807
L566.133 609.104
L581.051 603.727
L588.511 601.103
L598.954 597.275
L607.905 594.151
L621.332 589.28
L631.775 585.507
L649.678 578.687
L663.105 573.016
L670.564 569.783
L678.024 566.556
L704.877 555.546
L718.304 549.858
L731.731 544.346
L751.126 536.203
L766.045 530.009
L773.504 526.881
L783.947 522.583
L804.833 513.858
L816.768 508.901
L825.72 505.195
L839.147 499.706
L849.59 495.555
L880.919 483.21
L909.265 471.898
L940.595 459.483
L997.286 436.965
L1007.73 432.795
L1155.43 373.276
L1182.28 362.446
L1204.66 353.419
L1234.49 341.421
L1306.11 312.677
L1346.39 296.516
L1670.12 166.368
L1670.12 166.368" style="fill:none;stroke:#bf00bf;stroke-linecap:square;"/>
   </g>
   <g id="patch_3">
    <path d="
M1670.12 753.719
L1670.12 83.6826" style="fill:none;stroke:#000000;stroke-linecap:square;stroke-linejoin:miter;"/>
   </g>
   <g id="patch_4">
    <path d="
M161.833 753.719
L161.833 83.6826" style="fill:none;stroke:#000000;stroke-linecap:square;stroke-linejoin:miter;"/>
   </g>
   <g id="patch_5">
    <path d="
M161.833 753.719
L1670.12 753.719" style="fill:none;stroke:#000000;stroke-linecap:square;stroke-linejoin:miter;"/>
   </g>
   <g id="patch_6">
    <path d="
M161.833 83.6826
L1670.12 83.6826" style="fill:none;stroke:#000000;stroke-linecap:square;stroke-linejoin:miter;"/>
   </g>
   <g id="matplotlib.axis_1">
    <g id="xtick_1">
     <g id="line2d_6">
      <path clip-path="url(#p7fbd6cdb68)" d="
M161.833 753.719
L161.833 83.6826" style="fill:none;stroke:#000000;stroke-dasharray:1.000000,3.000000;stroke-dashoffset:0.0;stroke-width:0.5;"/>
     </g>
     <g id="line2d_7">
      <defs>
       <path d="
M0 0
L0 -4" id="mc7db9fdffb" style="stroke:#000000;stroke-width:0.5;"/>
      </defs>
      <g>
       <use style="stroke:#000000;stroke-width:0.5;" x="161.833187072" xlink:href="#mc7db9fdffb" y="753.719378746"/>
      </g>
     </g>
     <g id="line2d_8">
      <defs>
       <path d="
M0 0
L0 4" id="m5a7d422ac3" style="stroke:#000000;stroke-width:0.5;"/>
      </defs>
      <g>
       <use style="stroke:#000000;stroke-width:0.5;" x="161.833187072" xlink:href="#m5a7d422ac3" y="83.6826018641"/>
      </g>
     </g>
     <g id="text_1">
      <!-- $0$ -->
      <defs>
       <path d="
M42 31.6406
C42 37.75 41.9062 48.125 37.7031 56.1094
C34 63.1094 28.0938 65.5938 22.9062 65.5938
C18.0938 65.5938 12 63.4062 8.20312 56.2031
C4.20312 48.7188 3.79688 39.4375 3.79688 31.6406
C3.79688 25.9531 3.90625 17.2812 7 9.67188
C11.2969 -0.609375 19 -2 22.9062 -2
C27.5 -2 34.5 -0.109375 38.5938 9.375
C41.5938 16.2812 42 24.3594 42 31.6406
M22.9062 -0.40625
C16.5 -0.40625 12.7031 5.07812 11.2969 12.6875
C10.2031 18.5625 10.2031 27.1562 10.2031 32.75
C10.2031 40.4375 10.2031 46.8281 11.5 52.9219
C13.4062 61.3906 19 64 22.9062 64
C27 64 32.2969 61.2969 34.2031 53.125
C35.5 47.4375 35.5938 40.7344 35.5938 32.75
C35.5938 26.25 35.5938 18.2656 34.4062 12.375
C32.2969 1.48438 26.4062 -0.40625 22.9062 -0.40625" id="CMR17-48"/>
      </defs>
      <g transform="translate(152.695091649 787.288213632)scale(0.4 -0.4)">
       <use transform="scale(0.9962640099626402)" xlink:href="#CMR17-48"/>
      </g>
     </g>
    </g>
    <g id="xtick_2">
     <g id="line2d_9">
      <path clip-path="url(#p7fbd6cdb68)" d="
M463.491 753.719
L463.491 83.6826" style="fill:none;stroke:#000000;stroke-dasharray:1.000000,3.000000;stroke-dashoffset:0.0;stroke-width:0.5;"/>
     </g>
     <g id="line2d_10">
      <g>
       <use style="stroke:#000000;stroke-width:0.5;" x="463.491311488" xlink:href="#mc7db9fdffb" y="753.719378746"/>
      </g>
     </g>
     <g id="line2d_11">
      <g>
       <use style="stroke:#000000;stroke-width:0.5;" x="463.491311488" xlink:href="#m5a7d422ac3" y="83.6826018641"/>
      </g>
     </g>
     <g id="text_2">
      <!-- $2$ -->
      <defs>
       <path d="
M41.7031 15.4531
L39.9062 15.4531
C38.9062 8.375 38.0938 7.17188 37.7031 6.5625
C37.2031 5.76562 30 5.76562 28.5938 5.76562
L9.40625 5.76562
C13 9.67188 20 16.75 28.5 24.9531
C34.5938 30.7344 41.7031 37.5312 41.7031 47.4219
C41.7031 59.2188 32.2969 66 21.7969 66
C10.7969 66 4.09375 56.3125 4.09375 47.3438
C4.09375 43.4375 7 42.9375 8.20312 42.9375
C9.20312 42.9375 12.2031 43.5469 12.2031 47.0312
C12.2031 50.1094 9.59375 51 8.20312 51
C7.59375 51 7 50.9062 6.59375 50.7031
C8.5 59.2188 14.2969 63.4062 20.4062 63.4062
C29.0938 63.4062 34.7969 56.5156 34.7969 47.4219
C34.7969 38.7344 29.7031 31.25 24 24.75
L4.09375 2.28125
L4.09375 0
L39.2969 0
z
" id="CMR17-50"/>
      </defs>
      <g transform="translate(454.353216065 787.288213632)scale(0.4 -0.4)">
       <use transform="scale(0.9962640099626402)" xlink:href="#CMR17-50"/>
      </g>
     </g>
    </g>
    <g id="xtick_3">
     <g id="line2d_12">
      <path clip-path="url(#p7fbd6cdb68)" d="
M765.149 753.719
L765.149 83.6826" style="fill:none;stroke:#000000;stroke-dasharray:1.000000,3.000000;stroke-dashoffset:0.0;stroke-width:0.5;"/>
     </g>
     <g id="line2d_13">
      <g>
       <use style="stroke:#000000;stroke-width:0.5;" x="765.149435904" xlink:href="#mc7db9fdffb" y="753.719378746"/>
      </g>
     </g>
     <g id="line2d_14">
      <g>
       <use style="stroke:#000000;stroke-width:0.5;" x="765.149435904" xlink:href="#m5a7d422ac3" y="83.6826018641"/>
      </g>
     </g>
     <g id="text_3">
      <!-- $4$ -->
      <defs>
       <path d="
M33.5938 64.3281
C33.5938 66.4062 33.5 66.5 31.7031 66.5
L2 19.5938
L2 17
L27.7969 17
L27.7969 7.14062
C27.7969 3.5 27.5938 2.5 20.5938 2.5
L18.7031 2.5
L18.7031 0
C21.9062 0 27.2969 0 30.7031 0
C34.0938 0 39.5 0 42.7031 0
L42.7031 2.5
L40.7969 2.5
C33.7969 2.5 33.5938 3.5 33.5938 7.14062
L33.5938 17
L43.7969 17
L43.7969 19.5938
L33.5938 19.5938
z

M28.0938 57.7656
L28.0938 19.5938
L4 19.5938
z
" id="CMR17-52"/>
      </defs>
      <g transform="translate(756.011340481 787.288213632)scale(0.4 -0.4)">
       <use transform="scale(0.9962640099626402)" xlink:href="#CMR17-52"/>
      </g>
     </g>
    </g>
    <g id="xtick_4">
     <g id="line2d_15">
      <path clip-path="url(#p7fbd6cdb68)" d="
M1066.81 753.719
L1066.81 83.6826" style="fill:none;stroke:#000000;stroke-dasharray:1.000000,3.000000;stroke-dashoffset:0.0;stroke-width:0.5;"/>
     </g>
     <g id="line2d_16">
      <g>
       <use style="stroke:#000000;stroke-width:0.5;" x="1066.80756032" xlink:href="#mc7db9fdffb" y="753.719378746"/>
      </g>
     </g>
     <g id="line2d_17">
      <g>
       <use style="stroke:#000000;stroke-width:0.5;" x="1066.80756032" xlink:href="#m5a7d422ac3" y="83.6826018641"/>
      </g>
     </g>
     <g id="text_4">
      <!-- $6$ -->
      <defs>
       <path d="
M10.5938 34
C10.5938 57.6562 21.7969 63 28.2969 63
C30.4062 63 35.5 62.6406 37.5 59
C35.9062 59 32.9062 59 32.9062 55.5156
C32.9062 52.8281 35.0938 51.9219 36.5 51.9219
C37.4062 51.9219 40.0938 52.3125 40.0938 55.625
C40.0938 61.7812 35.0938 65.2969 28.2031 65.2969
C16.2969 65.2969 3.79688 52.9688 3.79688 31
C3.79688 3.95312 15.0938 -2 23.0938 -2
C32.7969 -2 42 6.67188 42 20.0469
C42 32.5156 33.9062 41.5938 23.7031 41.5938
C17.5938 41.5938 13.0938 37.6094 10.5938 30.625
z

M23.0938 0.390625
C10.7969 0.390625 10.7969 18.75 10.7969 22.4375
C10.7969 29.625 14.2031 40 23.5 40
C25.2031 40 30.0938 40 33.4062 33.125
C35.2031 29.2188 35.2031 25.1406 35.2031 20.1406
C35.2031 14.75 35.2031 10.7812 33.0938 6.78125
C30.9062 2.67188 27.7031 0.390625 23.0938 0.390625" id="CMR17-54"/>
      </defs>
      <g transform="translate(1057.6694649 787.288213632)scale(0.4 -0.4)">
       <use transform="scale(0.9962640099626402)" xlink:href="#CMR17-54"/>
      </g>
     </g>
    </g>
    <g id="xtick_5">
     <g id="line2d_18">
      <path clip-path="url(#p7fbd6cdb68)" d="
M1368.47 753.719
L1368.47 83.6826" style="fill:none;stroke:#000000;stroke-dasharray:1.000000,3.000000;stroke-dashoffset:0.0;stroke-width:0.5;"/>
     </g>
     <g id="line2d_19">
      <g>
       <use style="stroke:#000000;stroke-width:0.5;" x="1368.46568474" xlink:href="#mc7db9fdffb" y="753.719378746"/>
      </g>
     </g>
     <g id="line2d_20">
      <g>
       <use style="stroke:#000000;stroke-width:0.5;" x="1368.46568474" xlink:href="#m5a7d422ac3" y="83.6826018641"/>
      </g>
     </g>
     <g id="text_5">
      <!-- $8$ -->
      <defs>
       <path d="
M27.2031 35.375
C33.5 38.5625 39.9062 43.3281 39.9062 50.9844
C39.9062 60.0312 31.0938 65.2969 23 65.2969
C13.9062 65.2969 5.90625 58.7344 5.90625 49.6875
C5.90625 47.2031 6.5 42.9219 10.4062 39.1406
C11.4062 38.1562 15.5938 35.1719 18.2969 33.2812
C13.7969 30.9844 3.29688 25.5312 3.29688 14.5938
C3.29688 4.35938 13.0938 -2 22.7969 -2
C33.5 -2 42.5 5.65625 42.5 15.7969
C42.5 24.8438 36.4062 29.0312 32.4062 31.7031
z

M14.0938 44.125
C13.2969 44.625 9.29688 47.7031 9.29688 52.375
C9.29688 58.4375 15.5938 63 22.7969 63
C30.7031 63 36.5 57.4531 36.5 50.9844
C36.5 41.7344 26.0938 36.4688 25.5938 36.4688
C25.5 36.4688 25.4062 36.4688 24.5938 37.0781
z

M32.5 23.7344
C34 22.6406 38.7969 19.375 38.7969 13.2969
C38.7969 5.95312 31.4062 0.390625 23 0.390625
C13.9062 0.390625 7 6.84375 7 14.6875
C7 22.5469 13.0938 29.0938 20 32.1875
z
" id="CMR17-56"/>
      </defs>
      <g transform="translate(1359.32758931 787.288213632)scale(0.4 -0.4)">
       <use transform="scale(0.9962640099626402)" xlink:href="#CMR17-56"/>
      </g>
     </g>
    </g>
    <g id="xtick_6">
     <g id="line2d_21">
      <path clip-path="url(#p7fbd6cdb68)" d="
M1670.12 753.719
L1670.12 83.6826" style="fill:none;stroke:#000000;stroke-dasharray:1.000000,3.000000;stroke-dashoffset:0.0;stroke-width:0.5;"/>
     </g>
     <g id="line2d_22">
      <g>
       <use style="stroke:#000000;stroke-width:0.5;" x="1670.12380915" xlink:href="#mc7db9fdffb" y="753.719378746"/>
      </g>
     </g>
     <g id="line2d_23">
      <g>
       <use style="stroke:#000000;stroke-width:0.5;" x="1670.12380915" xlink:href="#m5a7d422ac3" y="83.6826018641"/>
      </g>
     </g>
     <g id="text_6">
      <!-- $10$ -->
      <defs>
       <path d="
M26.5938 63.3125
C26.5938 65.4062 26.5 65.5 25.0938 65.5
C21.2031 61.1875 15.2969 59.7969 9.70312 59.7969
C9.40625 59.7969 8.90625 59.7969 8.79688 59.5
C8.70312 59.2969 8.70312 59.0938 8.70312 57
C11.7969 57 17 57.5938 21 59.9844
L21 7.20312
C21 3.6875 20.7969 2.5 12.2031 2.5
L9.20312 2.5
L9.20312 0
C14 0 19 0 23.7969 0
C28.5938 0 33.5938 0 38.4062 0
L38.4062 2.5
L35.4062 2.5
C26.7969 2.5 26.5938 3.59375 26.5938 7.15625
z
" id="CMR17-49"/>
      </defs>
      <g transform="translate(1651.84761831 787.288213632)scale(0.4 -0.4)">
       <use transform="scale(0.9962640099626402)" xlink:href="#CMR17-49"/>
       <use transform="translate(45.69047711706103 0.0)scale(0.9962640099626402)" xlink:href="#CMR17-48"/>
      </g>
     </g>
    </g>
    <g id="text_7">
     <!-- Temps $t$ (s) -->
     <defs>
      <path d="
M5.40625 -12.2812
C11.4062 -8.57812 14.5938 -5.98438 18 -1.89062
C25.5938 6.98438 29.7031 18.5625 29.7031 30.6406
C29.7031 42.0156 26.0938 52.7031 19.4062 61.4844
C15.5938 66.375 12.2031 69.3594 5.40625 73.4531
L5.40625 69.7656
C15.4062 60.9844 19.4062 49.7969 19.4062 30.6406
C19.4062 11.375 15.4062 0.203125 5.40625 -8.57812
z
" id="Century_Schoolbook_L_Roman-41"/>
      <path d="
M63.2969 72
L3.40625 72
L1.90625 44.2656
L6.20312 44.2656
C6.90625 49.25 7.79688 53.0469 8.90625 56.2344
C11.5 63.5156 16.2969 67.3125 23.0938 67.3125
C26.4062 67.3125 27.7969 66.2031 27.7969 63.7188
L27.7969 12.2812
L27.7969 9.375
C27.7969 5.1875 26.9062 4.6875 18.7969 4.6875
L16.2031 4.6875
L16.2031 0
L50.5 0
L50.5 4.6875
L47.9062 4.6875
C39.9062 4.6875 39 5.1875 39 9.375
L39 12.2812
L39 63.7188
C39 66.2031 40.4062 67.3125 43.7031 67.3125
C49.7969 67.3125 54.7031 63.9062 57.2031 57.9219
C58.7031 54.25 59.7031 49.9531 60.5 44.2656
L64.7969 44.2656
z
" id="Century_Schoolbook_L_Roman-84"/>
      <path d="
M20.0938 46
L2.29688 46
L2.29688 41.2188
L6.40625 41.2188
C10.0938 41.2188 10.7031 40.5156 10.7031 36.2031
L10.7031 12.2969
L10.7031 8.40625
C10.7031 4.29688 9.59375 3.59375 3.20312 3.59375
L2.79688 3.59375
L2.79688 0
L28 0
L28 3.59375
L27.5938 3.59375
C21.2031 3.59375 20.0938 4.29688 20.0938 8.39062
L20.0938 12.2812
L20.0938 26.4531
C20.0938 35.3281 25 41.9219 31.5 41.9219
C34.0938 41.9219 36.9062 40.5156 38.0938 38.625
C39.5 36.7344 40.0938 33.8281 40.0938 29.7344
L40.0938 12.2812
L40.0938 8.28125
C40.0938 4.29688 39 3.59375 32.5 3.59375
L32.0938 3.59375
L32.0938 0
L57.4062 0
L57.4062 3.59375
L57 3.59375
C50.5938 3.59375 49.5 4.29688 49.5 8.28125
L49.5 12.2812
L49.5 25.5469
C49.5 35.5312 54 41.9219 61 41.9219
C64.2969 41.9219 67 40.0156 68.2969 36.9219
C69.2031 34.7344 69.5 32.5312 69.5 28.6406
L69.5 12.2812
L69.5 8.28125
C69.5 4.29688 68.4062 3.59375 61.9062 3.59375
L61.5 3.59375
L61.5 0
L86.7969 0
L86.7969 3.59375
L86.4062 3.59375
C80 3.59375 78.9062 4.29688 78.9062 8.39062
L78.9062 12.2812
L78.9062 30.6406
C78.9062 36.8281 78.2969 38.9219 75.7031 42.3125
C72.7969 46.0156 68.7031 48 63.9062 48
C57.4062 48 52.5938 44.9375 48.2969 38.1094
C46.5938 44.0469 41.2031 48 34.5 48
C28.5 48 24 45.1406 20.0938 38.9219
z
" id="Century_Schoolbook_L_Roman-109"/>
      <path d="
M27.9062 73.4531
C21.9062 69.7656 18.7031 67.1719 15.2969 63.1719
C7.70312 54.1875 3.59375 42.7188 3.59375 30.6406
C3.59375 19.2656 7.20312 8.57812 13.9062 -0.296875
C17.7031 -5.09375 21.0938 -8.07812 27.9062 -12.2812
L27.9062 -8.57812
C17.9062 0.203125 13.9062 11.4844 13.9062 30.6406
C13.9062 49.7969 17.9062 60.9844 27.9062 69.7656
z
" id="Century_Schoolbook_L_Roman-40"/>
      <path d="
M39 48
L35.5 48
L32.5938 44.4062
C29 47.2031 25.4062 48.3906 20.4062 48.3906
C11.5938 48.3906 5.79688 42.625 5.79688 33.9531
C5.79688 30.0781 7.09375 26.7812 9.29688 24.8125
C11.5938 22.7031 13.9062 21.7188 19.9062 20.3125
L25.2031 19.125
C33.0938 17.2344 35.9062 15.2344 35.9062 11.2656
C35.9062 6.57812 31.7969 3.29688 25.9062 3.29688
C17.5 3.29688 11.5 8.76562 9.09375 18.875
L5.09375 18.875
L5.09375 0
L8.59375 0
L12.0938 3.90625
C16.2031 0.59375 20.7969 -1 25.7969 -1
C35.5938 -1 42.0938 5.07812 42.0938 14.3438
C42.0938 18.7188 40.7031 22.0938 37.9062 24.3906
C35.5 26.4844 33.5 27.2812 27.4062 28.5625
L22.4062 29.6719
C16.9062 30.8594 16.9062 30.8594 15.0938 31.8594
C12.9062 32.8594 11.5938 34.9375 11.5938 37.1406
C11.5938 41.1094 15.4062 44 20.9062 44
C24.7031 44 27.7969 42.7031 30.5938 40.0156
C32.7969 37.8125 33.9062 35.8281 35.5 31.2344
L39 31.2344
z
" id="Century_Schoolbook_L_Roman-115"/>
      <path d="
M20.0938 46
L2.79688 46
L2.79688 41.2188
L6.40625 41.2188
C10.0938 41.2188 10.7031 40.5156 10.7031 36.2188
L10.7031 -7.75
L10.7031 -11.7188
C10.7031 -15.7188 9.59375 -16.4062 3.20312 -16.4062
L2.79688 -16.4062
L2.79688 -20
L28.7969 -20
L28.7969 -16.4062
L27.7031 -16.4062
C21.2031 -16.4062 20.0938 -15.7188 20.0938 -11.7344
L20.0938 -7.75
L20.0938 6.6875
C23.4062 0.90625 27.2031 -1.39062 33.2969 -1.39062
C44.9062 -1.39062 53.5 9.26562 53.5 23.5
C53.5 37.2656 44.9062 48 33.9062 48
C27.7031 48 23.5938 45.4375 20.0938 39.5156
z

M32.0938 42.6094
C39 42.6094 43 35.75 43 24.0938
C43 11.2656 38.9062 4 31.7969 4
C24.7031 4 20 11.375 20 22.8125
C20 35.1406 24.5 42.6094 32.0938 42.6094" id="Century_Schoolbook_L_Roman-112"/>
      <path d="
M46.5 23
C46.5938 37.8125 38.0938 48.2812 25.9062 48.2812
C13.0938 48.2812 3.5 37.25 3.5 22.3438
C3.5 8.4375 12.5938 -1 26.0938 -1
C35.5938 -1 42.4062 3.6875 46.5 13.1875
L43 15.0938
C38.9062 7.39062 34.7031 4.39062 28 4.39062
C22.9062 4.39062 19.2031 6.59375 16.5938 11
C14.7969 14 14 17.5 14.0938 23
z

M14.2031 27.2969
C14.2031 30.3438 14.5938 32.5 15.5938 35.25
C17.7031 41.1406 20.9062 44 25.7031 44
C31.7969 44 35.7969 38.7812 35.7969 30.9219
C35.7969 28.0781 34.9062 27.2969 31.7031 27.2969
z
" id="Century_Schoolbook_L_Roman-101"/>
      <path d="
M20.0938 40.0938
L29.2969 40.0938
C31.2031 40.0938 32.2031 40.0938 32.2031 41.8906
C32.2031 43 31.5938 43 29.5938 43
L20.7969 43
L24.5 57.6875
C24.9062 59.0781 24.9062 59.2812 24.9062 60
C24.9062 61.6094 23.5938 62.5 22.2969 62.5
C21.5 62.5 19.2031 62.2031 18.4062 58.9844
L14.5 43
L5.09375 43
C3.09375 43 2.20312 43 2.20312 41.0938
C2.20312 40.0938 2.90625 40.0938 4.79688 40.0938
L13.7031 40.0938
L7.09375 13.7656
C6.29688 10.2812 6 9.28125 6 7.98438
C6 3.29688 9.29688 -1 14.9062 -1
C25 -1 30.4062 13.5781 30.4062 14.2656
C30.4062 14.875 30 15.1719 29.4062 15.1719
C29.2031 15.1719 28.7969 15.1719 28.5938 14.7656
C28.5 14.6719 28.4062 14.5625 27.7031 12.9688
C25.5938 7.98438 21 1 15.2031 1
C12.2031 1 12 3.5 12 5.6875
C12 5.78125 12 7.6875 12.2969 8.875
z
" id="CMMI12-116"/>
     </defs>
     <g transform="translate(814.827358344 829.42852426)scale(0.4 -0.4)">
      <use transform="scale(0.9962640099626402)" xlink:href="#Century_Schoolbook_L_Roman-84"/>
      <use transform="translate(60.97130876400997 0.0)scale(0.9962640099626402)" xlink:href="#Century_Schoolbook_L_Roman-101"/>
      <use transform="translate(110.78450926214198 0.0)scale(0.9962640099626402)" xlink:href="#Century_Schoolbook_L_Roman-109"/>
      <use transform="translate(199.3514159548179 0.0)scale(0.9962640099626402)" xlink:href="#Century_Schoolbook_L_Roman-112"/>
      <use transform="translate(256.536903238831 0.0)scale(0.9962640099626402)" xlink:href="#Century_Schoolbook_L_Roman-115"/>
      <use transform="translate(330.35788340111304 0.0)scale(0.9962640099626402)" xlink:href="#CMMI12-116"/>
      <use transform="translate(393.27938322112396 0.0)scale(0.9962640099626402)" xlink:href="#Century_Schoolbook_L_Roman-40"/>
      <use transform="translate(426.45461295045925 0.0)scale(0.9962640099626402)" xlink:href="#Century_Schoolbook_L_Roman-115"/>
      <use transform="translate(472.5804235094957 0.0)scale(0.9962640099626402)" xlink:href="#Century_Schoolbook_L_Roman-41"/>
     </g>
    </g>
   </g>
   <g id="matplotlib.axis_2">
    <g id="ytick_1">
     <g id="line2d_24">
      <path clip-path="url(#p7fbd6cdb68)" d="
M161.833 753.719
L1670.12 753.719" style="fill:none;stroke:#000000;stroke-dasharray:1.000000,3.000000;stroke-dashoffset:0.0;stroke-width:0.5;"/>
     </g>
     <g id="line2d_25">
      <defs>
       <path d="
M0 0
L4 0" id="md7965d1ba0" style="stroke:#000000;stroke-width:0.5;"/>
      </defs>
      <g>
       <use style="stroke:#000000;stroke-width:0.5;" x="161.833187072" xlink:href="#md7965d1ba0" y="753.719378746"/>
      </g>
     </g>
     <g id="line2d_26">
      <defs>
       <path d="
M0 0
L-4 0" id="md9a1c1a7cd" style="stroke:#000000;stroke-width:0.5;"/>
      </defs>
      <g>
       <use style="stroke:#000000;stroke-width:0.5;" x="1670.12380915" xlink:href="#md9a1c1a7cd" y="753.719378746"/>
      </g>
     </g>
     <g id="text_8">
      <!-- $0.00$ -->
      <defs>
       <path d="
M18.4062 4.79688
C18.4062 7.6875 16 9.67188 13.5938 9.67188
C10.7031 9.67188 8.70312 7.28125 8.70312 4.89062
C8.70312 2 11.0938 0 13.5 0
C16.4062 0 18.4062 2.39062 18.4062 4.79688" id="CMMI12-58"/>
      </defs>
      <g transform="translate(92.1657436955 764.718058319)scale(0.4 -0.4)">
       <use transform="scale(0.9962640099626402)" xlink:href="#CMR17-48"/>
       <use transform="translate(45.69047711706103 0.0)scale(0.9962640099626402)" xlink:href="#CMMI12-58"/>
       <use transform="translate(72.78765420688046 0.0)scale(0.9962640099626402)" xlink:href="#CMR17-48"/>
       <use transform="translate(118.47813132394148 0.0)scale(0.9962640099626402)" xlink:href="#CMR17-48"/>
      </g>
     </g>
    </g>
    <g id="ytick_2">
     <g id="line2d_27">
      <path clip-path="url(#p7fbd6cdb68)" d="
M161.833 642.047
L1670.12 642.047" style="fill:none;stroke:#000000;stroke-dasharray:1.000000,3.000000;stroke-dashoffset:0.0;stroke-width:0.5;"/>
     </g>
     <g id="line2d_28">
      <g>
       <use style="stroke:#000000;stroke-width:0.5;" x="161.833187072" xlink:href="#md7965d1ba0" y="642.046582599"/>
      </g>
     </g>
     <g id="line2d_29">
      <g>
       <use style="stroke:#000000;stroke-width:0.5;" x="1670.12380915" xlink:href="#md9a1c1a7cd" y="642.046582599"/>
      </g>
     </g>
     <g id="text_9">
      <!-- $0.05$ -->
      <defs>
       <path d="
M11.4062 57.6875
C12.4062 57.2812 16.5 56 20.7031 56
C30 56 35.0938 61.0156 38 63.9219
C38 64.7344 38 65.25 37.4062 65.25
C37.2969 65.25 37.0938 65.25 36.2969 64.8281
C32.7969 63.3125 28.7031 62.0781 23.7031 62.0781
C20.7031 62.0781 16.2031 62.5 11.2969 64.7344
C10.2031 65.25 10 65.25 9.90625 65.25
C9.40625 65.25 9.29688 65.1406 9.29688 63.1562
L9.29688 34.2812
C9.29688 32.5 9.29688 32 10.2969 32
C10.7969 32 11 32.2031 11.5 32.9062
C14.7031 37.4844 19.0938 39.4062 24.0938 39.4062
C27.5938 39.4062 35.0938 37.2188 35.0938 20.1406
C35.0938 16.9531 35.0938 11.1719 32.0938 6.57812
C29.5938 2.48438 25.7031 0.390625 21.4062 0.390625
C14.7969 0.390625 8.09375 5 6.29688 12.7188
C6.70312 12.6094 7.5 12.4219 7.90625 12.4219
C9.20312 12.4219 11.7031 13.125 11.7031 16.2188
C11.7031 18.9062 9.79688 20 7.90625 20
C5.59375 20 4.09375 18.5938 4.09375 15.7969
C4.09375 7.09375 11 -2 21.5938 -2
C31.9062 -2 41.7031 6.875 41.7031 19.75
C41.7031 31.7188 33.9062 41 24.2031 41
C19.0938 41 14.7969 39.0938 11.4062 35.4531
z
" id="CMR17-53"/>
      </defs>
      <g transform="translate(92.1657436955 653.045262172)scale(0.4 -0.4)">
       <use transform="scale(0.9962640099626402)" xlink:href="#CMR17-48"/>
       <use transform="translate(45.69047711706103 0.0)scale(0.9962640099626402)" xlink:href="#CMMI12-58"/>
       <use transform="translate(72.78765420688046 0.0)scale(0.9962640099626402)" xlink:href="#CMR17-48"/>
       <use transform="translate(118.47813132394148 0.0)scale(0.9962640099626402)" xlink:href="#CMR17-53"/>
      </g>
     </g>
    </g>
    <g id="ytick_3">
     <g id="line2d_30">
      <path clip-path="url(#p7fbd6cdb68)" d="
M161.833 530.374
L1670.12 530.374" style="fill:none;stroke:#000000;stroke-dasharray:1.000000,3.000000;stroke-dashoffset:0.0;stroke-width:0.5;"/>
     </g>
     <g id="line2d_31">
      <g>
       <use style="stroke:#000000;stroke-width:0.5;" x="161.833187072" xlink:href="#md7965d1ba0" y="530.373786452"/>
      </g>
     </g>
     <g id="line2d_32">
      <g>
       <use style="stroke:#000000;stroke-width:0.5;" x="1670.12380915" xlink:href="#md9a1c1a7cd" y="530.373786452"/>
      </g>
     </g>
     <g id="text_10">
      <!-- $0.10$ -->
      <g transform="translate(92.1657436955 541.372466025)scale(0.4 -0.4)">
       <use transform="scale(0.9962640099626402)" xlink:href="#CMR17-48"/>
       <use transform="translate(45.69047711706103 0.0)scale(0.9962640099626402)" xlink:href="#CMMI12-58"/>
       <use transform="translate(72.78765420688046 0.0)scale(0.9962640099626402)" xlink:href="#CMR17-49"/>
       <use transform="translate(118.47813132394148 0.0)scale(0.9962640099626402)" xlink:href="#CMR17-48"/>
      </g>
     </g>
    </g>
    <g id="ytick_4">
     <g id="line2d_33">
      <path clip-path="url(#p7fbd6cdb68)" d="
M161.833 418.701
L1670.12 418.701" style="fill:none;stroke:#000000;stroke-dasharray:1.000000,3.000000;stroke-dashoffset:0.0;stroke-width:0.5;"/>
     </g>
     <g id="line2d_34">
      <g>
       <use style="stroke:#000000;stroke-width:0.5;" x="161.833187072" xlink:href="#md7965d1ba0" y="418.700990305"/>
      </g>
     </g>
     <g id="line2d_35">
      <g>
       <use style="stroke:#000000;stroke-width:0.5;" x="1670.12380915" xlink:href="#md9a1c1a7cd" y="418.700990305"/>
      </g>
     </g>
     <g id="text_11">
      <!-- $0.15$ -->
      <g transform="translate(92.1657436955 429.699669878)scale(0.4 -0.4)">
       <use transform="scale(0.9962640099626402)" xlink:href="#CMR17-48"/>
       <use transform="translate(45.69047711706103 0.0)scale(0.9962640099626402)" xlink:href="#CMMI12-58"/>
       <use transform="translate(72.78765420688046 0.0)scale(0.9962640099626402)" xlink:href="#CMR17-49"/>
       <use transform="translate(118.47813132394148 0.0)scale(0.9962640099626402)" xlink:href="#CMR17-53"/>
      </g>
     </g>
    </g>
    <g id="ytick_5">
     <g id="line2d_36">
      <path clip-path="url(#p7fbd6cdb68)" d="
M161.833 307.028
L1670.12 307.028" style="fill:none;stroke:#000000;stroke-dasharray:1.000000,3.000000;stroke-dashoffset:0.0;stroke-width:0.5;"/>
     </g>
     <g id="line2d_37">
      <g>
       <use style="stroke:#000000;stroke-width:0.5;" x="161.833187072" xlink:href="#md7965d1ba0" y="307.028194158"/>
      </g>
     </g>
     <g id="line2d_38">
      <g>
       <use style="stroke:#000000;stroke-width:0.5;" x="1670.12380915" xlink:href="#md9a1c1a7cd" y="307.028194158"/>
      </g>
     </g>
     <g id="text_12">
      <!-- $0.20$ -->
      <g transform="translate(92.1657436955 318.026873731)scale(0.4 -0.4)">
       <use transform="scale(0.9962640099626402)" xlink:href="#CMR17-48"/>
       <use transform="translate(45.69047711706103 0.0)scale(0.9962640099626402)" xlink:href="#CMMI12-58"/>
       <use transform="translate(72.78765420688046 0.0)scale(0.9962640099626402)" xlink:href="#CMR17-50"/>
       <use transform="translate(118.47813132394148 0.0)scale(0.9962640099626402)" xlink:href="#CMR17-48"/>
      </g>
     </g>
    </g>
    <g id="ytick_6">
     <g id="line2d_39">
      <path clip-path="url(#p7fbd6cdb68)" d="
M161.833 195.355
L1670.12 195.355" style="fill:none;stroke:#000000;stroke-dasharray:1.000000,3.000000;stroke-dashoffset:0.0;stroke-width:0.5;"/>
     </g>
     <g id="line2d_40">
      <g>
       <use style="stroke:#000000;stroke-width:0.5;" x="161.833187072" xlink:href="#md7965d1ba0" y="195.355398011"/>
      </g>
     </g>
     <g id="line2d_41">
      <g>
       <use style="stroke:#000000;stroke-width:0.5;" x="1670.12380915" xlink:href="#md9a1c1a7cd" y="195.355398011"/>
      </g>
     </g>
     <g id="text_13">
      <!-- $0.25$ -->
      <g transform="translate(92.1657436955 206.354077584)scale(0.4 -0.4)">
       <use transform="scale(0.9962640099626402)" xlink:href="#CMR17-48"/>
       <use transform="translate(45.69047711706103 0.0)scale(0.9962640099626402)" xlink:href="#CMMI12-58"/>
       <use transform="translate(72.78765420688046 0.0)scale(0.9962640099626402)" xlink:href="#CMR17-50"/>
       <use transform="translate(118.47813132394148 0.0)scale(0.9962640099626402)" xlink:href="#CMR17-53"/>
      </g>
     </g>
    </g>
    <g id="ytick_7">
     <g id="line2d_42">
      <path clip-path="url(#p7fbd6cdb68)" d="
M161.833 83.6826
L1670.12 83.6826" style="fill:none;stroke:#000000;stroke-dasharray:1.000000,3.000000;stroke-dashoffset:0.0;stroke-width:0.5;"/>
     </g>
     <g id="line2d_43">
      <g>
       <use style="stroke:#000000;stroke-width:0.5;" x="161.833187072" xlink:href="#md7965d1ba0" y="83.6826018641"/>
      </g>
     </g>
     <g id="line2d_44">
      <g>
       <use style="stroke:#000000;stroke-width:0.5;" x="1670.12380915" xlink:href="#md9a1c1a7cd" y="83.6826018641"/>
      </g>
     </g>
     <g id="text_14">
      <!-- $0.30$ -->
      <defs>
       <path d="
M22.0938 33.7031
C31 33.7031 34.9062 25.9688 34.9062 17.0312
C34.9062 5 28.5 0.390625 22.7031 0.390625
C17.4062 0.390625 8.79688 3.03125 6.09375 10.8281
C6.59375 10.625 7.09375 10.625 7.59375 10.625
C10 10.625 11.7969 12.2188 11.7969 14.8125
C11.7969 17.7031 9.59375 19 7.59375 19
C5.90625 19 3.29688 18.2031 3.29688 14.4688
C3.29688 5.23438 12.2969 -2 22.9062 -2
C34 -2 42.5 6.71875 42.5 16.9531
C42.5 26.6719 34.5 33.6875 25 34.7969
C32.5938 36.375 39.9062 43.0625 39.9062 52.0156
C39.9062 59.6875 32 65.2969 23 65.2969
C13.9062 65.2969 5.90625 59.8281 5.90625 52.0156
C5.90625 48.5938 8.5 48 9.79688 48
C11.9062 48 13.7031 49.2969 13.7031 51.8906
C13.7031 54.4688 11.9062 55.7656 9.79688 55.7656
C9.40625 55.7656 8.90625 55.7656 8.5 55.5625
C11.4062 61.8594 19.2969 63 22.7969 63
C26.2969 63 32.9062 61.3281 32.9062 51.875
C32.9062 49.1094 32.5 44.1875 29.0938 39.8438
C26.0938 36 22.7031 36 19.4062 35.5938
C18.9062 35.5938 16.5938 35.5938 16.2031 35.5938
C15.5 35.4844 15.0938 35.3906 15.0938 34.5938
C15.0938 33.8125 15.2031 33.7031 17.2031 33.7031
z
" id="CMR17-51"/>
      </defs>
      <g transform="translate(92.1657436955 94.6812814373)scale(0.4 -0.4)">
       <use transform="scale(0.9962640099626402)" xlink:href="#CMR17-48"/>
       <use transform="translate(45.69047711706103 0.0)scale(0.9962640099626402)" xlink:href="#CMMI12-58"/>
       <use transform="translate(72.78765420688046 0.0)scale(0.9962640099626402)" xlink:href="#CMR17-51"/>
       <use transform="translate(118.47813132394148 0.0)scale(0.9962640099626402)" xlink:href="#CMR17-48"/>
      </g>
     </g>
    </g>
    <g id="text_15">
     <!-- $\dot{U}_x$ ($\mu$ m.s$^{-1}$) -->
     <defs>
      <path d="
M16.5 61.0781
C16.5 63.4688 14.5938 65.1562 12.5 65.1562
C10.0938 65.1562 8.40625 63.2656 8.40625 61.0781
C8.40625 58.6875 10.2969 57 12.4062 57
C14.7969 57 16.5 58.8906 16.5 61.0781" id="CMR17-95"/>
      <path d="
M13.7031 11.4688
C10.2031 11.4688 7.40625 8.67188 7.40625 5.28125
C7.40625 1.78125 10.2031 -1 13.5938 -1
C17.0938 -1 19.9062 1.78125 19.9062 5.28125
C19.9062 8.67188 17.0938 11.4688 13.7031 11.4688" id="Century_Schoolbook_L_Roman-46"/>
      <path d="
M50.5938 23.0312
C47.0938 9.07812 35.5 0.890625 26.0938 0.890625
C18.9062 0.890625 14 5.67188 14 13.9219
C14 14.3125 14 17.2969 15.0938 21.6719
L24.9062 60.7344
C25.7969 64.1094 26 65.1094 33.0938 65.1094
C34.9062 65.1094 35.9062 65.1094 35.9062 66.9062
C35.9062 68 35 68 34.4062 68
C32.5938 68 30.5 68 28.5938 68
L16.7969 68
C14.9062 68 12.7969 68 10.9062 68
C10.2031 68 9 68 9 66.1094
C9 65.1094 9.70312 65.1094 11.5938 65.1094
C17.5938 65.1094 17.5938 64.3125 17.5938 63.2031
C17.5938 62.625 16.9062 59.7344 16.4062 58.0469
L7.70312 23.25
C7.40625 22.1562 6.79688 19.4688 6.79688 16.7969
C6.79688 5.84375 14.7031 -2 25.5938 -2
C35.7031 -2 46.9062 6 52 18.7031
C52.7031 20.3906 53.5938 23.9062 54.2031 26.5938
C55.2031 30.2031 57.2969 39 58 41.5938
L61.7969 56.6094
C63.0938 61.8125 63.9062 65.1094 72.7031 65.1094
C73.5 65.2031 73.9062 66 73.9062 66.9062
C73.9062 68 73 68 72.5938 68
C71.2031 68 69.4062 68 68 68
L63.2969 68
C57.0938 68 53.9062 68 53.7969 68
C53.2031 68 52 68 52 66.1094
C52 65.1094 52.7969 65.1094 53.5 65.1094
C59.5 65.1094 59.9062 62.8125 59.9062 61.0156
C59.9062 60.125 59.9062 59.8125 59.5 58.4219
z
" id="CMMI12-85"/>
      <path d="
M14.4062 2.20312
C16.9062 -0.09375 20.5938 -1 24 -1
C30.4062 -1 34.7969 3.29688 37.0938 6.39062
C38.0938 1.09375 42.2969 -1 45.7969 -1
C48.7969 -1 51.2031 0.796875 53 4.39062
C54.5938 7.78125 56 13.875 56 14.2656
C56 14.7656 55.5938 15.1719 55 15.1719
C54.0938 15.1719 54 14.6719 53.5938 13.1719
C52.0938 7.28125 50.2031 1 46.0938 1
C43.2031 1 43 3.59375 43 5.59375
C43 7.89062 43.9062 11.4688 44.5938 14.4688
L47.4062 25.25
C47.7969 27.1406 48.9062 31.625 49.4062 33.4219
C50 35.8281 51.0938 40.1094 51.0938 40.5156
C51.0938 42.0156 49.9062 43.0156 48.4062 43.0156
C47.5 43.0156 45.4062 42.6094 44.5938 39.6094
L37.5938 11.875
C37.0938 9.875 37.0938 9.67188 35.7969 8.07812
C34.5938 6.39062 30.7031 1 24.4062 1
C18.7969 1 17 5.09375 17 9.78125
C17 12.6719 17.9062 16.1719 18.2969 17.8594
L22.7969 35.8281
C23.2969 37.7188 24.0938 40.9062 24.0938 41.5156
C24.0938 43.1094 22.7969 44 21.5 44
C20.5938 44 18.4062 43.7031 17.5938 40.5156
L3.09375 -17.3125
C3 -17.8125 2.79688 -18.4062 2.79688 -19
C2.79688 -20.5 4 -21.5 5.5 -21.5
C8.40625 -21.5 9 -19.2031 9.70312 -16.3906
z
" id="CMMI12-22"/>
      <path d="
M65.9062 23
C67.5938 23 69.4062 23 69.4062 25
C69.4062 27 67.5938 27 65.9062 27
L11.7969 27
C10.0938 27 8.29688 27 8.29688 25
C8.29688 23 10.0938 23 11.7969 23
z
" id="CMSY10-0"/>
      <path d="
M47.4062 40.7188
C44.2031 40.1094 43 37.7188 43 35.8281
C43 33.4219 44.9062 32.625 46.2969 32.625
C49.2969 32.625 51.4062 35.2188 51.4062 37.9219
C51.4062 42.1094 46.5938 44 42.4062 44
C36.2969 44 32.9062 38.0156 32 36.125
C29.7031 44 23.5 44 21.7031 44
C11.5 44 6.09375 30.9375 6.09375 28.7344
C6.09375 28.3438 6.5 27.8438 7.20312 27.8438
C8 27.8438 8.20312 28.4375 8.40625 28.8438
C11.7969 39.9219 18.5 42.0156 21.4062 42.0156
C25.9062 42.0156 26.7969 37.8125 26.7969 35.4219
C26.7969 33.2344 26.2031 30.9375 25 26.1406
L21.5938 12.4688
C20.0938 6.48438 17.2031 1 11.9062 1
C11.4062 1 8.90625 1 6.79688 2.29688
C10.4062 3 11.2031 5.98438 11.2031 7.1875
C11.2031 9.1875 9.70312 10.375 7.79688 10.375
C5.40625 10.375 2.79688 8.28125 2.79688 5.09375
C2.79688 0.890625 7.5 -1 11.7969 -1
C16.5938 -1 20 2.79688 22.0938 6.89062
C23.7031 1 28.7031 -1 32.4062 -1
C42.5938 -1 48 12.0781 48 14.2656
C48 14.7656 47.5938 15.1719 47 15.1719
C46.0938 15.1719 46 14.6719 45.7031 13.875
C43 5.09375 37.2031 1 32.7031 1
C29.2031 1 27.2969 3.59375 27.2969 7.6875
C27.2969 9.875 27.7031 11.4688 29.2969 18.0625
L32.7969 31.625
C34.2969 37.625 37.7031 42.0156 42.2969 42.0156
C42.5 42.0156 45.2969 42.0156 47.4062 40.7188" id="CMMI12-120"/>
     </defs>
     <g transform="translate(79.5942679551 526.019135943)rotate(-90.0)scale(0.4 -0.4)">
      <use transform="translate(28.60358251284247 40.133647989959535)scale(0.9962640099626402)" xlink:href="#CMR17-95"/>
      <use transform="translate(0.0 14.943914544092467)scale(0.9962640099626402)" xlink:href="#CMMI12-85"/>
      <use transform="translate(66.25211912846358 0.0)scale(0.6973817666173724)" xlink:href="#CMMI12-120"/>
      <use transform="translate(133.24907998813046 14.943914544092467)scale(0.9962640099626402)" xlink:href="#Century_Schoolbook_L_Roman-40"/>
      <use transform="translate(166.42430971746577 14.943914544092467)scale(0.9962640099626402)" xlink:href="#CMMI12-22"/>
      <use transform="translate(252.8109007724938 14.943914544092467)scale(0.9962640099626402)" xlink:href="#Century_Schoolbook_L_Roman-109"/>
      <use transform="translate(341.3778074651697 14.943914544092467)scale(0.9962640099626402)" xlink:href="#Century_Schoolbook_L_Roman-46"/>
      <use transform="translate(369.07297706841536 14.943914544092467)scale(0.9962640099626402)" xlink:href="#Century_Schoolbook_L_Roman-115"/>
      <use transform="translate(415.1987876274518 51.097553485951124)scale(0.6973817666173724)" xlink:href="#CMSY10-0"/>
      <use transform="translate(469.43978087542814 51.097553485951124)scale(0.6973817666173724)" xlink:href="#CMR17-49"/>
      <use transform="translate(501.9210948445284 14.943914544092467)scale(0.9962640099626402)" xlink:href="#Century_Schoolbook_L_Roman-41"/>
     </g>
    </g>
   </g>
   <g id="text_16">
    <!-- Vitesse de perturbation du glacier en fonction du temps -->
    <defs>
     <path d="
M38 0
L55.4062 0
L55.4062 4.70312
L53.5938 4.70312
C48.2031 4.70312 47.4062 5.70312 47.4062 11.9688
L47.4062 73.7812
L27.7969 73.7812
L27.7969 69
L33.7031 69
C37.2969 69 38 68.2812 38 63.9219
L38 41
C34.2969 46.0938 30 48.3906 24.2031 48.3906
C12.9062 48.3906 4.29688 37.5469 4.29688 23.2031
C4.29688 9.0625 12.5938 -1 24.2031 -1
C30.5 -1 34.7969 1.67188 38 7.59375
z

M26.2031 43
C30.2969 43 34.2031 40.0312 36 35.4375
C37.2031 32.4531 37.9062 28.2812 37.9062 23.5156
C37.9062 11.9688 33.2969 4.39062 26.0938 4.39062
C19.0938 4.39062 14.7969 10.9688 14.7969 22.0156
C14.7969 27.8906 15.4062 32.3594 16.7031 35.7344
C18.4062 40.125 22.0938 43 26.2031 43" id="Century_Schoolbook_L_Roman-100"/>
     <path d="
M25.2031 48.2812
C13 48.2812 3.40625 37.4531 3.40625 23.5469
C3.40625 9.9375 13 -1 25 -1
C37 -1 46.5938 9.9375 46.5938 23.6406
C46.5938 37.25 37 48.2812 25.2031 48.2812
M25.2031 44
C32.2031 44 36.0938 36.7344 36.0938 23.6406
C36.0938 10.4531 32.2031 3.29688 25 3.29688
C17.7969 3.29688 13.9062 10.4531 13.9062 23.5469
C13.9062 37.0469 17.7031 44 25.2031 44" id="Century_Schoolbook_L_Roman-111"/>
     <path d="
M41.2031 0
L59.4062 0
L59.4062 4.70312
L56.9062 4.70312
C51.4062 4.70312 50.5938 5.59375 50.5938 11.9531
L50.5938 46.7812
L31.7969 46.7812
L31.7969 42
L36.9062 42
C40.5938 42 41.2031 41.2969 41.2031 36.9531
L41.2031 24.5625
C41.2031 18.8125 40.5938 15.4844 39.0938 12.1562
C37 7.71875 33 5.09375 28.0938 5.09375
C25 5.09375 22.4062 6.1875 21.0938 8.17188
C19.7969 10.0469 19.5938 11.0469 19.5938 16.5
L19.5938 46.7812
L2.09375 46.7812
L2.09375 42
L5.90625 42
C9.59375 42 10.2031 41.2969 10.2031 36.9531
L10.2031 15.2188
C10.2031 10.0781 10.5938 7.76562 12.0938 5.45312
C14.7969 1.3125 19.5938 -1 25.5938 -1
C32.2031 -1 36.7969 1.71875 41.2031 8.125
z
" id="Century_Schoolbook_L_Roman-117"/>
     <path d="
M39.2969 15.3125
L21 61.7969
C20.5 63.0156 20.2031 64.2188 20.2031 64.8125
C20.2031 66.6094 21.9062 67.3125 26.4062 67.3125
L30.4062 67.3125
L30.4062 72
L-0.796875 72
L-0.796875 67.3125
L1.20312 67.3125
C5.70312 67.3125 7 66.3125 8.90625 61.7031
L34.2031 -1.6875
L38.2031 -1.6875
L61.2031 57.5156
C64.2031 65.3125 66.4062 67.3125 72.0938 67.3125
L73.0938 67.3125
L73.0938 72
L46 72
L46 67.3125
L47.9062 67.3125
C53 67.3125 56 65.3125 56 62.0938
C56 60.7031 55.5 58.4062 54.7969 56.5156
z
" id="Century_Schoolbook_L_Roman-86"/>
     <path d="
M20.0938 46.2969
L20.0938 52.1406
C20.0938 57.2656 20.4062 60.6562 21.2031 62.7188
C22.7969 67.2344 26.2969 70 30.2969 70
C32.4062 70 33.7031 69.3906 33.7031 68.2656
C33.7031 67.9375 33.5938 67.75 33.0938 66.9219
C32.5 65.9062 32.2031 64.7656 32.2031 63.6406
C32.2031 60.5469 34.5938 58.2031 37.7031 58.2031
C41 58.2031 43.2969 60.7344 43.2969 64.4062
C43.2969 70.3281 38.2969 74 30.2031 74
C23.2969 74 18.2969 71.5312 14.7031 66.4375
C11.7031 62.1406 10.7031 57.7344 10.7031 49.4688
L10.7031 46.2969
L1.90625 46.2969
L1.90625 42
L10.7031 42
L10.7031 12.2344
L10.7031 8.25
C10.7031 4.29688 9.59375 3.59375 3.20312 3.59375
L2.79688 3.59375
L2.79688 0
L29.5 0
L29.5 3.59375
L27.7031 3.59375
C21.2031 3.59375 20.0938 4.29688 20.0938 8.25
L20.0938 12.2344
L20.0938 42
L31.0938 42
L31.0938 46.2969
z
" id="Century_Schoolbook_L_Roman-102"/>
     <path d="
M19.5938 7.59375
C14.0938 7.59375 13.7969 7.70312 12.5938 8.46875
C11.9062 8.90625 11.4062 10.1094 11.4062 11.2969
C11.4062 14.5781 14.0938 16 20.7969 16
C30.2969 16 31.7969 16.2031 35.0938 17.6875
C41.0938 20.3594 44.5 25.4844 44.5 31.9844
C44.5 35.9219 43.5938 38.3906 40.7969 41.6406
C42.5 43.4062 43.4062 44 44.2031 44
C44.7031 44 45 43.6875 45.2031 42.625
C45.5938 40.2656 47.2031 39 49.7031 39
C52.2031 39 54.2031 41.0938 54.2031 43.7812
C54.2031 47.1875 51.5 49.5781 47.5938 49.5781
C44.4062 49.5781 42.5938 48.5625 38 44.2969
C33.7969 47.0938 30.5938 48.0781 25.5938 48.0781
C13.7031 48.0781 5.90625 41.625 5.90625 31.8125
C5.90625 26.0312 9.09375 21.0312 14.2969 18.6875
C7.59375 17.1562 4.79688 14.0938 4.79688 8.46875
C4.79688 3.98438 6.79688 1.32812 11.5 -0.296875
C5.29688 -2.48438 2.29688 -5.67188 2.29688 -9.75
C2.29688 -16.3125 10 -20 23.4062 -20
C40.0938 -20 48.5 -14.7188 48.5 -4.25
C48.5 0.71875 46.2031 4.6875 42.5 6.1875
C39.9062 7.1875 36.7031 7.59375 29.7969 7.59375
z

M25.5 44
C31.7969 44 35.2969 39.6719 35.2969 32.0938
C35.2969 24.4219 31.5 19.7812 25.0938 19.7812
C18.9062 19.7812 15 24.4219 15 31.7969
C15 39.5625 18.7969 44 25.5 44
M24.5938 -1
C32.9062 -1 33.5 -1 35 -1.1875
C39 -1.59375 41.5 -3.78125 41.5 -6.95312
C41.5 -12.625 35 -15.9062 23.7969 -15.9062
C15.4062 -15.9062 10.5938 -13.4219 10.5938 -8.95312
C10.5938 -5.67188 12.4062 -3.46875 17.2031 -1
z
" id="Century_Schoolbook_L_Roman-103"/>
     <path d="
M20 46
L2.70312 46
L2.70312 41.2188
L6.29688 41.2188
C10 41.2188 10.5938 40.5156 10.5938 36.2031
L10.5938 12.2969
L10.5938 8.29688
C10.5938 4.29688 9.5 3.59375 3.09375 3.59375
L2.70312 3.59375
L2.70312 0
L28 0
L28 3.59375
L27.5938 3.59375
C21.0938 3.59375 20 4.29688 20 8.28125
L20 12.2812
L20 22.6562
C20 27.5469 20.7031 32.0312 21.7969 34.3281
C23.9062 38.8281 28.4062 41.9219 32.7031 41.9219
C35.2969 41.9219 38.2969 40.4219 39.7969 38.4219
C41.2969 36.3281 42 33.2344 42 28.4375
L42 12.2812
L42 8.28125
C42 4.29688 40.9062 3.59375 34.4062 3.59375
L34 3.59375
L34 0
L59.2969 0
L59.2969 3.59375
L58.9062 3.59375
C52.5 3.59375 51.4062 4.29688 51.4062 8.28125
L51.4062 12.2812
L51.4062 27.9531
C51.4062 35.125 51.0938 36.9219 49.2969 40.3281
C46.7969 45.1094 41.7031 48 35.7969 48
C29.4062 48 24.4062 45.0469 20 38.5156
z
" id="Century_Schoolbook_L_Roman-110"/>
     <path d="
M18 73
L0.796875 73
L0.796875 68.2188
L4.29688 68.2188
C8 68.2188 8.59375 67.5156 8.59375 63.25
L8.59375 24.625
C8.59375 11.3125 8.09375 4.84375 6.79688 -1
L10.5938 -1
L15.5 6.75
C19.5938 1.45312 24.2969 -1 30.5 -1
C42.7969 -1 52 9.59375 52 23.8281
C52 38.0781 43.5938 48.0781 31.5938 48.0781
C25.5 48.0781 21.7969 46 18 40.3281
z

M29.7969 43
C37.2969 43 41.5 35.7656 41.5 22.7969
C41.5 10.3125 37.4062 3.1875 30.0938 3.1875
C22.2031 3.1875 17.5 10.4062 17.5 22.5938
C17.5 35.7656 21.7969 43 29.7969 43" id="Century_Schoolbook_L_Roman-98"/>
     <path d="
M19.7969 46
L2.09375 46
L2.09375 41.2188
L6.20312 41.2188
C9.90625 41.2188 10.5 40.5156 10.5 36.2031
L10.5 12.2969
L10.5 8.29688
C10.5 4.29688 9.40625 3.59375 2.90625 3.59375
L2.5 3.59375
L2.5 0
L29.2031 0
L29.2031 3.59375
L27.2969 3.59375
C20.9062 3.59375 19.7969 4.29688 19.7969 8.29688
L19.7969 12.2969
L19.7969 13.2969
C19.7969 20.8125 21.2031 28.4062 23.7031 34.1094
C26.0938 39.7031 29.5 42.8125 33.7031 43.3125
C32.2969 41.7031 31.9062 40.6875 31.9062 38.7656
C31.9062 35.5469 34.2031 33.2344 37.4062 33.2344
C41 33.2344 43.5 35.9375 43.5 40.0156
C43.5 44.8125 40.0938 48 34.7969 48
C28.5 48 23 42.9219 19.7969 34.1406
z
" id="Century_Schoolbook_L_Roman-114"/>
     <path d="
M20.5938 46
L1.79688 46
L1.79688 41.2188
L6.90625 41.2188
C10.5938 41.2188 11.2031 40.5156 11.2031 36.2031
L11.2031 12.2969
L11.2031 8.29688
C11.2031 4.29688 10.0938 3.59375 3.70312 3.59375
L3 3.59375
L3 0
L28.9062 0
L28.9062 3.59375
L28.2031 3.59375
C21.7031 3.59375 20.5938 4.28125 20.5938 8.21875
L20.5938 12.1719
z

M15.9062 71.5781
C12.7031 71.5781 10.0938 68.9844 10.0938 65.7969
C10.0938 62.7031 12.7031 60 15.7969 60
C19.0938 60 21.7031 62.5938 21.7031 65.7969
C21.7031 68.9844 19.0938 71.5781 15.9062 71.5781" id="Century_Schoolbook_L_Roman-105"/>
     <path d="
M45.2031 32.5781
C45.2031 38.7969 44.0938 41.9688 41.2031 44.3438
C37.9062 46.9062 33 48.2812 26.5938 48.2812
C15.4062 48.2812 7.09375 43.0469 7.09375 35.9219
C7.09375 32.1562 9.40625 29.7812 12.9062 29.7812
C16 29.7812 18.2969 31.8594 18.2969 34.8125
C18.2969 36.1094 17.7969 37.4844 16.7969 38.875
C16.2031 39.5469 16.0938 39.8438 16.0938 40.1562
C16.0938 42.2188 20.2031 44 25 44
C28.0938 44 31.5938 43.0156 33.2031 41.5312
C35.0938 39.9531 35.7969 37.5781 35.7969 33.125
L35.7969 29.2812
C25.2969 27.4844 22.0938 26.6875 17.2031 24.8125
C8.59375 21.6094 4.40625 16.9375 4.40625 10.6562
C4.40625 3.57812 10.0938 -1 18.9062 -1
C25.7969 -1 32 1.85938 36.2969 7.0625
C37.9062 1.98438 40.4062 0 45.0938 0
C49.5938 0 54.2969 2.90625 54.2969 5.78125
C54.2969 6.46875 53.7969 6.96875 53.2969 6.96875
C52.9062 6.96875 52.5 6.875 51.7969 6.57812
C50.2031 6 49.7969 5.89062 49 5.89062
C46.2031 5.89062 45.2031 7.78125 45.2031 12.7188
z

M35.7969 20.4688
C35.7969 14.4688 35.5 13.0781 33.7969 10.4844
C31.2969 6.78125 26.7031 4.29688 22.4062 4.29688
C17.9062 4.29688 14.5 7.59375 14.5 12.0781
C14.5 16.2656 16.5938 19.2656 21 21.3594
C24.0938 22.75 28 23.75 35.7969 25.0469
z
" id="Century_Schoolbook_L_Roman-97"/>
     <path d="
M38.7031 15.1094
C35.5 7.96875 32.0938 5.09375 26.9062 5.09375
C18.9062 5.09375 13.9062 12.3281 13.9062 23.9375
C13.9062 35.9531 18.7969 44 26.2031 44
C29.2031 44 31.7969 42.5938 31.7969 41.0156
C31.7969 40.7188 31.5938 40.4219 31.2031 39.8125
C29.5938 37.9375 29.2031 36.9375 29.2031 35.2656
C29.2031 31.9844 31.7031 29.7031 35.2031 29.7031
C38.7031 29.7031 41.2969 32.4844 41.2969 36.4531
C41.2969 43.1094 34.5938 48.2812 25.7031 48.2812
C12.7031 48.2812 3.40625 37.6562 3.40625 22.8438
C3.40625 8.73438 11.9062 -1 24.2969 -1
C33.2031 -1 38.2969 3.07812 42.5938 13.625
z
" id="Century_Schoolbook_L_Roman-99"/>
     <path d="
M19.4062 47
L19.4062 67
L15.2969 67
C14.2969 53.875 9.90625 47.1875 1.79688 46.5938
L1.79688 42.7031
L10 42.7031
L10 17.2656
C10 10.2812 10.2031 7.78125 11.2031 5.48438
C12.7969 1.29688 16.7969 -1 22.5938 -1
C26.5 -1 29.9062 0.203125 32.2031 2.39062
C35.5 5.59375 37.4062 10.875 37.4062 16.375
C37.4062 16.9688 37.4062 17.6719 37.2969 18.6719
L33.0938 18.6719
C32.7969 9.6875 30.2031 5.09375 25.2969 5.09375
C23 5.09375 21 6.28125 20.2969 7.98438
C19.7031 9.375 19.4062 11.875 19.4062 15.4688
L19.4062 42.7031
L34.0938 42.7031
L34.0938 47
z
" id="Century_Schoolbook_L_Roman-116"/>
     <path d="
M20.4062 73
L1.90625 73
L1.90625 68.2188
L6.79688 68.2188
C10.4062 68.2188 11 67.5156 11 63.2188
L11 12.2812
L11 8.28125
C11 4.29688 9.90625 3.59375 3.5 3.59375
L2.79688 3.59375
L2.79688 0
L28.7031 0
L28.7031 3.59375
L28 3.59375
C21.5 3.59375 20.4062 4.29688 20.4062 8.25
L20.4062 12.2188
z
" id="Century_Schoolbook_L_Roman-108"/>
    </defs>
    <g transform="translate(303.139247536 78.6826018641)scale(0.48 -0.48)">
     <use transform="scale(0.9962640099626402)" xlink:href="#Century_Schoolbook_L_Roman-86"/>
     <use transform="translate(70.13740587056351 0.0)scale(0.9962640099626402)" xlink:href="#Century_Schoolbook_L_Roman-105"/>
     <use transform="translate(101.5187188667497 0.0)scale(0.9962640099626402)" xlink:href="#Century_Schoolbook_L_Roman-116"/>
     <use transform="translate(140.2724250612936 0.0)scale(0.9962640099626402)" xlink:href="#Century_Schoolbook_L_Roman-101"/>
     <use transform="translate(190.0856255594256 0.0)scale(0.9962640099626402)" xlink:href="#Century_Schoolbook_L_Roman-115"/>
     <use transform="translate(236.21143611846205 0.0)scale(0.9962640099626402)" xlink:href="#Century_Schoolbook_L_Roman-115"/>
     <use transform="translate(282.33724667749846 0.0)scale(0.9962640099626402)" xlink:href="#Century_Schoolbook_L_Roman-101"/>
     <use transform="translate(359.84561677887615 0.0)scale(0.9962640099626402)" xlink:href="#Century_Schoolbook_L_Roman-100"/>
     <use transform="translate(417.0311040628892 0.0)scale(0.9962640099626402)" xlink:href="#Century_Schoolbook_L_Roman-101"/>
     <use transform="translate(494.53947416426684 0.0)scale(0.9962640099626402)" xlink:href="#Century_Schoolbook_L_Roman-112"/>
     <use transform="translate(551.7249614482799 0.0)scale(0.9962640099626402)" xlink:href="#Century_Schoolbook_L_Roman-101"/>
     <use transform="translate(601.538161946412 0.0)scale(0.9962640099626402)" xlink:href="#Century_Schoolbook_L_Roman-114"/>
     <use transform="translate(645.7717306438745 0.0)scale(0.9962640099626402)" xlink:href="#Century_Schoolbook_L_Roman-116"/>
     <use transform="translate(684.5254368384185 0.0)scale(0.9962640099626402)" xlink:href="#Century_Schoolbook_L_Roman-117"/>
     <use transform="translate(745.3970675153721 0.0)scale(0.9962640099626402)" xlink:href="#Century_Schoolbook_L_Roman-114"/>
     <use transform="translate(789.6306362128347 0.0)scale(0.9962640099626402)" xlink:href="#Century_Schoolbook_L_Roman-98"/>
     <use transform="translate(845.0223131761753 0.0)scale(0.9962640099626402)" xlink:href="#Century_Schoolbook_L_Roman-97"/>
     <use transform="translate(900.4139901395159 0.0)scale(0.9962640099626402)" xlink:href="#Century_Schoolbook_L_Roman-116"/>
     <use transform="translate(939.1676963340599 0.0)scale(0.9962640099626402)" xlink:href="#Century_Schoolbook_L_Roman-105"/>
     <use transform="translate(970.549009330246 0.0)scale(0.9962640099626402)" xlink:href="#Century_Schoolbook_L_Roman-111"/>
     <use transform="translate(1020.362209828378 0.0)scale(0.9962640099626402)" xlink:href="#Century_Schoolbook_L_Roman-110"/>
     <use transform="translate(1108.9290101085774 0.0)scale(0.9962640099626402)" xlink:href="#Century_Schoolbook_L_Roman-100"/>
     <use transform="translate(1166.1144973925905 0.0)scale(0.9962640099626402)" xlink:href="#Century_Schoolbook_L_Roman-117"/>
     <use transform="translate(1254.6812976727897 0.0)scale(0.9962640099626402)" xlink:href="#Century_Schoolbook_L_Roman-103"/>
     <use transform="translate(1308.1806415638623 0.0)scale(0.9962640099626402)" xlink:href="#Century_Schoolbook_L_Roman-108"/>
     <use transform="translate(1339.5619545600484 0.0)scale(0.9962640099626402)" xlink:href="#Century_Schoolbook_L_Roman-97"/>
     <use transform="translate(1394.953631523389 0.0)scale(0.9962640099626402)" xlink:href="#Century_Schoolbook_L_Roman-99"/>
     <use transform="translate(1439.1872002208515 0.0)scale(0.9962640099626402)" xlink:href="#Century_Schoolbook_L_Roman-105"/>
     <use transform="translate(1470.568513217038 0.0)scale(0.9962640099626402)" xlink:href="#Century_Schoolbook_L_Roman-101"/>
     <use transform="translate(1520.3817137151698 0.0)scale(0.9962640099626402)" xlink:href="#Century_Schoolbook_L_Roman-114"/>
     <use transform="translate(1592.3104520158781 0.0)scale(0.9962640099626402)" xlink:href="#Century_Schoolbook_L_Roman-101"/>
     <use transform="translate(1642.12365251401 0.0)scale(0.9962640099626402)" xlink:href="#Century_Schoolbook_L_Roman-110"/>
     <use transform="translate(1730.6904527942095 0.0)scale(0.9962640099626402)" xlink:href="#Century_Schoolbook_L_Roman-102"/>
     <use transform="translate(1763.8656825235446 0.0)scale(0.9962640099626402)" xlink:href="#Century_Schoolbook_L_Roman-111"/>
     <use transform="translate(1813.6788830216767 0.0)scale(0.9962640099626402)" xlink:href="#Century_Schoolbook_L_Roman-110"/>
     <use transform="translate(1874.5505136986303 0.0)scale(0.9962640099626402)" xlink:href="#Century_Schoolbook_L_Roman-99"/>
     <use transform="translate(1918.784082396093 0.0)scale(0.9962640099626402)" xlink:href="#Century_Schoolbook_L_Roman-116"/>
     <use transform="translate(1957.5377885906369 0.0)scale(0.9962640099626402)" xlink:href="#Century_Schoolbook_L_Roman-105"/>
     <use transform="translate(1988.919101586823 0.0)scale(0.9962640099626402)" xlink:href="#Century_Schoolbook_L_Roman-111"/>
     <use transform="translate(2038.732302084955 0.0)scale(0.9962640099626402)" xlink:href="#Century_Schoolbook_L_Roman-110"/>
     <use transform="translate(2127.2991023651543 0.0)scale(0.9962640099626402)" xlink:href="#Century_Schoolbook_L_Roman-100"/>
     <use transform="translate(2184.4845896491674 0.0)scale(0.9962640099626402)" xlink:href="#Century_Schoolbook_L_Roman-117"/>
     <use transform="translate(2273.0513899293665 0.0)scale(0.9962640099626402)" xlink:href="#Century_Schoolbook_L_Roman-116"/>
     <use transform="translate(2311.8050961239105 0.0)scale(0.9962640099626402)" xlink:href="#Century_Schoolbook_L_Roman-101"/>
     <use transform="translate(2361.6182966220426 0.0)scale(0.9962640099626402)" xlink:href="#Century_Schoolbook_L_Roman-109"/>
     <use transform="translate(2450.1852033147184 0.0)scale(0.9962640099626402)" xlink:href="#Century_Schoolbook_L_Roman-112"/>
     <use transform="translate(2507.3706905987315 0.0)scale(0.9962640099626402)" xlink:href="#Century_Schoolbook_L_Roman-115"/>
    </g>
   </g>
   <g id="legend_1">
    <g id="patch_7">
     <path d="
M330.132 259.219
L1646.12 259.219
L1646.12 107.683
L330.132 107.683
z
" style="fill:#ffffff;stroke:#000000;stroke-linejoin:miter;"/>
    </g>
    <g id="line2d_45">
     <path d="
M363.732 145.565
L430.932 145.565" style="fill:none;stroke:#0000ff;stroke-linecap:square;"/>
    </g>
    <g id="line2d_46"/>
    <g id="text_17">
     <!-- L= 0 m -->
     <defs>
      <path d="
M64.5938 27.3281
L60.2031 27.3281
C59.2031 20.5469 56.7969 13.7656 54.2031 10.4844
C51.0938 6.59375 45.2969 4.6875 36.9062 4.6875
L32.7031 4.6875
C29.7031 4.6875 27.2031 5.29688 26.2969 6.1875
C25.5938 6.78125 25.5 7.39062 25.5 9.48438
L25.5 59.7188
L25.5 62.6094
C25.5 66.8125 26.4062 67.3125 34.5 67.3125
L36.2969 67.3125
L36.2969 72
L3.5 72
L3.5 67.3125
L5.29688 67.3125
C13.4062 67.3125 14.2969 66.8125 14.2969 62.6094
L14.2969 59.7188
L14.2969 12.2812
L14.2969 9.375
C14.2969 5.1875 13.4062 4.6875 5.29688 4.6875
L3.5 4.6875
L3.5 0
L62.5 0
z
" id="Century_Schoolbook_L_Roman-76"/>
      <path d="
M5.09375 11
L55.5 11
L55.5 18.9844
L5.09375 18.9844
z

M5.09375 31.0156
L55.5 31.0156
L55.5 39
L5.09375 39
z
" id="Century_Schoolbook_L_Roman-61"/>
      <path d="
M28.4062 71
C14.4062 71 4.20312 55.6875 4.20312 34.75
C4.20312 14.125 14.0938 -1 27.5938 -1
C41.5938 -1 51.4062 13.625 51.4062 34.4375
C51.4062 45.0625 49.2031 53.875 45 60.7812
C41.0938 67.0938 34.7031 71 28.4062 71
M27.7031 66.7031
C31 66.7031 34.2031 64.5 36.5938 60.5
C39.2969 55.875 40.2031 49.9688 40.2031 36.25
C40.2031 22.2188 39.5 15.625 37.5 11.2031
C35.2031 6.29688 31.5938 3.29688 27.7969 3.29688
C24.5 3.29688 21.2969 5.5 18.9062 9.5
C16.0938 14.2188 15.2969 20.5312 15.2969 36.8594
C15.2969 48.4844 16 54.375 18 58.6875
C20.2969 63.7969 23.9062 66.7031 27.7031 66.7031" id="Century_Schoolbook_L_Roman-48"/>
     </defs>
     <g transform="translate(483.732048884 162.365203728)scale(0.48 -0.48)">
      <use transform="scale(0.9962640099626402)" xlink:href="#Century_Schoolbook_L_Roman-76"/>
      <use transform="translate(66.45003113325032 0.0)scale(0.9962640099626402)" xlink:href="#Century_Schoolbook_L_Roman-61"/>
      <use transform="translate(154.51821295143213 0.0)scale(0.9962640099626402)" xlink:href="#Century_Schoolbook_L_Roman-48"/>
      <use transform="translate(237.60505951801838 0.0)scale(0.9962640099626402)" xlink:href="#Century_Schoolbook_L_Roman-109"/>
     </g>
    </g>
    <g id="line2d_47">
     <path d="
M363.732 214.134
L430.932 214.134" style="fill:none;stroke:#008000;stroke-linecap:square;"/>
    </g>
    <g id="line2d_48"/>
    <g id="text_18">
     <!-- L= 500 m -->
     <defs>
      <path d="
M16.4062 59.7031
C21.7969 58.4062 24.5938 58 28.5 58
C37 58 43.2031 61 46.5 66.5
C47.5938 68.4062 48 69.2969 48 70.0938
C48 70.7031 47.7031 71 47.2031 71
C46.9062 71 46.4062 70.8906 45.9062 70.5938
C41 68.4844 38.2969 67.9844 32.5938 67.9844
C26.2031 67.9844 22.5 68.4844 12 71
C11.5938 62.6406 10.7031 52 9.29688 39.6562
C7.20312 37.4688 6.5 36.1719 6.5 34.5781
C6.5 32.5938 7.79688 31.2031 9.70312 31.2031
C12.2031 31.2031 13.7969 33.3281 14.2031 37.3594
C17.7031 39.8906 21 41 25 41
C33.9062 41 39.2969 34.0312 39.2969 22.5
C39.2969 15.7344 37.5938 9.95312 34.5938 6.82812
C32.5938 4.70312 28.5 3.29688 24.4062 3.29688
C18.4062 3.29688 12.2031 6.4375 12.2031 9.5625
C12.2031 10.2812 12.7969 11.0781 14 11.7812
C17.0938 13.7188 18 15.0312 18 17.75
C18 21.2969 15.2969 24.0156 11.7031 24.0156
C7.70312 24.0156 4.5 20.2812 4.5 15.5469
C4.5 10.5 7.40625 5.45312 11.9062 2.32812
C15.2969 0.109375 19.4062 -1 24.5938 -1
C40.2969 -1 50.2031 8.28125 50.2031 23.1094
C50.2031 36.8281 41.0938 46 27.5938 46
C23.4062 46 20.2031 45.2969 14.7031 43
z
" id="Century_Schoolbook_L_Roman-53"/>
     </defs>
     <g transform="translate(483.732048884 230.933576481)scale(0.48 -0.48)">
      <use transform="scale(0.9962640099626402)" xlink:href="#Century_Schoolbook_L_Roman-76"/>
      <use transform="translate(66.45003113325032 0.0)scale(0.9962640099626402)" xlink:href="#Century_Schoolbook_L_Roman-61"/>
      <use transform="translate(154.51821295143213 0.0)scale(0.9962640099626402)" xlink:href="#Century_Schoolbook_L_Roman-53"/>
      <use transform="translate(209.90988991477275 0.0)scale(0.9962640099626402)" xlink:href="#Century_Schoolbook_L_Roman-48"/>
      <use transform="translate(265.30156687811336 0.0)scale(0.9962640099626402)" xlink:href="#Century_Schoolbook_L_Roman-48"/>
      <use transform="translate(348.3884134446996 0.0)scale(0.9962640099626402)" xlink:href="#Century_Schoolbook_L_Roman-109"/>
     </g>
    </g>
    <g id="line2d_49">
     <path d="
M803.871 145.565
L871.071 145.565" style="fill:none;stroke:#ff0000;stroke-linecap:square;"/>
    </g>
    <g id="line2d_50"/>
    <g id="text_19">
     <!-- L= 1000 m -->
     <defs>
      <path d="
M32.2031 70.5
C28.7969 66.2344 19.5938 63 10.4062 63
L10.4062 58.5938
L19.2031 58.5938
C25 58.5938 25.4062 58.2031 25.4062 52.3125
L25.4062 12.2812
L25.4062 9.375
C25.4062 5.1875 24.5 4.6875 16.5 4.6875
L10 4.6875
L10 0
L49.5938 0
L49.5938 4.6875
L44.0938 4.6875
C38.7969 4.6875 36.5938 5.09375 35.7969 6.09375
C35.0938 6.78125 35.0938 6.78125 35.0938 12.3125
L35.0938 53.6719
C35.0938 58.5781 35.2969 63.375 35.7969 70.5
z
" id="Century_Schoolbook_L_Roman-49"/>
     </defs>
     <g transform="translate(923.870629913 162.365203728)scale(0.48 -0.48)">
      <use transform="scale(0.9962640099626402)" xlink:href="#Century_Schoolbook_L_Roman-76"/>
      <use transform="translate(66.45003113325032 0.0)scale(0.9962640099626402)" xlink:href="#Century_Schoolbook_L_Roman-61"/>
      <use transform="translate(154.51821295143213 0.0)scale(0.9962640099626402)" xlink:href="#Century_Schoolbook_L_Roman-49"/>
      <use transform="translate(209.90988991477275 0.0)scale(0.9962640099626402)" xlink:href="#Century_Schoolbook_L_Roman-48"/>
      <use transform="translate(265.30156687811336 0.0)scale(0.9962640099626402)" xlink:href="#Century_Schoolbook_L_Roman-48"/>
      <use transform="translate(320.693243841454 0.0)scale(0.9962640099626402)" xlink:href="#Century_Schoolbook_L_Roman-48"/>
      <use transform="translate(403.7800904080402 0.0)scale(0.9962640099626402)" xlink:href="#Century_Schoolbook_L_Roman-109"/>
     </g>
    </g>
    <g id="line2d_51">
     <path d="
M803.871 214.134
L871.071 214.134" style="fill:none;stroke:#00bfbf;stroke-linecap:square;"/>
    </g>
    <g id="line2d_52"/>
    <g id="text_20">
     <!-- L= 1500 m -->
     <g transform="translate(923.870629913 230.933576481)scale(0.48 -0.48)">
      <use transform="scale(0.9962640099626402)" xlink:href="#Century_Schoolbook_L_Roman-76"/>
      <use transform="translate(66.45003113325032 0.0)scale(0.9962640099626402)" xlink:href="#Century_Schoolbook_L_Roman-61"/>
      <use transform="translate(154.51821295143213 0.0)scale(0.9962640099626402)" xlink:href="#Century_Schoolbook_L_Roman-49"/>
      <use transform="translate(209.90988991477275 0.0)scale(0.9962640099626402)" xlink:href="#Century_Schoolbook_L_Roman-53"/>
      <use transform="translate(265.30156687811336 0.0)scale(0.9962640099626402)" xlink:href="#Century_Schoolbook_L_Roman-48"/>
      <use transform="translate(320.693243841454 0.0)scale(0.9962640099626402)" xlink:href="#Century_Schoolbook_L_Roman-48"/>
      <use transform="translate(403.7800904080402 0.0)scale(0.9962640099626402)" xlink:href="#Century_Schoolbook_L_Roman-109"/>
     </g>
    </g>
    <g id="line2d_53">
     <path d="
M1270.6 145.565
L1337.8 145.565" style="fill:none;stroke:#bf00bf;stroke-linecap:square;"/>
    </g>
    <g id="line2d_54"/>
    <g id="text_21">
     <!-- L= 2000 m -->
     <defs>
      <path d="
M50.5 21.5625
L46.0938 21.5625
L45.0938 16.4688
C43.7969 10.0781 43 9.375 36.7969 9.375
L14.4062 9.375
C21.2969 16.5625 23.5938 18.6562 30 23.6562
C39.0938 30.6562 43 34.1562 45.2969 37.1406
C48.5 41.5312 50.0938 46.0312 50.0938 50.8125
C50.0938 62.1094 40.5938 70.2969 27.5938 70.2969
C14.9062 70.2969 5.09375 62.1094 5.09375 51.5156
C5.09375 45.2344 8.29688 40.9375 13.0938 40.9375
C16.7969 40.9375 19.2969 43.4375 19.2969 47.0312
C19.2969 49.5156 17.9062 51.8125 15.7031 52.7188
C12 54.3281 11.7969 54.4219 11.7969 55.7188
C11.7969 57.2188 12.7969 59.5156 14.2031 61.2188
C16.7031 64.2031 20.9062 66 25.5938 66
C33.7969 66 38.7969 60.9062 38.7969 52.5312
C38.7969 45.125 35.2969 38.4375 27 29.6562
L21.0938 23.4688
C17.5938 19.7812 15 16.9688 13.2969 15.0781
C9.70312 10.875 7.90625 8.57812 3.5 2.79688
L3.5 0
L48.5938 0
z
" id="Century_Schoolbook_L_Roman-50"/>
     </defs>
     <g transform="translate(1390.59721953 162.365203728)scale(0.48 -0.48)">
      <use transform="scale(0.9962640099626402)" xlink:href="#Century_Schoolbook_L_Roman-76"/>
      <use transform="translate(66.45003113325032 0.0)scale(0.9962640099626402)" xlink:href="#Century_Schoolbook_L_Roman-61"/>
      <use transform="translate(154.51821295143213 0.0)scale(0.9962640099626402)" xlink:href="#Century_Schoolbook_L_Roman-50"/>
      <use transform="translate(209.90988991477275 0.0)scale(0.9962640099626402)" xlink:href="#Century_Schoolbook_L_Roman-48"/>
      <use transform="translate(265.30156687811336 0.0)scale(0.9962640099626402)" xlink:href="#Century_Schoolbook_L_Roman-48"/>
      <use transform="translate(320.693243841454 0.0)scale(0.9962640099626402)" xlink:href="#Century_Schoolbook_L_Roman-48"/>
      <use transform="translate(403.7800904080402 0.0)scale(0.9962640099626402)" xlink:href="#Century_Schoolbook_L_Roman-109"/>
     </g>
    </g>
   </g>
  </g>
 </g>
 <defs>
  <clipPath id="p7fbd6cdb68">
   <rect height="670.036776882" width="1508.29062208" x="161.833187072" y="83.6826018641"/>
  </clipPath>
 </defs>
</svg>
